<?xml version="1.0" encoding="UTF-8" standalone="no"?><svg xmlns="http://www.w3.org/2000/svg" xmlns:xlink="http://www.w3.org/1999/xlink" contentStyleType="text/css" height="1677px" preserveAspectRatio="none" style="width:3058px;height:1677px;background:#FFFFFF;" version="1.1" viewBox="0 0 3058 1677" width="3058px" zoomAndPan="magnify"><defs/><g><rect fill="#FFFFFF" height="100.3984" style="stroke:#181818;stroke-width:1.0;" width="10" x="328.5" y="120.6953"/><rect fill="#FFFFFF" height="1403.4453" style="stroke:#181818;stroke-width:1.0;" width="10" x="443.5" y="221.0938"/><rect fill="#FFFFFF" height="1317.0469" style="stroke:#181818;stroke-width:1.0;" width="10" x="555.5" y="286.3594"/><rect fill="#FFFFFF" height="1258.7813" style="stroke:#181818;stroke-width:1.0;" width="10" x="843.5" y="344.625"/><rect fill="#FFFFFF" height="204.7969" style="stroke:#181818;stroke-width:1.0;" width="10" x="1101.5" y="520.2891"/><rect fill="#FFFFFF" height="204.7969" style="stroke:#181818;stroke-width:1.0;" width="10" x="1245.5" y="783.3516"/><rect fill="#FFFFFF" height="59.1328" style="stroke:#181818;stroke-width:1.0;" width="10" x="1401" y="373.7578"/><rect fill="#FFFFFF" height="59.1328" style="stroke:#181818;stroke-width:1.0;" width="10" x="1401" y="549.4219"/><rect fill="#FFFFFF" height="59.1328" style="stroke:#181818;stroke-width:1.0;" width="10" x="1401" y="812.4844"/><rect fill="#FFFFFF" height="59.1328" style="stroke:#181818;stroke-width:1.0;" width="10" x="1568" y="402.8906"/><rect fill="#FFFFFF" height="59.1328" style="stroke:#181818;stroke-width:1.0;" width="10" x="1568" y="578.5547"/><rect fill="#FFFFFF" height="59.1328" style="stroke:#181818;stroke-width:1.0;" width="10" x="1568" y="841.6172"/><rect fill="#FFFFFF" height="30" style="stroke:#181818;stroke-width:1.0;" width="10" x="1745.5" y="1312.875"/><rect fill="#FFFFFF" height="29.1328" style="stroke:#181818;stroke-width:1.0;" width="10" x="1916.5" y="666.8203"/><rect fill="#FFFFFF" height="30" style="stroke:#181818;stroke-width:1.0;" width="10" x="1916.5" y="1490.2734"/><rect fill="#FFFFFF" height="29.1328" style="stroke:#181818;stroke-width:1.0;" width="10" x="2060.5" y="929.8828"/><rect fill="#FFFFFF" height="30" style="stroke:#181818;stroke-width:1.0;" width="10" x="2060.5" y="1549.4063"/><rect fill="#FFFFFF" height="123.6641" style="stroke:#181818;stroke-width:1.0;" width="10" x="2214" y="1160.0781"/><rect fill="#FFFFFF" height="47.2656" style="stroke:#181818;stroke-width:1.0;" width="10" x="2481" y="1207.3438"/><rect fill="#FFFFFF" height="30" style="stroke:#181818;stroke-width:1.0;" width="10" x="2573" y="1372.0078"/><rect fill="#FFFFFF" height="30" style="stroke:#181818;stroke-width:1.0;" width="10" x="2638" y="1431.1406"/><rect height="146.6641" style="stroke:#000000;stroke-width:1.5;fill:none;" width="498" x="10" y="82.4297"/><rect height="593.2578" style="stroke:#000000;stroke-width:1.5;fill:none;" width="2272" x="779" y="1003.1484"/><rect height="560.125" style="stroke:#000000;stroke-width:1.5;fill:none;" width="1962" x="789" y="1027.2813"/><line style="stroke:#181818;stroke-width:0.5;fill:none;stroke-dasharray:5.0,5.0;" x1="84" x2="84" y1="36.2969" y2="1642.5391"/><line style="stroke:#181818;stroke-width:0.5;fill:none;stroke-dasharray:5.0,5.0;" x1="213" x2="213" y1="36.2969" y2="1642.5391"/><line style="stroke:#181818;stroke-width:0.5;fill:none;stroke-dasharray:5.0,5.0;" x1="333" x2="333" y1="36.2969" y2="1642.5391"/><line style="stroke:#181818;stroke-width:0.5;fill:none;stroke-dasharray:5.0,5.0;" x1="448" x2="448" y1="36.2969" y2="1642.5391"/><line style="stroke:#181818;stroke-width:0.5;fill:none;stroke-dasharray:5.0,5.0;" x1="560" x2="560" y1="36.2969" y2="1642.5391"/><line style="stroke:#181818;stroke-width:0.5;fill:none;stroke-dasharray:5.0,5.0;" x1="706" x2="706" y1="36.2969" y2="1642.5391"/><line style="stroke:#181818;stroke-width:0.5;fill:none;stroke-dasharray:5.0,5.0;" x1="848" x2="848" y1="36.2969" y2="1642.5391"/><line style="stroke:#181818;stroke-width:0.5;fill:none;stroke-dasharray:5.0,5.0;" x1="1106" x2="1106" y1="36.2969" y2="1642.5391"/><line style="stroke:#181818;stroke-width:0.5;fill:none;stroke-dasharray:5.0,5.0;" x1="1250" x2="1250" y1="36.2969" y2="1642.5391"/><line style="stroke:#181818;stroke-width:0.5;fill:none;stroke-dasharray:5.0,5.0;" x1="1406" x2="1406" y1="36.2969" y2="1642.5391"/><line style="stroke:#181818;stroke-width:0.5;fill:none;stroke-dasharray:5.0,5.0;" x1="1573" x2="1573" y1="36.2969" y2="1642.5391"/><line style="stroke:#181818;stroke-width:0.5;fill:none;stroke-dasharray:5.0,5.0;" x1="1750" x2="1750" y1="36.2969" y2="1642.5391"/><line style="stroke:#181818;stroke-width:0.5;fill:none;stroke-dasharray:5.0,5.0;" x1="1921" x2="1921" y1="36.2969" y2="1642.5391"/><line style="stroke:#181818;stroke-width:0.5;fill:none;stroke-dasharray:5.0,5.0;" x1="2065" x2="2065" y1="36.2969" y2="1642.5391"/><line style="stroke:#181818;stroke-width:0.5;fill:none;stroke-dasharray:5.0,5.0;" x1="2219" x2="2219" y1="36.2969" y2="1642.5391"/><line style="stroke:#181818;stroke-width:0.5;fill:none;stroke-dasharray:5.0,5.0;" x1="2486" x2="2486" y1="36.2969" y2="1642.5391"/><line style="stroke:#181818;stroke-width:0.5;fill:none;stroke-dasharray:5.0,5.0;" x1="2578" x2="2578" y1="36.2969" y2="1642.5391"/><line style="stroke:#181818;stroke-width:0.5;fill:none;stroke-dasharray:5.0,5.0;" x1="2643" x2="2643" y1="36.2969" y2="1642.5391"/><rect fill="#E2E2F0" height="30.2969" rx="2.5" ry="2.5" style="stroke:#181818;stroke-width:0.5;" width="128" x="20" y="5"/><text fill="#000000" font-family="sans-serif" font-size="14" lengthAdjust="spacing" textLength="114" x="27" y="24.9951">:BackOfficeApp</text><rect fill="#E2E2F0" height="30.2969" rx="2.5" ry="2.5" style="stroke:#181818;stroke-width:0.5;" width="128" x="20" y="1641.5391"/><text fill="#000000" font-family="sans-serif" font-size="14" lengthAdjust="spacing" textLength="114" x="27" y="1661.5342">:BackOfficeApp</text><rect fill="#E2E2F0" height="30.2969" rx="2.5" ry="2.5" style="stroke:#181818;stroke-width:0.5;" width="110" x="158" y="5"/><text fill="#000000" font-family="sans-serif" font-size="14" lengthAdjust="spacing" textLength="96" x="165" y="24.9951">:AGVDaemon</text><rect fill="#E2E2F0" height="30.2969" rx="2.5" ry="2.5" style="stroke:#181818;stroke-width:0.5;" width="110" x="158" y="1641.5391"/><text fill="#000000" font-family="sans-serif" font-size="14" lengthAdjust="spacing" textLength="96" x="165" y="1661.5342">:AGVDaemon</text><rect fill="#E2E2F0" height="30.2969" rx="2.5" ry="2.5" style="stroke:#181818;stroke-width:0.5;" width="111" x="278" y="5"/><text fill="#000000" font-family="sans-serif" font-size="14" lengthAdjust="spacing" textLength="97" x="285" y="24.9951">:AGVManager</text><rect fill="#E2E2F0" height="30.2969" rx="2.5" ry="2.5" style="stroke:#181818;stroke-width:0.5;" width="111" x="278" y="1641.5391"/><text fill="#000000" font-family="sans-serif" font-size="14" lengthAdjust="spacing" textLength="97" x="285" y="1661.5342">:AGVManager</text><rect fill="#E2E2F0" height="30.2969" rx="2.5" ry="2.5" style="stroke:#181818;stroke-width:0.5;" width="99" x="399" y="5"/><text fill="#000000" font-family="sans-serif" font-size="14" lengthAdjust="spacing" textLength="85" x="406" y="24.9951">:HandleAGV</text><rect fill="#E2E2F0" height="30.2969" rx="2.5" ry="2.5" style="stroke:#181818;stroke-width:0.5;" width="99" x="399" y="1641.5391"/><text fill="#000000" font-family="sans-serif" font-size="14" lengthAdjust="spacing" textLength="85" x="406" y="1661.5342">:HandleAGV</text><rect fill="#E2E2F0" height="30.2969" rx="2.5" ry="2.5" style="stroke:#181818;stroke-width:0.5;" width="105" x="508" y="5"/><text fill="#000000" font-family="sans-serif" font-size="14" lengthAdjust="spacing" textLength="91" x="515" y="24.9951">:FifoRequest</text><rect fill="#E2E2F0" height="30.2969" rx="2.5" ry="2.5" style="stroke:#181818;stroke-width:0.5;" width="105" x="508" y="1641.5391"/><text fill="#000000" font-family="sans-serif" font-size="14" lengthAdjust="spacing" textLength="91" x="515" y="1661.5342">:FifoRequest</text><rect fill="#E2E2F0" height="30.2969" rx="2.5" ry="2.5" style="stroke:#181818;stroke-width:0.5;" width="166" x="623" y="5"/><text fill="#000000" font-family="sans-serif" font-size="14" lengthAdjust="spacing" textLength="152" x="630" y="24.9951">:FifoProtocolRequest</text><rect fill="#E2E2F0" height="30.2969" rx="2.5" ry="2.5" style="stroke:#181818;stroke-width:0.5;" width="166" x="623" y="1641.5391"/><text fill="#000000" font-family="sans-serif" font-size="14" lengthAdjust="spacing" textLength="152" x="630" y="1661.5342">:FifoProtocolRequest</text><rect fill="#E2E2F0" height="30.2969" rx="2.5" ry="2.5" style="stroke:#181818;stroke-width:0.5;" width="99" x="799" y="5"/><text fill="#000000" font-family="sans-serif" font-size="14" lengthAdjust="spacing" textLength="85" x="806" y="24.9951">:FifoService</text><rect fill="#E2E2F0" height="30.2969" rx="2.5" ry="2.5" style="stroke:#181818;stroke-width:0.5;" width="99" x="799" y="1641.5391"/><text fill="#000000" font-family="sans-serif" font-size="14" lengthAdjust="spacing" textLength="85" x="806" y="1661.5342">:FifoService</text><rect fill="#E2E2F0" height="30.2969" rx="2.5" ry="2.5" style="stroke:#181818;stroke-width:0.5;" width="139" x="1037" y="5"/><text fill="#000000" font-family="sans-serif" font-size="14" lengthAdjust="spacing" textLength="125" x="1044" y="24.9951">:OrderListService</text><rect fill="#E2E2F0" height="30.2969" rx="2.5" ry="2.5" style="stroke:#181818;stroke-width:0.5;" width="139" x="1037" y="1641.5391"/><text fill="#000000" font-family="sans-serif" font-size="14" lengthAdjust="spacing" textLength="125" x="1044" y="1661.5342">:OrderListService</text><rect fill="#E2E2F0" height="30.2969" rx="2.5" ry="2.5" style="stroke:#181818;stroke-width:0.5;" width="129" x="1186" y="5"/><text fill="#000000" font-family="sans-serif" font-size="14" lengthAdjust="spacing" textLength="115" x="1193" y="24.9951">:AGVListService</text><rect fill="#E2E2F0" height="30.2969" rx="2.5" ry="2.5" style="stroke:#181818;stroke-width:0.5;" width="129" x="1186" y="1641.5391"/><text fill="#000000" font-family="sans-serif" font-size="14" lengthAdjust="spacing" textLength="115" x="1193" y="1661.5342">:AGVListService</text><rect fill="#E2E2F0" height="30.2969" rx="2.5" ry="2.5" style="stroke:#181818;stroke-width:0.5;" width="162" x="1325" y="5"/><text fill="#000000" font-family="sans-serif" font-size="14" lengthAdjust="spacing" textLength="148" x="1332" y="24.9951">:PersistenceContext</text><rect fill="#E2E2F0" height="30.2969" rx="2.5" ry="2.5" style="stroke:#181818;stroke-width:0.5;" width="162" x="1325" y="1641.5391"/><text fill="#000000" font-family="sans-serif" font-size="14" lengthAdjust="spacing" textLength="148" x="1332" y="1661.5342">:PersistenceContext</text><rect fill="#E2E2F0" height="30.2969" rx="2.5" ry="2.5" style="stroke:#181818;stroke-width:0.5;" width="152" x="1497" y="5"/><text fill="#000000" font-family="sans-serif" font-size="14" lengthAdjust="spacing" textLength="138" x="1504" y="24.9951">:RepositoryFactory</text><rect fill="#E2E2F0" height="30.2969" rx="2.5" ry="2.5" style="stroke:#181818;stroke-width:0.5;" width="152" x="1497" y="1641.5391"/><text fill="#000000" font-family="sans-serif" font-size="14" lengthAdjust="spacing" textLength="138" x="1504" y="1661.5342">:RepositoryFactory</text><rect fill="#E2E2F0" height="30.2969" rx="2.5" ry="2.5" style="stroke:#181818;stroke-width:0.5;" width="183" x="1659" y="5"/><text fill="#000000" font-family="sans-serif" font-size="14" lengthAdjust="spacing" textLength="169" x="1666" y="24.9951">:AssignmentRepository</text><rect fill="#E2E2F0" height="30.2969" rx="2.5" ry="2.5" style="stroke:#181818;stroke-width:0.5;" width="183" x="1659" y="1641.5391"/><text fill="#000000" font-family="sans-serif" font-size="14" lengthAdjust="spacing" textLength="169" x="1666" y="1661.5342">:AssignmentRepository</text><rect fill="#E2E2F0" height="30.2969" rx="2.5" ry="2.5" style="stroke:#181818;stroke-width:0.5;" width="139" x="1852" y="5"/><text fill="#000000" font-family="sans-serif" font-size="14" lengthAdjust="spacing" textLength="125" x="1859" y="24.9951">:OrderRepository</text><rect fill="#E2E2F0" height="30.2969" rx="2.5" ry="2.5" style="stroke:#181818;stroke-width:0.5;" width="139" x="1852" y="1641.5391"/><text fill="#000000" font-family="sans-serif" font-size="14" lengthAdjust="spacing" textLength="125" x="1859" y="1661.5342">:OrderRepository</text><rect fill="#E2E2F0" height="30.2969" rx="2.5" ry="2.5" style="stroke:#181818;stroke-width:0.5;" width="129" x="2001" y="5"/><text fill="#000000" font-family="sans-serif" font-size="14" lengthAdjust="spacing" textLength="115" x="2008" y="24.9951">:AGVRepository</text><rect fill="#E2E2F0" height="30.2969" rx="2.5" ry="2.5" style="stroke:#181818;stroke-width:0.5;" width="129" x="2001" y="1641.5391"/><text fill="#000000" font-family="sans-serif" font-size="14" lengthAdjust="spacing" textLength="115" x="2008" y="1661.5342">:AGVRepository</text><rect fill="#E2E2F0" height="30.2969" rx="2.5" ry="2.5" style="stroke:#181818;stroke-width:0.5;" width="158" x="2140" y="5"/><text fill="#000000" font-family="sans-serif" font-size="14" lengthAdjust="spacing" textLength="144" x="2147" y="24.9951">:AssignmentFactory</text><rect fill="#E2E2F0" height="30.2969" rx="2.5" ry="2.5" style="stroke:#181818;stroke-width:0.5;" width="158" x="2140" y="1641.5391"/><text fill="#000000" font-family="sans-serif" font-size="14" lengthAdjust="spacing" textLength="144" x="2147" y="1661.5342">:AssignmentFactory</text><rect fill="#E2E2F0" height="30.2969" rx="2.5" ry="2.5" style="stroke:#181818;stroke-width:0.5;" width="104" x="2434" y="5"/><text fill="#000000" font-family="sans-serif" font-size="14" lengthAdjust="spacing" textLength="90" x="2441" y="24.9951">:Assignment</text><rect fill="#E2E2F0" height="30.2969" rx="2.5" ry="2.5" style="stroke:#181818;stroke-width:0.5;" width="104" x="2434" y="1641.5391"/><text fill="#000000" font-family="sans-serif" font-size="14" lengthAdjust="spacing" textLength="90" x="2441" y="1661.5342">:Assignment</text><rect fill="#E2E2F0" height="30.2969" rx="2.5" ry="2.5" style="stroke:#181818;stroke-width:0.5;" width="60" x="2548" y="5"/><text fill="#000000" font-family="sans-serif" font-size="14" lengthAdjust="spacing" textLength="46" x="2555" y="24.9951">:Ordre</text><rect fill="#E2E2F0" height="30.2969" rx="2.5" ry="2.5" style="stroke:#181818;stroke-width:0.5;" width="60" x="2548" y="1641.5391"/><text fill="#000000" font-family="sans-serif" font-size="14" lengthAdjust="spacing" textLength="46" x="2555" y="1661.5342">:Ordre</text><rect fill="#E2E2F0" height="30.2969" rx="2.5" ry="2.5" style="stroke:#181818;stroke-width:0.5;" width="50" x="2618" y="5"/><text fill="#000000" font-family="sans-serif" font-size="14" lengthAdjust="spacing" textLength="36" x="2625" y="24.9951">:AGV</text><rect fill="#E2E2F0" height="30.2969" rx="2.5" ry="2.5" style="stroke:#181818;stroke-width:0.5;" width="50" x="2618" y="1641.5391"/><text fill="#000000" font-family="sans-serif" font-size="14" lengthAdjust="spacing" textLength="36" x="2625" y="1661.5342">:AGV</text><rect fill="#FFFFFF" height="100.3984" style="stroke:#181818;stroke-width:1.0;" width="10" x="328.5" y="120.6953"/><rect fill="#FFFFFF" height="1403.4453" style="stroke:#181818;stroke-width:1.0;" width="10" x="443.5" y="221.0938"/><rect fill="#FFFFFF" height="1317.0469" style="stroke:#181818;stroke-width:1.0;" width="10" x="555.5" y="286.3594"/><rect fill="#FFFFFF" height="1258.7813" style="stroke:#181818;stroke-width:1.0;" width="10" x="843.5" y="344.625"/><rect fill="#FFFFFF" height="204.7969" style="stroke:#181818;stroke-width:1.0;" width="10" x="1101.5" y="520.2891"/><rect fill="#FFFFFF" height="204.7969" style="stroke:#181818;stroke-width:1.0;" width="10" x="1245.5" y="783.3516"/><rect fill="#FFFFFF" height="59.1328" style="stroke:#181818;stroke-width:1.0;" width="10" x="1401" y="373.7578"/><rect fill="#FFFFFF" height="59.1328" style="stroke:#181818;stroke-width:1.0;" width="10" x="1401" y="549.4219"/><rect fill="#FFFFFF" height="59.1328" style="stroke:#181818;stroke-width:1.0;" width="10" x="1401" y="812.4844"/><rect fill="#FFFFFF" height="59.1328" style="stroke:#181818;stroke-width:1.0;" width="10" x="1568" y="402.8906"/><rect fill="#FFFFFF" height="59.1328" style="stroke:#181818;stroke-width:1.0;" width="10" x="1568" y="578.5547"/><rect fill="#FFFFFF" height="59.1328" style="stroke:#181818;stroke-width:1.0;" width="10" x="1568" y="841.6172"/><rect fill="#FFFFFF" height="30" style="stroke:#181818;stroke-width:1.0;" width="10" x="1745.5" y="1312.875"/><rect fill="#FFFFFF" height="29.1328" style="stroke:#181818;stroke-width:1.0;" width="10" x="1916.5" y="666.8203"/><rect fill="#FFFFFF" height="30" style="stroke:#181818;stroke-width:1.0;" width="10" x="1916.5" y="1490.2734"/><rect fill="#FFFFFF" height="29.1328" style="stroke:#181818;stroke-width:1.0;" width="10" x="2060.5" y="929.8828"/><rect fill="#FFFFFF" height="30" style="stroke:#181818;stroke-width:1.0;" width="10" x="2060.5" y="1549.4063"/><rect fill="#FFFFFF" height="123.6641" style="stroke:#181818;stroke-width:1.0;" width="10" x="2214" y="1160.0781"/><rect fill="#FFFFFF" height="47.2656" style="stroke:#181818;stroke-width:1.0;" width="10" x="2481" y="1207.3438"/><rect fill="#FFFFFF" height="30" style="stroke:#181818;stroke-width:1.0;" width="10" x="2573" y="1372.0078"/><rect fill="#FFFFFF" height="30" style="stroke:#181818;stroke-width:1.0;" width="10" x="2638" y="1431.1406"/><polygon fill="#181818" points="321.5,63.4297,331.5,67.4297,321.5,71.4297,325.5,67.4297" style="stroke:#181818;stroke-width:1.0;"/><line style="stroke:#181818;stroke-width:1.0;" x1="213" x2="327.5" y1="67.4297" y2="67.4297"/><text fill="#000000" font-family="sans-serif" font-size="13" font-weight="bold" lengthAdjust="spacing" textLength="9" x="220" y="62.3638">1</text><text fill="#000000" font-family="sans-serif" font-size="13" lengthAdjust="spacing" textLength="27" x="233" y="62.3638">new</text><path d="M10,82.4297 L88,82.4297 L88,89.5625 L78,99.5625 L10,99.5625 L10,82.4297 " fill="#EEEEEE" style="stroke:#000000;stroke-width:1.5;"/><rect fill="none" height="146.6641" style="stroke:#000000;stroke-width:1.5;" width="498" x="10" y="82.4297"/><text fill="#000000" font-family="sans-serif" font-size="13" font-weight="bold" lengthAdjust="spacing" textLength="33" x="25" y="95.4966">loop</text><text fill="#000000" font-family="sans-serif" font-size="11" font-weight="bold" lengthAdjust="spacing" textLength="39" x="103" y="94.6401">[true]</text><polygon fill="#181818" points="316.5,116.6953,326.5,120.6953,316.5,124.6953,320.5,120.6953" style="stroke:#181818;stroke-width:1.0;"/><line style="stroke:#181818;stroke-width:1.0;" x1="213" x2="322.5" y1="120.6953" y2="120.6953"/><text fill="#000000" font-family="sans-serif" font-size="13" font-weight="bold" lengthAdjust="spacing" textLength="9" x="220" y="115.6294">2</text><text fill="#000000" font-family="sans-serif" font-size="13" lengthAdjust="spacing" textLength="30" x="233" y="115.6294">start</text><line style="stroke:#181818;stroke-width:1.0;" x1="338.5" x2="380.5" y1="149.8281" y2="149.8281"/><line style="stroke:#181818;stroke-width:1.0;" x1="380.5" x2="380.5" y1="149.8281" y2="162.8281"/><line style="stroke:#181818;stroke-width:1.0;" x1="339.5" x2="380.5" y1="162.8281" y2="162.8281"/><polygon fill="#181818" points="349.5,158.8281,339.5,162.8281,349.5,166.8281,345.5,162.8281" style="stroke:#181818;stroke-width:1.0;"/><text fill="#000000" font-family="sans-serif" font-size="13" font-weight="bold" lengthAdjust="spacing" textLength="8" x="345.5" y="144.7622">3</text><text fill="#000000" font-family="sans-serif" font-size="13" lengthAdjust="spacing" textLength="43" x="357.5" y="144.7622">accept</text><polygon fill="#181818" points="316.5,187.9609,326.5,191.9609,316.5,195.9609,320.5,191.9609" style="stroke:#181818;stroke-width:1.0;"/><line style="stroke:#181818;stroke-width:1.0;stroke-dasharray:2.0,2.0;" x1="84" x2="322.5" y1="191.9609" y2="191.9609"/><text fill="#000000" font-family="sans-serif" font-size="13" font-weight="bold" lengthAdjust="spacing" textLength="9" x="91" y="186.895">4</text><text fill="#000000" font-family="sans-serif" font-size="13" lengthAdjust="spacing" textLength="4" x="104" y="186.895"> </text><polygon fill="#181818" points="431.5,217.0938,441.5,221.0938,431.5,225.0938,435.5,221.0938" style="stroke:#181818;stroke-width:1.0;"/><line style="stroke:#181818;stroke-width:1.0;" x1="333.5" x2="437.5" y1="221.0938" y2="221.0938"/><text fill="#000000" font-family="sans-serif" font-size="13" font-weight="bold" lengthAdjust="spacing" textLength="9" x="340.5" y="216.0278">5</text><text fill="#000000" font-family="sans-serif" font-size="13" lengthAdjust="spacing" textLength="30" x="353.5" y="216.0278">start</text><polygon fill="#181818" points="694,253.2266,704,257.2266,694,261.2266,698,257.2266" style="stroke:#181818;stroke-width:1.0;"/><line style="stroke:#181818;stroke-width:1.0;" x1="453.5" x2="700" y1="257.2266" y2="257.2266"/><text fill="#000000" font-family="sans-serif" font-size="13" font-weight="bold" lengthAdjust="spacing" textLength="9" x="460.5" y="252.1606">6</text><text fill="#000000" font-family="sans-serif" font-size="13" lengthAdjust="spacing" textLength="4" x="473.5" y="252.1606"> </text><polygon fill="#181818" points="543.5,282.3594,553.5,286.3594,543.5,290.3594,547.5,286.3594" style="stroke:#181818;stroke-width:1.0;"/><line style="stroke:#181818;stroke-width:1.0;" x1="453.5" x2="549.5" y1="286.3594" y2="286.3594"/><text fill="#000000" font-family="sans-serif" font-size="13" font-weight="bold" lengthAdjust="spacing" textLength="9" x="460.5" y="281.2935">7</text><text fill="#000000" font-family="sans-serif" font-size="13" lengthAdjust="spacing" textLength="54" x="473.5" y="281.2935">excute()</text><polygon fill="#181818" points="836.5,311.4922,846.5,315.4922,836.5,319.4922,840.5,315.4922" style="stroke:#181818;stroke-width:1.0;"/><line style="stroke:#181818;stroke-width:1.0;" x1="565.5" x2="842.5" y1="315.4922" y2="315.4922"/><text fill="#000000" font-family="sans-serif" font-size="13" font-weight="bold" lengthAdjust="spacing" textLength="9" x="572.5" y="310.4263">8</text><text fill="#000000" font-family="sans-serif" font-size="13" lengthAdjust="spacing" textLength="51" x="585.5" y="310.4263">create()</text><polygon fill="#181818" points="831.5,340.625,841.5,344.625,831.5,348.625,835.5,344.625" style="stroke:#181818;stroke-width:1.0;"/><line style="stroke:#181818;stroke-width:1.0;" x1="565.5" x2="837.5" y1="344.625" y2="344.625"/><text fill="#000000" font-family="sans-serif" font-size="13" font-weight="bold" lengthAdjust="spacing" textLength="9" x="572.5" y="339.5591">9</text><text fill="#000000" font-family="sans-serif" font-size="13" lengthAdjust="spacing" textLength="93" x="585.5" y="339.5591">fifoAlgorithm()</text><polygon fill="#181818" points="1389,369.7578,1399,373.7578,1389,377.7578,1393,373.7578" style="stroke:#181818;stroke-width:1.0;"/><line style="stroke:#181818;stroke-width:1.0;" x1="853.5" x2="1395" y1="373.7578" y2="373.7578"/><text fill="#000000" font-family="sans-serif" font-size="13" font-weight="bold" lengthAdjust="spacing" textLength="19" x="860.5" y="368.6919">10</text><text fill="#000000" font-family="sans-serif" font-size="13" lengthAdjust="spacing" textLength="85" x="883.5" y="368.6919">repositories()</text><polygon fill="#181818" points="1556,398.8906,1566,402.8906,1556,406.8906,1560,402.8906" style="stroke:#181818;stroke-width:1.0;"/><line style="stroke:#181818;stroke-width:1.0;" x1="1411" x2="1562" y1="402.8906" y2="402.8906"/><text fill="#000000" font-family="sans-serif" font-size="13" font-weight="bold" lengthAdjust="spacing" textLength="18" x="1418" y="397.8247">11</text><text fill="#000000" font-family="sans-serif" font-size="13" lengthAdjust="spacing" textLength="51" x="1440" y="397.8247">create()</text><polygon fill="#181818" points="1738.5,458.0234,1748.5,462.0234,1738.5,466.0234,1742.5,462.0234" style="stroke:#181818;stroke-width:1.0;"/><line style="stroke:#181818;stroke-width:1.0;" x1="1573" x2="1744.5" y1="462.0234" y2="462.0234"/><text fill="#000000" font-family="sans-serif" font-size="13" font-weight="bold" lengthAdjust="spacing" textLength="18" x="1580" y="456.9575">12</text><text fill="#000000" font-family="sans-serif" font-size="13" lengthAdjust="spacing" textLength="51" x="1602" y="456.9575">create()</text><polygon fill="#181818" points="1094.5,487.1563,1104.5,491.1563,1094.5,495.1563,1098.5,491.1563" style="stroke:#181818;stroke-width:1.0;"/><line style="stroke:#181818;stroke-width:1.0;" x1="853.5" x2="1100.5" y1="491.1563" y2="491.1563"/><text fill="#000000" font-family="sans-serif" font-size="13" font-weight="bold" lengthAdjust="spacing" textLength="17" x="860.5" y="486.0903">13</text><text fill="#000000" font-family="sans-serif" font-size="13" lengthAdjust="spacing" textLength="51" x="881.5" y="486.0903">create()</text><polygon fill="#181818" points="1089.5,516.2891,1099.5,520.2891,1089.5,524.2891,1093.5,520.2891" style="stroke:#181818;stroke-width:1.0;"/><line style="stroke:#181818;stroke-width:1.0;" x1="853.5" x2="1095.5" y1="520.2891" y2="520.2891"/><text fill="#000000" font-family="sans-serif" font-size="13" font-weight="bold" lengthAdjust="spacing" textLength="18" x="860.5" y="515.2231">14</text><text fill="#000000" font-family="sans-serif" font-size="13" lengthAdjust="spacing" textLength="207" x="882.5" y="515.2231">listOrdersToBePreparedNormal()</text><polygon fill="#181818" points="1389,545.4219,1399,549.4219,1389,553.4219,1393,549.4219" style="stroke:#181818;stroke-width:1.0;"/><line style="stroke:#181818;stroke-width:1.0;" x1="1111.5" x2="1395" y1="549.4219" y2="549.4219"/><text fill="#000000" font-family="sans-serif" font-size="13" font-weight="bold" lengthAdjust="spacing" textLength="18" x="1118.5" y="544.356">15</text><text fill="#000000" font-family="sans-serif" font-size="13" lengthAdjust="spacing" textLength="85" x="1140.5" y="544.356">repositories()</text><polygon fill="#181818" points="1556,574.5547,1566,578.5547,1556,582.5547,1560,578.5547" style="stroke:#181818;stroke-width:1.0;"/><line style="stroke:#181818;stroke-width:1.0;" x1="1411" x2="1562" y1="578.5547" y2="578.5547"/><text fill="#000000" font-family="sans-serif" font-size="13" font-weight="bold" lengthAdjust="spacing" textLength="18" x="1418" y="573.4888">16</text><text fill="#000000" font-family="sans-serif" font-size="13" lengthAdjust="spacing" textLength="51" x="1440" y="573.4888">create()</text><polygon fill="#181818" points="1909.5,633.6875,1919.5,637.6875,1909.5,641.6875,1913.5,637.6875" style="stroke:#181818;stroke-width:1.0;"/><line style="stroke:#181818;stroke-width:1.0;" x1="1573" x2="1915.5" y1="637.6875" y2="637.6875"/><text fill="#000000" font-family="sans-serif" font-size="13" font-weight="bold" lengthAdjust="spacing" textLength="18" x="1580" y="632.6216">17</text><text fill="#000000" font-family="sans-serif" font-size="13" lengthAdjust="spacing" textLength="51" x="1602" y="632.6216">create()</text><polygon fill="#181818" points="1904.5,662.8203,1914.5,666.8203,1904.5,670.8203,1908.5,666.8203" style="stroke:#181818;stroke-width:1.0;"/><line style="stroke:#181818;stroke-width:1.0;" x1="1111.5" x2="1910.5" y1="666.8203" y2="666.8203"/><text fill="#000000" font-family="sans-serif" font-size="13" font-weight="bold" lengthAdjust="spacing" textLength="18" x="1118.5" y="661.7544">18</text><text fill="#000000" font-family="sans-serif" font-size="13" lengthAdjust="spacing" textLength="204" x="1140.5" y="661.7544">getOrdersToBePrepared(status)</text><polygon fill="#181818" points="1122.5,691.9531,1112.5,695.9531,1122.5,699.9531,1118.5,695.9531" style="stroke:#181818;stroke-width:1.0;"/><line style="stroke:#181818;stroke-width:1.0;stroke-dasharray:2.0,2.0;" x1="1116.5" x2="1920.5" y1="695.9531" y2="695.9531"/><text fill="#000000" font-family="sans-serif" font-size="13" font-weight="bold" lengthAdjust="spacing" textLength="18" x="1128.5" y="690.8872">19</text><text fill="#000000" font-family="sans-serif" font-size="13" lengthAdjust="spacing" textLength="54" x="1150.5" y="690.8872">listOrder</text><polygon fill="#181818" points="864.5,721.0859,854.5,725.0859,864.5,729.0859,860.5,725.0859" style="stroke:#181818;stroke-width:1.0;"/><line style="stroke:#181818;stroke-width:1.0;stroke-dasharray:2.0,2.0;" x1="858.5" x2="1105.5" y1="725.0859" y2="725.0859"/><text fill="#000000" font-family="sans-serif" font-size="13" font-weight="bold" lengthAdjust="spacing" textLength="19" x="870.5" y="720.02">20</text><text fill="#000000" font-family="sans-serif" font-size="13" lengthAdjust="spacing" textLength="54" x="893.5" y="720.02">listOrder</text><polygon fill="#181818" points="1238.5,750.2188,1248.5,754.2188,1238.5,758.2188,1242.5,754.2188" style="stroke:#181818;stroke-width:1.0;"/><line style="stroke:#181818;stroke-width:1.0;" x1="853.5" x2="1244.5" y1="754.2188" y2="754.2188"/><text fill="#000000" font-family="sans-serif" font-size="13" font-weight="bold" lengthAdjust="spacing" textLength="18" x="860.5" y="749.1528">21</text><text fill="#000000" font-family="sans-serif" font-size="13" lengthAdjust="spacing" textLength="51" x="882.5" y="749.1528">create()</text><polygon fill="#181818" points="1233.5,779.3516,1243.5,783.3516,1233.5,787.3516,1237.5,783.3516" style="stroke:#181818;stroke-width:1.0;"/><line style="stroke:#181818;stroke-width:1.0;" x1="853.5" x2="1239.5" y1="783.3516" y2="783.3516"/><text fill="#000000" font-family="sans-serif" font-size="13" font-weight="bold" lengthAdjust="spacing" textLength="18" x="860.5" y="778.2856">22</text><text fill="#000000" font-family="sans-serif" font-size="13" lengthAdjust="spacing" textLength="168" x="882.5" y="778.2856">listAvailableAGVSNormal()</text><polygon fill="#181818" points="1389,808.4844,1399,812.4844,1389,816.4844,1393,812.4844" style="stroke:#181818;stroke-width:1.0;"/><line style="stroke:#181818;stroke-width:1.0;" x1="1255.5" x2="1395" y1="812.4844" y2="812.4844"/><text fill="#000000" font-family="sans-serif" font-size="13" font-weight="bold" lengthAdjust="spacing" textLength="17" x="1262.5" y="807.4185">23</text><text fill="#000000" font-family="sans-serif" font-size="13" lengthAdjust="spacing" textLength="85" x="1283.5" y="807.4185">repositories()</text><polygon fill="#181818" points="1556,837.6172,1566,841.6172,1556,845.6172,1560,841.6172" style="stroke:#181818;stroke-width:1.0;"/><line style="stroke:#181818;stroke-width:1.0;" x1="1411" x2="1562" y1="841.6172" y2="841.6172"/><text fill="#000000" font-family="sans-serif" font-size="13" font-weight="bold" lengthAdjust="spacing" textLength="18" x="1418" y="836.5513">24</text><text fill="#000000" font-family="sans-serif" font-size="13" lengthAdjust="spacing" textLength="51" x="1440" y="836.5513">create()</text><polygon fill="#181818" points="2053.5,896.75,2063.5,900.75,2053.5,904.75,2057.5,900.75" style="stroke:#181818;stroke-width:1.0;"/><line style="stroke:#181818;stroke-width:1.0;" x1="1573" x2="2059.5" y1="900.75" y2="900.75"/><text fill="#000000" font-family="sans-serif" font-size="13" font-weight="bold" lengthAdjust="spacing" textLength="18" x="1580" y="895.6841">25</text><text fill="#000000" font-family="sans-serif" font-size="13" lengthAdjust="spacing" textLength="51" x="1602" y="895.6841">create()</text><polygon fill="#181818" points="2048.5,925.8828,2058.5,929.8828,2048.5,933.8828,2052.5,929.8828" style="stroke:#181818;stroke-width:1.0;"/><line style="stroke:#181818;stroke-width:1.0;" x1="1255.5" x2="2054.5" y1="929.8828" y2="929.8828"/><text fill="#000000" font-family="sans-serif" font-size="13" font-weight="bold" lengthAdjust="spacing" textLength="18" x="1262.5" y="924.8169">26</text><text fill="#000000" font-family="sans-serif" font-size="13" lengthAdjust="spacing" textLength="189" x="1284.5" y="924.8169">getAvailableAGVs(agvStatus)</text><polygon fill="#181818" points="1266.5,955.0156,1256.5,959.0156,1266.5,963.0156,1262.5,959.0156" style="stroke:#181818;stroke-width:1.0;"/><line style="stroke:#181818;stroke-width:1.0;stroke-dasharray:2.0,2.0;" x1="1260.5" x2="2064.5" y1="959.0156" y2="959.0156"/><text fill="#000000" font-family="sans-serif" font-size="13" font-weight="bold" lengthAdjust="spacing" textLength="18" x="1272.5" y="953.9497">27</text><text fill="#000000" font-family="sans-serif" font-size="13" lengthAdjust="spacing" textLength="43" x="1294.5" y="953.9497">listAgv</text><polygon fill="#181818" points="864.5,984.1484,854.5,988.1484,864.5,992.1484,860.5,988.1484" style="stroke:#181818;stroke-width:1.0;"/><line style="stroke:#181818;stroke-width:1.0;stroke-dasharray:2.0,2.0;" x1="858.5" x2="1249.5" y1="988.1484" y2="988.1484"/><text fill="#000000" font-family="sans-serif" font-size="13" font-weight="bold" lengthAdjust="spacing" textLength="18" x="870.5" y="983.0825">28</text><text fill="#000000" font-family="sans-serif" font-size="13" lengthAdjust="spacing" textLength="43" x="892.5" y="983.0825">listAgv</text><path d="M779,1003.1484 L845,1003.1484 L845,1010.2813 L835,1020.2813 L779,1020.2813 L779,1003.1484 " fill="#EEEEEE" style="stroke:#000000;stroke-width:1.5;"/><rect fill="none" height="593.2578" style="stroke:#000000;stroke-width:1.5;" width="2272" x="779" y="1003.1484"/><text fill="#000000" font-family="sans-serif" font-size="13" font-weight="bold" lengthAdjust="spacing" textLength="21" x="794" y="1016.2153">alt</text><text fill="#000000" font-family="sans-serif" font-size="11" font-weight="bold" lengthAdjust="spacing" textLength="244" x="860" y="1015.3589">[if listOrder and listAgv isNotEmpty]</text><path d="M789,1027.2813 L867,1027.2813 L867,1034.4141 L857,1044.4141 L789,1044.4141 L789,1027.2813 " fill="#EEEEEE" style="stroke:#000000;stroke-width:1.5;"/><rect fill="none" height="560.125" style="stroke:#000000;stroke-width:1.5;" width="1962" x="789" y="1027.2813"/><text fill="#000000" font-family="sans-serif" font-size="13" font-weight="bold" lengthAdjust="spacing" textLength="33" x="804" y="1040.3481">loop</text><text fill="#000000" font-family="sans-serif" font-size="11" font-weight="bold" lengthAdjust="spacing" textLength="344" x="882" y="1039.4917">[for each order in listOrder and each agv in listAgv]</text><path d="M2756,1032.2813 L2756,1087.2813 L3036,1087.2813 L3036,1042.2813 L3026,1032.2813 L2756,1032.2813 " fill="#FEFFDD" style="stroke:#181818;stroke-width:0.5;"/><path d="M3026,1032.2813 L3026,1042.2813 L3036,1042.2813 L3026,1032.2813 " fill="#FEFFDD" style="stroke:#181818;stroke-width:0.5;"/><text fill="#000000" font-family="sans-serif" font-size="13" lengthAdjust="spacing" textLength="4" x="2762" y="1049.3481"> </text><text fill="#000000" font-family="sans-serif" font-size="13" lengthAdjust="spacing" textLength="259" x="2762" y="1064.481">break and return String null if alternative</text><text fill="#000000" font-family="sans-serif" font-size="13" lengthAdjust="spacing" textLength="4" x="2762" y="1079.6138"> </text><polygon fill="#181818" points="2207,1061.5469,2217,1065.5469,2207,1069.5469,2211,1065.5469" style="stroke:#181818;stroke-width:1.0;"/><line style="stroke:#181818;stroke-width:1.0;" x1="853.5" x2="2213" y1="1065.5469" y2="1065.5469"/><text fill="#000000" font-family="sans-serif" font-size="13" font-weight="bold" lengthAdjust="spacing" textLength="18" x="860.5" y="1060.481">29</text><text fill="#000000" font-family="sans-serif" font-size="13" lengthAdjust="spacing" textLength="51" x="882.5" y="1060.481">create()</text><polygon fill="#181818" points="2207,1108.8125,2217,1112.8125,2207,1116.8125,2211,1112.8125" style="stroke:#181818;stroke-width:1.0;"/><line style="stroke:#181818;stroke-width:1.0;" x1="853.5" x2="2213" y1="1112.8125" y2="1112.8125"/><text fill="#000000" font-family="sans-serif" font-size="13" font-weight="bold" lengthAdjust="spacing" textLength="18" x="860.5" y="1107.7466">30</text><text fill="#000000" font-family="sans-serif" font-size="13" lengthAdjust="spacing" textLength="37" x="882.5" y="1107.7466">sets()</text><path d="M2224,1078.5469 L2224,1133.5469 L2290,1133.5469 L2290,1088.5469 L2280,1078.5469 L2224,1078.5469 " fill="#FEFFDD" style="stroke:#181818;stroke-width:0.5;"/><path d="M2280,1078.5469 L2280,1088.5469 L2290,1088.5469 L2280,1078.5469 " fill="#FEFFDD" style="stroke:#181818;stroke-width:0.5;"/><text fill="#000000" font-family="sans-serif" font-size="13" lengthAdjust="spacing" textLength="4" x="2230" y="1095.6138"> </text><text fill="#000000" font-family="sans-serif" font-size="13" lengthAdjust="spacing" textLength="45" x="2230" y="1110.7466">all sets</text><text fill="#000000" font-family="sans-serif" font-size="13" lengthAdjust="spacing" textLength="4" x="2230" y="1125.8794"> </text><polygon fill="#181818" points="2202,1156.0781,2212,1160.0781,2202,1164.0781,2206,1160.0781" style="stroke:#181818;stroke-width:1.0;"/><line style="stroke:#181818;stroke-width:1.0;" x1="853.5" x2="2208" y1="1160.0781" y2="1160.0781"/><text fill="#000000" font-family="sans-serif" font-size="13" font-weight="bold" lengthAdjust="spacing" textLength="17" x="860.5" y="1155.0122">31</text><text fill="#000000" font-family="sans-serif" font-size="13" lengthAdjust="spacing" textLength="40" x="881.5" y="1155.0122">build()</text><polygon fill="#181818" points="2469,1203.3438,2479,1207.3438,2469,1211.3438,2473,1207.3438" style="stroke:#181818;stroke-width:1.0;"/><line style="stroke:#181818;stroke-width:1.0;" x1="2224" x2="2475" y1="1207.3438" y2="1207.3438"/><text fill="#000000" font-family="sans-serif" font-size="13" font-weight="bold" lengthAdjust="spacing" textLength="17" x="2231" y="1202.2778">32</text><text fill="#000000" font-family="sans-serif" font-size="13" lengthAdjust="spacing" textLength="217" x="2252" y="1202.2778">create(status,order,agv,identifier)</text><path d="M2496,1173.0781 L2496,1228.0781 L2741,1228.0781 L2741,1183.0781 L2731,1173.0781 L2496,1173.0781 " fill="#FEFFDD" style="stroke:#181818;stroke-width:0.5;"/><path d="M2731,1173.0781 L2731,1183.0781 L2741,1183.0781 L2731,1173.0781 " fill="#FEFFDD" style="stroke:#181818;stroke-width:0.5;"/><text fill="#000000" font-family="sans-serif" font-size="13" lengthAdjust="spacing" textLength="4" x="2502" y="1190.145"> </text><text fill="#000000" font-family="sans-serif" font-size="13" lengthAdjust="spacing" textLength="224" x="2502" y="1205.2778">identifier gerado automaticamente</text><text fill="#000000" font-family="sans-serif" font-size="13" lengthAdjust="spacing" textLength="4" x="2502" y="1220.4106"> </text><polygon fill="#181818" points="2235,1250.6094,2225,1254.6094,2235,1258.6094,2231,1254.6094" style="stroke:#181818;stroke-width:1.0;"/><line style="stroke:#181818;stroke-width:1.0;stroke-dasharray:2.0,2.0;" x1="2229" x2="2485" y1="1254.6094" y2="1254.6094"/><text fill="#000000" font-family="sans-serif" font-size="13" font-weight="bold" lengthAdjust="spacing" textLength="16" x="2241" y="1249.5435">33</text><text fill="#000000" font-family="sans-serif" font-size="13" lengthAdjust="spacing" textLength="75" x="2261" y="1249.5435">assignment</text><polygon fill="#181818" points="864.5,1279.7422,854.5,1283.7422,864.5,1287.7422,860.5,1283.7422" style="stroke:#181818;stroke-width:1.0;"/><line style="stroke:#181818;stroke-width:1.0;stroke-dasharray:2.0,2.0;" x1="858.5" x2="2218" y1="1283.7422" y2="1283.7422"/><text fill="#000000" font-family="sans-serif" font-size="13" font-weight="bold" lengthAdjust="spacing" textLength="17" x="870.5" y="1278.6763">34</text><text fill="#000000" font-family="sans-serif" font-size="13" lengthAdjust="spacing" textLength="75" x="891.5" y="1278.6763">assignment</text><polygon fill="#181818" points="1733.5,1308.875,1743.5,1312.875,1733.5,1316.875,1737.5,1312.875" style="stroke:#181818;stroke-width:1.0;"/><line style="stroke:#181818;stroke-width:1.0;" x1="853.5" x2="1739.5" y1="1312.875" y2="1312.875"/><text fill="#000000" font-family="sans-serif" font-size="13" font-weight="bold" lengthAdjust="spacing" textLength="17" x="860.5" y="1307.8091">35</text><text fill="#000000" font-family="sans-serif" font-size="13" lengthAdjust="spacing" textLength="116" x="881.5" y="1307.8091">save(assignment)</text><polygon fill="#181818" points="2561,1368.0078,2571,1372.0078,2561,1376.0078,2565,1372.0078" style="stroke:#181818;stroke-width:1.0;"/><line style="stroke:#181818;stroke-width:1.0;" x1="853.5" x2="2567" y1="1372.0078" y2="1372.0078"/><text fill="#000000" font-family="sans-serif" font-size="13" font-weight="bold" lengthAdjust="spacing" textLength="17" x="860.5" y="1366.9419">36</text><text fill="#000000" font-family="sans-serif" font-size="13" lengthAdjust="spacing" textLength="138" x="881.5" y="1366.9419">changeStatus(status)</text><polygon fill="#181818" points="2626,1427.1406,2636,1431.1406,2626,1435.1406,2630,1431.1406" style="stroke:#181818;stroke-width:1.0;"/><line style="stroke:#181818;stroke-width:1.0;" x1="853.5" x2="2632" y1="1431.1406" y2="1431.1406"/><text fill="#000000" font-family="sans-serif" font-size="13" font-weight="bold" lengthAdjust="spacing" textLength="17" x="860.5" y="1426.0747">37</text><text fill="#000000" font-family="sans-serif" font-size="13" lengthAdjust="spacing" textLength="163" x="881.5" y="1426.0747">changeStatus(agvStatus)</text><polygon fill="#181818" points="1904.5,1486.2734,1914.5,1490.2734,1904.5,1494.2734,1908.5,1490.2734" style="stroke:#181818;stroke-width:1.0;"/><line style="stroke:#181818;stroke-width:1.0;" x1="853.5" x2="1910.5" y1="1490.2734" y2="1490.2734"/><text fill="#000000" font-family="sans-serif" font-size="13" font-weight="bold" lengthAdjust="spacing" textLength="17" x="860.5" y="1485.2075">38</text><text fill="#000000" font-family="sans-serif" font-size="13" lengthAdjust="spacing" textLength="75" x="881.5" y="1485.2075">save(order)</text><polygon fill="#181818" points="2048.5,1545.4063,2058.5,1549.4063,2048.5,1553.4063,2052.5,1549.4063" style="stroke:#181818;stroke-width:1.0;"/><line style="stroke:#181818;stroke-width:1.0;" x1="853.5" x2="2054.5" y1="1549.4063" y2="1549.4063"/><text fill="#000000" font-family="sans-serif" font-size="13" font-weight="bold" lengthAdjust="spacing" textLength="17" x="860.5" y="1544.3403">39</text><text fill="#000000" font-family="sans-serif" font-size="13" lengthAdjust="spacing" textLength="65" x="881.5" y="1544.3403">save(agv)</text><line style="stroke:#000000;stroke-width:1.0;stroke-dasharray:2.0,2.0;" x1="779" x2="3051" y1="1595.4063" y2="1595.4063"/><polygon fill="#181818" points="95,1620.5391,85,1624.5391,95,1628.5391,91,1624.5391" style="stroke:#181818;stroke-width:1.0;"/><line style="stroke:#181818;stroke-width:1.0;stroke-dasharray:2.0,2.0;" x1="89" x2="447.5" y1="1624.5391" y2="1624.5391"/><text fill="#000000" font-family="sans-serif" font-size="13" font-weight="bold" lengthAdjust="spacing" textLength="19" x="101" y="1619.4731">40</text><text fill="#000000" font-family="sans-serif" font-size="13" lengthAdjust="spacing" textLength="4" x="124" y="1619.4731"> </text><!--MD5=[849691863b06e771e58632fa9297bf37]
@startuml
autonumber


participant ":BackOfficeApp" as UI
participant ":AGVDaemon" as CTRL
participant ":AGVManager" as MAN
participant ":HandleAGV" as HA
participant ":FifoRequest" as FR
participant ":FifoProtocolRequest" as FPR
participant ":FifoService" as SS
participant ":OrderListService" as OS
participant ":AGVListService" as AS
participant ":PersistenceContext" as PC
participant ":RepositoryFactory" as RF
participant ":AssignmentRepository" as AR
participant ":OrderRepository" as OR
participant ":AGVRepository" as AGR
participant ":AssignmentFactory" as AFC
participant ":Assignment" as A
participant ":Ordre" as O
participant ":AGV" as V


CTRL -> MAN : new

loop true

CTRL -> MAN : start

activate MAN

MAN -> MAN : accept

UI - -> MAN

MAN -> HA : start

deactivate MAN

activate HA

end loop

HA -> FPR

HA -> FR : excute()
activate FR
FR -> SS : create()

FR -> SS : fifoAlgorithm()

activate SS 

SS -> PC : repositories()

activate PC

PC -> RF : create()

activate RF

deactivate PC 

RF -> AR : create()

deactivate RF
SS -> OS : create()
SS -> OS : listOrdersToBePreparedNormal()

activate OS

OS -> PC : repositories()

activate PC

PC -> RF : create()

activate RF

deactivate PC 

RF -> OR : create()

deactivate RF

OS -> OR : getOrdersToBePrepared(status)

activate OR 

OR - -> OS : listOrder

deactivate OR
OS - -> SS : listOrder
deactivate OS



SS -> AS : create()
SS -> AS : listAvailableAGVSNormal()
activate AS

AS -> PC : repositories()

activate PC

PC -> RF : create()

activate RF

deactivate PC 

RF -> AGR : create()
deactivate RF

AS -> AGR : getAvailableAGVs(agvStatus)

activate AGR

AGR - -> AS : listAgv

deactivate AGR
AS - -> SS : listAgv
deactivate AS

alt if listOrder and listAgv isNotEmpty





loop for each order in listOrder and each agv in listAgv




SS -> AFC : create()

SS -> AFC : sets()

note right

all sets

end note


SS -> AFC : build()
activate AFC

AFC -> A : create(status,order,agv,identifier)
activate A

note right

identifier gerado automaticamente

end note

A - -> AFC : assignment
deactivate A

AFC - -> SS : assignment
deactivate AFC 


SS -> AR : save(assignment)
activate AR
deactivate AR

SS -> O : changeStatus(status)
activate O
deactivate O

SS -> V : changeStatus(agvStatus)
activate V
deactivate V

SS -> OR : save(order)
activate OR
deactivate OR

SS -> AGR : save(agv)
activate AGR
deactivate AGR





end

else


note right

break and return String null if alternative

end note

end

deactivate SS
deactivate FR

deactivate RF
HA - -> UI

deactivate HA
@enduml

PlantUML version 1.2022.6beta2(Unknown compile time)
(GPL source distribution)
Java Runtime: Java(TM) SE Runtime Environment
JVM: Java HotSpot(TM) 64-Bit Server VM
Default Encoding: UTF-8
Language: en
Country: US
--></g></svg>