<?xml version="1.0" encoding="UTF-8" standalone="no"?><svg xmlns="http://www.w3.org/2000/svg" xmlns:xlink="http://www.w3.org/1999/xlink" contentScriptType="application/ecmascript" contentStyleType="text/css" height="1763px" preserveAspectRatio="none" style="width:2851px;height:1763px;background:#FFFFFF;" version="1.1" viewBox="0 0 2851 1763" width="2851px" zoomAndPan="magnify"><defs><filter height="300%" id="f18jqxdeyw75to" width="300%" x="-1" y="-1"><feGaussianBlur result="blurOut" stdDeviation="2.0"/><feColorMatrix in="blurOut" result="blurOut2" type="matrix" values="0 0 0 0 0 0 0 0 0 0 0 0 0 0 0 0 0 0 .4 0"/><feOffset dx="4.0" dy="4.0" in="blurOut2" result="blurOut3"/><feBlend in="SourceGraphic" in2="blurOut3" mode="normal"/></filter></defs><g><rect fill="#FFFFFF" filter="url(#f18jqxdeyw75to)" height="1560.3047" style="stroke:#A80036;stroke-width:1.0;" width="10" x="72.5" y="99.6094"/><rect fill="#FFFFFF" filter="url(#f18jqxdeyw75to)" height="30.3516" style="stroke:#A80036;stroke-width:1.0;" width="10" x="431.5" y="121.9609"/><rect fill="#FFFFFF" filter="url(#f18jqxdeyw75to)" height="1416.5469" style="stroke:#A80036;stroke-width:1.0;" width="10" x="431.5" y="182.6641"/><rect fill="#FFFFFF" filter="url(#f18jqxdeyw75to)" height="30.3516" style="stroke:#A80036;stroke-width:1.0;" width="10" x="431.5" y="1629.5625"/><rect fill="#FFFFFF" filter="url(#f18jqxdeyw75to)" height="30.3516" style="stroke:#A80036;stroke-width:1.0;" width="10" x="664.5" y="213.0156"/><rect fill="#FFFFFF" filter="url(#f18jqxdeyw75to)" height="30.3516" style="stroke:#A80036;stroke-width:1.0;" width="10" x="664.5" y="575.8281"/><rect fill="#FFFFFF" filter="url(#f18jqxdeyw75to)" height="60.7031" style="stroke:#A80036;stroke-width:1.0;" width="10" x="664.5" y="757.2344"/><rect fill="#FFFFFF" filter="url(#f18jqxdeyw75to)" height="720.5703" style="stroke:#A80036;stroke-width:1.0;" width="10" x="664.5" y="848.2891"/><rect fill="#FFFFFF" filter="url(#f18jqxdeyw75to)" height="30.3516" style="stroke:#A80036;stroke-width:1.0;" width="10" x="984.5" y="243.3672"/><rect fill="#FFFFFF" filter="url(#f18jqxdeyw75to)" height="120.7031" style="stroke:#A80036;stroke-width:1.0;" width="10" x="984.5" y="606.1797"/><rect fill="#FFFFFF" filter="url(#f18jqxdeyw75to)" height="30.3516" style="stroke:#A80036;stroke-width:1.0;" width="10" x="984.5" y="787.5859"/><rect fill="#FFFFFF" filter="url(#f18jqxdeyw75to)" height="690.2188" style="stroke:#A80036;stroke-width:1.0;" width="10" x="984.5" y="878.6406"/><rect fill="#FFFFFF" filter="url(#f18jqxdeyw75to)" height="30.3516" style="stroke:#A80036;stroke-width:1.0;" width="10" x="1291.5" y="273.7188"/><rect fill="#FFFFFF" filter="url(#f18jqxdeyw75to)" height="241.4063" style="stroke:#A80036;stroke-width:1.0;" width="10" x="1442.5" y="304.0703"/><rect fill="#FFFFFF" filter="url(#f18jqxdeyw75to)" height="30" style="stroke:#A80036;stroke-width:1.0;" width="10" x="1603" y="334.4219"/><rect fill="#FFFFFF" filter="url(#f18jqxdeyw75to)" height="30" style="stroke:#A80036;stroke-width:1.0;" width="10" x="1603" y="636.5313"/><rect fill="#FFFFFF" filter="url(#f18jqxdeyw75to)" height="30.3516" style="stroke:#A80036;stroke-width:1.0;" width="10" x="1603" y="817.9375"/><rect fill="#FFFFFF" filter="url(#f18jqxdeyw75to)" height="30" style="stroke:#A80036;stroke-width:1.0;" width="10" x="1603" y="908.9922"/><rect fill="#FFFFFF" filter="url(#f18jqxdeyw75to)" height="30" style="stroke:#A80036;stroke-width:1.0;" width="10" x="1603" y="1538.8594"/><rect fill="#FFFFFF" filter="url(#f18jqxdeyw75to)" height="30" style="stroke:#A80036;stroke-width:1.0;" width="10" x="1754.5" y="394.7734"/><rect fill="#FFFFFF" filter="url(#f18jqxdeyw75to)" height="30" style="stroke:#A80036;stroke-width:1.0;" width="10" x="1754.5" y="1133.3984"/><rect fill="#FFFFFF" filter="url(#f18jqxdeyw75to)" height="30" style="stroke:#A80036;stroke-width:1.0;" width="10" x="1883" y="455.125"/><rect fill="#FFFFFF" filter="url(#f18jqxdeyw75to)" height="30" style="stroke:#A80036;stroke-width:1.0;" width="10" x="1883" y="1254.1016"/><rect fill="#FFFFFF" filter="url(#f18jqxdeyw75to)" height="30" style="stroke:#A80036;stroke-width:1.0;" width="10" x="2024.5" y="515.4766"/><rect fill="#FFFFFF" filter="url(#f18jqxdeyw75to)" height="30" style="stroke:#A80036;stroke-width:1.0;" width="10" x="2024.5" y="1418.1563"/><rect fill="#FFFFFF" filter="url(#f18jqxdeyw75to)" height="30" style="stroke:#A80036;stroke-width:1.0;" width="10" x="2179" y="696.8828"/><rect fill="#FFFFFF" filter="url(#f18jqxdeyw75to)" height="30" style="stroke:#A80036;stroke-width:1.0;" width="10" x="2459" y="969.3438"/><rect fill="#FFFFFF" filter="url(#f18jqxdeyw75to)" height="30" style="stroke:#A80036;stroke-width:1.0;" width="10" x="2580" y="1478.5078"/><rect fill="#FFFFFF" filter="url(#f18jqxdeyw75to)" height="30" style="stroke:#A80036;stroke-width:1.0;" width="10" x="2663.5" y="1073.0469"/><rect fill="#FFFFFF" filter="url(#f18jqxdeyw75to)" height="30" style="stroke:#A80036;stroke-width:1.0;" width="10" x="2724" y="1193.75"/><rect fill="#FFFFFF" filter="url(#f18jqxdeyw75to)" height="30" style="stroke:#A80036;stroke-width:1.0;" width="10" x="2797.5" y="1357.8047"/><line style="stroke:#A80036;stroke-width:1.0;stroke-dasharray:5.0,5.0;" x1="77" x2="77" y1="89.6094" y2="1677.9141"/><line style="stroke:#A80036;stroke-width:1.0;stroke-dasharray:5.0,5.0;" x1="436.5" x2="436.5" y1="89.6094" y2="1677.9141"/><line style="stroke:#A80036;stroke-width:1.0;stroke-dasharray:5.0,5.0;" x1="669.5" x2="669.5" y1="89.6094" y2="1677.9141"/><line style="stroke:#A80036;stroke-width:1.0;stroke-dasharray:5.0,5.0;" x1="989" x2="989" y1="89.6094" y2="1677.9141"/><line style="stroke:#A80036;stroke-width:1.0;stroke-dasharray:5.0,5.0;" x1="1296.5" x2="1296.5" y1="89.6094" y2="1677.9141"/><line style="stroke:#A80036;stroke-width:1.0;stroke-dasharray:5.0,5.0;" x1="1447.5" x2="1447.5" y1="89.6094" y2="1677.9141"/><line style="stroke:#A80036;stroke-width:1.0;stroke-dasharray:5.0,5.0;" x1="1607.5" x2="1607.5" y1="89.6094" y2="1677.9141"/><line style="stroke:#A80036;stroke-width:1.0;stroke-dasharray:5.0,5.0;" x1="1759.5" x2="1759.5" y1="89.6094" y2="1677.9141"/><line style="stroke:#A80036;stroke-width:1.0;stroke-dasharray:5.0,5.0;" x1="1887.5" x2="1887.5" y1="89.6094" y2="1677.9141"/><line style="stroke:#A80036;stroke-width:1.0;stroke-dasharray:5.0,5.0;" x1="2029.5" x2="2029.5" y1="89.6094" y2="1677.9141"/><line style="stroke:#A80036;stroke-width:1.0;stroke-dasharray:5.0,5.0;" x1="2183.5" x2="2183.5" y1="89.6094" y2="1677.9141"/><line style="stroke:#A80036;stroke-width:1.0;stroke-dasharray:5.0,5.0;" x1="2327.5" x2="2327.5" y1="89.6094" y2="1677.9141"/><line style="stroke:#A80036;stroke-width:1.0;stroke-dasharray:5.0,5.0;" x1="2463.5" x2="2463.5" y1="89.6094" y2="1677.9141"/><line style="stroke:#A80036;stroke-width:1.0;stroke-dasharray:5.0,5.0;" x1="2584.5" x2="2584.5" y1="89.6094" y2="1677.9141"/><line style="stroke:#A80036;stroke-width:1.0;stroke-dasharray:5.0,5.0;" x1="2668.5" x2="2668.5" y1="89.6094" y2="1677.9141"/><line style="stroke:#A80036;stroke-width:1.0;stroke-dasharray:5.0,5.0;" x1="2728.5" x2="2728.5" y1="89.6094" y2="1677.9141"/><line style="stroke:#A80036;stroke-width:1.0;stroke-dasharray:5.0,5.0;" x1="2802.5" x2="2802.5" y1="89.6094" y2="1677.9141"/><text fill="#000000" font-family="sans-serif" font-size="14" lengthAdjust="spacing" textLength="139" x="5" y="86.5332">Warehouse Employee</text><ellipse cx="77.5" cy="15" fill="#FEFECE" filter="url(#f18jqxdeyw75to)" rx="8" ry="8" style="stroke:#A80036;stroke-width:2.0;"/><path d="M77.5,23 L77.5,50 M64.5,31 L90.5,31 M77.5,50 L64.5,65 M77.5,50 L90.5,65 " fill="none" filter="url(#f18jqxdeyw75to)" style="stroke:#A80036;stroke-width:2.0;"/><text fill="#000000" font-family="sans-serif" font-size="14" lengthAdjust="spacing" textLength="139" x="5" y="1691.4473">Warehouse Employee</text><ellipse cx="77.5" cy="1704.5234" fill="#FEFECE" filter="url(#f18jqxdeyw75to)" rx="8" ry="8" style="stroke:#A80036;stroke-width:2.0;"/><path d="M77.5,1712.5234 L77.5,1739.5234 M64.5,1720.5234 L90.5,1720.5234 M77.5,1739.5234 L64.5,1754.5234 M77.5,1739.5234 L90.5,1754.5234 " fill="none" filter="url(#f18jqxdeyw75to)" style="stroke:#A80036;stroke-width:2.0;"/><rect fill="#FEFECE" filter="url(#f18jqxdeyw75to)" height="31.6094" style="stroke:#A80036;stroke-width:1.5;" width="156" x="356.5" y="53"/><text fill="#000000" font-family="sans-serif" font-size="14" lengthAdjust="spacing" textLength="142" x="363.5" y="74.5332">:SetWarehousePlantUI</text><rect fill="#FEFECE" filter="url(#f18jqxdeyw75to)" height="31.6094" style="stroke:#A80036;stroke-width:1.5;" width="156" x="356.5" y="1676.9141"/><text fill="#000000" font-family="sans-serif" font-size="14" lengthAdjust="spacing" textLength="142" x="363.5" y="1698.4473">:SetWarehousePlantUI</text><rect fill="#FEFECE" filter="url(#f18jqxdeyw75to)" height="31.6094" style="stroke:#A80036;stroke-width:1.5;" width="206" x="564.5" y="53"/><text fill="#000000" font-family="sans-serif" font-size="14" lengthAdjust="spacing" textLength="192" x="571.5" y="74.5332">:SetWarehousePlantController</text><rect fill="#FEFECE" filter="url(#f18jqxdeyw75to)" height="31.6094" style="stroke:#A80036;stroke-width:1.5;" width="206" x="564.5" y="1676.9141"/><text fill="#000000" font-family="sans-serif" font-size="14" lengthAdjust="spacing" textLength="192" x="571.5" y="1698.4473">:SetWarehousePlantController</text><rect fill="#FEFECE" filter="url(#f18jqxdeyw75to)" height="31.6094" style="stroke:#A80036;stroke-width:1.5;" width="127" x="924" y="53"/><text fill="#000000" font-family="sans-serif" font-size="14" lengthAdjust="spacing" textLength="113" x="931" y="74.5332">:ImportFileService</text><rect fill="#FEFECE" filter="url(#f18jqxdeyw75to)" height="31.6094" style="stroke:#A80036;stroke-width:1.5;" width="127" x="924" y="1676.9141"/><text fill="#000000" font-family="sans-serif" font-size="14" lengthAdjust="spacing" textLength="113" x="931" y="1698.4473">:ImportFileService</text><rect fill="#FEFECE" filter="url(#f18jqxdeyw75to)" height="31.6094" style="stroke:#A80036;stroke-width:1.5;" width="140" x="1224.5" y="53"/><text fill="#000000" font-family="sans-serif" font-size="14" lengthAdjust="spacing" textLength="126" x="1231.5" y="74.5332">:PersistenceContext</text><rect fill="#FEFECE" filter="url(#f18jqxdeyw75to)" height="31.6094" style="stroke:#A80036;stroke-width:1.5;" width="140" x="1224.5" y="1676.9141"/><text fill="#000000" font-family="sans-serif" font-size="14" lengthAdjust="spacing" textLength="126" x="1231.5" y="1698.4473">:PersistenceContext</text><rect fill="#FEFECE" filter="url(#f18jqxdeyw75to)" height="31.6094" style="stroke:#A80036;stroke-width:1.5;" width="134" x="1378.5" y="53"/><text fill="#000000" font-family="sans-serif" font-size="14" lengthAdjust="spacing" textLength="120" x="1385.5" y="74.5332">:RepositoryFactory</text><rect fill="#FEFECE" filter="url(#f18jqxdeyw75to)" height="31.6094" style="stroke:#A80036;stroke-width:1.5;" width="134" x="1378.5" y="1676.9141"/><text fill="#000000" font-family="sans-serif" font-size="14" lengthAdjust="spacing" textLength="120" x="1385.5" y="1698.4473">:RepositoryFactory</text><rect fill="#FEFECE" filter="url(#f18jqxdeyw75to)" height="31.6094" style="stroke:#A80036;stroke-width:1.5;" width="159" x="1526.5" y="53"/><text fill="#000000" font-family="sans-serif" font-size="14" lengthAdjust="spacing" textLength="145" x="1533.5" y="74.5332">:WarehouseRepository</text><rect fill="#FEFECE" filter="url(#f18jqxdeyw75to)" height="31.6094" style="stroke:#A80036;stroke-width:1.5;" width="159" x="1526.5" y="1676.9141"/><text fill="#000000" font-family="sans-serif" font-size="14" lengthAdjust="spacing" textLength="145" x="1533.5" y="1698.4473">:WarehouseRepository</text><rect fill="#FEFECE" filter="url(#f18jqxdeyw75to)" height="31.6094" style="stroke:#A80036;stroke-width:1.5;" width="116" x="1699.5" y="53"/><text fill="#000000" font-family="sans-serif" font-size="14" lengthAdjust="spacing" textLength="102" x="1706.5" y="74.5332">:AisleRepository</text><rect fill="#FEFECE" filter="url(#f18jqxdeyw75to)" height="31.6094" style="stroke:#A80036;stroke-width:1.5;" width="116" x="1699.5" y="1676.9141"/><text fill="#000000" font-family="sans-serif" font-size="14" lengthAdjust="spacing" textLength="102" x="1706.5" y="1698.4473">:AisleRepository</text><rect fill="#FEFECE" filter="url(#f18jqxdeyw75to)" height="31.6094" style="stroke:#A80036;stroke-width:1.5;" width="113" x="1829.5" y="53"/><text fill="#000000" font-family="sans-serif" font-size="14" lengthAdjust="spacing" textLength="99" x="1836.5" y="74.5332">:RowRepository</text><rect fill="#FEFECE" filter="url(#f18jqxdeyw75to)" height="31.6094" style="stroke:#A80036;stroke-width:1.5;" width="113" x="1829.5" y="1676.9141"/><text fill="#000000" font-family="sans-serif" font-size="14" lengthAdjust="spacing" textLength="99" x="1836.5" y="1698.4473">:RowRepository</text><rect fill="#FEFECE" filter="url(#f18jqxdeyw75to)" height="31.6094" style="stroke:#A80036;stroke-width:1.5;" width="142" x="1956.5" y="53"/><text fill="#000000" font-family="sans-serif" font-size="14" lengthAdjust="spacing" textLength="128" x="1963.5" y="74.5332">:AgvDockRepository</text><rect fill="#FEFECE" filter="url(#f18jqxdeyw75to)" height="31.6094" style="stroke:#A80036;stroke-width:1.5;" width="142" x="1956.5" y="1676.9141"/><text fill="#000000" font-family="sans-serif" font-size="14" lengthAdjust="spacing" textLength="128" x="1963.5" y="1698.4473">:AgvDockRepository</text><rect fill="#FEFECE" filter="url(#f18jqxdeyw75to)" height="31.6094" style="stroke:#A80036;stroke-width:1.5;" width="139" x="2112.5" y="53"/><text fill="#000000" font-family="sans-serif" font-size="14" lengthAdjust="spacing" textLength="125" x="2119.5" y="74.5332">:WarehouseMapper</text><rect fill="#FEFECE" filter="url(#f18jqxdeyw75to)" height="31.6094" style="stroke:#A80036;stroke-width:1.5;" width="139" x="2112.5" y="1676.9141"/><text fill="#000000" font-family="sans-serif" font-size="14" lengthAdjust="spacing" textLength="125" x="2119.5" y="1698.4473">:WarehouseMapper</text><rect fill="#FEFECE" filter="url(#f18jqxdeyw75to)" height="31.6094" style="stroke:#A80036;stroke-width:1.5;" width="121" x="2265.5" y="53"/><text fill="#000000" font-family="sans-serif" font-size="14" lengthAdjust="spacing" textLength="107" x="2272.5" y="74.5332">:WarehouseDTO</text><rect fill="#FEFECE" filter="url(#f18jqxdeyw75to)" height="31.6094" style="stroke:#A80036;stroke-width:1.5;" width="121" x="2265.5" y="1676.9141"/><text fill="#000000" font-family="sans-serif" font-size="14" lengthAdjust="spacing" textLength="107" x="2272.5" y="1698.4473">:WarehouseDTO</text><rect fill="#FEFECE" filter="url(#f18jqxdeyw75to)" height="31.6094" style="stroke:#A80036;stroke-width:1.5;" width="123" x="2400.5" y="53"/><text fill="#000000" font-family="sans-serif" font-size="14" lengthAdjust="spacing" textLength="109" x="2407.5" y="74.5332">:WarehousePlant</text><rect fill="#FEFECE" filter="url(#f18jqxdeyw75to)" height="31.6094" style="stroke:#A80036;stroke-width:1.5;" width="123" x="2400.5" y="1676.9141"/><text fill="#000000" font-family="sans-serif" font-size="14" lengthAdjust="spacing" textLength="109" x="2407.5" y="1698.4473">:WarehousePlant</text><rect fill="#FEFECE" filter="url(#f18jqxdeyw75to)" height="31.6094" style="stroke:#A80036;stroke-width:1.5;" width="91" x="2537.5" y="53"/><text fill="#000000" font-family="sans-serif" font-size="14" lengthAdjust="spacing" textLength="77" x="2544.5" y="74.5332">:Warehouse</text><rect fill="#FEFECE" filter="url(#f18jqxdeyw75to)" height="31.6094" style="stroke:#A80036;stroke-width:1.5;" width="91" x="2537.5" y="1676.9141"/><text fill="#000000" font-family="sans-serif" font-size="14" lengthAdjust="spacing" textLength="77" x="2544.5" y="1698.4473">:Warehouse</text><rect fill="#FEFECE" filter="url(#f18jqxdeyw75to)" height="31.6094" style="stroke:#A80036;stroke-width:1.5;" width="48" x="2642.5" y="53"/><text fill="#000000" font-family="sans-serif" font-size="14" lengthAdjust="spacing" textLength="34" x="2649.5" y="74.5332">:Aisle</text><rect fill="#FEFECE" filter="url(#f18jqxdeyw75to)" height="31.6094" style="stroke:#A80036;stroke-width:1.5;" width="48" x="2642.5" y="1676.9141"/><text fill="#000000" font-family="sans-serif" font-size="14" lengthAdjust="spacing" textLength="34" x="2649.5" y="1698.4473">:Aisle</text><rect fill="#FEFECE" filter="url(#f18jqxdeyw75to)" height="31.6094" style="stroke:#A80036;stroke-width:1.5;" width="45" x="2704.5" y="53"/><text fill="#000000" font-family="sans-serif" font-size="14" lengthAdjust="spacing" textLength="31" x="2711.5" y="74.5332">:Row</text><rect fill="#FEFECE" filter="url(#f18jqxdeyw75to)" height="31.6094" style="stroke:#A80036;stroke-width:1.5;" width="45" x="2704.5" y="1676.9141"/><text fill="#000000" font-family="sans-serif" font-size="14" lengthAdjust="spacing" textLength="31" x="2711.5" y="1698.4473">:Row</text><rect fill="#FEFECE" filter="url(#f18jqxdeyw75to)" height="31.6094" style="stroke:#A80036;stroke-width:1.5;" width="74" x="2763.5" y="53"/><text fill="#000000" font-family="sans-serif" font-size="14" lengthAdjust="spacing" textLength="60" x="2770.5" y="74.5332">:AgvDock</text><rect fill="#FEFECE" filter="url(#f18jqxdeyw75to)" height="31.6094" style="stroke:#A80036;stroke-width:1.5;" width="74" x="2763.5" y="1676.9141"/><text fill="#000000" font-family="sans-serif" font-size="14" lengthAdjust="spacing" textLength="60" x="2770.5" y="1698.4473">:AgvDock</text><rect fill="#FFFFFF" filter="url(#f18jqxdeyw75to)" height="1560.3047" style="stroke:#A80036;stroke-width:1.0;" width="10" x="72.5" y="99.6094"/><rect fill="#FFFFFF" filter="url(#f18jqxdeyw75to)" height="30.3516" style="stroke:#A80036;stroke-width:1.0;" width="10" x="431.5" y="121.9609"/><rect fill="#FFFFFF" filter="url(#f18jqxdeyw75to)" height="1416.5469" style="stroke:#A80036;stroke-width:1.0;" width="10" x="431.5" y="182.6641"/><rect fill="#FFFFFF" filter="url(#f18jqxdeyw75to)" height="30.3516" style="stroke:#A80036;stroke-width:1.0;" width="10" x="431.5" y="1629.5625"/><rect fill="#FFFFFF" filter="url(#f18jqxdeyw75to)" height="30.3516" style="stroke:#A80036;stroke-width:1.0;" width="10" x="664.5" y="213.0156"/><rect fill="#FFFFFF" filter="url(#f18jqxdeyw75to)" height="30.3516" style="stroke:#A80036;stroke-width:1.0;" width="10" x="664.5" y="575.8281"/><rect fill="#FFFFFF" filter="url(#f18jqxdeyw75to)" height="60.7031" style="stroke:#A80036;stroke-width:1.0;" width="10" x="664.5" y="757.2344"/><rect fill="#FFFFFF" filter="url(#f18jqxdeyw75to)" height="720.5703" style="stroke:#A80036;stroke-width:1.0;" width="10" x="664.5" y="848.2891"/><rect fill="#FFFFFF" filter="url(#f18jqxdeyw75to)" height="30.3516" style="stroke:#A80036;stroke-width:1.0;" width="10" x="984.5" y="243.3672"/><rect fill="#FFFFFF" filter="url(#f18jqxdeyw75to)" height="120.7031" style="stroke:#A80036;stroke-width:1.0;" width="10" x="984.5" y="606.1797"/><rect fill="#FFFFFF" filter="url(#f18jqxdeyw75to)" height="30.3516" style="stroke:#A80036;stroke-width:1.0;" width="10" x="984.5" y="787.5859"/><rect fill="#FFFFFF" filter="url(#f18jqxdeyw75to)" height="690.2188" style="stroke:#A80036;stroke-width:1.0;" width="10" x="984.5" y="878.6406"/><rect fill="#FFFFFF" filter="url(#f18jqxdeyw75to)" height="30.3516" style="stroke:#A80036;stroke-width:1.0;" width="10" x="1291.5" y="273.7188"/><rect fill="#FFFFFF" filter="url(#f18jqxdeyw75to)" height="241.4063" style="stroke:#A80036;stroke-width:1.0;" width="10" x="1442.5" y="304.0703"/><rect fill="#FFFFFF" filter="url(#f18jqxdeyw75to)" height="30" style="stroke:#A80036;stroke-width:1.0;" width="10" x="1603" y="334.4219"/><rect fill="#FFFFFF" filter="url(#f18jqxdeyw75to)" height="30" style="stroke:#A80036;stroke-width:1.0;" width="10" x="1603" y="636.5313"/><rect fill="#FFFFFF" filter="url(#f18jqxdeyw75to)" height="30.3516" style="stroke:#A80036;stroke-width:1.0;" width="10" x="1603" y="817.9375"/><rect fill="#FFFFFF" filter="url(#f18jqxdeyw75to)" height="30" style="stroke:#A80036;stroke-width:1.0;" width="10" x="1603" y="908.9922"/><rect fill="#FFFFFF" filter="url(#f18jqxdeyw75to)" height="30" style="stroke:#A80036;stroke-width:1.0;" width="10" x="1603" y="1538.8594"/><rect fill="#FFFFFF" filter="url(#f18jqxdeyw75to)" height="30" style="stroke:#A80036;stroke-width:1.0;" width="10" x="1754.5" y="394.7734"/><rect fill="#FFFFFF" filter="url(#f18jqxdeyw75to)" height="30" style="stroke:#A80036;stroke-width:1.0;" width="10" x="1754.5" y="1133.3984"/><rect fill="#FFFFFF" filter="url(#f18jqxdeyw75to)" height="30" style="stroke:#A80036;stroke-width:1.0;" width="10" x="1883" y="455.125"/><rect fill="#FFFFFF" filter="url(#f18jqxdeyw75to)" height="30" style="stroke:#A80036;stroke-width:1.0;" width="10" x="1883" y="1254.1016"/><rect fill="#FFFFFF" filter="url(#f18jqxdeyw75to)" height="30" style="stroke:#A80036;stroke-width:1.0;" width="10" x="2024.5" y="515.4766"/><rect fill="#FFFFFF" filter="url(#f18jqxdeyw75to)" height="30" style="stroke:#A80036;stroke-width:1.0;" width="10" x="2024.5" y="1418.1563"/><rect fill="#FFFFFF" filter="url(#f18jqxdeyw75to)" height="30" style="stroke:#A80036;stroke-width:1.0;" width="10" x="2179" y="696.8828"/><rect fill="#FFFFFF" filter="url(#f18jqxdeyw75to)" height="30" style="stroke:#A80036;stroke-width:1.0;" width="10" x="2459" y="969.3438"/><rect fill="#FFFFFF" filter="url(#f18jqxdeyw75to)" height="30" style="stroke:#A80036;stroke-width:1.0;" width="10" x="2580" y="1478.5078"/><rect fill="#FFFFFF" filter="url(#f18jqxdeyw75to)" height="30" style="stroke:#A80036;stroke-width:1.0;" width="10" x="2663.5" y="1073.0469"/><rect fill="#FFFFFF" filter="url(#f18jqxdeyw75to)" height="30" style="stroke:#A80036;stroke-width:1.0;" width="10" x="2724" y="1193.75"/><rect fill="#FFFFFF" filter="url(#f18jqxdeyw75to)" height="30" style="stroke:#A80036;stroke-width:1.0;" width="10" x="2797.5" y="1357.8047"/><polygon fill="#A80036" points="419.5,117.9609,429.5,121.9609,419.5,125.9609,423.5,121.9609" style="stroke:#A80036;stroke-width:1.0;"/><line style="stroke:#A80036;stroke-width:1.0;" x1="82.5" x2="425.5" y1="121.9609" y2="121.9609"/><text fill="#000000" font-family="sans-serif" font-size="13" font-weight="bold" lengthAdjust="spacing" textLength="7" x="89.5" y="117.1045">1</text><text fill="#000000" font-family="sans-serif" font-size="13" lengthAdjust="spacing" textLength="208" x="100.5" y="117.1045">starts to set up the warehouse plant</text><polygon fill="#A80036" points="93.5,148.3125,83.5,152.3125,93.5,156.3125,89.5,152.3125" style="stroke:#A80036;stroke-width:1.0;"/><line style="stroke:#A80036;stroke-width:1.0;stroke-dasharray:2.0,2.0;" x1="87.5" x2="435.5" y1="152.3125" y2="152.3125"/><text fill="#000000" font-family="sans-serif" font-size="13" font-weight="bold" lengthAdjust="spacing" textLength="7" x="99.5" y="147.4561">2</text><text fill="#000000" font-family="sans-serif" font-size="13" lengthAdjust="spacing" textLength="314" x="110.5" y="147.4561">requests data (path of the JSON file, warehouseName)</text><polygon fill="#A80036" points="419.5,178.6641,429.5,182.6641,419.5,186.6641,423.5,182.6641" style="stroke:#A80036;stroke-width:1.0;"/><line style="stroke:#A80036;stroke-width:1.0;" x1="82.5" x2="425.5" y1="182.6641" y2="182.6641"/><text fill="#000000" font-family="sans-serif" font-size="13" font-weight="bold" lengthAdjust="spacing" textLength="7" x="89.5" y="177.8076">3</text><text fill="#000000" font-family="sans-serif" font-size="13" lengthAdjust="spacing" textLength="122" x="100.5" y="177.8076">types requested data</text><polygon fill="#A80036" points="652.5,209.0156,662.5,213.0156,652.5,217.0156,656.5,213.0156" style="stroke:#A80036;stroke-width:1.0;"/><line style="stroke:#A80036;stroke-width:1.0;" x1="441.5" x2="658.5" y1="213.0156" y2="213.0156"/><text fill="#000000" font-family="sans-serif" font-size="13" font-weight="bold" lengthAdjust="spacing" textLength="7" x="448.5" y="208.1592">4</text><text fill="#000000" font-family="sans-serif" font-size="13" lengthAdjust="spacing" textLength="44" x="459.5" y="208.1592">create()</text><polygon fill="#A80036" points="972.5,239.3672,982.5,243.3672,972.5,247.3672,976.5,243.3672" style="stroke:#A80036;stroke-width:1.0;"/><line style="stroke:#A80036;stroke-width:1.0;" x1="669.5" x2="978.5" y1="243.3672" y2="243.3672"/><text fill="#000000" font-family="sans-serif" font-size="13" font-weight="bold" lengthAdjust="spacing" textLength="7" x="676.5" y="238.5107">5</text><text fill="#000000" font-family="sans-serif" font-size="13" lengthAdjust="spacing" textLength="44" x="687.5" y="238.5107">create()</text><polygon fill="#A80036" points="1279.5,269.7188,1289.5,273.7188,1279.5,277.7188,1283.5,273.7188" style="stroke:#A80036;stroke-width:1.0;"/><line style="stroke:#A80036;stroke-width:1.0;" x1="989.5" x2="1285.5" y1="273.7188" y2="273.7188"/><text fill="#000000" font-family="sans-serif" font-size="13" font-weight="bold" lengthAdjust="spacing" textLength="7" x="996.5" y="268.8623">6</text><text fill="#000000" font-family="sans-serif" font-size="13" lengthAdjust="spacing" textLength="75" x="1007.5" y="268.8623">repositories()</text><polygon fill="#A80036" points="1430.5,300.0703,1440.5,304.0703,1430.5,308.0703,1434.5,304.0703" style="stroke:#A80036;stroke-width:1.0;"/><line style="stroke:#A80036;stroke-width:1.0;" x1="1296.5" x2="1436.5" y1="304.0703" y2="304.0703"/><text fill="#000000" font-family="sans-serif" font-size="13" font-weight="bold" lengthAdjust="spacing" textLength="7" x="1303.5" y="299.2139">7</text><text fill="#000000" font-family="sans-serif" font-size="13" lengthAdjust="spacing" textLength="44" x="1314.5" y="299.2139">create()</text><polygon fill="#A80036" points="1591,330.4219,1601,334.4219,1591,338.4219,1595,334.4219" style="stroke:#A80036;stroke-width:1.0;"/><line style="stroke:#A80036;stroke-width:1.0;" x1="1452.5" x2="1597" y1="334.4219" y2="334.4219"/><text fill="#000000" font-family="sans-serif" font-size="13" font-weight="bold" lengthAdjust="spacing" textLength="7" x="1459.5" y="329.5654">8</text><text fill="#000000" font-family="sans-serif" font-size="13" lengthAdjust="spacing" textLength="44" x="1470.5" y="329.5654">create()</text><polygon fill="#A80036" points="1742.5,390.7734,1752.5,394.7734,1742.5,398.7734,1746.5,394.7734" style="stroke:#A80036;stroke-width:1.0;"/><line style="stroke:#A80036;stroke-width:1.0;" x1="1452.5" x2="1748.5" y1="394.7734" y2="394.7734"/><text fill="#000000" font-family="sans-serif" font-size="13" font-weight="bold" lengthAdjust="spacing" textLength="7" x="1459.5" y="389.917">9</text><text fill="#000000" font-family="sans-serif" font-size="13" lengthAdjust="spacing" textLength="44" x="1470.5" y="389.917">create()</text><polygon fill="#A80036" points="1871,451.125,1881,455.125,1871,459.125,1875,455.125" style="stroke:#A80036;stroke-width:1.0;"/><line style="stroke:#A80036;stroke-width:1.0;" x1="1452.5" x2="1877" y1="455.125" y2="455.125"/><text fill="#000000" font-family="sans-serif" font-size="13" font-weight="bold" lengthAdjust="spacing" textLength="14" x="1459.5" y="450.2686">10</text><text fill="#000000" font-family="sans-serif" font-size="13" lengthAdjust="spacing" textLength="44" x="1477.5" y="450.2686">create()</text><polygon fill="#A80036" points="2012.5,511.4766,2022.5,515.4766,2012.5,519.4766,2016.5,515.4766" style="stroke:#A80036;stroke-width:1.0;"/><line style="stroke:#A80036;stroke-width:1.0;" x1="1452.5" x2="2018.5" y1="515.4766" y2="515.4766"/><text fill="#000000" font-family="sans-serif" font-size="13" font-weight="bold" lengthAdjust="spacing" textLength="14" x="1459.5" y="510.6201">11</text><text fill="#000000" font-family="sans-serif" font-size="13" lengthAdjust="spacing" textLength="44" x="1477.5" y="510.6201">create()</text><polygon fill="#A80036" points="652.5,571.8281,662.5,575.8281,652.5,579.8281,656.5,575.8281" style="stroke:#A80036;stroke-width:1.0;"/><line style="stroke:#A80036;stroke-width:1.0;" x1="441.5" x2="658.5" y1="575.8281" y2="575.8281"/><text fill="#000000" font-family="sans-serif" font-size="13" font-weight="bold" lengthAdjust="spacing" textLength="14" x="448.5" y="570.9717">12</text><text fill="#000000" font-family="sans-serif" font-size="13" lengthAdjust="spacing" textLength="77" x="466.5" y="570.9717">warehouses()</text><polygon fill="#A80036" points="972.5,602.1797,982.5,606.1797,972.5,610.1797,976.5,606.1797" style="stroke:#A80036;stroke-width:1.0;"/><line style="stroke:#A80036;stroke-width:1.0;" x1="669.5" x2="978.5" y1="606.1797" y2="606.1797"/><text fill="#000000" font-family="sans-serif" font-size="13" font-weight="bold" lengthAdjust="spacing" textLength="14" x="676.5" y="601.3232">13</text><text fill="#000000" font-family="sans-serif" font-size="13" lengthAdjust="spacing" textLength="77" x="694.5" y="601.3232">warehouses()</text><polygon fill="#A80036" points="1591,632.5313,1601,636.5313,1591,640.5313,1595,636.5313" style="stroke:#A80036;stroke-width:1.0;"/><line style="stroke:#A80036;stroke-width:1.0;" x1="994.5" x2="1597" y1="636.5313" y2="636.5313"/><text fill="#000000" font-family="sans-serif" font-size="13" font-weight="bold" lengthAdjust="spacing" textLength="14" x="1001.5" y="631.6748">14</text><text fill="#000000" font-family="sans-serif" font-size="13" lengthAdjust="spacing" textLength="43" x="1019.5" y="631.6748">findAll()</text><polygon fill="#A80036" points="2167,692.8828,2177,696.8828,2167,700.8828,2171,696.8828" style="stroke:#A80036;stroke-width:1.0;"/><line style="stroke:#A80036;stroke-width:1.0;" x1="994.5" x2="2173" y1="696.8828" y2="696.8828"/><text fill="#000000" font-family="sans-serif" font-size="13" font-weight="bold" lengthAdjust="spacing" textLength="14" x="1001.5" y="692.0264">15</text><text fill="#000000" font-family="sans-serif" font-size="13" lengthAdjust="spacing" textLength="62" x="1019.5" y="692.0264">toDTO(list)</text><polygon fill="#A80036" points="652.5,753.2344,662.5,757.2344,652.5,761.2344,656.5,757.2344" style="stroke:#A80036;stroke-width:1.0;"/><line style="stroke:#A80036;stroke-width:1.0;" x1="441.5" x2="658.5" y1="757.2344" y2="757.2344"/><text fill="#000000" font-family="sans-serif" font-size="13" font-weight="bold" lengthAdjust="spacing" textLength="14" x="448.5" y="752.3779">16</text><text fill="#000000" font-family="sans-serif" font-size="13" lengthAdjust="spacing" textLength="176" x="466.5" y="752.3779">findWarehouseByName(name)</text><polygon fill="#A80036" points="972.5,783.5859,982.5,787.5859,972.5,791.5859,976.5,787.5859" style="stroke:#A80036;stroke-width:1.0;"/><line style="stroke:#A80036;stroke-width:1.0;" x1="674.5" x2="978.5" y1="787.5859" y2="787.5859"/><text fill="#000000" font-family="sans-serif" font-size="13" font-weight="bold" lengthAdjust="spacing" textLength="14" x="681.5" y="782.7295">17</text><text fill="#000000" font-family="sans-serif" font-size="13" lengthAdjust="spacing" textLength="176" x="699.5" y="782.7295">findWarehouseByName(name)</text><polygon fill="#A80036" points="1591,813.9375,1601,817.9375,1591,821.9375,1595,817.9375" style="stroke:#A80036;stroke-width:1.0;"/><line style="stroke:#A80036;stroke-width:1.0;" x1="989.5" x2="1597" y1="817.9375" y2="817.9375"/><text fill="#000000" font-family="sans-serif" font-size="13" font-weight="bold" lengthAdjust="spacing" textLength="14" x="996.5" y="813.0811">18</text><text fill="#000000" font-family="sans-serif" font-size="13" lengthAdjust="spacing" textLength="238" x="1014.5" y="813.0811">getWarehouseByName(warehouseName)</text><polygon fill="#A80036" points="652.5,844.2891,662.5,848.2891,652.5,852.2891,656.5,848.2891" style="stroke:#A80036;stroke-width:1.0;"/><line style="stroke:#A80036;stroke-width:1.0;" x1="441.5" x2="658.5" y1="848.2891" y2="848.2891"/><text fill="#000000" font-family="sans-serif" font-size="13" font-weight="bold" lengthAdjust="spacing" textLength="14" x="448.5" y="843.4326">19</text><text fill="#000000" font-family="sans-serif" font-size="13" lengthAdjust="spacing" textLength="186" x="466.5" y="843.4326">importFile(warehouseDTO, path)</text><polygon fill="#A80036" points="972.5,874.6406,982.5,878.6406,972.5,882.6406,976.5,878.6406" style="stroke:#A80036;stroke-width:1.0;"/><line style="stroke:#A80036;stroke-width:1.0;" x1="674.5" x2="978.5" y1="878.6406" y2="878.6406"/><text fill="#000000" font-family="sans-serif" font-size="13" font-weight="bold" lengthAdjust="spacing" textLength="14" x="681.5" y="873.7842">20</text><text fill="#000000" font-family="sans-serif" font-size="13" lengthAdjust="spacing" textLength="273" x="699.5" y="873.7842">importPlantFromJsonFile(warehouseDTO, path)</text><polygon fill="#A80036" points="1591,904.9922,1601,908.9922,1591,912.9922,1595,908.9922" style="stroke:#A80036;stroke-width:1.0;"/><line style="stroke:#A80036;stroke-width:1.0;" x1="994.5" x2="1597" y1="908.9922" y2="908.9922"/><text fill="#000000" font-family="sans-serif" font-size="13" font-weight="bold" lengthAdjust="spacing" textLength="14" x="1001.5" y="904.1357">21</text><text fill="#000000" font-family="sans-serif" font-size="13" lengthAdjust="spacing" textLength="316" x="1019.5" y="904.1357">warehouse = getWarehouseByName(warehouseName)</text><polygon fill="#A80036" points="2447,965.3438,2457,969.3438,2447,973.3438,2451,969.3438" style="stroke:#A80036;stroke-width:1.0;"/><line style="stroke:#A80036;stroke-width:1.0;" x1="994.5" x2="2453" y1="969.3438" y2="969.3438"/><text fill="#000000" font-family="sans-serif" font-size="13" font-weight="bold" lengthAdjust="spacing" textLength="14" x="1001.5" y="964.4873">22</text><text fill="#000000" font-family="sans-serif" font-size="13" lengthAdjust="spacing" textLength="372" x="1019.5" y="964.4873">warehousePlant = create(description, length, width, square, unit)</text><line style="stroke:#A80036;stroke-width:1.0;" x1="994.5" x2="1036.5" y1="1029.6953" y2="1029.6953"/><line style="stroke:#A80036;stroke-width:1.0;" x1="1036.5" x2="1036.5" y1="1029.6953" y2="1042.6953"/><line style="stroke:#A80036;stroke-width:1.0;" x1="995.5" x2="1036.5" y1="1042.6953" y2="1042.6953"/><polygon fill="#A80036" points="1005.5,1038.6953,995.5,1042.6953,1005.5,1046.6953,1001.5,1042.6953" style="stroke:#A80036;stroke-width:1.0;"/><text fill="#000000" font-family="sans-serif" font-size="13" font-weight="bold" lengthAdjust="spacing" textLength="14" x="1001.5" y="1024.8389">23</text><text fill="#000000" font-family="sans-serif" font-size="13" lengthAdjust="spacing" textLength="243" x="1019.5" y="1024.8389">importAisles(warehouse, mainJsonObject)</text><polygon fill="#A80036" points="2651.5,1069.0469,2661.5,1073.0469,2651.5,1077.0469,2655.5,1073.0469" style="stroke:#A80036;stroke-width:1.0;"/><line style="stroke:#A80036;stroke-width:1.0;" x1="994.5" x2="2657.5" y1="1073.0469" y2="1073.0469"/><text fill="#000000" font-family="sans-serif" font-size="13" font-weight="bold" lengthAdjust="spacing" textLength="14" x="1001.5" y="1068.1904">24</text><text fill="#000000" font-family="sans-serif" font-size="13" lengthAdjust="spacing" textLength="382" x="1019.5" y="1068.1904">aisle = create(aisleId, begin, end, depth, accessibility, warehouse)</text><polygon fill="#A80036" points="1742.5,1129.3984,1752.5,1133.3984,1742.5,1137.3984,1746.5,1133.3984" style="stroke:#A80036;stroke-width:1.0;"/><line style="stroke:#A80036;stroke-width:1.0;" x1="994.5" x2="1748.5" y1="1133.3984" y2="1133.3984"/><text fill="#000000" font-family="sans-serif" font-size="13" font-weight="bold" lengthAdjust="spacing" textLength="14" x="1001.5" y="1128.542">25</text><text fill="#000000" font-family="sans-serif" font-size="13" lengthAdjust="spacing" textLength="61" x="1019.5" y="1128.542">save(aisle)</text><polygon fill="#A80036" points="2712,1189.75,2722,1193.75,2712,1197.75,2716,1193.75" style="stroke:#A80036;stroke-width:1.0;"/><line style="stroke:#A80036;stroke-width:1.0;" x1="994.5" x2="2718" y1="1193.75" y2="1193.75"/><text fill="#000000" font-family="sans-serif" font-size="13" font-weight="bold" lengthAdjust="spacing" textLength="14" x="1001.5" y="1188.8936">26</text><text fill="#000000" font-family="sans-serif" font-size="13" lengthAdjust="spacing" textLength="390" x="1019.5" y="1188.8936">row = create(rowId, rowBeginSquare, rowEndSquare, shelves, aisle)</text><polygon fill="#A80036" points="1871,1250.1016,1881,1254.1016,1871,1258.1016,1875,1254.1016" style="stroke:#A80036;stroke-width:1.0;"/><line style="stroke:#A80036;stroke-width:1.0;" x1="994.5" x2="1877" y1="1254.1016" y2="1254.1016"/><text fill="#000000" font-family="sans-serif" font-size="13" font-weight="bold" lengthAdjust="spacing" textLength="14" x="1001.5" y="1249.2451">27</text><text fill="#000000" font-family="sans-serif" font-size="13" lengthAdjust="spacing" textLength="54" x="1019.5" y="1249.2451">save(row)</text><line style="stroke:#A80036;stroke-width:1.0;" x1="994.5" x2="1036.5" y1="1314.4531" y2="1314.4531"/><line style="stroke:#A80036;stroke-width:1.0;" x1="1036.5" x2="1036.5" y1="1314.4531" y2="1327.4531"/><line style="stroke:#A80036;stroke-width:1.0;" x1="995.5" x2="1036.5" y1="1327.4531" y2="1327.4531"/><polygon fill="#A80036" points="1005.5,1323.4531,995.5,1327.4531,1005.5,1331.4531,1001.5,1327.4531" style="stroke:#A80036;stroke-width:1.0;"/><text fill="#000000" font-family="sans-serif" font-size="13" font-weight="bold" lengthAdjust="spacing" textLength="14" x="1001.5" y="1309.5967">28</text><text fill="#000000" font-family="sans-serif" font-size="13" lengthAdjust="spacing" textLength="265" x="1019.5" y="1309.5967">importAgvDocks(warehouse, mainJsonObject)</text><polygon fill="#A80036" points="2785.5,1353.8047,2795.5,1357.8047,2785.5,1361.8047,2789.5,1357.8047" style="stroke:#A80036;stroke-width:1.0;"/><line style="stroke:#A80036;stroke-width:1.0;" x1="994.5" x2="2791.5" y1="1357.8047" y2="1357.8047"/><text fill="#000000" font-family="sans-serif" font-size="13" font-weight="bold" lengthAdjust="spacing" textLength="14" x="1001.5" y="1352.9482">29</text><text fill="#000000" font-family="sans-serif" font-size="13" lengthAdjust="spacing" textLength="426" x="1019.5" y="1352.9482">agvDock = create(agvDockId, begin, end, depth, accessibility, warehouse)</text><polygon fill="#A80036" points="2012.5,1414.1563,2022.5,1418.1563,2012.5,1422.1563,2016.5,1418.1563" style="stroke:#A80036;stroke-width:1.0;"/><line style="stroke:#A80036;stroke-width:1.0;" x1="994.5" x2="2018.5" y1="1418.1563" y2="1418.1563"/><text fill="#000000" font-family="sans-serif" font-size="13" font-weight="bold" lengthAdjust="spacing" textLength="14" x="1001.5" y="1413.2998">30</text><text fill="#000000" font-family="sans-serif" font-size="13" lengthAdjust="spacing" textLength="83" x="1019.5" y="1413.2998">save(agvDock)</text><polygon fill="#A80036" points="2568,1474.5078,2578,1478.5078,2568,1482.5078,2572,1478.5078" style="stroke:#A80036;stroke-width:1.0;"/><line style="stroke:#A80036;stroke-width:1.0;" x1="994.5" x2="2574" y1="1478.5078" y2="1478.5078"/><text fill="#000000" font-family="sans-serif" font-size="13" font-weight="bold" lengthAdjust="spacing" textLength="14" x="1001.5" y="1473.6514">31</text><text fill="#000000" font-family="sans-serif" font-size="13" lengthAdjust="spacing" textLength="148" x="1019.5" y="1473.6514">setPlant(warehousePlant)</text><polygon fill="#A80036" points="1591,1534.8594,1601,1538.8594,1591,1542.8594,1595,1538.8594" style="stroke:#A80036;stroke-width:1.0;"/><line style="stroke:#A80036;stroke-width:1.0;" x1="994.5" x2="1597" y1="1538.8594" y2="1538.8594"/><text fill="#000000" font-family="sans-serif" font-size="13" font-weight="bold" lengthAdjust="spacing" textLength="14" x="1001.5" y="1534.0029">32</text><text fill="#000000" font-family="sans-serif" font-size="13" lengthAdjust="spacing" textLength="96" x="1019.5" y="1534.0029">save(warehouse)</text><polygon fill="#A80036" points="93.5,1595.2109,83.5,1599.2109,93.5,1603.2109,89.5,1599.2109" style="stroke:#A80036;stroke-width:1.0;"/><line style="stroke:#A80036;stroke-width:1.0;stroke-dasharray:2.0,2.0;" x1="87.5" x2="435.5" y1="1599.2109" y2="1599.2109"/><text fill="#000000" font-family="sans-serif" font-size="13" font-weight="bold" lengthAdjust="spacing" textLength="14" x="99.5" y="1594.3545">33</text><text fill="#000000" font-family="sans-serif" font-size="13" lengthAdjust="spacing" textLength="171" x="117.5" y="1594.3545">imports the data and shows it</text><polygon fill="#A80036" points="419.5,1625.5625,429.5,1629.5625,419.5,1633.5625,423.5,1629.5625" style="stroke:#A80036;stroke-width:1.0;"/><line style="stroke:#A80036;stroke-width:1.0;" x1="82.5" x2="425.5" y1="1629.5625" y2="1629.5625"/><text fill="#000000" font-family="sans-serif" font-size="13" font-weight="bold" lengthAdjust="spacing" textLength="14" x="89.5" y="1624.7061">34</text><text fill="#000000" font-family="sans-serif" font-size="13" lengthAdjust="spacing" textLength="107" x="107.5" y="1624.7061">visualizes the data</text><polygon fill="#A80036" points="88.5,1655.9141,78.5,1659.9141,88.5,1663.9141,84.5,1659.9141" style="stroke:#A80036;stroke-width:1.0;"/><line style="stroke:#A80036;stroke-width:1.0;stroke-dasharray:2.0,2.0;" x1="82.5" x2="435.5" y1="1659.9141" y2="1659.9141"/><text fill="#000000" font-family="sans-serif" font-size="13" font-weight="bold" lengthAdjust="spacing" textLength="14" x="94.5" y="1655.0576">35</text><text fill="#000000" font-family="sans-serif" font-size="13" lengthAdjust="spacing" textLength="152" x="112.5" y="1655.0576">informs operation success</text><!--MD5=[f1121f90e6dac536e7071aee156a83ee]
@startuml
autonumber
actor "Warehouse Employee" as WE

participant ":SetWarehousePlantUI" as UI
participant ":SetWarehousePlantController" as CTRL
participant ":ImportFileService" as SVC
participant ":PersistenceContext" as PC
participant ":RepositoryFactory" as REPOFAC
participant ":WarehouseRepository" as WARREPO
participant ":AisleRepository" as AISLEREPO
participant ":RowRepository" as ROWREPO
participant ":AgvDockRepository" as AGVREPO
participant ":WarehouseMapper" as MAPPER
participant ":WarehouseDTO" as DTO
participant ":WarehousePlant" as WPLANT
participant ":Warehouse" as WAREHOUSE
participant ":Aisle" as AISLE
participant ":Row" as ROW
participant ":AgvDock" as AGVDOCK

activate WE
WE -> UI : starts to set up the warehouse plant
activate UI

UI - -> WE : requests data (path of the JSON file, warehouseName)
deactivate UI

WE -> UI : types requested data
activate UI

UI -> CTRL: create()
activate CTRL

CTRL -> SVC: create()
deactivate CTRL

activate SVC
SVC -> PC: repositories()
deactivate SVC

activate PC
PC -> REPOFAC: create()
deactivate PC
activate REPOFAC

REPOFAC -> WARREPO: create()
activate WARREPO
deactivate WARREPO

REPOFAC -> AISLEREPO: create()
activate AISLEREPO
deactivate AISLEREPO

REPOFAC -> ROWREPO: create()
activate ROWREPO
deactivate ROWREPO

REPOFAC -> AGVREPO: create()
activate AGVREPO
deactivate AGVREPO

deactivate REPOFAC

UI -> CTRL: warehouses()
activate CTRL

CTRL -> SVC: warehouses()
deactivate CTRL

activate SVC
SVC -> WARREPO: findAll()
activate WARREPO
deactivate WARREPO

SVC -> MAPPER: toDTO(list)
activate MAPPER
deactivate MAPPER
deactivate SVC

UI -> CTRL: findWarehouseByName(name)
activate CTRL

CTRL -> SVC: findWarehouseByName(name)

activate SVC
SVC -> WARREPO: getWarehouseByName(warehouseName)
deactivate SVC

deactivate CTRL
activate WARREPO
deactivate WARREPO

UI -> CTRL : importFile(warehouseDTO, path)
deactivate WARREPO
activate CTRL

CTRL -> SVC: importPlantFromJsonFile(warehouseDTO, path)
activate SVC

SVC -> WARREPO: warehouse = getWarehouseByName(warehouseName)
activate WARREPO
deactivate WARREPO

SVC -> WPLANT: warehousePlant = create(description, length, width, square, unit)
activate WPLANT
deactivate WPLANT

SVC -> SVC: importAisles(warehouse, mainJsonObject)
SVC -> AISLE: aisle = create(aisleId, begin, end, depth, accessibility, warehouse)
activate AISLE
deactivate AISLE

SVC -> AISLEREPO: save(aisle)
activate AISLEREPO
deactivate AISLEREPO

SVC -> ROW: row = create(rowId, rowBeginSquare, rowEndSquare, shelves, aisle)
activate ROW
deactivate ROW

SVC -> ROWREPO: save(row)
activate ROWREPO
deactivate ROWREPO

SVC -> SVC: importAgvDocks(warehouse, mainJsonObject)

SVC -> AGVDOCK: agvDock = create(agvDockId, begin, end, depth, accessibility, warehouse)
activate AGVDOCK
deactivate AGVDOCK

SVC -> AGVREPO: save(agvDock)
activate AGVREPO
deactivate AGVREPO


SVC -> WAREHOUSE: setPlant(warehousePlant)
activate WAREHOUSE
deactivate WAREHOUSE

SVC -> WARREPO: save(warehouse)
activate WARREPO
deactivate WARREPO

deactivate SVC

deactivate CTRL
UI - -> WE : imports the data and shows it

deactivate UI

WE -> UI : visualizes the data
activate UI

UI - -> WE : informs operation success
deactivate CTRL

deactivate UI
deactivate WE

@enduml

PlantUML version 1.2021.16(Wed Dec 08 17:25:22 GMT 2021)
(GPL source distribution)
Java Runtime: OpenJDK Runtime Environment
JVM: OpenJDK 64-Bit Server VM
Default Encoding: Cp1252
Language: en
Country: US
--></g></svg>