<?xml version="1.0" encoding="UTF-8" standalone="no"?><svg xmlns="http://www.w3.org/2000/svg" xmlns:xlink="http://www.w3.org/1999/xlink" contentScriptType="application/ecmascript" contentStyleType="text/css" height="1006px" preserveAspectRatio="none" style="width:736px;height:1006px;background:#FFFFFF;" version="1.1" viewBox="0 0 736 1006" width="736px" zoomAndPan="magnify"><defs><filter height="300%" id="f8ewjc7uvhusg" width="300%" x="-1" y="-1"><feGaussianBlur result="blurOut" stdDeviation="2.0"/><feColorMatrix in="blurOut" result="blurOut2" type="matrix" values="0 0 0 0 0 0 0 0 0 0 0 0 0 0 0 0 0 0 .4 0"/><feOffset dx="4.0" dy="4.0" in="blurOut2" result="blurOut3"/><feBlend in="SourceGraphic" in2="blurOut3" mode="normal"/></filter></defs><g><!--MD5=[2fb632983e72f2d3adf5c0a721675ce0]
class SetWarehousePlantUI--><rect codeLine="2" fill="#FEFECE" filter="url(#f8ewjc7uvhusg)" height="48" id="SetWarehousePlantUI" style="stroke:#A80036;stroke-width:1.5;" width="154" x="252.5" y="7"/><ellipse cx="267.5" cy="23" fill="#ADD1B2" rx="11" ry="11" style="stroke:#A80036;stroke-width:1.0;"/><path d="M269.5,19.5 Q269.7031,19 269.9375,18.75 Q270.1719,18.5 270.4375,18.5 Q270.9063,18.5 271.2031,18.7813 Q271.5,19.0625 271.5,19.7188 L271.5,21.2813 Q271.5,21.9375 271.2188,22.2188 Q270.9375,22.5 270.5,22.5 Q270.1094,22.5 269.8594,22.3281 Q269.6094,22.1563 269.5,21.7031 Q269.4531,21.3906 269.2813,21.2188 Q268.9688,20.8906 268.4063,20.7031 Q267.8438,20.5 267.2813,20.5 Q266.5781,20.5 265.9844,20.7813 Q265.4063,21.0625 264.9531,21.6875 Q264.5,22.3125 264.5,23.1719 L264.5,24.0938 Q264.5,25.125 265.3438,25.8125 Q266.1875,26.5 267.6875,26.5 Q268.5781,26.5 269.2031,26.2969 Q269.5625,26.1875 269.9688,25.8281 Q270.2344,25.625 270.375,25.5625 Q270.5156,25.5 270.6875,25.5 Q271.0156,25.5 271.25,25.7656 Q271.5,26.0156 271.5,26.375 Q271.5,26.7188 271.1563,27.125 Q270.6563,27.7188 269.8594,28.0469 Q268.8125,28.5 267.5313,28.5 Q266.0313,28.5 264.8281,27.9063 Q263.8594,27.4375 263.1719,26.4219 Q262.5,25.4063 262.5,24.2031 L262.5,23.1094 Q262.5,21.8594 263.0938,20.7656 Q263.7031,19.6719 264.75,19.0938 Q265.8125,18.5 267,18.5 Q267.7188,18.5 268.3438,18.75 Q268.9688,19 269.5,19.5 Z " fill="#000000"/><text fill="#000000" font-family="sans-serif" font-size="12" lengthAdjust="spacing" textLength="122" x="281.5" y="27.9102">SetWarehousePlantUI</text><line style="stroke:#A80036;stroke-width:1.5;" x1="253.5" x2="405.5" y1="39" y2="39"/><line style="stroke:#A80036;stroke-width:1.5;" x1="253.5" x2="405.5" y1="47" y2="47"/><!--MD5=[4f373fb98098f34816f620217f36ff78]
class SetWarehousePlantController--><rect codeLine="5" fill="#FEFECE" filter="url(#f8ewjc7uvhusg)" height="89.5078" id="SetWarehousePlantController" style="stroke:#A80036;stroke-width:1.5;" width="196" x="231.5" y="115"/><ellipse cx="246.5" cy="131" fill="#ADD1B2" rx="11" ry="11" style="stroke:#A80036;stroke-width:1.0;"/><path d="M248.5,127.5 Q248.7031,127 248.9375,126.75 Q249.1719,126.5 249.4375,126.5 Q249.9063,126.5 250.2031,126.7813 Q250.5,127.0625 250.5,127.7188 L250.5,129.2813 Q250.5,129.9375 250.2188,130.2188 Q249.9375,130.5 249.5,130.5 Q249.1094,130.5 248.8594,130.3281 Q248.6094,130.1563 248.5,129.7031 Q248.4531,129.3906 248.2813,129.2188 Q247.9688,128.8906 247.4063,128.7031 Q246.8438,128.5 246.2813,128.5 Q245.5781,128.5 244.9844,128.7813 Q244.4063,129.0625 243.9531,129.6875 Q243.5,130.3125 243.5,131.1719 L243.5,132.0938 Q243.5,133.125 244.3438,133.8125 Q245.1875,134.5 246.6875,134.5 Q247.5781,134.5 248.2031,134.2969 Q248.5625,134.1875 248.9688,133.8281 Q249.2344,133.625 249.375,133.5625 Q249.5156,133.5 249.6875,133.5 Q250.0156,133.5 250.25,133.7656 Q250.5,134.0156 250.5,134.375 Q250.5,134.7188 250.1563,135.125 Q249.6563,135.7188 248.8594,136.0469 Q247.8125,136.5 246.5313,136.5 Q245.0313,136.5 243.8281,135.9063 Q242.8594,135.4375 242.1719,134.4219 Q241.5,133.4063 241.5,132.2031 L241.5,131.1094 Q241.5,129.8594 242.0938,128.7656 Q242.7031,127.6719 243.75,127.0938 Q244.8125,126.5 246,126.5 Q246.7188,126.5 247.3438,126.75 Q247.9688,127 248.5,127.5 Z " fill="#000000"/><text fill="#000000" font-family="sans-serif" font-size="12" lengthAdjust="spacing" textLength="164" x="260.5" y="135.9102">SetWarehousePlantController</text><line style="stroke:#A80036;stroke-width:1.5;" x1="232.5" x2="426.5" y1="147" y2="147"/><line style="stroke:#A80036;stroke-width:1.5;" x1="232.5" x2="426.5" y1="155" y2="155"/><text fill="#000000" font-family="sans-serif" font-size="11" lengthAdjust="spacing" textLength="70" x="237.5" y="170.4189">warehouses()</text><text fill="#000000" font-family="sans-serif" font-size="11" lengthAdjust="spacing" textLength="148" x="237.5" y="184.2549">findWarehouseByName(name)</text><text fill="#000000" font-family="sans-serif" font-size="11" lengthAdjust="spacing" textLength="157" x="237.5" y="198.0908">importFile(warehouseDTO, path)</text><!--MD5=[ad56eaabf739e0986eb3d554a8fad4ce]
class ImportFileService--><rect codeLine="11" fill="#FEFECE" filter="url(#f8ewjc7uvhusg)" height="117.1797" id="ImportFileService" style="stroke:#A80036;stroke-width:1.5;" width="240" x="209.5" y="265"/><ellipse cx="277.75" cy="281" fill="#ADD1B2" rx="11" ry="11" style="stroke:#A80036;stroke-width:1.0;"/><path d="M279.75,277.5 Q279.9531,277 280.1875,276.75 Q280.4219,276.5 280.6875,276.5 Q281.1563,276.5 281.4531,276.7813 Q281.75,277.0625 281.75,277.7188 L281.75,279.2813 Q281.75,279.9375 281.4688,280.2188 Q281.1875,280.5 280.75,280.5 Q280.3594,280.5 280.1094,280.3281 Q279.8594,280.1563 279.75,279.7031 Q279.7031,279.3906 279.5313,279.2188 Q279.2188,278.8906 278.6563,278.7031 Q278.0938,278.5 277.5313,278.5 Q276.8281,278.5 276.2344,278.7813 Q275.6563,279.0625 275.2031,279.6875 Q274.75,280.3125 274.75,281.1719 L274.75,282.0938 Q274.75,283.125 275.5938,283.8125 Q276.4375,284.5 277.9375,284.5 Q278.8281,284.5 279.4531,284.2969 Q279.8125,284.1875 280.2188,283.8281 Q280.4844,283.625 280.625,283.5625 Q280.7656,283.5 280.9375,283.5 Q281.2656,283.5 281.5,283.7656 Q281.75,284.0156 281.75,284.375 Q281.75,284.7188 281.4063,285.125 Q280.9063,285.7188 280.1094,286.0469 Q279.0625,286.5 277.7813,286.5 Q276.2813,286.5 275.0781,285.9063 Q274.1094,285.4375 273.4219,284.4219 Q272.75,283.4063 272.75,282.2031 L272.75,281.1094 Q272.75,279.8594 273.3438,278.7656 Q273.9531,277.6719 275,277.0938 Q276.0625,276.5 277.25,276.5 Q277.9688,276.5 278.5938,276.75 Q279.2188,277 279.75,277.5 Z " fill="#000000"/><text fill="#000000" font-family="sans-serif" font-size="12" lengthAdjust="spacing" textLength="95" x="298.25" y="285.9102">ImportFileService</text><line style="stroke:#A80036;stroke-width:1.5;" x1="210.5" x2="448.5" y1="297" y2="297"/><line style="stroke:#A80036;stroke-width:1.5;" x1="210.5" x2="448.5" y1="305" y2="305"/><text fill="#000000" font-family="sans-serif" font-size="11" lengthAdjust="spacing" textLength="70" x="215.5" y="320.4189">warehouses()</text><text fill="#000000" font-family="sans-serif" font-size="11" lengthAdjust="spacing" textLength="148" x="215.5" y="334.2549">findWarehouseByName(name)</text><text fill="#000000" font-family="sans-serif" font-size="11" lengthAdjust="spacing" textLength="227" x="215.5" y="348.0908">importPlantFromJsonFile(warehouseDTO, path)</text><text fill="#000000" font-family="sans-serif" font-size="11" lengthAdjust="spacing" textLength="205" x="215.5" y="361.9268">importAisles(warehouse, mainJsonObject)</text><text fill="#000000" font-family="sans-serif" font-size="11" lengthAdjust="spacing" textLength="228" x="215.5" y="375.7627">importAgvDocks(warehouse, mainJsonObject);</text><!--MD5=[552d9ccf29484460711bcd4247884434]
class WarehouseMapper--><rect codeLine="19" fill="#FEFECE" filter="url(#f8ewjc7uvhusg)" height="48" id="WarehouseMapper" style="stroke:#A80036;stroke-width:1.5;" width="137" x="7" y="449"/><ellipse cx="22" cy="465" fill="#ADD1B2" rx="11" ry="11" style="stroke:#A80036;stroke-width:1.0;"/><path d="M24,461.5 Q24.2031,461 24.4375,460.75 Q24.6719,460.5 24.9375,460.5 Q25.4063,460.5 25.7031,460.7813 Q26,461.0625 26,461.7188 L26,463.2813 Q26,463.9375 25.7188,464.2188 Q25.4375,464.5 25,464.5 Q24.6094,464.5 24.3594,464.3281 Q24.1094,464.1563 24,463.7031 Q23.9531,463.3906 23.7813,463.2188 Q23.4688,462.8906 22.9063,462.7031 Q22.3438,462.5 21.7813,462.5 Q21.0781,462.5 20.4844,462.7813 Q19.9063,463.0625 19.4531,463.6875 Q19,464.3125 19,465.1719 L19,466.0938 Q19,467.125 19.8438,467.8125 Q20.6875,468.5 22.1875,468.5 Q23.0781,468.5 23.7031,468.2969 Q24.0625,468.1875 24.4688,467.8281 Q24.7344,467.625 24.875,467.5625 Q25.0156,467.5 25.1875,467.5 Q25.5156,467.5 25.75,467.7656 Q26,468.0156 26,468.375 Q26,468.7188 25.6563,469.125 Q25.1563,469.7188 24.3594,470.0469 Q23.3125,470.5 22.0313,470.5 Q20.5313,470.5 19.3281,469.9063 Q18.3594,469.4375 17.6719,468.4219 Q17,467.4063 17,466.2031 L17,465.1094 Q17,463.8594 17.5938,462.7656 Q18.2031,461.6719 19.25,461.0938 Q20.3125,460.5 21.5,460.5 Q22.2188,460.5 22.8438,460.75 Q23.4688,461 24,461.5 Z " fill="#000000"/><text fill="#000000" font-family="sans-serif" font-size="12" lengthAdjust="spacing" textLength="105" x="36" y="469.9102">WarehouseMapper</text><line style="stroke:#A80036;stroke-width:1.5;" x1="8" x2="143" y1="481" y2="481"/><line style="stroke:#A80036;stroke-width:1.5;" x1="8" x2="143" y1="489" y2="489"/><!--MD5=[e8c189551b7885b999ad7cefb30fc2a3]
class PersistenceContext--><rect codeLine="22" fill="#FEFECE" filter="url(#f8ewjc7uvhusg)" height="61.8359" id="PersistenceContext" style="stroke:#A80036;stroke-width:1.5;" width="139" x="322" y="442"/><ellipse cx="337" cy="458" fill="#ADD1B2" rx="11" ry="11" style="stroke:#A80036;stroke-width:1.0;"/><path d="M339,454.5 Q339.2031,454 339.4375,453.75 Q339.6719,453.5 339.9375,453.5 Q340.4063,453.5 340.7031,453.7813 Q341,454.0625 341,454.7188 L341,456.2813 Q341,456.9375 340.7188,457.2188 Q340.4375,457.5 340,457.5 Q339.6094,457.5 339.3594,457.3281 Q339.1094,457.1563 339,456.7031 Q338.9531,456.3906 338.7813,456.2188 Q338.4688,455.8906 337.9063,455.7031 Q337.3438,455.5 336.7813,455.5 Q336.0781,455.5 335.4844,455.7813 Q334.9063,456.0625 334.4531,456.6875 Q334,457.3125 334,458.1719 L334,459.0938 Q334,460.125 334.8438,460.8125 Q335.6875,461.5 337.1875,461.5 Q338.0781,461.5 338.7031,461.2969 Q339.0625,461.1875 339.4688,460.8281 Q339.7344,460.625 339.875,460.5625 Q340.0156,460.5 340.1875,460.5 Q340.5156,460.5 340.75,460.7656 Q341,461.0156 341,461.375 Q341,461.7188 340.6563,462.125 Q340.1563,462.7188 339.3594,463.0469 Q338.3125,463.5 337.0313,463.5 Q335.5313,463.5 334.3281,462.9063 Q333.3594,462.4375 332.6719,461.4219 Q332,460.4063 332,459.2031 L332,458.1094 Q332,456.8594 332.5938,455.7656 Q333.2031,454.6719 334.25,454.0938 Q335.3125,453.5 336.5,453.5 Q337.2188,453.5 337.8438,453.75 Q338.4688,454 339,454.5 Z " fill="#000000"/><text fill="#000000" font-family="sans-serif" font-size="12" lengthAdjust="spacing" textLength="107" x="351" y="462.9102">PersistenceContext</text><line style="stroke:#A80036;stroke-width:1.5;" x1="323" x2="460" y1="474" y2="474"/><line style="stroke:#A80036;stroke-width:1.5;" x1="323" x2="460" y1="482" y2="482"/><text fill="#000000" font-family="sans-serif" font-size="11" lengthAdjust="spacing" textLength="65" x="328" y="497.4189">repositories()</text><!--MD5=[48590afff58a68e2fcba47824d6f8a11]
class RepositoryFactory--><rect codeLine="26" fill="#FEFECE" filter="url(#f8ewjc7uvhusg)" height="48" id="RepositoryFactory" style="stroke:#A80036;stroke-width:1.5;" width="130" x="326.5" y="564"/><ellipse cx="341.5" cy="580" fill="#ADD1B2" rx="11" ry="11" style="stroke:#A80036;stroke-width:1.0;"/><path d="M343.5,576.5 Q343.7031,576 343.9375,575.75 Q344.1719,575.5 344.4375,575.5 Q344.9063,575.5 345.2031,575.7813 Q345.5,576.0625 345.5,576.7188 L345.5,578.2813 Q345.5,578.9375 345.2188,579.2188 Q344.9375,579.5 344.5,579.5 Q344.1094,579.5 343.8594,579.3281 Q343.6094,579.1563 343.5,578.7031 Q343.4531,578.3906 343.2813,578.2188 Q342.9688,577.8906 342.4063,577.7031 Q341.8438,577.5 341.2813,577.5 Q340.5781,577.5 339.9844,577.7813 Q339.4063,578.0625 338.9531,578.6875 Q338.5,579.3125 338.5,580.1719 L338.5,581.0938 Q338.5,582.125 339.3438,582.8125 Q340.1875,583.5 341.6875,583.5 Q342.5781,583.5 343.2031,583.2969 Q343.5625,583.1875 343.9688,582.8281 Q344.2344,582.625 344.375,582.5625 Q344.5156,582.5 344.6875,582.5 Q345.0156,582.5 345.25,582.7656 Q345.5,583.0156 345.5,583.375 Q345.5,583.7188 345.1563,584.125 Q344.6563,584.7188 343.8594,585.0469 Q342.8125,585.5 341.5313,585.5 Q340.0313,585.5 338.8281,584.9063 Q337.8594,584.4375 337.1719,583.4219 Q336.5,582.4063 336.5,581.2031 L336.5,580.1094 Q336.5,578.8594 337.0938,577.7656 Q337.7031,576.6719 338.75,576.0938 Q339.8125,575.5 341,575.5 Q341.7188,575.5 342.3438,575.75 Q342.9688,576 343.5,576.5 Z " fill="#000000"/><text fill="#000000" font-family="sans-serif" font-size="12" lengthAdjust="spacing" textLength="98" x="355.5" y="584.9102">RepositoryFactory</text><line style="stroke:#A80036;stroke-width:1.5;" x1="327.5" x2="455.5" y1="596" y2="596"/><line style="stroke:#A80036;stroke-width:1.5;" x1="327.5" x2="455.5" y1="604" y2="604"/><!--MD5=[7ec1a44433576e2b716f199e8ee61f54]
class WarehouseDTO--><rect codeLine="29" fill="#FEFECE" filter="url(#f8ewjc7uvhusg)" height="48" id="WarehouseDTO" style="stroke:#A80036;stroke-width:1.5;" width="121" x="15" y="564"/><ellipse cx="30" cy="580" fill="#ADD1B2" rx="11" ry="11" style="stroke:#A80036;stroke-width:1.0;"/><path d="M32,576.5 Q32.2031,576 32.4375,575.75 Q32.6719,575.5 32.9375,575.5 Q33.4063,575.5 33.7031,575.7813 Q34,576.0625 34,576.7188 L34,578.2813 Q34,578.9375 33.7188,579.2188 Q33.4375,579.5 33,579.5 Q32.6094,579.5 32.3594,579.3281 Q32.1094,579.1563 32,578.7031 Q31.9531,578.3906 31.7813,578.2188 Q31.4688,577.8906 30.9063,577.7031 Q30.3438,577.5 29.7813,577.5 Q29.0781,577.5 28.4844,577.7813 Q27.9063,578.0625 27.4531,578.6875 Q27,579.3125 27,580.1719 L27,581.0938 Q27,582.125 27.8438,582.8125 Q28.6875,583.5 30.1875,583.5 Q31.0781,583.5 31.7031,583.2969 Q32.0625,583.1875 32.4688,582.8281 Q32.7344,582.625 32.875,582.5625 Q33.0156,582.5 33.1875,582.5 Q33.5156,582.5 33.75,582.7656 Q34,583.0156 34,583.375 Q34,583.7188 33.6563,584.125 Q33.1563,584.7188 32.3594,585.0469 Q31.3125,585.5 30.0313,585.5 Q28.5313,585.5 27.3281,584.9063 Q26.3594,584.4375 25.6719,583.4219 Q25,582.4063 25,581.2031 L25,580.1094 Q25,578.8594 25.5938,577.7656 Q26.2031,576.6719 27.25,576.0938 Q28.3125,575.5 29.5,575.5 Q30.2188,575.5 30.8438,575.75 Q31.4688,576 32,576.5 Z " fill="#000000"/><text fill="#000000" font-family="sans-serif" font-size="12" lengthAdjust="spacing" textLength="89" x="44" y="584.9102">WarehouseDTO</text><line style="stroke:#A80036;stroke-width:1.5;" x1="16" x2="135" y1="596" y2="596"/><line style="stroke:#A80036;stroke-width:1.5;" x1="16" x2="135" y1="604" y2="604"/><!--MD5=[bf4d0c028d0f251e49ce9c9f9f101ed4]
class WarehouseRepository--><rect codeLine="32" fill="#FEFECE" filter="url(#f8ewjc7uvhusg)" height="89.5078" id="WarehouseRepository" style="stroke:#A80036;stroke-width:1.5;" width="214" x="31.5" y="672"/><ellipse cx="73.05" cy="688" fill="#ADD1B2" rx="11" ry="11" style="stroke:#A80036;stroke-width:1.0;"/><path d="M75.05,684.5 Q75.2531,684 75.4875,683.75 Q75.7219,683.5 75.9875,683.5 Q76.4563,683.5 76.7531,683.7813 Q77.05,684.0625 77.05,684.7188 L77.05,686.2813 Q77.05,686.9375 76.7688,687.2188 Q76.4875,687.5 76.05,687.5 Q75.6594,687.5 75.4094,687.3281 Q75.1594,687.1563 75.05,686.7031 Q75.0031,686.3906 74.8313,686.2188 Q74.5188,685.8906 73.9563,685.7031 Q73.3938,685.5 72.8313,685.5 Q72.1281,685.5 71.5344,685.7813 Q70.9563,686.0625 70.5031,686.6875 Q70.05,687.3125 70.05,688.1719 L70.05,689.0938 Q70.05,690.125 70.8938,690.8125 Q71.7375,691.5 73.2375,691.5 Q74.1281,691.5 74.7531,691.2969 Q75.1125,691.1875 75.5188,690.8281 Q75.7844,690.625 75.925,690.5625 Q76.0656,690.5 76.2375,690.5 Q76.5656,690.5 76.8,690.7656 Q77.05,691.0156 77.05,691.375 Q77.05,691.7188 76.7063,692.125 Q76.2063,692.7188 75.4094,693.0469 Q74.3625,693.5 73.0813,693.5 Q71.5813,693.5 70.3781,692.9063 Q69.4094,692.4375 68.7219,691.4219 Q68.05,690.4063 68.05,689.2031 L68.05,688.1094 Q68.05,686.8594 68.6438,685.7656 Q69.2531,684.6719 70.3,684.0938 Q71.3625,683.5 72.55,683.5 Q73.2688,683.5 73.8938,683.75 Q74.5188,684 75.05,684.5 Z " fill="#000000"/><text fill="#000000" font-family="sans-serif" font-size="12" lengthAdjust="spacing" textLength="123" x="92.95" y="692.9102">WarehouseRepository</text><line style="stroke:#A80036;stroke-width:1.5;" x1="32.5" x2="244.5" y1="704" y2="704"/><line style="stroke:#A80036;stroke-width:1.5;" x1="32.5" x2="244.5" y1="712" y2="712"/><text fill="#000000" font-family="sans-serif" font-size="11" lengthAdjust="spacing" textLength="38" x="37.5" y="727.4189">findAll()</text><text fill="#000000" font-family="sans-serif" font-size="11" lengthAdjust="spacing" textLength="202" x="37.5" y="741.2549">getWarehouseByName(warehouseName)</text><text fill="#000000" font-family="sans-serif" font-size="11" lengthAdjust="spacing" textLength="88" x="37.5" y="755.0908">save(warehouse)</text><!--MD5=[19808940e3a93a06421f0af69997d678]
class AisleRepository--><rect codeLine="38" fill="#FEFECE" filter="url(#f8ewjc7uvhusg)" height="61.8359" id="AisleRepository" style="stroke:#A80036;stroke-width:1.5;" width="118" x="280.5" y="686"/><ellipse cx="295.5" cy="702" fill="#ADD1B2" rx="11" ry="11" style="stroke:#A80036;stroke-width:1.0;"/><path d="M297.5,698.5 Q297.7031,698 297.9375,697.75 Q298.1719,697.5 298.4375,697.5 Q298.9063,697.5 299.2031,697.7813 Q299.5,698.0625 299.5,698.7188 L299.5,700.2813 Q299.5,700.9375 299.2188,701.2188 Q298.9375,701.5 298.5,701.5 Q298.1094,701.5 297.8594,701.3281 Q297.6094,701.1563 297.5,700.7031 Q297.4531,700.3906 297.2813,700.2188 Q296.9688,699.8906 296.4063,699.7031 Q295.8438,699.5 295.2813,699.5 Q294.5781,699.5 293.9844,699.7813 Q293.4063,700.0625 292.9531,700.6875 Q292.5,701.3125 292.5,702.1719 L292.5,703.0938 Q292.5,704.125 293.3438,704.8125 Q294.1875,705.5 295.6875,705.5 Q296.5781,705.5 297.2031,705.2969 Q297.5625,705.1875 297.9688,704.8281 Q298.2344,704.625 298.375,704.5625 Q298.5156,704.5 298.6875,704.5 Q299.0156,704.5 299.25,704.7656 Q299.5,705.0156 299.5,705.375 Q299.5,705.7188 299.1563,706.125 Q298.6563,706.7188 297.8594,707.0469 Q296.8125,707.5 295.5313,707.5 Q294.0313,707.5 292.8281,706.9063 Q291.8594,706.4375 291.1719,705.4219 Q290.5,704.4063 290.5,703.2031 L290.5,702.1094 Q290.5,700.8594 291.0938,699.7656 Q291.7031,698.6719 292.75,698.0938 Q293.8125,697.5 295,697.5 Q295.7188,697.5 296.3438,697.75 Q296.9688,698 297.5,698.5 Z " fill="#000000"/><text fill="#000000" font-family="sans-serif" font-size="12" lengthAdjust="spacing" textLength="86" x="309.5" y="706.9102">AisleRepository</text><line style="stroke:#A80036;stroke-width:1.5;" x1="281.5" x2="397.5" y1="718" y2="718"/><line style="stroke:#A80036;stroke-width:1.5;" x1="281.5" x2="397.5" y1="726" y2="726"/><text fill="#000000" font-family="sans-serif" font-size="11" lengthAdjust="spacing" textLength="54" x="286.5" y="741.4189">save(aisle)</text><!--MD5=[2a97c8ac02a997aeb5d82c92297a3153]
class RowRepository--><rect codeLine="42" fill="#FEFECE" filter="url(#f8ewjc7uvhusg)" height="61.8359" id="RowRepository" style="stroke:#A80036;stroke-width:1.5;" width="116" x="433.5" y="686"/><ellipse cx="448.5" cy="702" fill="#ADD1B2" rx="11" ry="11" style="stroke:#A80036;stroke-width:1.0;"/><path d="M450.5,698.5 Q450.7031,698 450.9375,697.75 Q451.1719,697.5 451.4375,697.5 Q451.9063,697.5 452.2031,697.7813 Q452.5,698.0625 452.5,698.7188 L452.5,700.2813 Q452.5,700.9375 452.2188,701.2188 Q451.9375,701.5 451.5,701.5 Q451.1094,701.5 450.8594,701.3281 Q450.6094,701.1563 450.5,700.7031 Q450.4531,700.3906 450.2813,700.2188 Q449.9688,699.8906 449.4063,699.7031 Q448.8438,699.5 448.2813,699.5 Q447.5781,699.5 446.9844,699.7813 Q446.4063,700.0625 445.9531,700.6875 Q445.5,701.3125 445.5,702.1719 L445.5,703.0938 Q445.5,704.125 446.3438,704.8125 Q447.1875,705.5 448.6875,705.5 Q449.5781,705.5 450.2031,705.2969 Q450.5625,705.1875 450.9688,704.8281 Q451.2344,704.625 451.375,704.5625 Q451.5156,704.5 451.6875,704.5 Q452.0156,704.5 452.25,704.7656 Q452.5,705.0156 452.5,705.375 Q452.5,705.7188 452.1563,706.125 Q451.6563,706.7188 450.8594,707.0469 Q449.8125,707.5 448.5313,707.5 Q447.0313,707.5 445.8281,706.9063 Q444.8594,706.4375 444.1719,705.4219 Q443.5,704.4063 443.5,703.2031 L443.5,702.1094 Q443.5,700.8594 444.0938,699.7656 Q444.7031,698.6719 445.75,698.0938 Q446.8125,697.5 448,697.5 Q448.7188,697.5 449.3438,697.75 Q449.9688,698 450.5,698.5 Z " fill="#000000"/><text fill="#000000" font-family="sans-serif" font-size="12" lengthAdjust="spacing" textLength="84" x="462.5" y="706.9102">RowRepository</text><line style="stroke:#A80036;stroke-width:1.5;" x1="434.5" x2="548.5" y1="718" y2="718"/><line style="stroke:#A80036;stroke-width:1.5;" x1="434.5" x2="548.5" y1="726" y2="726"/><text fill="#000000" font-family="sans-serif" font-size="11" lengthAdjust="spacing" textLength="52" x="439.5" y="741.4189">save(row)</text><!--MD5=[050412dd439d0e0a7cca4a94c8dbd31e]
class AgvDockRepository--><rect codeLine="46" fill="#FEFECE" filter="url(#f8ewjc7uvhusg)" height="61.8359" id="AgvDockRepository" style="stroke:#A80036;stroke-width:1.5;" width="138" x="584.5" y="686"/><ellipse cx="599.5" cy="702" fill="#ADD1B2" rx="11" ry="11" style="stroke:#A80036;stroke-width:1.0;"/><path d="M601.5,698.5 Q601.7031,698 601.9375,697.75 Q602.1719,697.5 602.4375,697.5 Q602.9063,697.5 603.2031,697.7813 Q603.5,698.0625 603.5,698.7188 L603.5,700.2813 Q603.5,700.9375 603.2188,701.2188 Q602.9375,701.5 602.5,701.5 Q602.1094,701.5 601.8594,701.3281 Q601.6094,701.1563 601.5,700.7031 Q601.4531,700.3906 601.2813,700.2188 Q600.9688,699.8906 600.4063,699.7031 Q599.8438,699.5 599.2813,699.5 Q598.5781,699.5 597.9844,699.7813 Q597.4063,700.0625 596.9531,700.6875 Q596.5,701.3125 596.5,702.1719 L596.5,703.0938 Q596.5,704.125 597.3438,704.8125 Q598.1875,705.5 599.6875,705.5 Q600.5781,705.5 601.2031,705.2969 Q601.5625,705.1875 601.9688,704.8281 Q602.2344,704.625 602.375,704.5625 Q602.5156,704.5 602.6875,704.5 Q603.0156,704.5 603.25,704.7656 Q603.5,705.0156 603.5,705.375 Q603.5,705.7188 603.1563,706.125 Q602.6563,706.7188 601.8594,707.0469 Q600.8125,707.5 599.5313,707.5 Q598.0313,707.5 596.8281,706.9063 Q595.8594,706.4375 595.1719,705.4219 Q594.5,704.4063 594.5,703.2031 L594.5,702.1094 Q594.5,700.8594 595.0938,699.7656 Q595.7031,698.6719 596.75,698.0938 Q597.8125,697.5 599,697.5 Q599.7188,697.5 600.3438,697.75 Q600.9688,698 601.5,698.5 Z " fill="#000000"/><text fill="#000000" font-family="sans-serif" font-size="12" lengthAdjust="spacing" textLength="106" x="613.5" y="706.9102">AgvDockRepository</text><line style="stroke:#A80036;stroke-width:1.5;" x1="585.5" x2="721.5" y1="718" y2="718"/><line style="stroke:#A80036;stroke-width:1.5;" x1="585.5" x2="721.5" y1="726" y2="726"/><text fill="#000000" font-family="sans-serif" font-size="11" lengthAdjust="spacing" textLength="74" x="590.5" y="741.4189">save(agvDock)</text><!--MD5=[c5149b4909ffd2688ff51a939867f774]
class Warehouse--><rect codeLine="50" fill="#FEFECE" filter="url(#f8ewjc7uvhusg)" height="61.8359" id="Warehouse" style="stroke:#A80036;stroke-width:1.5;" width="137" x="70" y="822"/><ellipse cx="103.45" cy="838" fill="#ADD1B2" rx="11" ry="11" style="stroke:#A80036;stroke-width:1.0;"/><path d="M105.45,834.5 Q105.6531,834 105.8875,833.75 Q106.1219,833.5 106.3875,833.5 Q106.8563,833.5 107.1531,833.7813 Q107.45,834.0625 107.45,834.7188 L107.45,836.2813 Q107.45,836.9375 107.1688,837.2188 Q106.8875,837.5 106.45,837.5 Q106.0594,837.5 105.8094,837.3281 Q105.5594,837.1563 105.45,836.7031 Q105.4031,836.3906 105.2313,836.2188 Q104.9188,835.8906 104.3563,835.7031 Q103.7938,835.5 103.2313,835.5 Q102.5281,835.5 101.9344,835.7813 Q101.3563,836.0625 100.9031,836.6875 Q100.45,837.3125 100.45,838.1719 L100.45,839.0938 Q100.45,840.125 101.2938,840.8125 Q102.1375,841.5 103.6375,841.5 Q104.5281,841.5 105.1531,841.2969 Q105.5125,841.1875 105.9188,840.8281 Q106.1844,840.625 106.325,840.5625 Q106.4656,840.5 106.6375,840.5 Q106.9656,840.5 107.2,840.7656 Q107.45,841.0156 107.45,841.375 Q107.45,841.7188 107.1063,842.125 Q106.6063,842.7188 105.8094,843.0469 Q104.7625,843.5 103.4813,843.5 Q101.9813,843.5 100.7781,842.9063 Q99.8094,842.4375 99.1219,841.4219 Q98.45,840.4063 98.45,839.2031 L98.45,838.1094 Q98.45,836.8594 99.0438,835.7656 Q99.6531,834.6719 100.7,834.0938 Q101.7625,833.5 102.95,833.5 Q103.6688,833.5 104.2938,833.75 Q104.9188,834 105.45,834.5 Z " fill="#000000"/><text fill="#000000" font-family="sans-serif" font-size="12" lengthAdjust="spacing" textLength="64" x="121.55" y="842.9102">Warehouse</text><line style="stroke:#A80036;stroke-width:1.5;" x1="71" x2="206" y1="854" y2="854"/><line style="stroke:#A80036;stroke-width:1.5;" x1="71" x2="206" y1="862" y2="862"/><text fill="#000000" font-family="sans-serif" font-size="11" lengthAdjust="spacing" textLength="125" x="76" y="877.4189">setPlant(warehousePlant)</text><!--MD5=[47d83f15293c58b1530c08457be810b8]
class WarehousePlant--><rect codeLine="54" fill="#FEFECE" filter="url(#f8ewjc7uvhusg)" height="48" id="WarehousePlant" style="stroke:#A80036;stroke-width:1.5;" width="124" x="76.5" y="944"/><ellipse cx="91.5" cy="960" fill="#ADD1B2" rx="11" ry="11" style="stroke:#A80036;stroke-width:1.0;"/><path d="M93.5,956.5 Q93.7031,956 93.9375,955.75 Q94.1719,955.5 94.4375,955.5 Q94.9063,955.5 95.2031,955.7813 Q95.5,956.0625 95.5,956.7188 L95.5,958.2813 Q95.5,958.9375 95.2188,959.2188 Q94.9375,959.5 94.5,959.5 Q94.1094,959.5 93.8594,959.3281 Q93.6094,959.1563 93.5,958.7031 Q93.4531,958.3906 93.2813,958.2188 Q92.9688,957.8906 92.4063,957.7031 Q91.8438,957.5 91.2813,957.5 Q90.5781,957.5 89.9844,957.7813 Q89.4063,958.0625 88.9531,958.6875 Q88.5,959.3125 88.5,960.1719 L88.5,961.0938 Q88.5,962.125 89.3438,962.8125 Q90.1875,963.5 91.6875,963.5 Q92.5781,963.5 93.2031,963.2969 Q93.5625,963.1875 93.9688,962.8281 Q94.2344,962.625 94.375,962.5625 Q94.5156,962.5 94.6875,962.5 Q95.0156,962.5 95.25,962.7656 Q95.5,963.0156 95.5,963.375 Q95.5,963.7188 95.1563,964.125 Q94.6563,964.7188 93.8594,965.0469 Q92.8125,965.5 91.5313,965.5 Q90.0313,965.5 88.8281,964.9063 Q87.8594,964.4375 87.1719,963.4219 Q86.5,962.4063 86.5,961.2031 L86.5,960.1094 Q86.5,958.8594 87.0938,957.7656 Q87.7031,956.6719 88.75,956.0938 Q89.8125,955.5 91,955.5 Q91.7188,955.5 92.3438,955.75 Q92.9688,956 93.5,956.5 Z " fill="#000000"/><text fill="#000000" font-family="sans-serif" font-size="12" lengthAdjust="spacing" textLength="92" x="105.5" y="964.9102">WarehousePlant</text><line style="stroke:#A80036;stroke-width:1.5;" x1="77.5" x2="199.5" y1="976" y2="976"/><line style="stroke:#A80036;stroke-width:1.5;" x1="77.5" x2="199.5" y1="984" y2="984"/><!--MD5=[0a2f0ce5c49321e9082933c32b514ce4]
class Aisle--><rect codeLine="57" fill="#FEFECE" filter="url(#f8ewjc7uvhusg)" height="48" id="Aisle" style="stroke:#A80036;stroke-width:1.5;" width="59" x="310" y="829"/><ellipse cx="325" cy="845" fill="#ADD1B2" rx="11" ry="11" style="stroke:#A80036;stroke-width:1.0;"/><path d="M327,841.5 Q327.2031,841 327.4375,840.75 Q327.6719,840.5 327.9375,840.5 Q328.4063,840.5 328.7031,840.7813 Q329,841.0625 329,841.7188 L329,843.2813 Q329,843.9375 328.7188,844.2188 Q328.4375,844.5 328,844.5 Q327.6094,844.5 327.3594,844.3281 Q327.1094,844.1563 327,843.7031 Q326.9531,843.3906 326.7813,843.2188 Q326.4688,842.8906 325.9063,842.7031 Q325.3438,842.5 324.7813,842.5 Q324.0781,842.5 323.4844,842.7813 Q322.9063,843.0625 322.4531,843.6875 Q322,844.3125 322,845.1719 L322,846.0938 Q322,847.125 322.8438,847.8125 Q323.6875,848.5 325.1875,848.5 Q326.0781,848.5 326.7031,848.2969 Q327.0625,848.1875 327.4688,847.8281 Q327.7344,847.625 327.875,847.5625 Q328.0156,847.5 328.1875,847.5 Q328.5156,847.5 328.75,847.7656 Q329,848.0156 329,848.375 Q329,848.7188 328.6563,849.125 Q328.1563,849.7188 327.3594,850.0469 Q326.3125,850.5 325.0313,850.5 Q323.5313,850.5 322.3281,849.9063 Q321.3594,849.4375 320.6719,848.4219 Q320,847.4063 320,846.2031 L320,845.1094 Q320,843.8594 320.5938,842.7656 Q321.2031,841.6719 322.25,841.0938 Q323.3125,840.5 324.5,840.5 Q325.2188,840.5 325.8438,840.75 Q326.4688,841 327,841.5 Z " fill="#000000"/><text fill="#000000" font-family="sans-serif" font-size="12" lengthAdjust="spacing" textLength="27" x="339" y="849.9102">Aisle</text><line style="stroke:#A80036;stroke-width:1.5;" x1="311" x2="368" y1="861" y2="861"/><line style="stroke:#A80036;stroke-width:1.5;" x1="311" x2="368" y1="869" y2="869"/><!--MD5=[05aedcff764caeeb5d443618a4d90de7]
class Row--><rect codeLine="60" fill="#FEFECE" filter="url(#f8ewjc7uvhusg)" height="48" id="Row" style="stroke:#A80036;stroke-width:1.5;" width="57" x="463" y="829"/><ellipse cx="478" cy="845" fill="#ADD1B2" rx="11" ry="11" style="stroke:#A80036;stroke-width:1.0;"/><path d="M480,841.5 Q480.2031,841 480.4375,840.75 Q480.6719,840.5 480.9375,840.5 Q481.4063,840.5 481.7031,840.7813 Q482,841.0625 482,841.7188 L482,843.2813 Q482,843.9375 481.7188,844.2188 Q481.4375,844.5 481,844.5 Q480.6094,844.5 480.3594,844.3281 Q480.1094,844.1563 480,843.7031 Q479.9531,843.3906 479.7813,843.2188 Q479.4688,842.8906 478.9063,842.7031 Q478.3438,842.5 477.7813,842.5 Q477.0781,842.5 476.4844,842.7813 Q475.9063,843.0625 475.4531,843.6875 Q475,844.3125 475,845.1719 L475,846.0938 Q475,847.125 475.8438,847.8125 Q476.6875,848.5 478.1875,848.5 Q479.0781,848.5 479.7031,848.2969 Q480.0625,848.1875 480.4688,847.8281 Q480.7344,847.625 480.875,847.5625 Q481.0156,847.5 481.1875,847.5 Q481.5156,847.5 481.75,847.7656 Q482,848.0156 482,848.375 Q482,848.7188 481.6563,849.125 Q481.1563,849.7188 480.3594,850.0469 Q479.3125,850.5 478.0313,850.5 Q476.5313,850.5 475.3281,849.9063 Q474.3594,849.4375 473.6719,848.4219 Q473,847.4063 473,846.2031 L473,845.1094 Q473,843.8594 473.5938,842.7656 Q474.2031,841.6719 475.25,841.0938 Q476.3125,840.5 477.5,840.5 Q478.2188,840.5 478.8438,840.75 Q479.4688,841 480,841.5 Z " fill="#000000"/><text fill="#000000" font-family="sans-serif" font-size="12" lengthAdjust="spacing" textLength="25" x="492" y="849.9102">Row</text><line style="stroke:#A80036;stroke-width:1.5;" x1="464" x2="519" y1="861" y2="861"/><line style="stroke:#A80036;stroke-width:1.5;" x1="464" x2="519" y1="869" y2="869"/><!--MD5=[07227ca36c2aec0d365e6614365f77a0]
class AgvDock--><rect codeLine="63" fill="#FEFECE" filter="url(#f8ewjc7uvhusg)" height="48" id="AgvDock" style="stroke:#A80036;stroke-width:1.5;" width="79" x="614" y="829"/><ellipse cx="629" cy="845" fill="#ADD1B2" rx="11" ry="11" style="stroke:#A80036;stroke-width:1.0;"/><path d="M631,841.5 Q631.2031,841 631.4375,840.75 Q631.6719,840.5 631.9375,840.5 Q632.4063,840.5 632.7031,840.7813 Q633,841.0625 633,841.7188 L633,843.2813 Q633,843.9375 632.7188,844.2188 Q632.4375,844.5 632,844.5 Q631.6094,844.5 631.3594,844.3281 Q631.1094,844.1563 631,843.7031 Q630.9531,843.3906 630.7813,843.2188 Q630.4688,842.8906 629.9063,842.7031 Q629.3438,842.5 628.7813,842.5 Q628.0781,842.5 627.4844,842.7813 Q626.9063,843.0625 626.4531,843.6875 Q626,844.3125 626,845.1719 L626,846.0938 Q626,847.125 626.8438,847.8125 Q627.6875,848.5 629.1875,848.5 Q630.0781,848.5 630.7031,848.2969 Q631.0625,848.1875 631.4688,847.8281 Q631.7344,847.625 631.875,847.5625 Q632.0156,847.5 632.1875,847.5 Q632.5156,847.5 632.75,847.7656 Q633,848.0156 633,848.375 Q633,848.7188 632.6563,849.125 Q632.1563,849.7188 631.3594,850.0469 Q630.3125,850.5 629.0313,850.5 Q627.5313,850.5 626.3281,849.9063 Q625.3594,849.4375 624.6719,848.4219 Q624,847.4063 624,846.2031 L624,845.1094 Q624,843.8594 624.5938,842.7656 Q625.2031,841.6719 626.25,841.0938 Q627.3125,840.5 628.5,840.5 Q629.2188,840.5 629.8438,840.75 Q630.4688,841 631,841.5 Z " fill="#000000"/><text fill="#000000" font-family="sans-serif" font-size="12" lengthAdjust="spacing" textLength="47" x="643" y="849.9102">AgvDock</text><line style="stroke:#A80036;stroke-width:1.5;" x1="615" x2="692" y1="861" y2="861"/><line style="stroke:#A80036;stroke-width:1.5;" x1="615" x2="692" y1="869" y2="869"/><!--MD5=[3937ee38b1656ab9c48c42a0888e5dd7]
link SetWarehousePlantUI to SetWarehousePlantController--><path codeLine="66" d="M329.5,55.29 C329.5,70.48 329.5,90.88 329.5,109.56 " fill="none" id="SetWarehousePlantUI-to-SetWarehousePlantController" style="stroke:#A80036;stroke-width:1.0;stroke-dasharray:7.0,7.0;"/><polygon fill="#A80036" points="329.5,114.78,333.5,105.78,329.5,109.78,325.5,105.78,329.5,114.78" style="stroke:#A80036;stroke-width:1.0;"/><!--MD5=[f57ca1e493f6c8c35738bab5bbcb529c]
link SetWarehousePlantController to ImportFileService--><path codeLine="67" d="M329.5,205.13 C329.5,221.95 329.5,241.45 329.5,259.68 " fill="none" id="SetWarehousePlantController-to-ImportFileService" style="stroke:#A80036;stroke-width:1.0;stroke-dasharray:7.0,7.0;"/><polygon fill="#A80036" points="329.5,264.78,333.5,255.78,329.5,259.78,325.5,255.78,329.5,264.78" style="stroke:#A80036;stroke-width:1.0;"/><!--MD5=[1c5c7c97f59cd9bcf904fb5b46c9a9da]
link ImportFileService to WarehouseRepository--><path codeLine="69" d="M301.32,382.27 C263.65,459.48 197.54,594.98 162.26,667.29 " fill="none" id="ImportFileService-to-WarehouseRepository" style="stroke:#A80036;stroke-width:1.0;stroke-dasharray:7.0,7.0;"/><polygon fill="#A80036" points="159.98,671.96,167.5264,665.6314,162.1761,667.4681,160.3394,662.1177,159.98,671.96" style="stroke:#A80036;stroke-width:1.0;"/><!--MD5=[7bfca47764880a07c5d427f59d038186]
link ImportFileService to AisleRepository--><path codeLine="70" d="M314.73,382.09 C310.55,401.03 306.57,422.3 304.5,442 C296.59,517.16 296.21,537.43 308.5,612 C312.37,635.48 319.97,661.1 326.67,681.04 " fill="none" id="ImportFileService-to-AisleRepository" style="stroke:#A80036;stroke-width:1.0;stroke-dasharray:7.0,7.0;"/><polygon fill="#A80036" points="328.35,685.98,329.2278,676.1703,326.7346,681.2481,321.6568,678.755,328.35,685.98" style="stroke:#A80036;stroke-width:1.0;"/><!--MD5=[c32181c920e66f6a4c19c8b477cf66f7]
link ImportFileService to RowRepository--><path codeLine="71" d="M427.61,382.15 C447.84,398.81 466.59,418.86 478.5,442 C518.4,519.53 507.87,626.32 498.64,680.85 " fill="none" id="ImportFileService-to-RowRepository" style="stroke:#A80036;stroke-width:1.0;stroke-dasharray:7.0,7.0;"/><polygon fill="#A80036" points="497.76,685.97,503.2429,677.7885,498.6167,681.0439,495.3612,676.4177,497.76,685.97" style="stroke:#A80036;stroke-width:1.0;"/><!--MD5=[e0618b1d0eeba55a43dc3947e70fde7f]
link ImportFileService to AgvDockRepository--><path codeLine="72" d="M442.27,382.04 C468.45,398.91 494.71,419.09 515.5,442 C581.52,514.74 624.04,624.89 642.65,680.79 " fill="none" id="ImportFileService-to-AgvDockRepository" style="stroke:#A80036;stroke-width:1.0;stroke-dasharray:7.0,7.0;"/><polygon fill="#A80036" points="644.27,685.7,645.2452,675.8995,642.7017,680.9523,637.6489,678.4088,644.27,685.7" style="stroke:#A80036;stroke-width:1.0;"/><!--MD5=[65bc096b19bafec40f8bc6ffeaba9635]
link ImportFileService to PersistenceContext--><path codeLine="74" d="M353.83,382.37 C361.57,400.8 369.91,420.63 376.76,436.93 " fill="none" id="ImportFileService-to-PersistenceContext" style="stroke:#A80036;stroke-width:1.0;stroke-dasharray:7.0,7.0;"/><polygon fill="#A80036" points="378.84,441.87,379.034,432.0231,376.8997,437.2618,371.6609,435.1275,378.84,441.87" style="stroke:#A80036;stroke-width:1.0;"/><!--MD5=[1733b2eb2638fb9dbcc51b6a88998cda]
link ImportFileService to WarehouseMapper--><path codeLine="75" d="M230.21,382.16 C192.01,404.34 150.3,428.56 119.83,446.26 " fill="none" id="ImportFileService-to-WarehouseMapper" style="stroke:#A80036;stroke-width:1.0;stroke-dasharray:7.0,7.0;"/><polygon fill="#A80036" points="115.41,448.82,125.1999,447.7443,119.7299,446.3024,121.1718,440.8324,115.41,448.82" style="stroke:#A80036;stroke-width:1.0;"/><!--MD5=[0f326609687f38d5b2b1085187d642c4]
link WarehouseMapper to WarehouseDTO--><path codeLine="76" d="M75.5,497.14 C75.5,514.96 75.5,539.69 75.5,558.69 " fill="none" id="WarehouseMapper-to-WarehouseDTO" style="stroke:#A80036;stroke-width:1.0;stroke-dasharray:7.0,7.0;"/><polygon fill="#A80036" points="75.5,563.89,79.5,554.89,75.5,558.89,71.5,554.89,75.5,563.89" style="stroke:#A80036;stroke-width:1.0;"/><!--MD5=[754b775031405e096442b27febffa290]
link PersistenceContext to RepositoryFactory--><path codeLine="78" d="M391.5,504.28 C391.5,521.08 391.5,541.85 391.5,558.38 " fill="none" id="PersistenceContext-to-RepositoryFactory" style="stroke:#A80036;stroke-width:1.0;stroke-dasharray:7.0,7.0;"/><polygon fill="#A80036" points="391.5,563.81,395.5,554.81,391.5,558.81,387.5,554.81,391.5,563.81" style="stroke:#A80036;stroke-width:1.0;"/><!--MD5=[1e897a22714a6b830b517dbc62a38d7f]
link RepositoryFactory to WarehouseRepository--><path codeLine="79" d="M345.39,612.15 C313.48,628.16 269.91,650.03 230.99,669.57 " fill="none" id="RepositoryFactory-to-WarehouseRepository" style="stroke:#A80036;stroke-width:1.0;stroke-dasharray:7.0,7.0;"/><polygon fill="#A80036" points="226.27,671.94,236.1075,671.4676,230.7364,669.6925,232.5115,664.3214,226.27,671.94" style="stroke:#A80036;stroke-width:1.0;"/><!--MD5=[4109a92771b270c72837a91a764fb870]
link RepositoryFactory to AisleRepository--><path codeLine="80" d="M381.96,612.29 C374.11,631.47 362.86,658.95 353.91,680.8 " fill="none" id="RepositoryFactory-to-AisleRepository" style="stroke:#A80036;stroke-width:1.0;stroke-dasharray:7.0,7.0;"/><polygon fill="#A80036" points="351.92,685.66,359.0381,678.8532,353.8187,681.0345,351.6373,675.8152,351.92,685.66" style="stroke:#A80036;stroke-width:1.0;"/><!--MD5=[294c4a84fe7e4270a83d2d8bb0a3e67b]
link RepositoryFactory to RowRepository--><path codeLine="81" d="M409.84,612.29 C425.13,631.71 447.12,659.64 464.44,681.63 " fill="none" id="RepositoryFactory-to-RowRepository" style="stroke:#A80036;stroke-width:1.0;stroke-dasharray:7.0,7.0;"/><polygon fill="#A80036" points="467.61,685.66,465.175,676.1169,464.5127,681.7349,458.8948,681.0726,467.61,685.66" style="stroke:#A80036;stroke-width:1.0;"/><!--MD5=[c1c40115ca5e3195fe4ad9816b3302b2]
link RepositoryFactory to AgvDockRepository--><path codeLine="82" d="M441.07,612.1 C476.2,628.57 524.38,651.36 566.5,672 C574.05,675.7 581.95,679.62 589.78,683.54 " fill="none" id="RepositoryFactory-to-AgvDockRepository" style="stroke:#A80036;stroke-width:1.0;stroke-dasharray:7.0,7.0;"/><polygon fill="#A80036" points="594.63,685.98,588.3787,678.3694,590.1607,683.7382,584.7919,685.5202,594.63,685.98" style="stroke:#A80036;stroke-width:1.0;"/><!--MD5=[cb8d5150214e6aa765a2f24f67e90a63]
link WarehouseRepository to Warehouse--><path codeLine="84" d="M138.5,762.25 C138.5,779.93 138.5,800.02 138.5,816.7 " fill="none" id="WarehouseRepository-to-Warehouse" style="stroke:#A80036;stroke-width:1.0;stroke-dasharray:7.0,7.0;"/><polygon fill="#A80036" points="138.5,821.76,142.5,812.76,138.5,816.76,134.5,812.76,138.5,821.76" style="stroke:#A80036;stroke-width:1.0;"/><!--MD5=[7bf2f443fe1a8f00427e2f400263ca32]
link Warehouse to WarehousePlant--><path codeLine="85" d="M138.5,884.28 C138.5,901.08 138.5,921.85 138.5,938.38 " fill="none" id="Warehouse-to-WarehousePlant" style="stroke:#A80036;stroke-width:1.0;stroke-dasharray:7.0,7.0;"/><polygon fill="#A80036" points="138.5,943.81,142.5,934.81,138.5,938.81,134.5,934.81,138.5,943.81" style="stroke:#A80036;stroke-width:1.0;"/><!--MD5=[d5df03f0d0349696c7a863f9a9b59095]
link AisleRepository to Aisle--><path codeLine="87" d="M339.5,748.07 C339.5,770.65 339.5,801.35 339.5,823.53 " fill="none" id="AisleRepository-to-Aisle" style="stroke:#A80036;stroke-width:1.0;stroke-dasharray:7.0,7.0;"/><polygon fill="#A80036" points="339.5,828.69,343.5,819.69,339.5,823.69,335.5,819.69,339.5,828.69" style="stroke:#A80036;stroke-width:1.0;"/><!--MD5=[a0bcec347ff6096a7e3e9bddc58e9eb3]
link RowRepository to Row--><path codeLine="89" d="M491.5,748.07 C491.5,770.65 491.5,801.35 491.5,823.53 " fill="none" id="RowRepository-to-Row" style="stroke:#A80036;stroke-width:1.0;stroke-dasharray:7.0,7.0;"/><polygon fill="#A80036" points="491.5,828.69,495.5,819.69,491.5,823.69,487.5,819.69,491.5,828.69" style="stroke:#A80036;stroke-width:1.0;"/><!--MD5=[29af33a9fc71c83945d1f1679261045e]
link AgvDockRepository to AgvDock--><path codeLine="91" d="M653.5,748.07 C653.5,770.65 653.5,801.35 653.5,823.53 " fill="none" id="AgvDockRepository-to-AgvDock" style="stroke:#A80036;stroke-width:1.0;stroke-dasharray:7.0,7.0;"/><polygon fill="#A80036" points="653.5,828.69,657.5,819.69,653.5,823.69,649.5,819.69,653.5,828.69" style="stroke:#A80036;stroke-width:1.0;"/><!--MD5=[7b9130eadfa0eb55287a12d73c7d8a98]
@startuml

class SetWarehousePlantUI{
}

class SetWarehousePlantController{
    warehouses()
    findWarehouseByName(name)
    importFile(warehouseDTO, path)
}

class ImportFileService{
    warehouses()
    findWarehouseByName(name)
    importPlantFromJsonFile(warehouseDTO, path)
    importAisles(warehouse, mainJsonObject)
    importAgvDocks(warehouse, mainJsonObject);
}

class WarehouseMapper {
}

class PersistenceContext{
    repositories()
}

class RepositoryFactory{
}

class WarehouseDTO{
}

class WarehouseRepository{
    findAll()
    getWarehouseByName(warehouseName)
    save(warehouse)
}

class AisleRepository{
    save(aisle)
}

class RowRepository{
    save(row)
}

class AgvDockRepository{
    save(agvDock)
}

class Warehouse{
    setPlant(warehousePlant)
}

class WarehousePlant{
}

class Aisle{
}

class Row{
}

class AgvDock{
}

SetWarehousePlantUI ..> SetWarehousePlantController
SetWarehousePlantController ..> ImportFileService

ImportFileService ..> WarehouseRepository
ImportFileService ..> AisleRepository
ImportFileService ..> RowRepository
ImportFileService ..> AgvDockRepository

ImportFileService ..> PersistenceContext
ImportFileService ..> WarehouseMapper
WarehouseMapper ..> WarehouseDTO

PersistenceContext ..> RepositoryFactory
RepositoryFactory ..> WarehouseRepository
RepositoryFactory ..> AisleRepository
RepositoryFactory ..> RowRepository
RepositoryFactory ..> AgvDockRepository

WarehouseRepository ..> Warehouse
Warehouse ..> WarehousePlant

AisleRepository ..> Aisle

RowRepository ..> Row

AgvDockRepository ..> AgvDock

@enduml

PlantUML version 1.2021.16(Wed Dec 08 17:25:22 GMT 2021)
(GPL source distribution)
Java Runtime: OpenJDK Runtime Environment
JVM: OpenJDK 64-Bit Server VM
Default Encoding: Cp1252
Language: en
Country: US
--></g></svg>