<?xml version="1.0" encoding="UTF-8" standalone="no"?><svg xmlns="http://www.w3.org/2000/svg" xmlns:xlink="http://www.w3.org/1999/xlink" contentStyleType="text/css" height="1176px" preserveAspectRatio="none" style="width:1223px;height:1176px;background:#FFFFFF;" version="1.1" viewBox="0 0 1223 1176" width="1223px" zoomAndPan="magnify"><defs/><g><!--MD5=[15f08415ae6aea1722afc01d0846f94b]
class CreateOrderUI--><g id="elem_CreateOrderUI"><rect codeLine="1" fill="#F1F1F1" height="88.8594" id="CreateOrderUI" rx="2.5" ry="2.5" style="stroke:#181818;stroke-width:0.5;" width="135" x="455.5" y="7"/><ellipse cx="470.5" cy="27.1328" fill="#ADD1B2" rx="11" ry="11" style="stroke:#181818;stroke-width:1.0;"/><path d="M472.8438,22.8047 C471.9063,22.3672 471.3125,22.2266 470.4375,22.2266 C467.8125,22.2266 465.8125,24.3047 465.8125,27.0234 L465.8125,28.1484 C465.8125,30.7266 467.9219,32.6172 470.8125,32.6172 C472.0313,32.6172 473.1875,32.3203 473.9375,31.7734 C474.5156,31.3672 474.8438,30.9141 474.8438,30.5234 C474.8438,30.0703 474.4531,29.6797 473.9844,29.6797 C473.7656,29.6797 473.5625,29.7578 473.375,29.9453 C472.9219,30.4297 472.9219,30.4297 472.7344,30.5234 C472.3125,30.7891 471.625,30.9141 470.8594,30.9141 C468.8125,30.9141 467.5156,29.8203 467.5156,28.1172 L467.5156,27.0234 C467.5156,25.2422 468.7656,23.9297 470.5,23.9297 C471.0781,23.9297 471.6875,24.0859 472.1563,24.3359 C472.6406,24.6172 472.8125,24.8359 472.9063,25.2422 C472.9688,25.6484 473,25.7734 473.1406,25.8984 C473.2813,26.0391 473.5156,26.1484 473.7344,26.1484 C474,26.1484 474.2656,26.0078 474.4375,25.7891 C474.5469,25.6328 474.5781,25.4453 474.5781,25.0234 L474.5781,23.6016 C474.5781,23.1641 474.5625,23.0391 474.4688,22.8828 C474.3125,22.6172 474.0313,22.4766 473.7344,22.4766 C473.4375,22.4766 473.2344,22.5703 473.0156,22.8828 L472.8438,22.8047 Z " fill="#000000"/><text fill="#000000" font-family="sans-serif" font-size="12" font-style="italic" lengthAdjust="spacing" textLength="89" x="491.5" y="23.1387">«Presentation»</text><text fill="#000000" font-family="sans-serif" font-size="14" lengthAdjust="spacing" textLength="103" x="484.5" y="38.9639">CreateOrderUI</text><line style="stroke:#181818;stroke-width:0.5;" x1="456.5" x2="589.5" y1="47.2656" y2="47.2656"/><line style="stroke:#181818;stroke-width:0.5;" x1="456.5" x2="589.5" y1="55.2656" y2="55.2656"/><text fill="#000000" font-family="sans-serif" font-size="14" lengthAdjust="spacing" textLength="66" x="461.5" y="72.2607">doShow()</text><text fill="#000000" font-family="sans-serif" font-size="14" lengthAdjust="spacing" textLength="100" x="461.5" y="88.5576">selectsIndex()</text></g><!--MD5=[c5d897ceefd5e6b72712cf5926b016ba]
class CreateOrderForClientController--><g id="elem_CreateOrderForClientController"><rect codeLine="6" fill="#F1F1F1" height="202.9375" id="CreateOrderForClientController" rx="2.5" ry="2.5" style="stroke:#181818;stroke-width:0.5;" width="820" x="113" y="156"/><ellipse cx="404.25" cy="176.1328" fill="#ADD1B2" rx="11" ry="11" style="stroke:#181818;stroke-width:1.0;"/><path d="M406.5938,171.8047 C405.6563,171.3672 405.0625,171.2266 404.1875,171.2266 C401.5625,171.2266 399.5625,173.3047 399.5625,176.0234 L399.5625,177.1484 C399.5625,179.7266 401.6719,181.6172 404.5625,181.6172 C405.7813,181.6172 406.9375,181.3203 407.6875,180.7734 C408.2656,180.3672 408.5938,179.9141 408.5938,179.5234 C408.5938,179.0703 408.2031,178.6797 407.7344,178.6797 C407.5156,178.6797 407.3125,178.7578 407.125,178.9453 C406.6719,179.4297 406.6719,179.4297 406.4844,179.5234 C406.0625,179.7891 405.375,179.9141 404.6094,179.9141 C402.5625,179.9141 401.2656,178.8203 401.2656,177.1172 L401.2656,176.0234 C401.2656,174.2422 402.5156,172.9297 404.25,172.9297 C404.8281,172.9297 405.4375,173.0859 405.9063,173.3359 C406.3906,173.6172 406.5625,173.8359 406.6563,174.2422 C406.7188,174.6484 406.75,174.7734 406.8906,174.8984 C407.0313,175.0391 407.2656,175.1484 407.4844,175.1484 C407.75,175.1484 408.0156,175.0078 408.1875,174.7891 C408.2969,174.6328 408.3281,174.4453 408.3281,174.0234 L408.3281,172.6016 C408.3281,172.1641 408.3125,172.0391 408.2188,171.8828 C408.0625,171.6172 407.7813,171.4766 407.4844,171.4766 C407.1875,171.4766 406.9844,171.5703 406.7656,171.8828 L406.5938,171.8047 Z " fill="#000000"/><text fill="#000000" font-family="sans-serif" font-size="12" font-style="italic" lengthAdjust="spacing" textLength="81" x="498.75" y="172.1387">«Application»</text><text fill="#000000" font-family="sans-serif" font-size="14" lengthAdjust="spacing" textLength="229" x="424.75" y="187.9639">CreateOrderForClientController</text><line style="stroke:#181818;stroke-width:0.5;" x1="114" x2="932" y1="196.2656" y2="196.2656"/><line style="stroke:#181818;stroke-width:0.5;" x1="114" x2="932" y1="204.2656" y2="204.2656"/><text fill="#000000" font-family="sans-serif" font-size="14" lengthAdjust="spacing" textLength="194" x="119" y="221.2607">filterByCategory(category)</text><text fill="#000000" font-family="sans-serif" font-size="14" lengthAdjust="spacing" textLength="230" x="119" y="237.5576">filterByDescription(description)</text><text fill="#000000" font-family="sans-serif" font-size="14" lengthAdjust="spacing" textLength="148" x="119" y="253.8545">filterByBrand(brand)</text><text fill="#000000" font-family="sans-serif" font-size="14" lengthAdjust="spacing" textLength="93" x="119" y="270.1514">resetFilters()</text><text fill="#000000" font-family="sans-serif" font-size="14" lengthAdjust="spacing" textLength="91" x="119" y="286.4482">filterResult()</text><text fill="#000000" font-family="sans-serif" font-size="14" lengthAdjust="spacing" textLength="808" x="119" y="302.7451">createOrderForClient(sourceChannel, comment, paymentMethod, clientEmail, billingAddress, deliveringAddress)</text><text fill="#000000" font-family="sans-serif" font-size="14" lengthAdjust="spacing" textLength="257" x="119" y="319.042">createOrderItem(product, quantity)</text><text fill="#000000" font-family="sans-serif" font-size="14" lengthAdjust="spacing" textLength="176" x="119" y="335.3389">getAllOrderItensAdded()</text><text fill="#000000" font-family="sans-serif" font-size="14" lengthAdjust="spacing" textLength="109" x="119" y="351.6357">confirm order()</text></g><!--MD5=[58a28f2d5507ae66b1dc95167690ce61]
class ProductService--><g id="elem_ProductService"><rect codeLine="18" fill="#F1F1F1" height="154.0469" id="ProductService" rx="2.5" ry="2.5" style="stroke:#181818;stroke-width:0.5;" width="242" x="119" y="419"/><ellipse cx="181.25" cy="439.1328" fill="#ADD1B2" rx="11" ry="11" style="stroke:#181818;stroke-width:1.0;"/><path d="M183.5938,434.8047 C182.6563,434.3672 182.0625,434.2266 181.1875,434.2266 C178.5625,434.2266 176.5625,436.3047 176.5625,439.0234 L176.5625,440.1484 C176.5625,442.7266 178.6719,444.6172 181.5625,444.6172 C182.7813,444.6172 183.9375,444.3203 184.6875,443.7734 C185.2656,443.3672 185.5938,442.9141 185.5938,442.5234 C185.5938,442.0703 185.2031,441.6797 184.7344,441.6797 C184.5156,441.6797 184.3125,441.7578 184.125,441.9453 C183.6719,442.4297 183.6719,442.4297 183.4844,442.5234 C183.0625,442.7891 182.375,442.9141 181.6094,442.9141 C179.5625,442.9141 178.2656,441.8203 178.2656,440.1172 L178.2656,439.0234 C178.2656,437.2422 179.5156,435.9297 181.25,435.9297 C181.8281,435.9297 182.4375,436.0859 182.9063,436.3359 C183.3906,436.6172 183.5625,436.8359 183.6563,437.2422 C183.7188,437.6484 183.75,437.7734 183.8906,437.8984 C184.0313,438.0391 184.2656,438.1484 184.4844,438.1484 C184.75,438.1484 185.0156,438.0078 185.1875,437.7891 C185.2969,437.6328 185.3281,437.4453 185.3281,437.0234 L185.3281,435.6016 C185.3281,435.1641 185.3125,435.0391 185.2188,434.8828 C185.0625,434.6172 184.7813,434.4766 184.4844,434.4766 C184.1875,434.4766 183.9844,434.5703 183.7656,434.8828 L183.5938,434.8047 Z " fill="#000000"/><text fill="#000000" font-family="sans-serif" font-size="12" font-style="italic" lengthAdjust="spacing" textLength="58" x="227.25" y="435.1387">«Service»</text><text fill="#000000" font-family="sans-serif" font-size="14" lengthAdjust="spacing" textLength="109" x="201.75" y="450.9639">ProductService</text><line style="stroke:#181818;stroke-width:0.5;" x1="120" x2="360" y1="459.2656" y2="459.2656"/><line style="stroke:#181818;stroke-width:0.5;" x1="120" x2="360" y1="467.2656" y2="467.2656"/><text fill="#000000" font-family="sans-serif" font-size="14" lengthAdjust="spacing" textLength="194" x="125" y="484.2607">filterByCategory(category)</text><text fill="#000000" font-family="sans-serif" font-size="14" lengthAdjust="spacing" textLength="230" x="125" y="500.5576">filterByDescription(description)</text><text fill="#000000" font-family="sans-serif" font-size="14" lengthAdjust="spacing" textLength="148" x="125" y="516.8545">filterByBrand(brand)</text><text fill="#000000" font-family="sans-serif" font-size="14" lengthAdjust="spacing" textLength="93" x="125" y="533.1514">resetFilters()</text><text fill="#000000" font-family="sans-serif" font-size="14" lengthAdjust="spacing" textLength="136" x="125" y="549.4482">commonProducts()</text><text fill="#000000" font-family="sans-serif" font-size="14" lengthAdjust="spacing" textLength="91" x="125" y="565.7451">filterResult()</text></g><!--MD5=[36c636743af1f13810eb6e0f358dc680]
class CreateOrderService--><g id="elem_CreateOrderService"><rect codeLine="27" fill="#F1F1F1" height="137.75" id="CreateOrderService" rx="2.5" ry="2.5" style="stroke:#181818;stroke-width:0.5;" width="820" x="396" y="427"/><ellipse cx="730.25" cy="447.1328" fill="#ADD1B2" rx="11" ry="11" style="stroke:#181818;stroke-width:1.0;"/><path d="M732.5938,442.8047 C731.6563,442.3672 731.0625,442.2266 730.1875,442.2266 C727.5625,442.2266 725.5625,444.3047 725.5625,447.0234 L725.5625,448.1484 C725.5625,450.7266 727.6719,452.6172 730.5625,452.6172 C731.7813,452.6172 732.9375,452.3203 733.6875,451.7734 C734.2656,451.3672 734.5938,450.9141 734.5938,450.5234 C734.5938,450.0703 734.2031,449.6797 733.7344,449.6797 C733.5156,449.6797 733.3125,449.7578 733.125,449.9453 C732.6719,450.4297 732.6719,450.4297 732.4844,450.5234 C732.0625,450.7891 731.375,450.9141 730.6094,450.9141 C728.5625,450.9141 727.2656,449.8203 727.2656,448.1172 L727.2656,447.0234 C727.2656,445.2422 728.5156,443.9297 730.25,443.9297 C730.8281,443.9297 731.4375,444.0859 731.9063,444.3359 C732.3906,444.6172 732.5625,444.8359 732.6563,445.2422 C732.7188,445.6484 732.75,445.7734 732.8906,445.8984 C733.0313,446.0391 733.2656,446.1484 733.4844,446.1484 C733.75,446.1484 734.0156,446.0078 734.1875,445.7891 C734.2969,445.6328 734.3281,445.4453 734.3281,445.0234 L734.3281,443.6016 C734.3281,443.1641 734.3125,443.0391 734.2188,442.8828 C734.0625,442.6172 733.7813,442.4766 733.4844,442.4766 C733.1875,442.4766 732.9844,442.5703 732.7656,442.8828 L732.5938,442.8047 Z " fill="#000000"/><text fill="#000000" font-family="sans-serif" font-size="12" font-style="italic" lengthAdjust="spacing" textLength="58" x="793.25" y="443.1387">«Service»</text><text fill="#000000" font-family="sans-serif" font-size="14" lengthAdjust="spacing" textLength="143" x="750.75" y="458.9639">CreateOrderService</text><line style="stroke:#181818;stroke-width:0.5;" x1="397" x2="1215" y1="467.2656" y2="467.2656"/><line style="stroke:#181818;stroke-width:0.5;" x1="397" x2="1215" y1="475.2656" y2="475.2656"/><text fill="#000000" font-family="sans-serif" font-size="14" lengthAdjust="spacing" textLength="808" x="402" y="492.2607">createOrderForClient(sourceChannel, comment, paymentMethod, clientEmail, billingAddress, deliveringAddress)</text><text fill="#000000" font-family="sans-serif" font-size="14" lengthAdjust="spacing" textLength="257" x="402" y="508.5576">createOrderItem(product, quantity)</text><text fill="#000000" font-family="sans-serif" font-size="14" lengthAdjust="spacing" textLength="176" x="402" y="524.8545">getAllOrderItensAdded()</text><text fill="#000000" font-family="sans-serif" font-size="14" lengthAdjust="spacing" textLength="111" x="402" y="541.1514">addOrderItem()</text><text fill="#000000" font-family="sans-serif" font-size="14" lengthAdjust="spacing" textLength="109" x="402" y="557.4482">confirm order()</text></g><!--MD5=[48590afff58a68e2fcba47824d6f8a11]
class RepositoryFactory--><g id="elem_RepositoryFactory"><rect codeLine="35" fill="#F1F1F1" height="64.2969" id="RepositoryFactory" rx="2.5" ry="2.5" style="stroke:#181818;stroke-width:0.5;" width="165" x="369.5" y="778.5"/><ellipse cx="384.5" cy="794.5" fill="#ADD1B2" rx="11" ry="11" style="stroke:#181818;stroke-width:1.0;"/><path d="M386.8438,790.1719 C385.9063,789.7344 385.3125,789.5938 384.4375,789.5938 C381.8125,789.5938 379.8125,791.6719 379.8125,794.3906 L379.8125,795.5156 C379.8125,798.0938 381.9219,799.9844 384.8125,799.9844 C386.0313,799.9844 387.1875,799.6875 387.9375,799.1406 C388.5156,798.7344 388.8438,798.2813 388.8438,797.8906 C388.8438,797.4375 388.4531,797.0469 387.9844,797.0469 C387.7656,797.0469 387.5625,797.125 387.375,797.3125 C386.9219,797.7969 386.9219,797.7969 386.7344,797.8906 C386.3125,798.1563 385.625,798.2813 384.8594,798.2813 C382.8125,798.2813 381.5156,797.1875 381.5156,795.4844 L381.5156,794.3906 C381.5156,792.6094 382.7656,791.2969 384.5,791.2969 C385.0781,791.2969 385.6875,791.4531 386.1563,791.7031 C386.6406,791.9844 386.8125,792.2031 386.9063,792.6094 C386.9688,793.0156 387,793.1406 387.1406,793.2656 C387.2813,793.4063 387.5156,793.5156 387.7344,793.5156 C388,793.5156 388.2656,793.375 388.4375,793.1563 C388.5469,793 388.5781,792.8125 388.5781,792.3906 L388.5781,790.9688 C388.5781,790.5313 388.5625,790.4063 388.4688,790.25 C388.3125,789.9844 388.0313,789.8438 387.7344,789.8438 C387.4375,789.8438 387.2344,789.9375 387.0156,790.25 L386.8438,790.1719 Z " fill="#000000"/><text fill="#000000" font-family="sans-serif" font-size="14" lengthAdjust="spacing" textLength="133" x="398.5" y="799.3467">RepositoryFactory</text><line style="stroke:#181818;stroke-width:0.5;" x1="370.5" x2="533.5" y1="810.5" y2="810.5"/><line style="stroke:#181818;stroke-width:0.5;" x1="370.5" x2="533.5" y1="818.5" y2="818.5"/><text fill="#000000" font-family="sans-serif" font-size="14" lengthAdjust="spacing" textLength="145" x="375.5" y="835.4951">ProductRepository()</text></g><!--MD5=[e8c189551b7885b999ad7cefb30fc2a3]
class PersistenceContext--><g id="elem_PersistenceContext"><rect codeLine="39" fill="#F1F1F1" height="64.2969" id="PersistenceContext" rx="2.5" ry="2.5" style="stroke:#181818;stroke-width:0.5;" width="175" x="364.5" y="637.5"/><ellipse cx="379.5" cy="653.5" fill="#ADD1B2" rx="11" ry="11" style="stroke:#181818;stroke-width:1.0;"/><path d="M381.8438,649.1719 C380.9063,648.7344 380.3125,648.5938 379.4375,648.5938 C376.8125,648.5938 374.8125,650.6719 374.8125,653.3906 L374.8125,654.5156 C374.8125,657.0938 376.9219,658.9844 379.8125,658.9844 C381.0313,658.9844 382.1875,658.6875 382.9375,658.1406 C383.5156,657.7344 383.8438,657.2813 383.8438,656.8906 C383.8438,656.4375 383.4531,656.0469 382.9844,656.0469 C382.7656,656.0469 382.5625,656.125 382.375,656.3125 C381.9219,656.7969 381.9219,656.7969 381.7344,656.8906 C381.3125,657.1563 380.625,657.2813 379.8594,657.2813 C377.8125,657.2813 376.5156,656.1875 376.5156,654.4844 L376.5156,653.3906 C376.5156,651.6094 377.7656,650.2969 379.5,650.2969 C380.0781,650.2969 380.6875,650.4531 381.1563,650.7031 C381.6406,650.9844 381.8125,651.2031 381.9063,651.6094 C381.9688,652.0156 382,652.1406 382.1406,652.2656 C382.2813,652.4063 382.5156,652.5156 382.7344,652.5156 C383,652.5156 383.2656,652.375 383.4375,652.1563 C383.5469,652 383.5781,651.8125 383.5781,651.3906 L383.5781,649.9688 C383.5781,649.5313 383.5625,649.4063 383.4688,649.25 C383.3125,648.9844 383.0313,648.8438 382.7344,648.8438 C382.4375,648.8438 382.2344,648.9375 382.0156,649.25 L381.8438,649.1719 Z " fill="#000000"/><text fill="#000000" font-family="sans-serif" font-size="14" lengthAdjust="spacing" textLength="143" x="393.5" y="658.3467">PersistenceContext</text><line style="stroke:#181818;stroke-width:0.5;" x1="365.5" x2="538.5" y1="669.5" y2="669.5"/><line style="stroke:#181818;stroke-width:0.5;" x1="365.5" x2="538.5" y1="677.5" y2="677.5"/><text fill="#000000" font-family="sans-serif" font-size="14" lengthAdjust="spacing" textLength="97" x="370.5" y="694.4951">repositories()</text></g><!--MD5=[b49a69a5e66983f12e893ec4fc490f6e]
class ProductDTO--><g id="elem_ProductDTO"><rect codeLine="43" fill="#F1F1F1" height="88.8594" id="ProductDTO" rx="2.5" ry="2.5" style="stroke:#181818;stroke-width:0.5;" width="180" x="7" y="766"/><ellipse cx="49.45" cy="786.1328" fill="#ADD1B2" rx="11" ry="11" style="stroke:#181818;stroke-width:1.0;"/><path d="M51.7938,781.8047 C50.8563,781.3672 50.2625,781.2266 49.3875,781.2266 C46.7625,781.2266 44.7625,783.3047 44.7625,786.0234 L44.7625,787.1484 C44.7625,789.7266 46.8719,791.6172 49.7625,791.6172 C50.9813,791.6172 52.1375,791.3203 52.8875,790.7734 C53.4656,790.3672 53.7938,789.9141 53.7938,789.5234 C53.7938,789.0703 53.4031,788.6797 52.9344,788.6797 C52.7156,788.6797 52.5125,788.7578 52.325,788.9453 C51.8719,789.4297 51.8719,789.4297 51.6844,789.5234 C51.2625,789.7891 50.575,789.9141 49.8094,789.9141 C47.7625,789.9141 46.4656,788.8203 46.4656,787.1172 L46.4656,786.0234 C46.4656,784.2422 47.7156,782.9297 49.45,782.9297 C50.0281,782.9297 50.6375,783.0859 51.1063,783.3359 C51.5906,783.6172 51.7625,783.8359 51.8563,784.2422 C51.9188,784.6484 51.95,784.7734 52.0906,784.8984 C52.2313,785.0391 52.4656,785.1484 52.6844,785.1484 C52.95,785.1484 53.2156,785.0078 53.3875,784.7891 C53.4969,784.6328 53.5281,784.4453 53.5281,784.0234 L53.5281,782.6016 C53.5281,782.1641 53.5125,782.0391 53.4188,781.8828 C53.2625,781.6172 52.9813,781.4766 52.6844,781.4766 C52.3875,781.4766 52.1844,781.5703 51.9656,781.8828 L51.7938,781.8047 Z " fill="#000000"/><text fill="#000000" font-family="sans-serif" font-size="12" font-style="italic" lengthAdjust="spacing" textLength="39" x="93.55" y="782.1387">«DTO»</text><text fill="#000000" font-family="sans-serif" font-size="14" lengthAdjust="spacing" textLength="87" x="69.55" y="797.9639">ProductDTO</text><line style="stroke:#181818;stroke-width:0.5;" x1="8" x2="186" y1="806.2656" y2="806.2656"/><line style="stroke:#181818;stroke-width:0.5;" x1="8" x2="186" y1="814.2656" y2="814.2656"/><text fill="#000000" font-family="sans-serif" font-size="14" lengthAdjust="spacing" textLength="168" x="13" y="831.2607">showBasicInformation()</text><text fill="#000000" font-family="sans-serif" font-size="14" lengthAdjust="spacing" textLength="149" x="13" y="847.5576">showAllInformation()</text></g><!--MD5=[8adf1054a73413e5f23de27423411e6e]
class ProductMapper--><g id="elem_ProductMapper"><rect codeLine="48" fill="#F1F1F1" height="72.5625" id="ProductMapper" rx="2.5" ry="2.5" style="stroke:#181818;stroke-width:0.5;" width="143" x="34.5" y="633"/><ellipse cx="49.5" cy="653.1328" fill="#ADD1B2" rx="11" ry="11" style="stroke:#181818;stroke-width:1.0;"/><path d="M51.8438,648.8047 C50.9063,648.3672 50.3125,648.2266 49.4375,648.2266 C46.8125,648.2266 44.8125,650.3047 44.8125,653.0234 L44.8125,654.1484 C44.8125,656.7266 46.9219,658.6172 49.8125,658.6172 C51.0313,658.6172 52.1875,658.3203 52.9375,657.7734 C53.5156,657.3672 53.8438,656.9141 53.8438,656.5234 C53.8438,656.0703 53.4531,655.6797 52.9844,655.6797 C52.7656,655.6797 52.5625,655.7578 52.375,655.9453 C51.9219,656.4297 51.9219,656.4297 51.7344,656.5234 C51.3125,656.7891 50.625,656.9141 49.8594,656.9141 C47.8125,656.9141 46.5156,655.8203 46.5156,654.1172 L46.5156,653.0234 C46.5156,651.2422 47.7656,649.9297 49.5,649.9297 C50.0781,649.9297 50.6875,650.0859 51.1563,650.3359 C51.6406,650.6172 51.8125,650.8359 51.9063,651.2422 C51.9688,651.6484 52,651.7734 52.1406,651.8984 C52.2813,652.0391 52.5156,652.1484 52.7344,652.1484 C53,652.1484 53.2656,652.0078 53.4375,651.7891 C53.5469,651.6328 53.5781,651.4453 53.5781,651.0234 L53.5781,649.6016 C53.5781,649.1641 53.5625,649.0391 53.4688,648.8828 C53.3125,648.6172 53.0313,648.4766 52.7344,648.4766 C52.4375,648.4766 52.2344,648.5703 52.0156,648.8828 L51.8438,648.8047 Z " fill="#000000"/><text fill="#000000" font-family="sans-serif" font-size="12" font-style="italic" lengthAdjust="spacing" textLength="39" x="99.5" y="649.1387">«DTO»</text><text fill="#000000" font-family="sans-serif" font-size="14" lengthAdjust="spacing" textLength="111" x="63.5" y="664.9639">ProductMapper</text><line style="stroke:#181818;stroke-width:0.5;" x1="35.5" x2="176.5" y1="673.2656" y2="673.2656"/><line style="stroke:#181818;stroke-width:0.5;" x1="35.5" x2="176.5" y1="681.2656" y2="681.2656"/><text fill="#000000" font-family="sans-serif" font-size="14" lengthAdjust="spacing" textLength="114" x="40.5" y="698.2607">toDTO(product)</text></g><!--MD5=[c9019a91ef573b04ad4a35e40c66c11d]
class ClerkOrderDTO--><g id="elem_ClerkOrderDTO"><rect codeLine="53" fill="#F1F1F1" height="72.5625" id="ClerkOrderDTO" rx="2.5" ry="2.5" style="stroke:#181818;stroke-width:0.5;" width="143" x="657.5" y="774"/><ellipse cx="672.95" cy="794.1328" fill="#ADD1B2" rx="11" ry="11" style="stroke:#181818;stroke-width:1.0;"/><path d="M675.2938,789.8047 C674.3563,789.3672 673.7625,789.2266 672.8875,789.2266 C670.2625,789.2266 668.2625,791.3047 668.2625,794.0234 L668.2625,795.1484 C668.2625,797.7266 670.3719,799.6172 673.2625,799.6172 C674.4813,799.6172 675.6375,799.3203 676.3875,798.7734 C676.9656,798.3672 677.2938,797.9141 677.2938,797.5234 C677.2938,797.0703 676.9031,796.6797 676.4344,796.6797 C676.2156,796.6797 676.0125,796.7578 675.825,796.9453 C675.3719,797.4297 675.3719,797.4297 675.1844,797.5234 C674.7625,797.7891 674.075,797.9141 673.3094,797.9141 C671.2625,797.9141 669.9656,796.8203 669.9656,795.1172 L669.9656,794.0234 C669.9656,792.2422 671.2156,790.9297 672.95,790.9297 C673.5281,790.9297 674.1375,791.0859 674.6063,791.3359 C675.0906,791.6172 675.2625,791.8359 675.3563,792.2422 C675.4188,792.6484 675.45,792.7734 675.5906,792.8984 C675.7313,793.0391 675.9656,793.1484 676.1844,793.1484 C676.45,793.1484 676.7156,793.0078 676.8875,792.7891 C676.9969,792.6328 677.0281,792.4453 677.0281,792.0234 L677.0281,790.6016 C677.0281,790.1641 677.0125,790.0391 676.9188,789.8828 C676.7625,789.6172 676.4813,789.4766 676.1844,789.4766 C675.8875,789.4766 675.6844,789.5703 675.4656,789.8828 L675.2938,789.8047 Z " fill="#000000"/><text fill="#000000" font-family="sans-serif" font-size="12" font-style="italic" lengthAdjust="spacing" textLength="39" x="722.55" y="790.1387">«DTO»</text><text fill="#000000" font-family="sans-serif" font-size="14" lengthAdjust="spacing" textLength="110" x="687.05" y="805.9639">ClerkOrderDTO</text><line style="stroke:#181818;stroke-width:0.5;" x1="658.5" x2="799.5" y1="814.2656" y2="814.2656"/><line style="stroke:#181818;stroke-width:0.5;" x1="658.5" x2="799.5" y1="822.2656" y2="822.2656"/><text fill="#000000" font-family="sans-serif" font-size="14" lengthAdjust="spacing" textLength="131" x="663.5" y="839.2607">showInformation()</text></g><!--MD5=[3a62161cdface179cfe437549bd3da46]
class ClerkOrderMapper--><g id="elem_ClerkOrderMapper"><rect codeLine="57" fill="#F1F1F1" height="72.5625" id="ClerkOrderMapper" rx="2.5" ry="2.5" style="stroke:#181818;stroke-width:0.5;" width="166" x="646" y="633"/><ellipse cx="661" cy="653.1328" fill="#ADD1B2" rx="11" ry="11" style="stroke:#181818;stroke-width:1.0;"/><path d="M663.3438,648.8047 C662.4063,648.3672 661.8125,648.2266 660.9375,648.2266 C658.3125,648.2266 656.3125,650.3047 656.3125,653.0234 L656.3125,654.1484 C656.3125,656.7266 658.4219,658.6172 661.3125,658.6172 C662.5313,658.6172 663.6875,658.3203 664.4375,657.7734 C665.0156,657.3672 665.3438,656.9141 665.3438,656.5234 C665.3438,656.0703 664.9531,655.6797 664.4844,655.6797 C664.2656,655.6797 664.0625,655.7578 663.875,655.9453 C663.4219,656.4297 663.4219,656.4297 663.2344,656.5234 C662.8125,656.7891 662.125,656.9141 661.3594,656.9141 C659.3125,656.9141 658.0156,655.8203 658.0156,654.1172 L658.0156,653.0234 C658.0156,651.2422 659.2656,649.9297 661,649.9297 C661.5781,649.9297 662.1875,650.0859 662.6563,650.3359 C663.1406,650.6172 663.3125,650.8359 663.4063,651.2422 C663.4688,651.6484 663.5,651.7734 663.6406,651.8984 C663.7813,652.0391 664.0156,652.1484 664.2344,652.1484 C664.5,652.1484 664.7656,652.0078 664.9375,651.7891 C665.0469,651.6328 665.0781,651.4453 665.0781,651.0234 L665.0781,649.6016 C665.0781,649.1641 665.0625,649.0391 664.9688,648.8828 C664.8125,648.6172 664.5313,648.4766 664.2344,648.4766 C663.9375,648.4766 663.7344,648.5703 663.5156,648.8828 L663.3438,648.8047 Z " fill="#000000"/><text fill="#000000" font-family="sans-serif" font-size="12" font-style="italic" lengthAdjust="spacing" textLength="39" x="722.5" y="649.1387">«DTO»</text><text fill="#000000" font-family="sans-serif" font-size="14" lengthAdjust="spacing" textLength="134" x="675" y="664.9639">ClerkOrderMapper</text><line style="stroke:#181818;stroke-width:0.5;" x1="647" x2="811" y1="673.2656" y2="673.2656"/><line style="stroke:#181818;stroke-width:0.5;" x1="647" x2="811" y1="681.2656" y2="681.2656"/><text fill="#000000" font-family="sans-serif" font-size="14" lengthAdjust="spacing" textLength="114" x="652" y="698.2607">toDTO(product)</text></g><!--MD5=[528eec26f622a991edee7b112d3895d9]
class OrderItemDTO--><g id="elem_OrderItemDTO"><rect codeLine="61" fill="#F1F1F1" height="72.5625" id="OrderItemDTO" rx="2.5" ry="2.5" style="stroke:#181818;stroke-width:0.5;" width="143" x="853.5" y="774"/><ellipse cx="870.75" cy="794.1328" fill="#ADD1B2" rx="11" ry="11" style="stroke:#181818;stroke-width:1.0;"/><path d="M873.0938,789.8047 C872.1563,789.3672 871.5625,789.2266 870.6875,789.2266 C868.0625,789.2266 866.0625,791.3047 866.0625,794.0234 L866.0625,795.1484 C866.0625,797.7266 868.1719,799.6172 871.0625,799.6172 C872.2813,799.6172 873.4375,799.3203 874.1875,798.7734 C874.7656,798.3672 875.0938,797.9141 875.0938,797.5234 C875.0938,797.0703 874.7031,796.6797 874.2344,796.6797 C874.0156,796.6797 873.8125,796.7578 873.625,796.9453 C873.1719,797.4297 873.1719,797.4297 872.9844,797.5234 C872.5625,797.7891 871.875,797.9141 871.1094,797.9141 C869.0625,797.9141 867.7656,796.8203 867.7656,795.1172 L867.7656,794.0234 C867.7656,792.2422 869.0156,790.9297 870.75,790.9297 C871.3281,790.9297 871.9375,791.0859 872.4063,791.3359 C872.8906,791.6172 873.0625,791.8359 873.1563,792.2422 C873.2188,792.6484 873.25,792.7734 873.3906,792.8984 C873.5313,793.0391 873.7656,793.1484 873.9844,793.1484 C874.25,793.1484 874.5156,793.0078 874.6875,792.7891 C874.7969,792.6328 874.8281,792.4453 874.8281,792.0234 L874.8281,790.6016 C874.8281,790.1641 874.8125,790.0391 874.7188,789.8828 C874.5625,789.6172 874.2813,789.4766 873.9844,789.4766 C873.6875,789.4766 873.4844,789.5703 873.2656,789.8828 L873.0938,789.8047 Z " fill="#000000"/><text fill="#000000" font-family="sans-serif" font-size="12" font-style="italic" lengthAdjust="spacing" textLength="39" x="918.75" y="790.1387">«DTO»</text><text fill="#000000" font-family="sans-serif" font-size="14" lengthAdjust="spacing" textLength="106" x="885.25" y="805.9639">OrderItemDTO</text><line style="stroke:#181818;stroke-width:0.5;" x1="854.5" x2="995.5" y1="814.2656" y2="814.2656"/><line style="stroke:#181818;stroke-width:0.5;" x1="854.5" x2="995.5" y1="822.2656" y2="822.2656"/><text fill="#000000" font-family="sans-serif" font-size="14" lengthAdjust="spacing" textLength="131" x="859.5" y="839.2607">showInformation()</text></g><!--MD5=[b5a1e97fad796dfef73711d8cfa3da86]
class OrdeItemMapper--><g id="elem_OrdeItemMapper"><rect codeLine="65" fill="#F1F1F1" height="72.5625" id="OrdeItemMapper" rx="2.5" ry="2.5" style="stroke:#181818;stroke-width:0.5;" width="156" x="847" y="633"/><ellipse cx="862" cy="653.1328" fill="#ADD1B2" rx="11" ry="11" style="stroke:#181818;stroke-width:1.0;"/><path d="M864.3438,648.8047 C863.4063,648.3672 862.8125,648.2266 861.9375,648.2266 C859.3125,648.2266 857.3125,650.3047 857.3125,653.0234 L857.3125,654.1484 C857.3125,656.7266 859.4219,658.6172 862.3125,658.6172 C863.5313,658.6172 864.6875,658.3203 865.4375,657.7734 C866.0156,657.3672 866.3438,656.9141 866.3438,656.5234 C866.3438,656.0703 865.9531,655.6797 865.4844,655.6797 C865.2656,655.6797 865.0625,655.7578 864.875,655.9453 C864.4219,656.4297 864.4219,656.4297 864.2344,656.5234 C863.8125,656.7891 863.125,656.9141 862.3594,656.9141 C860.3125,656.9141 859.0156,655.8203 859.0156,654.1172 L859.0156,653.0234 C859.0156,651.2422 860.2656,649.9297 862,649.9297 C862.5781,649.9297 863.1875,650.0859 863.6563,650.3359 C864.1406,650.6172 864.3125,650.8359 864.4063,651.2422 C864.4688,651.6484 864.5,651.7734 864.6406,651.8984 C864.7813,652.0391 865.0156,652.1484 865.2344,652.1484 C865.5,652.1484 865.7656,652.0078 865.9375,651.7891 C866.0469,651.6328 866.0781,651.4453 866.0781,651.0234 L866.0781,649.6016 C866.0781,649.1641 866.0625,649.0391 865.9688,648.8828 C865.8125,648.6172 865.5313,648.4766 865.2344,648.4766 C864.9375,648.4766 864.7344,648.5703 864.5156,648.8828 L864.3438,648.8047 Z " fill="#000000"/><text fill="#000000" font-family="sans-serif" font-size="12" font-style="italic" lengthAdjust="spacing" textLength="39" x="918.5" y="649.1387">«DTO»</text><text fill="#000000" font-family="sans-serif" font-size="14" lengthAdjust="spacing" textLength="124" x="876" y="664.9639">OrdeItemMapper</text><line style="stroke:#181818;stroke-width:0.5;" x1="848" x2="1002" y1="673.2656" y2="673.2656"/><line style="stroke:#181818;stroke-width:0.5;" x1="848" x2="1002" y1="681.2656" y2="681.2656"/><text fill="#000000" font-family="sans-serif" font-size="14" lengthAdjust="spacing" textLength="57" x="853" y="698.2607">toDTO()</text></g><!--MD5=[f9761e4ec0e5a044b983a0fb01ce84a9]
class ProductRepository--><g id="elem_ProductRepository"><rect codeLine="69" fill="#F1F1F1" height="137.75" id="ProductRepository" rx="2.5" ry="2.5" style="stroke:#181818;stroke-width:0.5;" width="313" x="189.5" y="915"/><ellipse cx="274.25" cy="935.1328" fill="#ADD1B2" rx="11" ry="11" style="stroke:#181818;stroke-width:1.0;"/><path d="M276.5938,930.8047 C275.6563,930.3672 275.0625,930.2266 274.1875,930.2266 C271.5625,930.2266 269.5625,932.3047 269.5625,935.0234 L269.5625,936.1484 C269.5625,938.7266 271.6719,940.6172 274.5625,940.6172 C275.7813,940.6172 276.9375,940.3203 277.6875,939.7734 C278.2656,939.3672 278.5938,938.9141 278.5938,938.5234 C278.5938,938.0703 278.2031,937.6797 277.7344,937.6797 C277.5156,937.6797 277.3125,937.7578 277.125,937.9453 C276.6719,938.4297 276.6719,938.4297 276.4844,938.5234 C276.0625,938.7891 275.375,938.9141 274.6094,938.9141 C272.5625,938.9141 271.2656,937.8203 271.2656,936.1172 L271.2656,935.0234 C271.2656,933.2422 272.5156,931.9297 274.25,931.9297 C274.8281,931.9297 275.4375,932.0859 275.9063,932.3359 C276.3906,932.6172 276.5625,932.8359 276.6563,933.2422 C276.7188,933.6484 276.75,933.7734 276.8906,933.8984 C277.0313,934.0391 277.2656,934.1484 277.4844,934.1484 C277.75,934.1484 278.0156,934.0078 278.1875,933.7891 C278.2969,933.6328 278.3281,933.4453 278.3281,933.0234 L278.3281,931.6016 C278.3281,931.1641 278.3125,931.0391 278.2188,930.8828 C278.0625,930.6172 277.7813,930.4766 277.4844,930.4766 C277.1875,930.4766 276.9844,930.5703 276.7656,930.8828 L276.5938,930.8047 Z " fill="#000000"/><text fill="#000000" font-family="sans-serif" font-size="12" font-style="italic" lengthAdjust="spacing" textLength="82" x="321.25" y="931.1387">«Persistence»</text><text fill="#000000" font-family="sans-serif" font-size="14" lengthAdjust="spacing" textLength="135" x="294.75" y="946.9639">ProductRepository</text><line style="stroke:#181818;stroke-width:0.5;" x1="190.5" x2="501.5" y1="955.2656" y2="955.2656"/><line style="stroke:#181818;stroke-width:0.5;" x1="190.5" x2="501.5" y1="963.2656" y2="963.2656"/><text fill="#000000" font-family="sans-serif" font-size="14" lengthAdjust="spacing" textLength="137" x="195.5" y="980.2607">getProductByID(id)</text><text fill="#000000" font-family="sans-serif" font-size="14" lengthAdjust="spacing" textLength="116" x="195.5" y="996.5576">getAllProducts()</text><text fill="#000000" font-family="sans-serif" font-size="14" lengthAdjust="spacing" textLength="265" x="195.5" y="1012.8545">getProductsFromCategory(category)</text><text fill="#000000" font-family="sans-serif" font-size="14" lengthAdjust="spacing" textLength="301" x="195.5" y="1029.1514">getProductsFromDescription(description)</text><text fill="#000000" font-family="sans-serif" font-size="14" lengthAdjust="spacing" textLength="219" x="195.5" y="1045.4482">getProductsFromBrand(brand)</text></g><!--MD5=[708e328039b60d50c6285936843ac334]
class OrderRepository--><g id="elem_OrderRepository"><rect codeLine="77" fill="#F1F1F1" height="72.5625" id="OrderRepository" rx="2.5" ry="2.5" style="stroke:#181818;stroke-width:0.5;" width="152" x="759" y="947.5"/><ellipse cx="774" cy="967.6328" fill="#ADD1B2" rx="11" ry="11" style="stroke:#181818;stroke-width:1.0;"/><path d="M776.3438,963.3047 C775.4063,962.8672 774.8125,962.7266 773.9375,962.7266 C771.3125,962.7266 769.3125,964.8047 769.3125,967.5234 L769.3125,968.6484 C769.3125,971.2266 771.4219,973.1172 774.3125,973.1172 C775.5313,973.1172 776.6875,972.8203 777.4375,972.2734 C778.0156,971.8672 778.3438,971.4141 778.3438,971.0234 C778.3438,970.5703 777.9531,970.1797 777.4844,970.1797 C777.2656,970.1797 777.0625,970.2578 776.875,970.4453 C776.4219,970.9297 776.4219,970.9297 776.2344,971.0234 C775.8125,971.2891 775.125,971.4141 774.3594,971.4141 C772.3125,971.4141 771.0156,970.3203 771.0156,968.6172 L771.0156,967.5234 C771.0156,965.7422 772.2656,964.4297 774,964.4297 C774.5781,964.4297 775.1875,964.5859 775.6563,964.8359 C776.1406,965.1172 776.3125,965.3359 776.4063,965.7422 C776.4688,966.1484 776.5,966.2734 776.6406,966.3984 C776.7813,966.5391 777.0156,966.6484 777.2344,966.6484 C777.5,966.6484 777.7656,966.5078 777.9375,966.2891 C778.0469,966.1328 778.0781,965.9453 778.0781,965.5234 L778.0781,964.1016 C778.0781,963.6641 778.0625,963.5391 777.9688,963.3828 C777.8125,963.1172 777.5313,962.9766 777.2344,962.9766 C776.9375,962.9766 776.7344,963.0703 776.5156,963.3828 L776.3438,963.3047 Z " fill="#000000"/><text fill="#000000" font-family="sans-serif" font-size="12" font-style="italic" lengthAdjust="spacing" textLength="82" x="807" y="963.6387">«Persistence»</text><text fill="#000000" font-family="sans-serif" font-size="14" lengthAdjust="spacing" textLength="120" x="788" y="979.4639">OrderRepository</text><line style="stroke:#181818;stroke-width:0.5;" x1="760" x2="910" y1="987.7656" y2="987.7656"/><line style="stroke:#181818;stroke-width:0.5;" x1="760" x2="910" y1="995.7656" y2="995.7656"/><text fill="#000000" font-family="sans-serif" font-size="14" lengthAdjust="spacing" textLength="116" x="765" y="1012.7607">addOrder(order)</text></g><!--MD5=[72136138052d025cffdce3c22fbd185f]
class Product--><g id="elem_Product"><rect codeLine="81" fill="#F1F1F1" height="56.2656" id="Product" rx="2.5" ry="2.5" style="stroke:#181818;stroke-width:0.5;" width="88" x="302" y="1113"/><ellipse cx="317" cy="1133.1328" fill="#ADD1B2" rx="11" ry="11" style="stroke:#181818;stroke-width:1.0;"/><path d="M319.3438,1128.8047 C318.4063,1128.3672 317.8125,1128.2266 316.9375,1128.2266 C314.3125,1128.2266 312.3125,1130.3047 312.3125,1133.0234 L312.3125,1134.1484 C312.3125,1136.7266 314.4219,1138.6172 317.3125,1138.6172 C318.5313,1138.6172 319.6875,1138.3203 320.4375,1137.7734 C321.0156,1137.3672 321.3438,1136.9141 321.3438,1136.5234 C321.3438,1136.0703 320.9531,1135.6797 320.4844,1135.6797 C320.2656,1135.6797 320.0625,1135.7578 319.875,1135.9453 C319.4219,1136.4297 319.4219,1136.4297 319.2344,1136.5234 C318.8125,1136.7891 318.125,1136.9141 317.3594,1136.9141 C315.3125,1136.9141 314.0156,1135.8203 314.0156,1134.1172 L314.0156,1133.0234 C314.0156,1131.2422 315.2656,1129.9297 317,1129.9297 C317.5781,1129.9297 318.1875,1130.0859 318.6563,1130.3359 C319.1406,1130.6172 319.3125,1130.8359 319.4063,1131.2422 C319.4688,1131.6484 319.5,1131.7734 319.6406,1131.8984 C319.7813,1132.0391 320.0156,1132.1484 320.2344,1132.1484 C320.5,1132.1484 320.7656,1132.0078 320.9375,1131.7891 C321.0469,1131.6328 321.0781,1131.4453 321.0781,1131.0234 L321.0781,1129.6016 C321.0781,1129.1641 321.0625,1129.0391 320.9688,1128.8828 C320.8125,1128.6172 320.5313,1128.4766 320.2344,1128.4766 C319.9375,1128.4766 319.7344,1128.5703 319.5156,1128.8828 L319.3438,1128.8047 Z " fill="#000000"/><text fill="#000000" font-family="sans-serif" font-size="12" font-style="italic" lengthAdjust="spacing" textLength="60" x="329" y="1129.1387">«Domain»</text><text fill="#000000" font-family="sans-serif" font-size="14" lengthAdjust="spacing" textLength="56" x="331" y="1144.9639">Product</text><line style="stroke:#181818;stroke-width:0.5;" x1="303" x2="389" y1="1153.2656" y2="1153.2656"/><line style="stroke:#181818;stroke-width:0.5;" x1="303" x2="389" y1="1161.2656" y2="1161.2656"/></g><!--MD5=[cf4d6237fcae255cd2e1656cf84a30e2]
class Order--><g id="elem_Order"><rect codeLine="83" fill="#F1F1F1" height="56.2656" id="Order" rx="2.5" ry="2.5" style="stroke:#181818;stroke-width:0.5;" width="88" x="791" y="1113"/><ellipse cx="806" cy="1133.1328" fill="#ADD1B2" rx="11" ry="11" style="stroke:#181818;stroke-width:1.0;"/><path d="M808.3438,1128.8047 C807.4063,1128.3672 806.8125,1128.2266 805.9375,1128.2266 C803.3125,1128.2266 801.3125,1130.3047 801.3125,1133.0234 L801.3125,1134.1484 C801.3125,1136.7266 803.4219,1138.6172 806.3125,1138.6172 C807.5313,1138.6172 808.6875,1138.3203 809.4375,1137.7734 C810.0156,1137.3672 810.3438,1136.9141 810.3438,1136.5234 C810.3438,1136.0703 809.9531,1135.6797 809.4844,1135.6797 C809.2656,1135.6797 809.0625,1135.7578 808.875,1135.9453 C808.4219,1136.4297 808.4219,1136.4297 808.2344,1136.5234 C807.8125,1136.7891 807.125,1136.9141 806.3594,1136.9141 C804.3125,1136.9141 803.0156,1135.8203 803.0156,1134.1172 L803.0156,1133.0234 C803.0156,1131.2422 804.2656,1129.9297 806,1129.9297 C806.5781,1129.9297 807.1875,1130.0859 807.6563,1130.3359 C808.1406,1130.6172 808.3125,1130.8359 808.4063,1131.2422 C808.4688,1131.6484 808.5,1131.7734 808.6406,1131.8984 C808.7813,1132.0391 809.0156,1132.1484 809.2344,1132.1484 C809.5,1132.1484 809.7656,1132.0078 809.9375,1131.7891 C810.0469,1131.6328 810.0781,1131.4453 810.0781,1131.0234 L810.0781,1129.6016 C810.0781,1129.1641 810.0625,1129.0391 809.9688,1128.8828 C809.8125,1128.6172 809.5313,1128.4766 809.2344,1128.4766 C808.9375,1128.4766 808.7344,1128.5703 808.5156,1128.8828 L808.3438,1128.8047 Z " fill="#000000"/><text fill="#000000" font-family="sans-serif" font-size="12" font-style="italic" lengthAdjust="spacing" textLength="60" x="818" y="1129.1387">«Domain»</text><text fill="#000000" font-family="sans-serif" font-size="14" lengthAdjust="spacing" textLength="41" x="827.5" y="1144.9639">Order</text><line style="stroke:#181818;stroke-width:0.5;" x1="792" x2="878" y1="1153.2656" y2="1153.2656"/><line style="stroke:#181818;stroke-width:0.5;" x1="792" x2="878" y1="1161.2656" y2="1161.2656"/></g><!--MD5=[003718b22fee2486eeba0fa029a176b7]
class OrderItem--><g id="elem_OrderItem"><rect codeLine="85" fill="#F1F1F1" height="56.2656" id="OrderItem" rx="2.5" ry="2.5" style="stroke:#181818;stroke-width:0.5;" width="107" x="914.5" y="1113"/><ellipse cx="929.5" cy="1133.1328" fill="#ADD1B2" rx="11" ry="11" style="stroke:#181818;stroke-width:1.0;"/><path d="M931.8438,1128.8047 C930.9063,1128.3672 930.3125,1128.2266 929.4375,1128.2266 C926.8125,1128.2266 924.8125,1130.3047 924.8125,1133.0234 L924.8125,1134.1484 C924.8125,1136.7266 926.9219,1138.6172 929.8125,1138.6172 C931.0313,1138.6172 932.1875,1138.3203 932.9375,1137.7734 C933.5156,1137.3672 933.8438,1136.9141 933.8438,1136.5234 C933.8438,1136.0703 933.4531,1135.6797 932.9844,1135.6797 C932.7656,1135.6797 932.5625,1135.7578 932.375,1135.9453 C931.9219,1136.4297 931.9219,1136.4297 931.7344,1136.5234 C931.3125,1136.7891 930.625,1136.9141 929.8594,1136.9141 C927.8125,1136.9141 926.5156,1135.8203 926.5156,1134.1172 L926.5156,1133.0234 C926.5156,1131.2422 927.7656,1129.9297 929.5,1129.9297 C930.0781,1129.9297 930.6875,1130.0859 931.1563,1130.3359 C931.6406,1130.6172 931.8125,1130.8359 931.9063,1131.2422 C931.9688,1131.6484 932,1131.7734 932.1406,1131.8984 C932.2813,1132.0391 932.5156,1132.1484 932.7344,1132.1484 C933,1132.1484 933.2656,1132.0078 933.4375,1131.7891 C933.5469,1131.6328 933.5781,1131.4453 933.5781,1131.0234 L933.5781,1129.6016 C933.5781,1129.1641 933.5625,1129.0391 933.4688,1128.8828 C933.3125,1128.6172 933.0313,1128.4766 932.7344,1128.4766 C932.4375,1128.4766 932.2344,1128.5703 932.0156,1128.8828 L931.8438,1128.8047 Z " fill="#000000"/><text fill="#000000" font-family="sans-serif" font-size="12" font-style="italic" lengthAdjust="spacing" textLength="60" x="951" y="1129.1387">«Domain»</text><text fill="#000000" font-family="sans-serif" font-size="14" lengthAdjust="spacing" textLength="75" x="943.5" y="1144.9639">OrderItem</text><line style="stroke:#181818;stroke-width:0.5;" x1="915.5" x2="1020.5" y1="1153.2656" y2="1153.2656"/><line style="stroke:#181818;stroke-width:0.5;" x1="915.5" x2="1020.5" y1="1161.2656" y2="1161.2656"/></g><!--MD5=[c9b458c10267349188489d91762966a7]
link CreateOrderUI to CreateOrderForClientController--><g id="link_CreateOrderUI_CreateOrderForClientController"><path codeLine="88" d="M523,96.01 C523,112.06 523,131.02 523,150.18 " fill="none" id="CreateOrderUI-to-CreateOrderForClientController" style="stroke:#181818;stroke-width:1.0;stroke-dasharray:7.0,7.0;"/><polygon fill="#181818" points="523,155.59,527,146.59,523,150.59,519,146.59,523,155.59" style="stroke:#181818;stroke-width:1.0;"/></g><!--MD5=[98cb1a68277f8b0a6b83e9816cb76594]
link CreateOrderForClientController to ProductService--><g id="link_CreateOrderForClientController_ProductService"><path codeLine="90" d="M402.572,359.14 C380.054,377.959 356.807,397.386 335.182,415.457 " fill="none" id="CreateOrderForClientController-to-ProductService" style="stroke:#181818;stroke-width:1.0;stroke-dasharray:7.0,7.0;"/><polygon fill="#181818" points="331.164,418.815,340.6348,416.1124,335.0004,415.6085,335.5043,409.9741,331.164,418.815" style="stroke:#181818;stroke-width:1.0;"/></g><!--MD5=[896367f9064da5d3913f134f66be1358]
link CreateOrderForClientController to CreateOrderService--><g id="link_CreateOrderForClientController_CreateOrderService"><path codeLine="91" d="M643.428,359.14 C669.418,380.86 696.377,403.39 720.694,423.711 " fill="none" id="CreateOrderForClientController-to-CreateOrderService" style="stroke:#181818;stroke-width:1.0;stroke-dasharray:7.0,7.0;"/><polygon fill="#181818" points="724.573,426.953,720.2327,418.1121,720.7366,423.7465,715.1022,424.2504,724.573,426.953" style="stroke:#181818;stroke-width:1.0;"/></g><!--MD5=[652f0de1660ad5aba9e03af45f95e47f]
link ProductService to ProductMapper--><g id="link_ProductService_ProductMapper"><path codeLine="93" d="M180.445,573.221 C165.496,592.354 150.046,612.128 137.122,628.669 " fill="none" id="ProductService-to-ProductMapper" style="stroke:#181818;stroke-width:1.0;stroke-dasharray:7.0,7.0;"/><polygon fill="#181818" points="133.892,632.802,142.5852,628.173,136.9705,628.8621,136.2814,623.2474,133.892,632.802" style="stroke:#181818;stroke-width:1.0;"/></g><!--MD5=[b90042c77839ace49de919b2263d727b]
link ProductService to ProductRepository--><g id="link_ProductService_ProductRepository"><path codeLine="94" d="M256.621,573.205 C276.692,665.231 310.216,818.935 330.004,909.659 " fill="none" id="ProductService-to-ProductRepository" style="stroke:#181818;stroke-width:1.0;stroke-dasharray:7.0,7.0;"/><polygon fill="#181818" points="331.111,914.736,333.1005,905.0902,330.0451,909.8509,325.2844,906.7956,331.111,914.736" style="stroke:#181818;stroke-width:1.0;"/></g><!--MD5=[dd77f821747e4be252529c089b4d0720]
link ProductService to RepositoryFactory--><g id="link_ProductService_RepositoryFactory"><path codeLine="95" d="M271.933,573.393 C290.855,614.528 316.983,665.078 347,706 C365.528,731.259 390.338,756.021 411.189,774.989 " fill="none" id="ProductService-to-RepositoryFactory" style="stroke:#181818;stroke-width:1.0;stroke-dasharray:7.0,7.0;"/><polygon fill="#181818" points="415.034,778.462,411.0368,769.4607,411.3237,775.1103,405.6741,775.3972,415.034,778.462" style="stroke:#181818;stroke-width:1.0;"/></g><!--MD5=[a016c21dbba1975a610b94ed88e70d5b]
link ProductService to PersistenceContext--><g id="link_ProductService_PersistenceContext"><path codeLine="96" d="M334.221,573.221 C360.56,594.528 387.881,616.63 409.571,634.176 " fill="none" id="ProductService-to-PersistenceContext" style="stroke:#181818;stroke-width:1.0;stroke-dasharray:7.0,7.0;"/><polygon fill="#181818" points="413.554,637.398,409.0722,628.6279,409.6666,634.2535,404.041,634.8478,413.554,637.398" style="stroke:#181818;stroke-width:1.0;"/></g><!--MD5=[bc1a417da63717cb7a6338ed98d26d79]
link CreateOrderService to ClerkOrderMapper--><g id="link_CreateOrderService_ClerkOrderMapper"><path codeLine="98" d="M775.346,565.274 C765.758,586.63 755.492,609.496 747.065,628.265 " fill="none" id="CreateOrderService-to-ClerkOrderMapper" style="stroke:#181818;stroke-width:1.0;stroke-dasharray:7.0,7.0;"/><polygon fill="#181818" points="744.963,632.946,752.2991,626.3747,747.0114,628.3849,745.0013,623.0972,744.963,632.946" style="stroke:#181818;stroke-width:1.0;"/></g><!--MD5=[425a829b5a0bd4571301a04043345d91]
link CreateOrderService to OrdeItemMapper--><g id="link_CreateOrderService_OrdeItemMapper"><path codeLine="99" d="M853.374,565.274 C868.318,586.811 884.327,609.884 897.413,628.742 " fill="none" id="CreateOrderService-to-OrdeItemMapper" style="stroke:#181818;stroke-width:1.0;stroke-dasharray:7.0,7.0;"/><polygon fill="#181818" points="900.33,632.946,898.487,623.2711,897.4802,628.8377,891.9136,627.8309,900.33,632.946" style="stroke:#181818;stroke-width:1.0;"/></g><!--MD5=[9d12b358eced2f49fdb7374c717222f8]
link CreateOrderService to RepositoryFactory--><g id="link_CreateOrderService_RepositoryFactory"><path codeLine="100" d="M711.554,565.085 C683.95,586.06 654.179,609.767 628,633 C594.149,663.042 588.896,673.89 557,706 C534.075,729.079 508.034,754.752 487.62,774.755 " fill="none" id="CreateOrderService-to-RepositoryFactory" style="stroke:#181818;stroke-width:1.0;stroke-dasharray:7.0,7.0;"/><polygon fill="#181818" points="483.876,778.422,493.1043,774.9814,487.4478,774.9231,487.5061,769.2665,483.876,778.422" style="stroke:#181818;stroke-width:1.0;"/></g><!--MD5=[0d6286358d3da1c43f002cb99e25a864]
link CreateOrderService to PersistenceContext--><g id="link_CreateOrderService_PersistenceContext"><path codeLine="101" d="M665.581,565.028 C615.767,589.161 561.911,615.252 520.742,635.197 " fill="none" id="CreateOrderService-to-PersistenceContext" style="stroke:#181818;stroke-width:1.0;stroke-dasharray:7.0,7.0;"/><polygon fill="#181818" points="516.039,637.475,525.8825,637.151,520.5388,635.2951,522.3947,629.9514,516.039,637.475" style="stroke:#181818;stroke-width:1.0;"/></g><!--MD5=[e05f3d7f12e6b7272fe87495f737cc45]
link CreateOrderService to OrderRepository--><g id="link_CreateOrderService_OrderRepository"><path codeLine="102" d="M956.983,565.088 C982.278,583.426 1005.111,605.896 1020,633 C1036.04,662.208 1037.47,811.536 1014,855 C992.457,894.894 952.42,925.308 915.665,946.458 " fill="none" id="CreateOrderService-to-OrderRepository" style="stroke:#181818;stroke-width:1.0;stroke-dasharray:7.0,7.0;"/><polygon fill="#181818" points="911.201,948.991,921.0028,948.0289,915.5498,946.5237,917.0551,941.0708,911.201,948.991" style="stroke:#181818;stroke-width:1.0;"/></g><!--MD5=[a107a52b6e2b3fb29ad79d2f6a7df605]
link RepositoryFactory to ProductRepository--><g id="link_RepositoryFactory_ProductRepository"><path codeLine="104" d="M432.804,842.557 C421.066,861.549 405.53,886.685 390.85,910.437 " fill="none" id="RepositoryFactory-to-ProductRepository" style="stroke:#181818;stroke-width:1.0;stroke-dasharray:7.0,7.0;"/><polygon fill="#181818" points="388.119,914.854,396.2533,909.3013,390.7478,910.6008,389.4482,905.0953,388.119,914.854" style="stroke:#181818;stroke-width:1.0;"/></g><!--MD5=[754b775031405e096442b27febffa290]
link PersistenceContext to RepositoryFactory--><g id="link_PersistenceContext_RepositoryFactory"><path codeLine="105" d="M452,701.694 C452,722.887 452,750.992 452,773.191 " fill="none" id="PersistenceContext-to-RepositoryFactory" style="stroke:#181818;stroke-width:1.0;stroke-dasharray:7.0,7.0;"/><polygon fill="#181818" points="452,778.41,456,769.41,452,773.41,448,769.41,452,778.41" style="stroke:#181818;stroke-width:1.0;"/></g><!--MD5=[4961dc0a1f38b4bb8bde6c7779428d74]
link RepositoryFactory to OrderRepository--><g id="link_RepositoryFactory_OrderRepository"><path codeLine="107" d="M521.358,842.557 C586.828,871.874 684.987,915.827 754.017,946.738 " fill="none" id="RepositoryFactory-to-OrderRepository" style="stroke:#181818;stroke-width:1.0;stroke-dasharray:7.0,7.0;"/><polygon fill="#181818" points="758.936,948.94,752.3554,941.6123,754.3723,946.8974,749.0872,948.9143,758.936,948.94" style="stroke:#181818;stroke-width:1.0;"/></g><!--MD5=[3b446921a90fa6b1c97529fda8385db8]
link OrderRepository to Order--><g id="link_OrderRepository_Order"><path codeLine="109" d="M835,1020.56 C835,1046.761 835,1082.1137 835,1107.5493 " fill="none" id="OrderRepository-to-Order" style="stroke:#181818;stroke-width:1.0;stroke-dasharray:7.0,7.0;"/><polygon fill="#181818" points="835,1112.8195,839,1103.8195,835,1107.8195,831,1103.8195,835,1112.8195" style="stroke:#181818;stroke-width:1.0;"/></g><!--MD5=[041af6b47eff160bbb86828299e77995]
link ProductMapper to ProductDTO--><g id="link_ProductMapper_ProductDTO"><path codeLine="110" d="M103.6823,706.296 C102.6064,722.913 101.3108,742.921 100.1481,760.88 " fill="none" id="ProductMapper-to-ProductDTO" style="stroke:#181818;stroke-width:1.0;stroke-dasharray:7.0,7.0;"/><polygon fill="#181818" points="99.8239,765.886,104.3992,757.1644,100.1482,760.8965,96.416,756.6455,99.8239,765.886" style="stroke:#181818;stroke-width:1.0;"/></g><!--MD5=[68e4965bc339513f2ae30d33caf3e4dc]
link ProductRepository to Product--><g id="link_ProductRepository_Product"><path codeLine="111" d="M346,1053.436 C346,1072.2348 346,1091.7544 346,1107.4892 " fill="none" id="ProductRepository-to-Product" style="stroke:#181818;stroke-width:1.0;stroke-dasharray:7.0,7.0;"/><polygon fill="#181818" points="346,1112.6737,350,1103.6737,346,1107.6737,342,1103.6737,346,1112.6737" style="stroke:#181818;stroke-width:1.0;"/></g><!--MD5=[05f7f070f6156ef4a08ba1fb92a65c99]
link ClerkOrderMapper to ClerkOrderDTO--><g id="link_ClerkOrderMapper_ClerkOrderDTO"><path codeLine="113" d="M729,706.296 C729,725.347 729,748.856 729,768.622 " fill="none" id="ClerkOrderMapper-to-ClerkOrderDTO" style="stroke:#181818;stroke-width:1.0;stroke-dasharray:7.0,7.0;"/><polygon fill="#181818" points="729,773.825,733,764.825,729,768.825,725,764.825,729,773.825" style="stroke:#181818;stroke-width:1.0;"/></g><!--MD5=[b22d7b4a0ca1d16afe6e31421ae5fd16]
link OrdeItemMapper to OrderItemDTO--><g id="link_OrdeItemMapper_OrderItemDTO"><path codeLine="114" d="M925,706.296 C925,725.347 925,748.856 925,768.622 " fill="none" id="OrdeItemMapper-to-OrderItemDTO" style="stroke:#181818;stroke-width:1.0;stroke-dasharray:7.0,7.0;"/><polygon fill="#181818" points="925,773.825,929,764.825,925,768.825,921,764.825,925,773.825" style="stroke:#181818;stroke-width:1.0;"/></g><!--MD5=[06a6064c5cdd443a62b5eb59fb550c27]
link Order to OrderItem--><g id="link_Order_OrderItem"><path codeLine="118" d="M879.16,1141 C889.109,1141 899.058,1141 909.008,1141 " fill="none" id="Order-to-OrderItem" style="stroke:#181818;stroke-width:1.0;"/><polygon fill="#181818" points="914.21,1141,905.21,1137,909.21,1141,905.21,1145,914.21,1141" style="stroke:#181818;stroke-width:1.0;"/></g><!--MD5=[69ceb8dfc9d707fb29f65c96c781f5b5]
@startuml
class CreateOrderUI<<Presentation>>{
  doShow()
  selectsIndex()
}

class CreateOrderForClientController<<Application>>{
	filterByCategory(category)
  filterByDescription(description)
  filterByBrand(brand)
  resetFilters()
  filterResult()
  createOrderForClient(sourceChannel, comment, paymentMethod, clientEmail, billingAddress, deliveringAddress)
	createOrderItem(product, quantity)
	getAllOrderItensAdded()
	confirm order()
}

class ProductService<<Service>>{
	filterByCategory(category)
  filterByDescription(description)
  filterByBrand(brand)
  resetFilters()
  commonProducts()
  filterResult()
}

class CreateOrderService<<Service>>{
  createOrderForClient(sourceChannel, comment, paymentMethod, clientEmail, billingAddress, deliveringAddress)
	createOrderItem(product, quantity)
	getAllOrderItensAdded()
	addOrderItem()
	confirm order()
}

class RepositoryFactory{
	ProductRepository()
}

class PersistenceContext{
	repositories()
}

class ProductDTO<<DTO>>{
	showBasicInformation()
	showAllInformation()
}

class ProductMapper<<DTO>>{
	toDTO(product)
}


class ClerkOrderDTO<<DTO>>{
	showInformation()
}

class ClerkOrderMapper<<DTO>>{
	toDTO(product)
}

class OrderItemDTO<<DTO>>{
	showInformation()
}

class OrdeItemMapper<<DTO>>{
	toDTO()
}

class ProductRepository<<Persistence>>{
  getProductByID(id)
  getAllProducts()
  getProductsFromCategory(category)
  getProductsFromDescription(description)
  getProductsFromBrand(brand)
}

class OrderRepository<<Persistence>>{
	addOrder(order)
}

class Product<<Domain>>{}

class Order<<Domain>>{}

class OrderItem<<Domain>>{}


CreateOrderUI ..> CreateOrderForClientController

CreateOrderForClientController ..> ProductService
CreateOrderForClientController ..> CreateOrderService

ProductService ..> ProductMapper
ProductService ..> ProductRepository
ProductService ..> RepositoryFactory
ProductService ..> PersistenceContext

CreateOrderService ..> ClerkOrderMapper
CreateOrderService ..> OrdeItemMapper
CreateOrderService ..> RepositoryFactory
CreateOrderService ..> PersistenceContext
CreateOrderService ..> OrderRepository

RepositoryFactory ..> ProductRepository
PersistenceContext ..> RepositoryFactory

RepositoryFactory ..> OrderRepository

OrderRepository ..> Order
ProductMapper ..> ProductDTO
ProductRepository ..> Product 

ClerkOrderMapper ..> ClerkOrderDTO
OrdeItemMapper ..> OrderItemDTO



Order->OrderItem
@enduml

PlantUML version 1.2022.4beta2(Unknown compile time)
(GPL source distribution)
Java Runtime: Java(TM) SE Runtime Environment
JVM: Java HotSpot(TM) 64-Bit Server VM
Default Encoding: UTF-8
Language: en
Country: US
--></g></svg>