<?xml version="1.0" encoding="UTF-8" standalone="no"?><svg xmlns="http://www.w3.org/2000/svg" xmlns:xlink="http://www.w3.org/1999/xlink" contentStyleType="text/css" height="1290px" preserveAspectRatio="none" style="width:2455px;height:1290px;background:#FFFFFF;" version="1.1" viewBox="0 0 2455 1290" width="2455px" zoomAndPan="magnify"><defs/><g><rect fill="#FFFFFF" height="1099.9141" style="stroke:#181818;stroke-width:1.0;" width="10" x="80.5" y="91.2969"/><rect fill="#FFFFFF" height="408.7266" style="stroke:#181818;stroke-width:1.0;" width="10" x="351.5" y="112.4297"/><rect fill="#FFFFFF" height="145.6641" style="stroke:#181818;stroke-width:1.0;" width="10" x="351.5" y="550.2891"/><rect fill="#FFFFFF" height="466.125" style="stroke:#181818;stroke-width:1.0;" width="10" x="351.5" y="725.0859"/><rect fill="#FFFFFF" height="350.4609" style="stroke:#181818;stroke-width:1.0;" width="10" x="561.5" y="141.5625"/><rect fill="#FFFFFF" height="87.3984" style="stroke:#181818;stroke-width:1.0;" width="10" x="561.5" y="579.4219"/><rect fill="#FFFFFF" height="436.9922" style="stroke:#181818;stroke-width:1.0;" width="10" x="561.5" y="754.2188"/><rect fill="#FFFFFF" height="263.0625" style="stroke:#181818;stroke-width:1.0;" width="10" x="753.5" y="199.8281"/><rect fill="#FFFFFF" height="29.1328" style="stroke:#181818;stroke-width:1.0;" width="10" x="753.5" y="608.5547"/><rect fill="#FFFFFF" height="59.1328" style="stroke:#181818;stroke-width:1.0;" width="10" x="909" y="228.9609"/><rect fill="#FFFFFF" height="59.1328" style="stroke:#181818;stroke-width:1.0;" width="10" x="1076" y="258.0938"/><rect fill="#FFFFFF" height="29.1328" style="stroke:#181818;stroke-width:1.0;" width="10" x="1226.5" y="346.3594"/><rect fill="#FFFFFF" height="174.7969" style="stroke:#181818;stroke-width:1.0;" width="10" x="1349" y="812.4844"/><rect fill="#FFFFFF" height="29.1328" style="stroke:#181818;stroke-width:1.0;" width="10" x="1349" y="1074.6797"/><rect fill="#FFFFFF" height="58.2656" style="stroke:#181818;stroke-width:1.0;" width="10" x="1466.5" y="1132.9453"/><rect fill="#FFFFFF" height="233.0625" style="stroke:#181818;stroke-width:1.0;" width="10" x="1716.5" y="958.1484"/><rect fill="#FFFFFF" height="29.1328" style="stroke:#181818;stroke-width:1.0;" width="10" x="1856.5" y="404.625"/><rect fill="#FFFFFF" height="29.1328" style="stroke:#181818;stroke-width:1.0;" width="10" x="1977.5" y="870.75"/><line style="stroke:#181818;stroke-width:0.5;stroke-dasharray:5.0,5.0;" x1="85" x2="85" y1="81.2969" y2="1209.2109"/><line style="stroke:#181818;stroke-width:0.5;stroke-dasharray:5.0,5.0;" x1="356" x2="356" y1="81.2969" y2="1209.2109"/><line style="stroke:#181818;stroke-width:0.5;stroke-dasharray:5.0,5.0;" x1="566" x2="566" y1="81.2969" y2="1209.2109"/><line style="stroke:#181818;stroke-width:0.5;stroke-dasharray:5.0,5.0;" x1="758" x2="758" y1="81.2969" y2="1209.2109"/><line style="stroke:#181818;stroke-width:0.5;stroke-dasharray:5.0,5.0;" x1="914" x2="914" y1="81.2969" y2="1209.2109"/><line style="stroke:#181818;stroke-width:0.5;stroke-dasharray:5.0,5.0;" x1="1081" x2="1081" y1="81.2969" y2="1209.2109"/><line style="stroke:#181818;stroke-width:0.5;stroke-dasharray:5.0,5.0;" x1="1231" x2="1231" y1="81.2969" y2="1209.2109"/><line style="stroke:#181818;stroke-width:0.5;stroke-dasharray:5.0,5.0;" x1="1354" x2="1354" y1="81.2969" y2="1209.2109"/><line style="stroke:#181818;stroke-width:0.5;stroke-dasharray:5.0,5.0;" x1="1471" x2="1471" y1="81.2969" y2="1209.2109"/><line style="stroke:#181818;stroke-width:0.5;stroke-dasharray:5.0,5.0;" x1="1721" x2="1721" y1="81.2969" y2="1209.2109"/><line style="stroke:#181818;stroke-width:0.5;stroke-dasharray:5.0,5.0;" x1="1861" x2="1861" y1="81.2969" y2="1209.2109"/><line style="stroke:#181818;stroke-width:0.5;stroke-dasharray:5.0,5.0;" x1="1982" x2="1982" y1="81.2969" y2="1209.2109"/><line style="stroke:#181818;stroke-width:0.5;stroke-dasharray:5.0,5.0;" x1="2154" x2="2154" y1="81.2969" y2="1209.2109"/><line style="stroke:#181818;stroke-width:0.5;stroke-dasharray:5.0,5.0;" x1="2358" x2="2358" y1="81.2969" y2="1209.2109"/><text fill="#000000" font-family="sans-serif" font-size="14" lengthAdjust="spacing" textLength="155" x="5" y="77.9951">Warehouse Employee</text><ellipse cx="85.5" cy="13.5" fill="#E2E2F0" rx="8" ry="8" style="stroke:#181818;stroke-width:0.5;"/><path d="M85.5,21.5 L85.5,48.5 M72.5,29.5 L98.5,29.5 M85.5,48.5 L72.5,63.5 M85.5,48.5 L98.5,63.5 " fill="none" style="stroke:#181818;stroke-width:0.5;"/><text fill="#000000" font-family="sans-serif" font-size="14" lengthAdjust="spacing" textLength="155" x="5" y="1221.2061">Warehouse Employee</text><ellipse cx="85.5" cy="1233.0078" fill="#E2E2F0" rx="8" ry="8" style="stroke:#181818;stroke-width:0.5;"/><path d="M85.5,1241.0078 L85.5,1268.0078 M72.5,1249.0078 L98.5,1249.0078 M85.5,1268.0078 L72.5,1283.0078 M85.5,1268.0078 L98.5,1283.0078 " fill="none" style="stroke:#181818;stroke-width:0.5;"/><rect fill="#E2E2F0" height="30.2969" rx="2.5" ry="2.5" style="stroke:#181818;stroke-width:0.5;" width="109" x="302" y="50"/><text fill="#000000" font-family="sans-serif" font-size="14" lengthAdjust="spacing" textLength="95" x="309" y="69.9951">:DashboardUI</text><rect fill="#E2E2F0" height="30.2969" rx="2.5" ry="2.5" style="stroke:#181818;stroke-width:0.5;" width="109" x="302" y="1208.2109"/><text fill="#000000" font-family="sans-serif" font-size="14" lengthAdjust="spacing" textLength="95" x="309" y="1228.2061">:DashboardUI</text><rect fill="#E2E2F0" height="30.2969" rx="2.5" ry="2.5" style="stroke:#181818;stroke-width:0.5;" width="169" x="482" y="50"/><text fill="#000000" font-family="sans-serif" font-size="14" lengthAdjust="spacing" textLength="155" x="489" y="69.9951">:DashboardController</text><rect fill="#E2E2F0" height="30.2969" rx="2.5" ry="2.5" style="stroke:#181818;stroke-width:0.5;" width="169" x="482" y="1208.2109"/><text fill="#000000" font-family="sans-serif" font-size="14" lengthAdjust="spacing" textLength="155" x="489" y="1228.2061">:DashboardController</text><rect fill="#E2E2F0" height="30.2969" rx="2.5" ry="2.5" style="stroke:#181818;stroke-width:0.5;" width="129" x="694" y="50"/><text fill="#000000" font-family="sans-serif" font-size="14" lengthAdjust="spacing" textLength="115" x="701" y="69.9951">:AGVListService</text><rect fill="#E2E2F0" height="30.2969" rx="2.5" ry="2.5" style="stroke:#181818;stroke-width:0.5;" width="129" x="694" y="1208.2109"/><text fill="#000000" font-family="sans-serif" font-size="14" lengthAdjust="spacing" textLength="115" x="701" y="1228.2061">:AGVListService</text><rect fill="#E2E2F0" height="30.2969" rx="2.5" ry="2.5" style="stroke:#181818;stroke-width:0.5;" width="162" x="833" y="50"/><text fill="#000000" font-family="sans-serif" font-size="14" lengthAdjust="spacing" textLength="148" x="840" y="69.9951">:PersistenceContext</text><rect fill="#E2E2F0" height="30.2969" rx="2.5" ry="2.5" style="stroke:#181818;stroke-width:0.5;" width="162" x="833" y="1208.2109"/><text fill="#000000" font-family="sans-serif" font-size="14" lengthAdjust="spacing" textLength="148" x="840" y="1228.2061">:PersistenceContext</text><rect fill="#E2E2F0" height="30.2969" rx="2.5" ry="2.5" style="stroke:#181818;stroke-width:0.5;" width="152" x="1005" y="50"/><text fill="#000000" font-family="sans-serif" font-size="14" lengthAdjust="spacing" textLength="138" x="1012" y="69.9951">:RepositoryFactory</text><rect fill="#E2E2F0" height="30.2969" rx="2.5" ry="2.5" style="stroke:#181818;stroke-width:0.5;" width="152" x="1005" y="1208.2109"/><text fill="#000000" font-family="sans-serif" font-size="14" lengthAdjust="spacing" textLength="138" x="1012" y="1228.2061">:RepositoryFactory</text><rect fill="#E2E2F0" height="30.2969" rx="2.5" ry="2.5" style="stroke:#181818;stroke-width:0.5;" width="129" x="1167" y="50"/><text fill="#000000" font-family="sans-serif" font-size="14" lengthAdjust="spacing" textLength="115" x="1174" y="69.9951">:AGVRepository</text><rect fill="#E2E2F0" height="30.2969" rx="2.5" ry="2.5" style="stroke:#181818;stroke-width:0.5;" width="129" x="1167" y="1208.2109"/><text fill="#000000" font-family="sans-serif" font-size="14" lengthAdjust="spacing" textLength="115" x="1174" y="1228.2061">:AGVRepository</text><rect fill="#E2E2F0" height="30.2969" rx="2.5" ry="2.5" style="stroke:#181818;stroke-width:0.5;" width="96" x="1306" y="50"/><text fill="#000000" font-family="sans-serif" font-size="14" lengthAdjust="spacing" textLength="82" x="1313" y="69.9951">:Dashboard</text><rect fill="#E2E2F0" height="30.2969" rx="2.5" ry="2.5" style="stroke:#181818;stroke-width:0.5;" width="96" x="1306" y="1208.2109"/><text fill="#000000" font-family="sans-serif" font-size="14" lengthAdjust="spacing" textLength="82" x="1313" y="1228.2061">:Dashboard</text><rect fill="#E2E2F0" height="30.2969" rx="2.5" ry="2.5" style="stroke:#181818;stroke-width:0.5;" width="119" x="1412" y="50"/><text fill="#000000" font-family="sans-serif" font-size="14" lengthAdjust="spacing" textLength="105" x="1419" y="69.9951">:HTTPmessage</text><rect fill="#E2E2F0" height="30.2969" rx="2.5" ry="2.5" style="stroke:#181818;stroke-width:0.5;" width="119" x="1412" y="1208.2109"/><text fill="#000000" font-family="sans-serif" font-size="14" lengthAdjust="spacing" textLength="105" x="1419" y="1228.2061">:HTTPmessage</text><rect fill="#E2E2F0" height="30.2969" rx="2.5" ry="2.5" style="stroke:#181818;stroke-width:0.5;" width="155" x="1644" y="50"/><text fill="#000000" font-family="sans-serif" font-size="14" lengthAdjust="spacing" textLength="141" x="1651" y="69.9951">:DashboardRequest</text><rect fill="#E2E2F0" height="30.2969" rx="2.5" ry="2.5" style="stroke:#181818;stroke-width:0.5;" width="155" x="1644" y="1208.2109"/><text fill="#000000" font-family="sans-serif" font-size="14" lengthAdjust="spacing" textLength="141" x="1651" y="1228.2061">:DashboardRequest</text><rect fill="#E2E2F0" height="30.2969" rx="2.5" ry="2.5" style="stroke:#181818;stroke-width:0.5;" width="105" x="1809" y="50"/><text fill="#000000" font-family="sans-serif" font-size="14" lengthAdjust="spacing" textLength="91" x="1816" y="69.9951">:AGVMapper</text><rect fill="#E2E2F0" height="30.2969" rx="2.5" ry="2.5" style="stroke:#181818;stroke-width:0.5;" width="105" x="1809" y="1208.2109"/><text fill="#000000" font-family="sans-serif" font-size="14" lengthAdjust="spacing" textLength="91" x="1816" y="1228.2061">:AGVMapper</text><rect fill="#E2E2F0" height="30.2969" rx="2.5" ry="2.5" style="stroke:#181818;stroke-width:0.5;" width="117" x="1924" y="50"/><text fill="#000000" font-family="sans-serif" font-size="14" lengthAdjust="spacing" textLength="103" x="1931" y="69.9951">:ServerSocket</text><rect fill="#E2E2F0" height="30.2969" rx="2.5" ry="2.5" style="stroke:#181818;stroke-width:0.5;" width="117" x="1924" y="1208.2109"/><text fill="#000000" font-family="sans-serif" font-size="14" lengthAdjust="spacing" textLength="103" x="1931" y="1228.2061">:ServerSocket</text><rect fill="#E2E2F0" height="30.2969" rx="2.5" ry="2.5" style="stroke:#181818;stroke-width:0.5;" width="206" x="2051" y="50"/><text fill="#000000" font-family="sans-serif" font-size="14" lengthAdjust="spacing" textLength="192" x="2058" y="69.9951">output:DataOutputStream</text><rect fill="#E2E2F0" height="30.2969" rx="2.5" ry="2.5" style="stroke:#181818;stroke-width:0.5;" width="206" x="2051" y="1208.2109"/><text fill="#000000" font-family="sans-serif" font-size="14" lengthAdjust="spacing" textLength="192" x="2058" y="1228.2061">output:DataOutputStream</text><rect fill="#E2E2F0" height="30.2969" rx="2.5" ry="2.5" style="stroke:#181818;stroke-width:0.5;" width="182" x="2267" y="50"/><text fill="#000000" font-family="sans-serif" font-size="14" lengthAdjust="spacing" textLength="168" x="2274" y="69.9951">input:DataInputStream</text><rect fill="#E2E2F0" height="30.2969" rx="2.5" ry="2.5" style="stroke:#181818;stroke-width:0.5;" width="182" x="2267" y="1208.2109"/><text fill="#000000" font-family="sans-serif" font-size="14" lengthAdjust="spacing" textLength="168" x="2274" y="1228.2061">input:DataInputStream</text><rect fill="#FFFFFF" height="1099.9141" style="stroke:#181818;stroke-width:1.0;" width="10" x="80.5" y="91.2969"/><rect fill="#FFFFFF" height="408.7266" style="stroke:#181818;stroke-width:1.0;" width="10" x="351.5" y="112.4297"/><rect fill="#FFFFFF" height="145.6641" style="stroke:#181818;stroke-width:1.0;" width="10" x="351.5" y="550.2891"/><rect fill="#FFFFFF" height="466.125" style="stroke:#181818;stroke-width:1.0;" width="10" x="351.5" y="725.0859"/><rect fill="#FFFFFF" height="350.4609" style="stroke:#181818;stroke-width:1.0;" width="10" x="561.5" y="141.5625"/><rect fill="#FFFFFF" height="87.3984" style="stroke:#181818;stroke-width:1.0;" width="10" x="561.5" y="579.4219"/><rect fill="#FFFFFF" height="436.9922" style="stroke:#181818;stroke-width:1.0;" width="10" x="561.5" y="754.2188"/><rect fill="#FFFFFF" height="263.0625" style="stroke:#181818;stroke-width:1.0;" width="10" x="753.5" y="199.8281"/><rect fill="#FFFFFF" height="29.1328" style="stroke:#181818;stroke-width:1.0;" width="10" x="753.5" y="608.5547"/><rect fill="#FFFFFF" height="59.1328" style="stroke:#181818;stroke-width:1.0;" width="10" x="909" y="228.9609"/><rect fill="#FFFFFF" height="59.1328" style="stroke:#181818;stroke-width:1.0;" width="10" x="1076" y="258.0938"/><rect fill="#FFFFFF" height="29.1328" style="stroke:#181818;stroke-width:1.0;" width="10" x="1226.5" y="346.3594"/><rect fill="#FFFFFF" height="174.7969" style="stroke:#181818;stroke-width:1.0;" width="10" x="1349" y="812.4844"/><rect fill="#FFFFFF" height="29.1328" style="stroke:#181818;stroke-width:1.0;" width="10" x="1349" y="1074.6797"/><rect fill="#FFFFFF" height="58.2656" style="stroke:#181818;stroke-width:1.0;" width="10" x="1466.5" y="1132.9453"/><rect fill="#FFFFFF" height="233.0625" style="stroke:#181818;stroke-width:1.0;" width="10" x="1716.5" y="958.1484"/><rect fill="#FFFFFF" height="29.1328" style="stroke:#181818;stroke-width:1.0;" width="10" x="1856.5" y="404.625"/><rect fill="#FFFFFF" height="29.1328" style="stroke:#181818;stroke-width:1.0;" width="10" x="1977.5" y="870.75"/><polygon fill="#181818" points="339.5,108.4297,349.5,112.4297,339.5,116.4297,343.5,112.4297" style="stroke:#181818;stroke-width:1.0;"/><line style="stroke:#181818;stroke-width:1.0;" x1="90.5" x2="345.5" y1="112.4297" y2="112.4297"/><text fill="#000000" font-family="sans-serif" font-size="13" font-weight="bold" lengthAdjust="spacing" textLength="9" x="97.5" y="107.3638">1</text><text fill="#000000" font-family="sans-serif" font-size="13" lengthAdjust="spacing" textLength="156" x="110.5" y="107.3638">asks to show dashboard</text><polygon fill="#181818" points="549.5,137.5625,559.5,141.5625,549.5,145.5625,553.5,141.5625" style="stroke:#181818;stroke-width:1.0;"/><line style="stroke:#181818;stroke-width:1.0;" x1="361.5" x2="555.5" y1="141.5625" y2="141.5625"/><text fill="#000000" font-family="sans-serif" font-size="13" font-weight="bold" lengthAdjust="spacing" textLength="9" x="368.5" y="136.4966">2</text><text fill="#000000" font-family="sans-serif" font-size="13" lengthAdjust="spacing" textLength="53" x="381.5" y="136.4966">getList()</text><polygon fill="#181818" points="746.5,166.6953,756.5,170.6953,746.5,174.6953,750.5,170.6953" style="stroke:#181818;stroke-width:1.0;"/><line style="stroke:#181818;stroke-width:1.0;" x1="571.5" x2="752.5" y1="170.6953" y2="170.6953"/><text fill="#000000" font-family="sans-serif" font-size="13" font-weight="bold" lengthAdjust="spacing" textLength="8" x="578.5" y="165.6294">3</text><text fill="#000000" font-family="sans-serif" font-size="13" lengthAdjust="spacing" textLength="51" x="590.5" y="165.6294">create()</text><polygon fill="#181818" points="741.5,195.8281,751.5,199.8281,741.5,203.8281,745.5,199.8281" style="stroke:#181818;stroke-width:1.0;"/><line style="stroke:#181818;stroke-width:1.0;" x1="571.5" x2="747.5" y1="199.8281" y2="199.8281"/><text fill="#000000" font-family="sans-serif" font-size="13" font-weight="bold" lengthAdjust="spacing" textLength="9" x="578.5" y="194.7622">4</text><text fill="#000000" font-family="sans-serif" font-size="13" lengthAdjust="spacing" textLength="150" x="591.5" y="194.7622">listAvailableAGVSDTO()</text><polygon fill="#181818" points="897,224.9609,907,228.9609,897,232.9609,901,228.9609" style="stroke:#181818;stroke-width:1.0;"/><line style="stroke:#181818;stroke-width:1.0;" x1="763.5" x2="903" y1="228.9609" y2="228.9609"/><text fill="#000000" font-family="sans-serif" font-size="13" font-weight="bold" lengthAdjust="spacing" textLength="9" x="770.5" y="223.895">5</text><text fill="#000000" font-family="sans-serif" font-size="13" lengthAdjust="spacing" textLength="85" x="783.5" y="223.895">repositories()</text><polygon fill="#181818" points="1064,254.0938,1074,258.0938,1064,262.0938,1068,258.0938" style="stroke:#181818;stroke-width:1.0;"/><line style="stroke:#181818;stroke-width:1.0;" x1="919" x2="1070" y1="258.0938" y2="258.0938"/><text fill="#000000" font-family="sans-serif" font-size="13" font-weight="bold" lengthAdjust="spacing" textLength="9" x="926" y="253.0278">6</text><text fill="#000000" font-family="sans-serif" font-size="13" lengthAdjust="spacing" textLength="51" x="939" y="253.0278">create()</text><polygon fill="#181818" points="1219.5,313.2266,1229.5,317.2266,1219.5,321.2266,1223.5,317.2266" style="stroke:#181818;stroke-width:1.0;"/><line style="stroke:#181818;stroke-width:1.0;" x1="1081" x2="1225.5" y1="317.2266" y2="317.2266"/><text fill="#000000" font-family="sans-serif" font-size="13" font-weight="bold" lengthAdjust="spacing" textLength="9" x="1088" y="312.1606">7</text><text fill="#000000" font-family="sans-serif" font-size="13" lengthAdjust="spacing" textLength="51" x="1101" y="312.1606">create()</text><polygon fill="#181818" points="1214.5,342.3594,1224.5,346.3594,1214.5,350.3594,1218.5,346.3594" style="stroke:#181818;stroke-width:1.0;"/><line style="stroke:#181818;stroke-width:1.0;" x1="763.5" x2="1220.5" y1="346.3594" y2="346.3594"/><text fill="#000000" font-family="sans-serif" font-size="13" font-weight="bold" lengthAdjust="spacing" textLength="9" x="770.5" y="341.2935">8</text><text fill="#000000" font-family="sans-serif" font-size="13" lengthAdjust="spacing" textLength="189" x="783.5" y="341.2935">getAGVSByStatus(ASSIGNED)</text><polygon fill="#181818" points="774.5,371.4922,764.5,375.4922,774.5,379.4922,770.5,375.4922" style="stroke:#181818;stroke-width:1.0;"/><line style="stroke:#181818;stroke-width:1.0;stroke-dasharray:2.0,2.0;" x1="768.5" x2="1230.5" y1="375.4922" y2="375.4922"/><text fill="#000000" font-family="sans-serif" font-size="13" font-weight="bold" lengthAdjust="spacing" textLength="9" x="780.5" y="370.4263">9</text><text fill="#000000" font-family="sans-serif" font-size="13" lengthAdjust="spacing" textLength="46" x="793.5" y="370.4263">listAGV</text><polygon fill="#181818" points="1844.5,400.625,1854.5,404.625,1844.5,408.625,1848.5,404.625" style="stroke:#181818;stroke-width:1.0;"/><line style="stroke:#181818;stroke-width:1.0;" x1="763.5" x2="1850.5" y1="404.625" y2="404.625"/><text fill="#000000" font-family="sans-serif" font-size="13" font-weight="bold" lengthAdjust="spacing" textLength="19" x="770.5" y="399.5591">10</text><text fill="#000000" font-family="sans-serif" font-size="13" lengthAdjust="spacing" textLength="89" x="793.5" y="399.5591">toDto(listAgv)</text><polygon fill="#181818" points="774.5,429.7578,764.5,433.7578,774.5,437.7578,770.5,433.7578" style="stroke:#181818;stroke-width:1.0;"/><line style="stroke:#181818;stroke-width:1.0;stroke-dasharray:2.0,2.0;" x1="768.5" x2="1860.5" y1="433.7578" y2="433.7578"/><text fill="#000000" font-family="sans-serif" font-size="13" font-weight="bold" lengthAdjust="spacing" textLength="18" x="780.5" y="428.6919">11</text><text fill="#000000" font-family="sans-serif" font-size="13" lengthAdjust="spacing" textLength="74" x="802.5" y="428.6919">listAGVDTO</text><polygon fill="#181818" points="582.5,458.8906,572.5,462.8906,582.5,466.8906,578.5,462.8906" style="stroke:#181818;stroke-width:1.0;"/><line style="stroke:#181818;stroke-width:1.0;stroke-dasharray:2.0,2.0;" x1="576.5" x2="757.5" y1="462.8906" y2="462.8906"/><text fill="#000000" font-family="sans-serif" font-size="13" font-weight="bold" lengthAdjust="spacing" textLength="18" x="588.5" y="457.8247">12</text><text fill="#000000" font-family="sans-serif" font-size="13" lengthAdjust="spacing" textLength="74" x="610.5" y="457.8247">listAGVDTO</text><polygon fill="#181818" points="372.5,488.0234,362.5,492.0234,372.5,496.0234,368.5,492.0234" style="stroke:#181818;stroke-width:1.0;"/><line style="stroke:#181818;stroke-width:1.0;stroke-dasharray:2.0,2.0;" x1="366.5" x2="565.5" y1="492.0234" y2="492.0234"/><text fill="#000000" font-family="sans-serif" font-size="13" font-weight="bold" lengthAdjust="spacing" textLength="17" x="378.5" y="486.9575">13</text><text fill="#000000" font-family="sans-serif" font-size="13" lengthAdjust="spacing" textLength="74" x="399.5" y="486.9575">listAGVDTO</text><polygon fill="#181818" points="101.5,517.1563,91.5,521.1563,101.5,525.1563,97.5,521.1563" style="stroke:#181818;stroke-width:1.0;"/><line style="stroke:#181818;stroke-width:1.0;stroke-dasharray:2.0,2.0;" x1="95.5" x2="355.5" y1="521.1563" y2="521.1563"/><text fill="#000000" font-family="sans-serif" font-size="13" font-weight="bold" lengthAdjust="spacing" textLength="18" x="107.5" y="516.0903">14</text><text fill="#000000" font-family="sans-serif" font-size="13" lengthAdjust="spacing" textLength="215" x="129.5" y="516.0903">shows the list of agv dto pick one</text><polygon fill="#181818" points="339.5,546.2891,349.5,550.2891,339.5,554.2891,343.5,550.2891" style="stroke:#181818;stroke-width:1.0;"/><line style="stroke:#181818;stroke-width:1.0;" x1="90.5" x2="345.5" y1="550.2891" y2="550.2891"/><text fill="#000000" font-family="sans-serif" font-size="13" font-weight="bold" lengthAdjust="spacing" textLength="18" x="97.5" y="545.2231">15</text><text fill="#000000" font-family="sans-serif" font-size="13" lengthAdjust="spacing" textLength="134" x="119.5" y="545.2231">chooses one agv dto</text><polygon fill="#181818" points="549.5,575.4219,559.5,579.4219,549.5,583.4219,553.5,579.4219" style="stroke:#181818;stroke-width:1.0;"/><line style="stroke:#181818;stroke-width:1.0;" x1="361.5" x2="555.5" y1="579.4219" y2="579.4219"/><text fill="#000000" font-family="sans-serif" font-size="13" font-weight="bold" lengthAdjust="spacing" textLength="18" x="368.5" y="574.356">16</text><text fill="#000000" font-family="sans-serif" font-size="13" lengthAdjust="spacing" textLength="104" x="390.5" y="574.356">getAGV(agvdto)</text><polygon fill="#181818" points="741.5,604.5547,751.5,608.5547,741.5,612.5547,745.5,608.5547" style="stroke:#181818;stroke-width:1.0;"/><line style="stroke:#181818;stroke-width:1.0;" x1="571.5" x2="747.5" y1="608.5547" y2="608.5547"/><text fill="#000000" font-family="sans-serif" font-size="13" font-weight="bold" lengthAdjust="spacing" textLength="18" x="578.5" y="603.4888">17</text><text fill="#000000" font-family="sans-serif" font-size="13" lengthAdjust="spacing" textLength="104" x="600.5" y="603.4888">getAGV(agvdto)</text><polygon fill="#181818" points="582.5,633.6875,572.5,637.6875,582.5,641.6875,578.5,637.6875" style="stroke:#181818;stroke-width:1.0;"/><line style="stroke:#181818;stroke-width:1.0;stroke-dasharray:2.0,2.0;" x1="576.5" x2="757.5" y1="637.6875" y2="637.6875"/><text fill="#000000" font-family="sans-serif" font-size="13" font-weight="bold" lengthAdjust="spacing" textLength="18" x="588.5" y="632.6216">18</text><text fill="#000000" font-family="sans-serif" font-size="13" lengthAdjust="spacing" textLength="45" x="610.5" y="632.6216">agvdto</text><polygon fill="#181818" points="372.5,662.8203,362.5,666.8203,372.5,670.8203,368.5,666.8203" style="stroke:#181818;stroke-width:1.0;"/><line style="stroke:#181818;stroke-width:1.0;stroke-dasharray:2.0,2.0;" x1="366.5" x2="565.5" y1="666.8203" y2="666.8203"/><text fill="#000000" font-family="sans-serif" font-size="13" font-weight="bold" lengthAdjust="spacing" textLength="18" x="378.5" y="661.7544">19</text><text fill="#000000" font-family="sans-serif" font-size="13" lengthAdjust="spacing" textLength="45" x="400.5" y="661.7544">agvdto</text><polygon fill="#181818" points="101.5,691.9531,91.5,695.9531,101.5,699.9531,97.5,695.9531" style="stroke:#181818;stroke-width:1.0;"/><line style="stroke:#181818;stroke-width:1.0;stroke-dasharray:2.0,2.0;" x1="95.5" x2="355.5" y1="695.9531" y2="695.9531"/><text fill="#000000" font-family="sans-serif" font-size="13" font-weight="bold" lengthAdjust="spacing" textLength="19" x="107.5" y="690.8872">20</text><text fill="#000000" font-family="sans-serif" font-size="13" lengthAdjust="spacing" textLength="165" x="130.5" y="690.8872">shows the chosen agvdto</text><polygon fill="#181818" points="339.5,721.0859,349.5,725.0859,339.5,729.0859,343.5,725.0859" style="stroke:#181818;stroke-width:1.0;"/><line style="stroke:#181818;stroke-width:1.0;" x1="90.5" x2="345.5" y1="725.0859" y2="725.0859"/><text fill="#000000" font-family="sans-serif" font-size="13" font-weight="bold" lengthAdjust="spacing" textLength="18" x="97.5" y="720.02">21</text><text fill="#000000" font-family="sans-serif" font-size="13" lengthAdjust="spacing" textLength="210" x="119.5" y="720.02">asks for dashboard with agv info</text><polygon fill="#181818" points="549.5,750.2188,559.5,754.2188,549.5,758.2188,553.5,754.2188" style="stroke:#181818;stroke-width:1.0;"/><line style="stroke:#181818;stroke-width:1.0;" x1="361.5" x2="555.5" y1="754.2188" y2="754.2188"/><text fill="#000000" font-family="sans-serif" font-size="13" font-weight="bold" lengthAdjust="spacing" textLength="18" x="368.5" y="749.1528">22</text><text fill="#000000" font-family="sans-serif" font-size="13" lengthAdjust="spacing" textLength="159" x="390.5" y="749.1528">showDashboard(agvdto)</text><polygon fill="#181818" points="1342,779.3516,1352,783.3516,1342,787.3516,1346,783.3516" style="stroke:#181818;stroke-width:1.0;"/><line style="stroke:#181818;stroke-width:1.0;" x1="571.5" x2="1348" y1="783.3516" y2="783.3516"/><text fill="#000000" font-family="sans-serif" font-size="13" font-weight="bold" lengthAdjust="spacing" textLength="17" x="578.5" y="778.2856">23</text><text fill="#000000" font-family="sans-serif" font-size="13" lengthAdjust="spacing" textLength="51" x="599.5" y="778.2856">create()</text><polygon fill="#181818" points="1337,808.4844,1347,812.4844,1337,816.4844,1341,812.4844" style="stroke:#181818;stroke-width:1.0;"/><line style="stroke:#181818;stroke-width:1.0;" x1="571.5" x2="1343" y1="812.4844" y2="812.4844"/><text fill="#000000" font-family="sans-serif" font-size="13" font-weight="bold" lengthAdjust="spacing" textLength="18" x="578.5" y="807.4185">24</text><text fill="#000000" font-family="sans-serif" font-size="13" lengthAdjust="spacing" textLength="40" x="600.5" y="807.4185">start()</text><polygon fill="#181818" points="1970.5,837.6172,1980.5,841.6172,1970.5,845.6172,1974.5,841.6172" style="stroke:#181818;stroke-width:1.0;"/><line style="stroke:#181818;stroke-width:1.0;" x1="1359" x2="1976.5" y1="841.6172" y2="841.6172"/><text fill="#000000" font-family="sans-serif" font-size="13" font-weight="bold" lengthAdjust="spacing" textLength="18" x="1366" y="836.5513">25</text><text fill="#000000" font-family="sans-serif" font-size="13" lengthAdjust="spacing" textLength="51" x="1388" y="836.5513">create()</text><polygon fill="#181818" points="1965.5,866.75,1975.5,870.75,1965.5,874.75,1969.5,870.75" style="stroke:#181818;stroke-width:1.0;"/><line style="stroke:#181818;stroke-width:1.0;" x1="1359" x2="1971.5" y1="870.75" y2="870.75"/><text fill="#000000" font-family="sans-serif" font-size="13" font-weight="bold" lengthAdjust="spacing" textLength="18" x="1366" y="865.6841">26</text><text fill="#000000" font-family="sans-serif" font-size="13" lengthAdjust="spacing" textLength="53" x="1388" y="865.6841">accept()</text><polygon fill="#181818" points="1370,895.8828,1360,899.8828,1370,903.8828,1366,899.8828" style="stroke:#181818;stroke-width:1.0;"/><line style="stroke:#181818;stroke-width:1.0;stroke-dasharray:2.0,2.0;" x1="1364" x2="1981.5" y1="899.8828" y2="899.8828"/><text fill="#000000" font-family="sans-serif" font-size="13" font-weight="bold" lengthAdjust="spacing" textLength="18" x="1376" y="894.8169">27</text><text fill="#000000" font-family="sans-serif" font-size="13" lengthAdjust="spacing" textLength="29" x="1398" y="894.8169">sock</text><polygon fill="#181818" points="1459.5,925.0156,1469.5,929.0156,1459.5,933.0156,1463.5,929.0156" style="stroke:#181818;stroke-width:1.0;"/><line style="stroke:#181818;stroke-width:1.0;" x1="1359" x2="1465.5" y1="929.0156" y2="929.0156"/><text fill="#000000" font-family="sans-serif" font-size="13" font-weight="bold" lengthAdjust="spacing" textLength="18" x="1366" y="923.9497">28</text><text fill="#000000" font-family="sans-serif" font-size="13" lengthAdjust="spacing" textLength="51" x="1388" y="923.9497">create()</text><polygon fill="#181818" points="1704.5,954.1484,1714.5,958.1484,1704.5,962.1484,1708.5,958.1484" style="stroke:#181818;stroke-width:1.0;"/><line style="stroke:#181818;stroke-width:1.0;" x1="1359" x2="1710.5" y1="958.1484" y2="958.1484"/><text fill="#000000" font-family="sans-serif" font-size="13" font-weight="bold" lengthAdjust="spacing" textLength="18" x="1366" y="953.0825">29</text><text fill="#000000" font-family="sans-serif" font-size="13" lengthAdjust="spacing" textLength="111" x="1388" y="953.0825">create(sock,web)</text><polygon fill="#181818" points="1704.5,983.2813,1714.5,987.2813,1704.5,991.2813,1708.5,987.2813" style="stroke:#181818;stroke-width:1.0;"/><line style="stroke:#181818;stroke-width:1.0;" x1="1354" x2="1710.5" y1="987.2813" y2="987.2813"/><text fill="#000000" font-family="sans-serif" font-size="13" font-weight="bold" lengthAdjust="spacing" textLength="18" x="1361" y="982.2153">30</text><text fill="#000000" font-family="sans-serif" font-size="13" lengthAdjust="spacing" textLength="40" x="1383" y="982.2153">start()</text><polygon fill="#181818" points="2142,1012.4141,2152,1016.4141,2142,1020.4141,2146,1016.4141" style="stroke:#181818;stroke-width:1.0;"/><line style="stroke:#181818;stroke-width:1.0;" x1="1726.5" x2="2148" y1="1016.4141" y2="1016.4141"/><text fill="#000000" font-family="sans-serif" font-size="13" font-weight="bold" lengthAdjust="spacing" textLength="17" x="1733.5" y="1011.3481">31</text><text fill="#000000" font-family="sans-serif" font-size="13" lengthAdjust="spacing" textLength="51" x="1754.5" y="1011.3481">create()</text><polygon fill="#181818" points="2346,1041.5469,2356,1045.5469,2346,1049.5469,2350,1045.5469" style="stroke:#181818;stroke-width:1.0;"/><line style="stroke:#181818;stroke-width:1.0;" x1="1726.5" x2="2352" y1="1045.5469" y2="1045.5469"/><text fill="#000000" font-family="sans-serif" font-size="13" font-weight="bold" lengthAdjust="spacing" textLength="17" x="1733.5" y="1040.481">32</text><text fill="#000000" font-family="sans-serif" font-size="13" lengthAdjust="spacing" textLength="51" x="1754.5" y="1040.481">create()</text><polygon fill="#181818" points="1370,1070.6797,1360,1074.6797,1370,1078.6797,1366,1074.6797" style="stroke:#181818;stroke-width:1.0;"/><line style="stroke:#181818;stroke-width:1.0;" x1="1364" x2="1715.5" y1="1074.6797" y2="1074.6797"/><text fill="#000000" font-family="sans-serif" font-size="13" font-weight="bold" lengthAdjust="spacing" textLength="16" x="1376" y="1069.6138">33</text><text fill="#000000" font-family="sans-serif" font-size="13" lengthAdjust="spacing" textLength="117" x="1396" y="1069.6138">getStatusInHTML()</text><polygon fill="#181818" points="1704.5,1099.8125,1714.5,1103.8125,1704.5,1107.8125,1708.5,1103.8125" style="stroke:#181818;stroke-width:1.0;"/><line style="stroke:#181818;stroke-width:1.0;stroke-dasharray:2.0,2.0;" x1="1354" x2="1710.5" y1="1103.8125" y2="1103.8125"/><text fill="#000000" font-family="sans-serif" font-size="13" font-weight="bold" lengthAdjust="spacing" textLength="17" x="1361" y="1098.7466">34</text><text fill="#000000" font-family="sans-serif" font-size="13" lengthAdjust="spacing" textLength="49" x="1382" y="1098.7466">content</text><polygon fill="#181818" points="1487.5,1128.9453,1477.5,1132.9453,1487.5,1136.9453,1483.5,1132.9453" style="stroke:#181818;stroke-width:1.0;"/><line style="stroke:#181818;stroke-width:1.0;" x1="1481.5" x2="1715.5" y1="1132.9453" y2="1132.9453"/><text fill="#000000" font-family="sans-serif" font-size="13" font-weight="bold" lengthAdjust="spacing" textLength="17" x="1493.5" y="1127.8794">35</text><text fill="#000000" font-family="sans-serif" font-size="13" lengthAdjust="spacing" textLength="200" x="1514.5" y="1127.8794">setContentFromString(content)</text><polygon fill="#181818" points="1487.5,1158.0781,1477.5,1162.0781,1487.5,1166.0781,1483.5,1162.0781" style="stroke:#181818;stroke-width:1.0;"/><line style="stroke:#181818;stroke-width:1.0;" x1="1481.5" x2="1715.5" y1="1162.0781" y2="1162.0781"/><text fill="#000000" font-family="sans-serif" font-size="13" font-weight="bold" lengthAdjust="spacing" textLength="17" x="1493.5" y="1157.0122">36</text><text fill="#000000" font-family="sans-serif" font-size="13" lengthAdjust="spacing" textLength="190" x="1514.5" y="1157.0122">setResponseStatus("200 OK")</text><polygon fill="#181818" points="1482.5,1187.2109,1472.5,1191.2109,1482.5,1195.2109,1478.5,1191.2109" style="stroke:#181818;stroke-width:1.0;"/><line style="stroke:#181818;stroke-width:1.0;" x1="1476.5" x2="1720.5" y1="1191.2109" y2="1191.2109"/><text fill="#000000" font-family="sans-serif" font-size="13" font-weight="bold" lengthAdjust="spacing" textLength="17" x="1488.5" y="1186.145">37</text><text fill="#000000" font-family="sans-serif" font-size="13" lengthAdjust="spacing" textLength="83" x="1509.5" y="1186.145">send(output)</text><!--MD5=[ce690816a0d86a4a9ffad92ee8d373fa]
@startuml
autonumber

actor "Warehouse Employee" as ADM
participant ":DashboardUI" as UI
participant ":DashboardController" as CTRL
participant ":AGVListService" as AS
participant ":PersistenceContext" as PC
participant ":RepositoryFactory" as RF
participant ":AGVRepository" as AGR
participant ":Dashboard" as DA
participant ":HTTPmessage" as ME
participant ":DashboardRequest" as DR
participant ":AGVMapper" as M
participant ":ServerSocket" as SS
participant "output:DataOutputStream" as O
participant "input:DataInputStream" as I

activate ADM
ADM -> UI: asks to show dashboard 
activate UI
UI -> CTRL: getList()

activate CTRL


CTRL -> AS: create()


CTRL -> AS :listAvailableAGVSDTO()

activate AS

AS -> PC : repositories()

activate PC

PC -> RF: create()

activate RF

deactivate PC 

RF -> AGR : create()

deactivate RF

AS -> AGR : getAGVSByStatus(ASSIGNED)
activate AGR
AGR - -> AS : listAGV
deactivate AGR

AS -> M : toDto(listAgv)

activate M
 
M- -> AS : listAGVDTO

deactivate M

AS - -> CTRL :listAGVDTO

deactivate AS

CTRL - -> UI : listAGVDTO

deactivate CTRL

UI - -> ADM : shows the list of agv dto pick one 

deactivate UI

ADM -> UI:chooses one agv dto


activate UI

UI -> CTRL : getAGV(agvdto)

activate CTRL 

CTRL -> AS :getAGV(agvdto)

activate AS
AS - -> CTRL : agvdto
deactivate AS
CTRL - -> UI :agvdto
deactivate CTRL

UI - -> ADM : shows the chosen agvdto
deactivate UI
 
ADM -> UI : asks for dashboard with agv info

activate UI

UI -> CTRL : showDashboard(agvdto)

activate CTRL 

CTRL -> DA : create()

CTRL -> DA : start()

activate DA

DA -> SS : create()

DA -> SS : accept()

activate SS

SS - -> DA : sock
deactivate SS
DA -> ME : create()

DA -> DR : create(sock,web)

activate DR 

DA -> DR : start()

deactivate DA

DR -> O : create()

DR -> I :create()

DR -> DA : getStatusInHTML()

activate DA

DA - -> DR : content

deactivate DA

DR -> ME : setContentFromString(content)
activate ME

DR -> ME : setResponseStatus("200 OK")

DR -> ME : send(output)

 deactivate ME

deactivate DR

deactivate CTRL

deactivate UI

deactivate ADM
@enduml

PlantUML version 1.2022.6beta4(Unknown compile time)
(GPL source distribution)
Java Runtime: Java(TM) SE Runtime Environment
JVM: Java HotSpot(TM) 64-Bit Server VM
Default Encoding: UTF-8
Language: en
Country: US
--></g></svg>