<?xml version="1.0" encoding="UTF-8" standalone="no"?><svg xmlns="http://www.w3.org/2000/svg" xmlns:xlink="http://www.w3.org/1999/xlink" contentStyleType="text/css" height="1127px" preserveAspectRatio="none" style="width:464px;height:1127px;background:#FFFFFF;" version="1.1" viewBox="0 0 464 1127" width="464px" zoomAndPan="magnify"><defs/><g><!--MD5=[86429b8f6286f8ae82eb27da35b74181]
class ViewCatalogUI--><g id="elem_ViewCatalogUI"><rect codeLine="1" fill="#F1F1F1" height="88.8594" id="ViewCatalogUI" rx="2.5" ry="2.5" style="stroke:#181818;stroke-width:0.5;" width="134" x="155.8591" y="7"/><ellipse cx="170.8591" cy="27.1328" fill="#ADD1B2" rx="11" ry="11" style="stroke:#181818;stroke-width:1.0;"/><path d="M173.2028,22.8047 C172.2653,22.3672 171.6716,22.2266 170.7966,22.2266 C168.1716,22.2266 166.1716,24.3047 166.1716,27.0234 L166.1716,28.1484 C166.1716,30.7266 168.2809,32.6172 171.1716,32.6172 C172.3903,32.6172 173.5466,32.3203 174.2966,31.7734 C174.8747,31.3672 175.2028,30.9141 175.2028,30.5234 C175.2028,30.0703 174.8122,29.6797 174.3434,29.6797 C174.1247,29.6797 173.9216,29.7578 173.7341,29.9453 C173.2809,30.4297 173.2809,30.4297 173.0934,30.5234 C172.6716,30.7891 171.9841,30.9141 171.2184,30.9141 C169.1716,30.9141 167.8747,29.8203 167.8747,28.1172 L167.8747,27.0234 C167.8747,25.2422 169.1247,23.9297 170.8591,23.9297 C171.4372,23.9297 172.0466,24.0859 172.5153,24.3359 C172.9997,24.6172 173.1716,24.8359 173.2653,25.2422 C173.3278,25.6484 173.3591,25.7734 173.4997,25.8984 C173.6403,26.0391 173.8747,26.1484 174.0934,26.1484 C174.3591,26.1484 174.6247,26.0078 174.7966,25.7891 C174.9059,25.6328 174.9372,25.4453 174.9372,25.0234 L174.9372,23.6016 C174.9372,23.1641 174.9216,23.0391 174.8278,22.8828 C174.6716,22.6172 174.3903,22.4766 174.0934,22.4766 C173.7966,22.4766 173.5934,22.5703 173.3747,22.8828 L173.2028,22.8047 Z " fill="#000000"/><text fill="#000000" font-family="sans-serif" font-size="12" font-style="italic" lengthAdjust="spacing" textLength="89" x="191.3591" y="23.1387">«Presentation»</text><text fill="#000000" font-family="sans-serif" font-size="14" lengthAdjust="spacing" textLength="102" x="184.8591" y="38.9639">ViewCatalogUI</text><line style="stroke:#181818;stroke-width:0.5;" x1="156.8591" x2="288.8591" y1="47.2656" y2="47.2656"/><line style="stroke:#181818;stroke-width:0.5;" x1="156.8591" x2="288.8591" y1="55.2656" y2="55.2656"/><text fill="#000000" font-family="sans-serif" font-size="14" lengthAdjust="spacing" textLength="66" x="161.8591" y="72.2607">doShow()</text><text fill="#000000" font-family="sans-serif" font-size="14" lengthAdjust="spacing" textLength="100" x="161.8591" y="88.5576">selectsIndex()</text></g><!--MD5=[60885691ff61b259e8da5f4ba12b8b0f]
class ViewCatalogController--><g id="elem_ViewCatalogController"><rect codeLine="6" fill="#F1F1F1" height="137.75" id="ViewCatalogController" rx="2.5" ry="2.5" style="stroke:#181818;stroke-width:0.5;" width="242" x="101.8595" y="156"/><ellipse cx="138.4595" cy="176.1328" fill="#ADD1B2" rx="11" ry="11" style="stroke:#181818;stroke-width:1.0;"/><path d="M140.8032,171.8047 C139.8657,171.3672 139.272,171.2266 138.397,171.2266 C135.772,171.2266 133.772,173.3047 133.772,176.0234 L133.772,177.1484 C133.772,179.7266 135.8813,181.6172 138.772,181.6172 C139.9907,181.6172 141.147,181.3203 141.897,180.7734 C142.4751,180.3672 142.8032,179.9141 142.8032,179.5234 C142.8032,179.0703 142.4126,178.6797 141.9438,178.6797 C141.7251,178.6797 141.522,178.7578 141.3345,178.9453 C140.8813,179.4297 140.8813,179.4297 140.6938,179.5234 C140.272,179.7891 139.5845,179.9141 138.8188,179.9141 C136.772,179.9141 135.4751,178.8203 135.4751,177.1172 L135.4751,176.0234 C135.4751,174.2422 136.7251,172.9297 138.4595,172.9297 C139.0376,172.9297 139.647,173.0859 140.1157,173.3359 C140.6001,173.6172 140.772,173.8359 140.8657,174.2422 C140.9282,174.6484 140.9595,174.7734 141.1001,174.8984 C141.2407,175.0391 141.4751,175.1484 141.6938,175.1484 C141.9595,175.1484 142.2251,175.0078 142.397,174.7891 C142.5063,174.6328 142.5376,174.4453 142.5376,174.0234 L142.5376,172.6016 C142.5376,172.1641 142.522,172.0391 142.4282,171.8828 C142.272,171.6172 141.9907,171.4766 141.6938,171.4766 C141.397,171.4766 141.1938,171.5703 140.9751,171.8828 L140.8032,171.8047 Z " fill="#000000"/><text fill="#000000" font-family="sans-serif" font-size="12" font-style="italic" lengthAdjust="spacing" textLength="81" x="197.7595" y="172.1387">«Application»</text><text fill="#000000" font-family="sans-serif" font-size="14" lengthAdjust="spacing" textLength="162" x="157.2595" y="187.9639">ViewCatalogController</text><line style="stroke:#181818;stroke-width:0.5;" x1="102.8595" x2="342.8595" y1="196.2656" y2="196.2656"/><line style="stroke:#181818;stroke-width:0.5;" x1="102.8595" x2="342.8595" y1="204.2656" y2="204.2656"/><text fill="#000000" font-family="sans-serif" font-size="14" lengthAdjust="spacing" textLength="194" x="107.8595" y="221.2607">filterByCategory(category)</text><text fill="#000000" font-family="sans-serif" font-size="14" lengthAdjust="spacing" textLength="230" x="107.8595" y="237.5576">filterByDescription(description)</text><text fill="#000000" font-family="sans-serif" font-size="14" lengthAdjust="spacing" textLength="148" x="107.8595" y="253.8545">filterByBrand(brand)</text><text fill="#000000" font-family="sans-serif" font-size="14" lengthAdjust="spacing" textLength="93" x="107.8595" y="270.1514">resetFilters()</text><text fill="#000000" font-family="sans-serif" font-size="14" lengthAdjust="spacing" textLength="120" x="107.8595" y="286.4482">filterResult(sort)</text></g><!--MD5=[58a28f2d5507ae66b1dc95167690ce61]
class ProductService--><g id="elem_ProductService"><rect codeLine="14" fill="#F1F1F1" height="170.3438" id="ProductService" rx="2.5" ry="2.5" style="stroke:#181818;stroke-width:0.5;" width="242" x="101.8595" y="354"/><ellipse cx="164.1095" cy="374.1328" fill="#ADD1B2" rx="11" ry="11" style="stroke:#181818;stroke-width:1.0;"/><path d="M166.4532,369.8047 C165.5157,369.3672 164.922,369.2266 164.047,369.2266 C161.422,369.2266 159.422,371.3047 159.422,374.0234 L159.422,375.1484 C159.422,377.7266 161.5313,379.6172 164.422,379.6172 C165.6407,379.6172 166.797,379.3203 167.547,378.7734 C168.1251,378.3672 168.4532,377.9141 168.4532,377.5234 C168.4532,377.0703 168.0626,376.6797 167.5938,376.6797 C167.3751,376.6797 167.172,376.7578 166.9845,376.9453 C166.5313,377.4297 166.5313,377.4297 166.3438,377.5234 C165.922,377.7891 165.2345,377.9141 164.4688,377.9141 C162.422,377.9141 161.1251,376.8203 161.1251,375.1172 L161.1251,374.0234 C161.1251,372.2422 162.3751,370.9297 164.1095,370.9297 C164.6876,370.9297 165.297,371.0859 165.7657,371.3359 C166.2501,371.6172 166.422,371.8359 166.5157,372.2422 C166.5782,372.6484 166.6095,372.7734 166.7501,372.8984 C166.8907,373.0391 167.1251,373.1484 167.3438,373.1484 C167.6095,373.1484 167.8751,373.0078 168.047,372.7891 C168.1563,372.6328 168.1876,372.4453 168.1876,372.0234 L168.1876,370.6016 C168.1876,370.1641 168.172,370.0391 168.0782,369.8828 C167.922,369.6172 167.6407,369.4766 167.3438,369.4766 C167.047,369.4766 166.8438,369.5703 166.6251,369.8828 L166.4532,369.8047 Z " fill="#000000"/><text fill="#000000" font-family="sans-serif" font-size="12" font-style="italic" lengthAdjust="spacing" textLength="58" x="210.1095" y="370.1387">«Service»</text><text fill="#000000" font-family="sans-serif" font-size="14" lengthAdjust="spacing" textLength="109" x="184.6095" y="385.9639">ProductService</text><line style="stroke:#181818;stroke-width:0.5;" x1="102.8595" x2="342.8595" y1="394.2656" y2="394.2656"/><line style="stroke:#181818;stroke-width:0.5;" x1="102.8595" x2="342.8595" y1="402.2656" y2="402.2656"/><text fill="#000000" font-family="sans-serif" font-size="14" lengthAdjust="spacing" textLength="194" x="107.8595" y="419.2607">filterByCategory(category)</text><text fill="#000000" font-family="sans-serif" font-size="14" lengthAdjust="spacing" textLength="230" x="107.8595" y="435.5576">filterByDescription(description)</text><text fill="#000000" font-family="sans-serif" font-size="14" lengthAdjust="spacing" textLength="148" x="107.8595" y="451.8545">filterByBrand(brand)</text><text fill="#000000" font-family="sans-serif" font-size="14" lengthAdjust="spacing" textLength="93" x="107.8595" y="468.1514">resetFilters()</text><text fill="#000000" font-family="sans-serif" font-size="14" lengthAdjust="spacing" textLength="136" x="107.8595" y="484.4482">commonProducts()</text><text fill="#000000" font-family="sans-serif" font-size="14" lengthAdjust="spacing" textLength="120" x="107.8595" y="500.7451">filterResult(sort)</text><text fill="#000000" font-family="sans-serif" font-size="14" lengthAdjust="spacing" textLength="150" x="107.8595" y="517.042">sortProductList(sort)</text></g><!--MD5=[48590afff58a68e2fcba47824d6f8a11]
class RepositoryFactory--><g id="elem_RepositoryFactory"><rect codeLine="24" fill="#F1F1F1" height="64.2969" id="RepositoryFactory" rx="2.5" ry="2.5" style="stroke:#181818;stroke-width:0.5;" width="165" x="20.3595" y="729.5"/><ellipse cx="35.3595" cy="745.5" fill="#ADD1B2" rx="11" ry="11" style="stroke:#181818;stroke-width:1.0;"/><path d="M37.7032,741.1719 C36.7657,740.7344 36.172,740.5938 35.297,740.5938 C32.672,740.5938 30.672,742.6719 30.672,745.3906 L30.672,746.5156 C30.672,749.0938 32.7814,750.9844 35.672,750.9844 C36.8907,750.9844 38.047,750.6875 38.797,750.1406 C39.3751,749.7344 39.7032,749.2813 39.7032,748.8906 C39.7032,748.4375 39.3126,748.0469 38.8439,748.0469 C38.6251,748.0469 38.422,748.125 38.2345,748.3125 C37.7814,748.7969 37.7814,748.7969 37.5939,748.8906 C37.172,749.1563 36.4845,749.2813 35.7189,749.2813 C33.672,749.2813 32.3751,748.1875 32.3751,746.4844 L32.3751,745.3906 C32.3751,743.6094 33.6251,742.2969 35.3595,742.2969 C35.9376,742.2969 36.547,742.4531 37.0157,742.7031 C37.5001,742.9844 37.672,743.2031 37.7657,743.6094 C37.8282,744.0156 37.8595,744.1406 38.0001,744.2656 C38.1407,744.4063 38.3751,744.5156 38.5939,744.5156 C38.8595,744.5156 39.1251,744.375 39.297,744.1563 C39.4064,744 39.4376,743.8125 39.4376,743.3906 L39.4376,741.9688 C39.4376,741.5313 39.422,741.4063 39.3282,741.25 C39.172,740.9844 38.8907,740.8438 38.5939,740.8438 C38.297,740.8438 38.0939,740.9375 37.8751,741.25 L37.7032,741.1719 Z " fill="#000000"/><text fill="#000000" font-family="sans-serif" font-size="14" lengthAdjust="spacing" textLength="133" x="49.3595" y="750.3467">RepositoryFactory</text><line style="stroke:#181818;stroke-width:0.5;" x1="21.3595" x2="184.3595" y1="761.5" y2="761.5"/><line style="stroke:#181818;stroke-width:0.5;" x1="21.3595" x2="184.3595" y1="769.5" y2="769.5"/><text fill="#000000" font-family="sans-serif" font-size="14" lengthAdjust="spacing" textLength="74" x="26.3595" y="786.4951">products()</text></g><!--MD5=[e8c189551b7885b999ad7cefb30fc2a3]
class PersistenceContext--><g id="elem_PersistenceContext"><rect codeLine="28" fill="#F1F1F1" height="64.2969" id="PersistenceContext" rx="2.5" ry="2.5" style="stroke:#181818;stroke-width:0.5;" width="175" x="38.3595" y="588.5"/><ellipse cx="53.3595" cy="604.5" fill="#ADD1B2" rx="11" ry="11" style="stroke:#181818;stroke-width:1.0;"/><path d="M55.7032,600.1719 C54.7657,599.7344 54.172,599.5938 53.297,599.5938 C50.672,599.5938 48.672,601.6719 48.672,604.3906 L48.672,605.5156 C48.672,608.0938 50.7813,609.9844 53.672,609.9844 C54.8907,609.9844 56.047,609.6875 56.797,609.1406 C57.3751,608.7344 57.7032,608.2813 57.7032,607.8906 C57.7032,607.4375 57.3126,607.0469 56.8438,607.0469 C56.6251,607.0469 56.422,607.125 56.2345,607.3125 C55.7813,607.7969 55.7813,607.7969 55.5938,607.8906 C55.172,608.1563 54.4845,608.2813 53.7188,608.2813 C51.672,608.2813 50.3751,607.1875 50.3751,605.4844 L50.3751,604.3906 C50.3751,602.6094 51.6251,601.2969 53.3595,601.2969 C53.9376,601.2969 54.547,601.4531 55.0157,601.7031 C55.5001,601.9844 55.672,602.2031 55.7657,602.6094 C55.8282,603.0156 55.8595,603.1406 56.0001,603.2656 C56.1407,603.4063 56.3751,603.5156 56.5938,603.5156 C56.8595,603.5156 57.1251,603.375 57.297,603.1563 C57.4063,603 57.4376,602.8125 57.4376,602.3906 L57.4376,600.9688 C57.4376,600.5313 57.422,600.4063 57.3282,600.25 C57.172,599.9844 56.8907,599.8438 56.5938,599.8438 C56.297,599.8438 56.0938,599.9375 55.8751,600.25 L55.7032,600.1719 Z " fill="#000000"/><text fill="#000000" font-family="sans-serif" font-size="14" lengthAdjust="spacing" textLength="143" x="67.3595" y="609.3467">PersistenceContext</text><line style="stroke:#181818;stroke-width:0.5;" x1="39.3595" x2="212.3595" y1="620.5" y2="620.5"/><line style="stroke:#181818;stroke-width:0.5;" x1="39.3595" x2="212.3595" y1="628.5" y2="628.5"/><text fill="#000000" font-family="sans-serif" font-size="14" lengthAdjust="spacing" textLength="97" x="44.3595" y="645.4951">repositories()</text></g><!--MD5=[b49a69a5e66983f12e893ec4fc490f6e]
class ProductDTO--><g id="elem_ProductDTO"><rect codeLine="32" fill="#F1F1F1" height="88.8594" id="ProductDTO" rx="2.5" ry="2.5" style="stroke:#181818;stroke-width:0.5;" width="180" x="220.8591" y="717"/><ellipse cx="263.3091" cy="737.1328" fill="#ADD1B2" rx="11" ry="11" style="stroke:#181818;stroke-width:1.0;"/><path d="M265.6528,732.8047 C264.7153,732.3672 264.1216,732.2266 263.2466,732.2266 C260.6216,732.2266 258.6216,734.3047 258.6216,737.0234 L258.6216,738.1484 C258.6216,740.7266 260.7309,742.6172 263.6216,742.6172 C264.8403,742.6172 265.9966,742.3203 266.7466,741.7734 C267.3247,741.3672 267.6528,740.9141 267.6528,740.5234 C267.6528,740.0703 267.2622,739.6797 266.7934,739.6797 C266.5747,739.6797 266.3716,739.7578 266.1841,739.9453 C265.7309,740.4297 265.7309,740.4297 265.5434,740.5234 C265.1216,740.7891 264.4341,740.9141 263.6684,740.9141 C261.6216,740.9141 260.3247,739.8203 260.3247,738.1172 L260.3247,737.0234 C260.3247,735.2422 261.5747,733.9297 263.3091,733.9297 C263.8872,733.9297 264.4966,734.0859 264.9653,734.3359 C265.4497,734.6172 265.6216,734.8359 265.7153,735.2422 C265.7778,735.6484 265.8091,735.7734 265.9497,735.8984 C266.0903,736.0391 266.3247,736.1484 266.5434,736.1484 C266.8091,736.1484 267.0747,736.0078 267.2466,735.7891 C267.3559,735.6328 267.3872,735.4453 267.3872,735.0234 L267.3872,733.6016 C267.3872,733.1641 267.3716,733.0391 267.2778,732.8828 C267.1216,732.6172 266.8403,732.4766 266.5434,732.4766 C266.2466,732.4766 266.0434,732.5703 265.8247,732.8828 L265.6528,732.8047 Z " fill="#000000"/><text fill="#000000" font-family="sans-serif" font-size="12" font-style="italic" lengthAdjust="spacing" textLength="39" x="307.4091" y="733.1387">«DTO»</text><text fill="#000000" font-family="sans-serif" font-size="14" lengthAdjust="spacing" textLength="87" x="283.4091" y="748.9639">ProductDTO</text><line style="stroke:#181818;stroke-width:0.5;" x1="221.8591" x2="399.8591" y1="757.2656" y2="757.2656"/><line style="stroke:#181818;stroke-width:0.5;" x1="221.8591" x2="399.8591" y1="765.2656" y2="765.2656"/><text fill="#000000" font-family="sans-serif" font-size="14" lengthAdjust="spacing" textLength="168" x="226.8591" y="782.2607">showBasicInformation()</text><text fill="#000000" font-family="sans-serif" font-size="14" lengthAdjust="spacing" textLength="149" x="226.8591" y="798.5576">showAllInformation()</text></g><!--MD5=[8adf1054a73413e5f23de27423411e6e]
class ProductMapper--><g id="elem_ProductMapper"><rect codeLine="37" fill="#F1F1F1" height="72.5625" id="ProductMapper" rx="2.5" ry="2.5" style="stroke:#181818;stroke-width:0.5;" width="143" x="248.3591" y="584"/><ellipse cx="263.3591" cy="604.1328" fill="#ADD1B2" rx="11" ry="11" style="stroke:#181818;stroke-width:1.0;"/><path d="M265.7028,599.8047 C264.7653,599.3672 264.1716,599.2266 263.2966,599.2266 C260.6716,599.2266 258.6716,601.3047 258.6716,604.0234 L258.6716,605.1484 C258.6716,607.7266 260.7809,609.6172 263.6716,609.6172 C264.8903,609.6172 266.0466,609.3203 266.7966,608.7734 C267.3747,608.3672 267.7028,607.9141 267.7028,607.5234 C267.7028,607.0703 267.3122,606.6797 266.8434,606.6797 C266.6247,606.6797 266.4216,606.7578 266.2341,606.9453 C265.7809,607.4297 265.7809,607.4297 265.5934,607.5234 C265.1716,607.7891 264.4841,607.9141 263.7184,607.9141 C261.6716,607.9141 260.3747,606.8203 260.3747,605.1172 L260.3747,604.0234 C260.3747,602.2422 261.6247,600.9297 263.3591,600.9297 C263.9372,600.9297 264.5466,601.0859 265.0153,601.3359 C265.4997,601.6172 265.6716,601.8359 265.7653,602.2422 C265.8278,602.6484 265.8591,602.7734 265.9997,602.8984 C266.1403,603.0391 266.3747,603.1484 266.5934,603.1484 C266.8591,603.1484 267.1247,603.0078 267.2966,602.7891 C267.4059,602.6328 267.4372,602.4453 267.4372,602.0234 L267.4372,600.6016 C267.4372,600.1641 267.4216,600.0391 267.3278,599.8828 C267.1716,599.6172 266.8903,599.4766 266.5934,599.4766 C266.2966,599.4766 266.0934,599.5703 265.8747,599.8828 L265.7028,599.8047 Z " fill="#000000"/><text fill="#000000" font-family="sans-serif" font-size="12" font-style="italic" lengthAdjust="spacing" textLength="39" x="313.3591" y="600.1387">«DTO»</text><text fill="#000000" font-family="sans-serif" font-size="14" lengthAdjust="spacing" textLength="111" x="277.3591" y="615.9639">ProductMapper</text><line style="stroke:#181818;stroke-width:0.5;" x1="249.3591" x2="390.3591" y1="624.2656" y2="624.2656"/><line style="stroke:#181818;stroke-width:0.5;" x1="249.3591" x2="390.3591" y1="632.2656" y2="632.2656"/><text fill="#000000" font-family="sans-serif" font-size="14" lengthAdjust="spacing" textLength="114" x="254.3591" y="649.2607">toDTO(product)</text></g><!--MD5=[f9761e4ec0e5a044b983a0fb01ce84a9]
class ProductRepository--><g id="elem_ProductRepository"><rect codeLine="41" fill="#F1F1F1" height="137.75" id="ProductRepository" rx="2.5" ry="2.5" style="stroke:#181818;stroke-width:0.5;" width="313" x="121.3591" y="866"/><ellipse cx="206.1091" cy="886.1328" fill="#ADD1B2" rx="11" ry="11" style="stroke:#181818;stroke-width:1.0;"/><path d="M208.4528,881.8047 C207.5153,881.3672 206.9216,881.2266 206.0466,881.2266 C203.4216,881.2266 201.4216,883.3047 201.4216,886.0234 L201.4216,887.1484 C201.4216,889.7266 203.5309,891.6172 206.4216,891.6172 C207.6403,891.6172 208.7966,891.3203 209.5466,890.7734 C210.1247,890.3672 210.4528,889.9141 210.4528,889.5234 C210.4528,889.0703 210.0622,888.6797 209.5934,888.6797 C209.3747,888.6797 209.1716,888.7578 208.9841,888.9453 C208.5309,889.4297 208.5309,889.4297 208.3434,889.5234 C207.9216,889.7891 207.2341,889.9141 206.4684,889.9141 C204.4216,889.9141 203.1247,888.8203 203.1247,887.1172 L203.1247,886.0234 C203.1247,884.2422 204.3747,882.9297 206.1091,882.9297 C206.6872,882.9297 207.2966,883.0859 207.7653,883.3359 C208.2497,883.6172 208.4216,883.8359 208.5153,884.2422 C208.5778,884.6484 208.6091,884.7734 208.7497,884.8984 C208.8903,885.0391 209.1247,885.1484 209.3434,885.1484 C209.6091,885.1484 209.8747,885.0078 210.0466,884.7891 C210.1559,884.6328 210.1872,884.4453 210.1872,884.0234 L210.1872,882.6016 C210.1872,882.1641 210.1716,882.0391 210.0778,881.8828 C209.9216,881.6172 209.6403,881.4766 209.3434,881.4766 C209.0466,881.4766 208.8434,881.5703 208.6247,881.8828 L208.4528,881.8047 Z " fill="#000000"/><text fill="#000000" font-family="sans-serif" font-size="12" font-style="italic" lengthAdjust="spacing" textLength="82" x="253.1091" y="882.1387">«Persistence»</text><text fill="#000000" font-family="sans-serif" font-size="14" lengthAdjust="spacing" textLength="135" x="226.6091" y="897.9639">ProductRepository</text><line style="stroke:#181818;stroke-width:0.5;" x1="122.3591" x2="433.3591" y1="906.2656" y2="906.2656"/><line style="stroke:#181818;stroke-width:0.5;" x1="122.3591" x2="433.3591" y1="914.2656" y2="914.2656"/><text fill="#000000" font-family="sans-serif" font-size="14" lengthAdjust="spacing" textLength="137" x="127.3591" y="931.2607">getProductByID(id)</text><text fill="#000000" font-family="sans-serif" font-size="14" lengthAdjust="spacing" textLength="116" x="127.3591" y="947.5576">getAllProducts()</text><text fill="#000000" font-family="sans-serif" font-size="14" lengthAdjust="spacing" textLength="265" x="127.3591" y="963.8545">getProductsFromCategory(category)</text><text fill="#000000" font-family="sans-serif" font-size="14" lengthAdjust="spacing" textLength="301" x="127.3591" y="980.1514">getProductsFromDescription(description)</text><text fill="#000000" font-family="sans-serif" font-size="14" lengthAdjust="spacing" textLength="219" x="127.3591" y="996.4482">getProductsFromBrand(brand)</text></g><!--MD5=[72136138052d025cffdce3c22fbd185f]
class Product--><g id="elem_Product"><rect codeLine="49" fill="#F1F1F1" height="56.2656" id="Product" rx="2.5" ry="2.5" style="stroke:#181818;stroke-width:0.5;" width="88" x="233.8591" y="1064"/><ellipse cx="248.8591" cy="1084.1328" fill="#ADD1B2" rx="11" ry="11" style="stroke:#181818;stroke-width:1.0;"/><path d="M251.2028,1079.8047 C250.2653,1079.3672 249.6716,1079.2266 248.7966,1079.2266 C246.1716,1079.2266 244.1716,1081.3047 244.1716,1084.0234 L244.1716,1085.1484 C244.1716,1087.7266 246.2809,1089.6172 249.1716,1089.6172 C250.3903,1089.6172 251.5466,1089.3203 252.2966,1088.7734 C252.8747,1088.3672 253.2028,1087.9141 253.2028,1087.5234 C253.2028,1087.0703 252.8122,1086.6797 252.3434,1086.6797 C252.1247,1086.6797 251.9216,1086.7578 251.7341,1086.9453 C251.2809,1087.4297 251.2809,1087.4297 251.0934,1087.5234 C250.6716,1087.7891 249.9841,1087.9141 249.2184,1087.9141 C247.1716,1087.9141 245.8747,1086.8203 245.8747,1085.1172 L245.8747,1084.0234 C245.8747,1082.2422 247.1247,1080.9297 248.8591,1080.9297 C249.4372,1080.9297 250.0466,1081.0859 250.5153,1081.3359 C250.9997,1081.6172 251.1716,1081.8359 251.2653,1082.2422 C251.3278,1082.6484 251.3591,1082.7734 251.4997,1082.8984 C251.6403,1083.0391 251.8747,1083.1484 252.0934,1083.1484 C252.3591,1083.1484 252.6247,1083.0078 252.7966,1082.7891 C252.9059,1082.6328 252.9372,1082.4453 252.9372,1082.0234 L252.9372,1080.6016 C252.9372,1080.1641 252.9216,1080.0391 252.8278,1079.8828 C252.6716,1079.6172 252.3903,1079.4766 252.0934,1079.4766 C251.7966,1079.4766 251.5934,1079.5703 251.3747,1079.8828 L251.2028,1079.8047 Z " fill="#000000"/><text fill="#000000" font-family="sans-serif" font-size="12" font-style="italic" lengthAdjust="spacing" textLength="60" x="260.8591" y="1080.1387">«Domain»</text><text fill="#000000" font-family="sans-serif" font-size="14" lengthAdjust="spacing" textLength="56" x="262.8591" y="1095.9639">Product</text><line style="stroke:#181818;stroke-width:0.5;" x1="234.8591" x2="320.8591" y1="1104.2656" y2="1104.2656"/><line style="stroke:#181818;stroke-width:0.5;" x1="234.8591" x2="320.8591" y1="1112.2656" y2="1112.2656"/></g><!--MD5=[40fb8bc3ce01f8b419b259b0f59e3cf5]
link ViewCatalogUI to ViewCatalogController--><g id="link_ViewCatalogUI_ViewCatalogController"><path codeLine="54" d="M222.8591,96.22 C222.8591,112.73 222.8591,132.001 222.8591,150.496 " fill="none" id="ViewCatalogUI-to-ViewCatalogController" style="stroke:#181818;stroke-width:1.0;stroke-dasharray:7.0,7.0;"/><polygon fill="#181818" points="222.8591,155.689,226.8591,146.689,222.8591,150.689,218.8591,146.689,222.8591,155.689" style="stroke:#181818;stroke-width:1.0;"/></g><!--MD5=[9b7a83c0936b658d9eb578948c6e3463]
link ViewCatalogController to ProductService--><g id="link_ViewCatalogController_ProductService"><path codeLine="55" d="M222.8591,294.245 C222.8591,311.616 222.8591,330.543 222.8591,348.788 " fill="none" id="ViewCatalogController-to-ProductService" style="stroke:#181818;stroke-width:1.0;stroke-dasharray:7.0,7.0;"/><polygon fill="#181818" points="222.8591,353.915,226.8591,344.915,222.8591,348.915,218.8591,344.915,222.8591,353.915" style="stroke:#181818;stroke-width:1.0;"/></g><!--MD5=[652f0de1660ad5aba9e03af45f95e47f]
link ProductService to ProductMapper--><g id="link_ProductService_ProductMapper"><path codeLine="57" d="M268.3771,524.231 C278.7261,543.381 289.2561,562.867 298.0731,579.185 " fill="none" id="ProductService-to-ProductMapper" style="stroke:#181818;stroke-width:1.0;stroke-dasharray:7.0,7.0;"/><polygon fill="#181818" points="300.5141,583.7,299.754,573.8805,298.1368,579.3013,292.7161,577.6841,300.5141,583.7" style="stroke:#181818;stroke-width:1.0;"/></g><!--MD5=[b90042c77839ace49de919b2263d727b]
link ProductService to ProductRepository--><g id="link_ProductService_ProductRepository"><path codeLine="58" d="M343.9271,509.722 C369.5631,530.297 393.4901,555.17 408.8591,584 C455.3131,671.139 457.6801,715.637 417.8591,806 C408.7231,826.733 394.3861,845.567 378.3041,862.025 " fill="none" id="ProductService-to-ProductRepository" style="stroke:#181818;stroke-width:1.0;stroke-dasharray:7.0,7.0;"/><polygon fill="#181818" points="374.6271,865.718,383.8116,862.162,378.1547,862.1746,378.1422,856.5178,374.6271,865.718" style="stroke:#181818;stroke-width:1.0;"/></g><!--MD5=[dd77f821747e4be252529c089b4d0720]
link ProductService to RepositoryFactory--><g id="link_ProductService_RepositoryFactory"><path codeLine="59" d="M101.6565,498.93 C69.5224,520.894 38.8094,549.16 20.8595,584 C6,612.842 10.1926,626.359 20.8595,657 C29.7586,682.563 47.8917,706.562 64.8481,725.002 " fill="none" id="ProductService-to-RepositoryFactory" style="stroke:#181818;stroke-width:1.0;stroke-dasharray:7.0,7.0;"/><polygon fill="#181818" points="68.6707,729.089,65.4439,719.7837,65.2551,725.4374,59.6014,725.2486,68.6707,729.089" style="stroke:#181818;stroke-width:1.0;"/></g><!--MD5=[a016c21dbba1975a610b94ed88e70d5b]
link ProductService to PersistenceContext--><g id="link_ProductService_PersistenceContext"><path codeLine="60" d="M177.3421,524.231 C166.0931,545.046 154.6301,566.259 145.3851,583.367 " fill="none" id="ProductService-to-PersistenceContext" style="stroke:#181818;stroke-width:1.0;stroke-dasharray:7.0,7.0;"/><polygon fill="#181818" points="142.8381,588.08,150.636,582.0641,145.2153,583.6813,143.5981,578.2605,142.8381,588.08" style="stroke:#181818;stroke-width:1.0;"/></g><!--MD5=[a107a52b6e2b3fb29ad79d2f6a7df605]
link RepositoryFactory to ProductRepository--><g id="link_RepositoryFactory_ProductRepository"><path codeLine="62" d="M134.5511,793.557 C154.1711,812.786 180.2181,838.311 204.7201,862.323 " fill="none" id="RepositoryFactory-to-ProductRepository" style="stroke:#181818;stroke-width:1.0;stroke-dasharray:7.0,7.0;"/><polygon fill="#181818" points="208.3231,865.854,204.693,856.6985,204.7513,862.3551,199.0947,862.4134,208.3231,865.854" style="stroke:#181818;stroke-width:1.0;"/></g><!--MD5=[754b775031405e096442b27febffa290]
link PersistenceContext to RepositoryFactory--><g id="link_PersistenceContext_RepositoryFactory"><path codeLine="63" d="M120.6981,652.694 C117.1761,673.977 112.5011,702.229 108.821,724.472 " fill="none" id="PersistenceContext-to-RepositoryFactory" style="stroke:#181818;stroke-width:1.0;stroke-dasharray:7.0,7.0;"/><polygon fill="#181818" points="108.004,729.41,113.421,721.1847,108.8211,724.4772,105.5286,719.8773,108.004,729.41" style="stroke:#181818;stroke-width:1.0;"/></g><!--MD5=[041af6b47eff160bbb86828299e77995]
link ProductMapper to ProductDTO--><g id="link_ProductMapper_ProductDTO"><path codeLine="65" d="M317.5421,657.296 C316.4661,673.913 315.1701,693.921 314.0081,711.88 " fill="none" id="ProductMapper-to-ProductDTO" style="stroke:#181818;stroke-width:1.0;stroke-dasharray:7.0,7.0;"/><polygon fill="#181818" points="313.6831,716.886,318.2583,708.1643,314.0073,711.8965,310.2751,707.6455,313.6831,716.886" style="stroke:#181818;stroke-width:1.0;"/></g><!--MD5=[68e4965bc339513f2ae30d33caf3e4dc]
link ProductRepository to Product--><g id="link_ProductRepository_Product"><path codeLine="67" d="M277.8591,1004.436 C277.8591,1023.2348 277.8591,1042.7544 277.8591,1058.4892 " fill="none" id="ProductRepository-to-Product" style="stroke:#181818;stroke-width:1.0;stroke-dasharray:7.0,7.0;"/><polygon fill="#181818" points="277.8591,1063.6737,281.8591,1054.6737,277.8591,1058.6737,273.8591,1054.6737,277.8591,1063.6737" style="stroke:#181818;stroke-width:1.0;"/></g><!--MD5=[9e55c536879695f157865cdba452f8f8]
@startuml
class ViewCatalogUI<<Presentation>>{
  doShow()
  selectsIndex()
}

class ViewCatalogController<<Application>>{
  filterByCategory(category)
  filterByDescription(description)
  filterByBrand(brand)
  resetFilters()
  filterResult(sort)
}

class ProductService<<Service>>{
	filterByCategory(category)
  filterByDescription(description)
  filterByBrand(brand)
  resetFilters()
  commonProducts()
  filterResult(sort)
  sortProductList(sort)
}

class RepositoryFactory{
	products()
}

class PersistenceContext{
	repositories()
}

class ProductDTO<<DTO>>{
	showBasicInformation()
	showAllInformation()
}

class ProductMapper<<DTO>>{
	toDTO(product)
}

class ProductRepository<<Persistence>>{
  getProductByID(id)
  getAllProducts()
  getProductsFromCategory(category)
  getProductsFromDescription(description)
  getProductsFromBrand(brand)
}

class Product<<Domain>>{
}



ViewCatalogUI ..> ViewCatalogController
ViewCatalogController ..> ProductService

ProductService ..> ProductMapper
ProductService ..> ProductRepository
ProductService ..> RepositoryFactory
ProductService ..> PersistenceContext

RepositoryFactory ..> ProductRepository
PersistenceContext ..> RepositoryFactory

ProductMapper ..> ProductDTO

ProductRepository ..> Product
@enduml

PlantUML version 1.2022.4beta2(Unknown compile time)
(GPL source distribution)
Java Runtime: Java(TM) SE Runtime Environment
JVM: Java HotSpot(TM) 64-Bit Server VM
Default Encoding: UTF-8
Language: en
Country: US
--></g></svg>