<?xml version="1.0" encoding="UTF-8" standalone="no"?><svg xmlns="http://www.w3.org/2000/svg" xmlns:xlink="http://www.w3.org/1999/xlink" contentStyleType="text/css" height="1159px" preserveAspectRatio="none" style="width:2788px;height:1159px;background:#FFFFFF;" version="1.1" viewBox="0 0 2788 1159" width="2788px" zoomAndPan="magnify"><defs/><g><rect fill="#FFFFFF" height="977.25" style="stroke:#181818;stroke-width:1.0;" width="10" x="80.5" y="91.2969"/><rect fill="#FFFFFF" height="956.1172" style="stroke:#181818;stroke-width:1.0;" width="10" x="528.5" y="112.4297"/><rect fill="#FFFFFF" height="58.2656" style="stroke:#181818;stroke-width:1.0;" width="10" x="684.5" y="141.5625"/><rect fill="#FFFFFF" height="350.4609" style="stroke:#181818;stroke-width:1.0;" width="10" x="684.5" y="411.7578"/><rect fill="#FFFFFF" height="263.0625" style="stroke:#181818;stroke-width:1.0;" width="10" x="885.5" y="470.0234"/><rect fill="#FFFFFF" height="59.1328" style="stroke:#181818;stroke-width:1.0;" width="10" x="1041" y="499.1563"/><rect fill="#FFFFFF" height="59.1328" style="stroke:#181818;stroke-width:1.0;" width="10" x="1208" y="528.2891"/><rect fill="#FFFFFF" height="29.1328" style="stroke:#181818;stroke-width:1.0;" width="10" x="1358.5" y="616.5547"/><rect fill="#FFFFFF" height="29.1328" style="stroke:#181818;stroke-width:1.0;" width="10" x="1485.5" y="674.8203"/><rect fill="#FFFFFF" height="620.6563" style="stroke:#181818;stroke-width:1.0;" width="10" x="1596" y="199.8281"/><rect fill="#FFFFFF" height="29.1328" style="stroke:#181818;stroke-width:1.0;" width="10" x="1596" y="937.0156"/><rect fill="#FFFFFF" height="73.2656" style="stroke:#181818;stroke-width:1.0;" width="10" x="1713.5" y="995.2813"/><rect fill="#FFFFFF" height="277.1953" style="stroke:#181818;stroke-width:1.0;" width="10" x="1964.5" y="791.3516"/><rect fill="#FFFFFF" height="29.1328" style="stroke:#181818;stroke-width:1.0;" width="10" x="2311" y="353.4922"/><rect height="746.3203" style="stroke:#000000;stroke-width:1.5;fill:none;" width="2187" x="595" y="315.2266"/><line style="stroke:#181818;stroke-width:0.5;fill:none;stroke-dasharray:5.0,5.0;" x1="85" x2="85" y1="81.2969" y2="1078.5469"/><line style="stroke:#181818;stroke-width:0.5;fill:none;stroke-dasharray:5.0,5.0;" x1="533" x2="533" y1="81.2969" y2="1078.5469"/><line style="stroke:#181818;stroke-width:0.5;fill:none;stroke-dasharray:5.0,5.0;" x1="689" x2="689" y1="81.2969" y2="1078.5469"/><line style="stroke:#181818;stroke-width:0.5;fill:none;stroke-dasharray:5.0,5.0;" x1="890" x2="890" y1="81.2969" y2="1078.5469"/><line style="stroke:#181818;stroke-width:0.5;fill:none;stroke-dasharray:5.0,5.0;" x1="1046" x2="1046" y1="81.2969" y2="1078.5469"/><line style="stroke:#181818;stroke-width:0.5;fill:none;stroke-dasharray:5.0,5.0;" x1="1213" x2="1213" y1="81.2969" y2="1078.5469"/><line style="stroke:#181818;stroke-width:0.5;fill:none;stroke-dasharray:5.0,5.0;" x1="1363" x2="1363" y1="81.2969" y2="1078.5469"/><line style="stroke:#181818;stroke-width:0.5;fill:none;stroke-dasharray:5.0,5.0;" x1="1490" x2="1490" y1="81.2969" y2="1078.5469"/><line style="stroke:#181818;stroke-width:0.5;fill:none;stroke-dasharray:5.0,5.0;" x1="1601" x2="1601" y1="81.2969" y2="1078.5469"/><line style="stroke:#181818;stroke-width:0.5;fill:none;stroke-dasharray:5.0,5.0;" x1="1718" x2="1718" y1="81.2969" y2="1078.5469"/><line style="stroke:#181818;stroke-width:0.5;fill:none;stroke-dasharray:5.0,5.0;" x1="1969" x2="1969" y1="81.2969" y2="1078.5469"/><line style="stroke:#181818;stroke-width:0.5;fill:none;stroke-dasharray:5.0,5.0;" x1="2157" x2="2157" y1="81.2969" y2="1078.5469"/><line style="stroke:#181818;stroke-width:0.5;fill:none;stroke-dasharray:5.0,5.0;" x1="2316" x2="2316" y1="81.2969" y2="1078.5469"/><line style="stroke:#181818;stroke-width:0.5;fill:none;stroke-dasharray:5.0,5.0;" x1="2477" x2="2477" y1="81.2969" y2="1078.5469"/><line style="stroke:#181818;stroke-width:0.5;fill:none;stroke-dasharray:5.0,5.0;" x1="2681" x2="2681" y1="81.2969" y2="1078.5469"/><text fill="#000000" font-family="sans-serif" font-size="14" lengthAdjust="spacing" textLength="155" x="5" y="77.9951">Warehouse Employee</text><ellipse cx="85.5" cy="13.5" fill="#E2E2F0" rx="8" ry="8" style="stroke:#181818;stroke-width:0.5;"/><path d="M85.5,21.5 L85.5,48.5 M72.5,29.5 L98.5,29.5 M85.5,48.5 L72.5,63.5 M85.5,48.5 L98.5,63.5 " fill="none" style="stroke:#181818;stroke-width:0.5;"/><text fill="#000000" font-family="sans-serif" font-size="14" lengthAdjust="spacing" textLength="155" x="5" y="1090.542">Warehouse Employee</text><ellipse cx="85.5" cy="1102.3438" fill="#E2E2F0" rx="8" ry="8" style="stroke:#181818;stroke-width:0.5;"/><path d="M85.5,1110.3438 L85.5,1137.3438 M72.5,1118.3438 L98.5,1118.3438 M85.5,1137.3438 L72.5,1152.3438 M85.5,1137.3438 L98.5,1152.3438 " fill="none" style="stroke:#181818;stroke-width:0.5;"/><rect fill="#E2E2F0" height="30.2969" rx="2.5" ry="2.5" style="stroke:#181818;stroke-width:0.5;" width="109" x="479" y="50"/><text fill="#000000" font-family="sans-serif" font-size="14" lengthAdjust="spacing" textLength="95" x="486" y="69.9951">:DashboardUI</text><rect fill="#E2E2F0" height="30.2969" rx="2.5" ry="2.5" style="stroke:#181818;stroke-width:0.5;" width="109" x="479" y="1077.5469"/><text fill="#000000" font-family="sans-serif" font-size="14" lengthAdjust="spacing" textLength="95" x="486" y="1097.542">:DashboardUI</text><rect fill="#E2E2F0" height="30.2969" rx="2.5" ry="2.5" style="stroke:#181818;stroke-width:0.5;" width="169" x="605" y="50"/><text fill="#000000" font-family="sans-serif" font-size="14" lengthAdjust="spacing" textLength="155" x="612" y="69.9951">:DashboardController</text><rect fill="#E2E2F0" height="30.2969" rx="2.5" ry="2.5" style="stroke:#181818;stroke-width:0.5;" width="169" x="605" y="1077.5469"/><text fill="#000000" font-family="sans-serif" font-size="14" lengthAdjust="spacing" textLength="155" x="612" y="1097.542">:DashboardController</text><rect fill="#E2E2F0" height="30.2969" rx="2.5" ry="2.5" style="stroke:#181818;stroke-width:0.5;" width="129" x="826" y="50"/><text fill="#000000" font-family="sans-serif" font-size="14" lengthAdjust="spacing" textLength="115" x="833" y="69.9951">:AGVListService</text><rect fill="#E2E2F0" height="30.2969" rx="2.5" ry="2.5" style="stroke:#181818;stroke-width:0.5;" width="129" x="826" y="1077.5469"/><text fill="#000000" font-family="sans-serif" font-size="14" lengthAdjust="spacing" textLength="115" x="833" y="1097.542">:AGVListService</text><rect fill="#E2E2F0" height="30.2969" rx="2.5" ry="2.5" style="stroke:#181818;stroke-width:0.5;" width="162" x="965" y="50"/><text fill="#000000" font-family="sans-serif" font-size="14" lengthAdjust="spacing" textLength="148" x="972" y="69.9951">:PersistenceContext</text><rect fill="#E2E2F0" height="30.2969" rx="2.5" ry="2.5" style="stroke:#181818;stroke-width:0.5;" width="162" x="965" y="1077.5469"/><text fill="#000000" font-family="sans-serif" font-size="14" lengthAdjust="spacing" textLength="148" x="972" y="1097.542">:PersistenceContext</text><rect fill="#E2E2F0" height="30.2969" rx="2.5" ry="2.5" style="stroke:#181818;stroke-width:0.5;" width="152" x="1137" y="50"/><text fill="#000000" font-family="sans-serif" font-size="14" lengthAdjust="spacing" textLength="138" x="1144" y="69.9951">:RepositoryFactory</text><rect fill="#E2E2F0" height="30.2969" rx="2.5" ry="2.5" style="stroke:#181818;stroke-width:0.5;" width="152" x="1137" y="1077.5469"/><text fill="#000000" font-family="sans-serif" font-size="14" lengthAdjust="spacing" textLength="138" x="1144" y="1097.542">:RepositoryFactory</text><rect fill="#E2E2F0" height="30.2969" rx="2.5" ry="2.5" style="stroke:#181818;stroke-width:0.5;" width="129" x="1299" y="50"/><text fill="#000000" font-family="sans-serif" font-size="14" lengthAdjust="spacing" textLength="115" x="1306" y="69.9951">:AGVRepository</text><rect fill="#E2E2F0" height="30.2969" rx="2.5" ry="2.5" style="stroke:#181818;stroke-width:0.5;" width="129" x="1299" y="1077.5469"/><text fill="#000000" font-family="sans-serif" font-size="14" lengthAdjust="spacing" textLength="115" x="1306" y="1097.542">:AGVRepository</text><rect fill="#E2E2F0" height="30.2969" rx="2.5" ry="2.5" style="stroke:#181818;stroke-width:0.5;" width="105" x="1438" y="50"/><text fill="#000000" font-family="sans-serif" font-size="14" lengthAdjust="spacing" textLength="91" x="1445" y="69.9951">:AGVMapper</text><rect fill="#E2E2F0" height="30.2969" rx="2.5" ry="2.5" style="stroke:#181818;stroke-width:0.5;" width="105" x="1438" y="1077.5469"/><text fill="#000000" font-family="sans-serif" font-size="14" lengthAdjust="spacing" textLength="91" x="1445" y="1097.542">:AGVMapper</text><rect fill="#E2E2F0" height="30.2969" rx="2.5" ry="2.5" style="stroke:#181818;stroke-width:0.5;" width="96" x="1553" y="50"/><text fill="#000000" font-family="sans-serif" font-size="14" lengthAdjust="spacing" textLength="82" x="1560" y="69.9951">:Dashboard</text><rect fill="#E2E2F0" height="30.2969" rx="2.5" ry="2.5" style="stroke:#181818;stroke-width:0.5;" width="96" x="1553" y="1077.5469"/><text fill="#000000" font-family="sans-serif" font-size="14" lengthAdjust="spacing" textLength="82" x="1560" y="1097.542">:Dashboard</text><rect fill="#E2E2F0" height="30.2969" rx="2.5" ry="2.5" style="stroke:#181818;stroke-width:0.5;" width="119" x="1659" y="50"/><text fill="#000000" font-family="sans-serif" font-size="14" lengthAdjust="spacing" textLength="105" x="1666" y="69.9951">:HTTPmessage</text><rect fill="#E2E2F0" height="30.2969" rx="2.5" ry="2.5" style="stroke:#181818;stroke-width:0.5;" width="119" x="1659" y="1077.5469"/><text fill="#000000" font-family="sans-serif" font-size="14" lengthAdjust="spacing" textLength="105" x="1666" y="1097.542">:HTTPmessage</text><rect fill="#E2E2F0" height="30.2969" rx="2.5" ry="2.5" style="stroke:#181818;stroke-width:0.5;" width="155" x="1892" y="50"/><text fill="#000000" font-family="sans-serif" font-size="14" lengthAdjust="spacing" textLength="141" x="1899" y="69.9951">:DashboardRequest</text><rect fill="#E2E2F0" height="30.2969" rx="2.5" ry="2.5" style="stroke:#181818;stroke-width:0.5;" width="155" x="1892" y="1077.5469"/><text fill="#000000" font-family="sans-serif" font-size="14" lengthAdjust="spacing" textLength="141" x="1899" y="1097.542">:DashboardRequest</text><rect fill="#E2E2F0" height="30.2969" rx="2.5" ry="2.5" style="stroke:#181818;stroke-width:0.5;" width="201" x="2057" y="50"/><text fill="#000000" font-family="sans-serif" font-size="14" lengthAdjust="spacing" textLength="187" x="2064" y="69.9951">listagvdto:List&lt;AGVDTO&gt;</text><rect fill="#E2E2F0" height="30.2969" rx="2.5" ry="2.5" style="stroke:#181818;stroke-width:0.5;" width="201" x="2057" y="1077.5469"/><text fill="#000000" font-family="sans-serif" font-size="14" lengthAdjust="spacing" textLength="187" x="2064" y="1097.542">listagvdto:List&lt;AGVDTO&gt;</text><rect fill="#E2E2F0" height="30.2969" rx="2.5" ry="2.5" style="stroke:#181818;stroke-width:0.5;" width="96" x="2268" y="50"/><text fill="#000000" font-family="sans-serif" font-size="14" lengthAdjust="spacing" textLength="82" x="2275" y="69.9951">:SSLSocket</text><rect fill="#E2E2F0" height="30.2969" rx="2.5" ry="2.5" style="stroke:#181818;stroke-width:0.5;" width="96" x="2268" y="1077.5469"/><text fill="#000000" font-family="sans-serif" font-size="14" lengthAdjust="spacing" textLength="82" x="2275" y="1097.542">:SSLSocket</text><rect fill="#E2E2F0" height="30.2969" rx="2.5" ry="2.5" style="stroke:#181818;stroke-width:0.5;" width="206" x="2374" y="50"/><text fill="#000000" font-family="sans-serif" font-size="14" lengthAdjust="spacing" textLength="192" x="2381" y="69.9951">output:DataOutputStream</text><rect fill="#E2E2F0" height="30.2969" rx="2.5" ry="2.5" style="stroke:#181818;stroke-width:0.5;" width="206" x="2374" y="1077.5469"/><text fill="#000000" font-family="sans-serif" font-size="14" lengthAdjust="spacing" textLength="192" x="2381" y="1097.542">output:DataOutputStream</text><rect fill="#E2E2F0" height="30.2969" rx="2.5" ry="2.5" style="stroke:#181818;stroke-width:0.5;" width="182" x="2590" y="50"/><text fill="#000000" font-family="sans-serif" font-size="14" lengthAdjust="spacing" textLength="168" x="2597" y="69.9951">input:DataInputStream</text><rect fill="#E2E2F0" height="30.2969" rx="2.5" ry="2.5" style="stroke:#181818;stroke-width:0.5;" width="182" x="2590" y="1077.5469"/><text fill="#000000" font-family="sans-serif" font-size="14" lengthAdjust="spacing" textLength="168" x="2597" y="1097.542">input:DataInputStream</text><rect fill="#FFFFFF" height="977.25" style="stroke:#181818;stroke-width:1.0;" width="10" x="80.5" y="91.2969"/><rect fill="#FFFFFF" height="956.1172" style="stroke:#181818;stroke-width:1.0;" width="10" x="528.5" y="112.4297"/><rect fill="#FFFFFF" height="58.2656" style="stroke:#181818;stroke-width:1.0;" width="10" x="684.5" y="141.5625"/><rect fill="#FFFFFF" height="350.4609" style="stroke:#181818;stroke-width:1.0;" width="10" x="684.5" y="411.7578"/><rect fill="#FFFFFF" height="263.0625" style="stroke:#181818;stroke-width:1.0;" width="10" x="885.5" y="470.0234"/><rect fill="#FFFFFF" height="59.1328" style="stroke:#181818;stroke-width:1.0;" width="10" x="1041" y="499.1563"/><rect fill="#FFFFFF" height="59.1328" style="stroke:#181818;stroke-width:1.0;" width="10" x="1208" y="528.2891"/><rect fill="#FFFFFF" height="29.1328" style="stroke:#181818;stroke-width:1.0;" width="10" x="1358.5" y="616.5547"/><rect fill="#FFFFFF" height="29.1328" style="stroke:#181818;stroke-width:1.0;" width="10" x="1485.5" y="674.8203"/><rect fill="#FFFFFF" height="620.6563" style="stroke:#181818;stroke-width:1.0;" width="10" x="1596" y="199.8281"/><rect fill="#FFFFFF" height="29.1328" style="stroke:#181818;stroke-width:1.0;" width="10" x="1596" y="937.0156"/><rect fill="#FFFFFF" height="73.2656" style="stroke:#181818;stroke-width:1.0;" width="10" x="1713.5" y="995.2813"/><rect fill="#FFFFFF" height="277.1953" style="stroke:#181818;stroke-width:1.0;" width="10" x="1964.5" y="791.3516"/><rect fill="#FFFFFF" height="29.1328" style="stroke:#181818;stroke-width:1.0;" width="10" x="2311" y="353.4922"/><polygon fill="#181818" points="516.5,108.4297,526.5,112.4297,516.5,116.4297,520.5,112.4297" style="stroke:#181818;stroke-width:1.0;"/><line style="stroke:#181818;stroke-width:1.0;" x1="90.5" x2="522.5" y1="112.4297" y2="112.4297"/><text fill="#000000" font-family="sans-serif" font-size="13" font-weight="bold" lengthAdjust="spacing" textLength="9" x="97.5" y="107.3638">1</text><text fill="#000000" font-family="sans-serif" font-size="13" lengthAdjust="spacing" textLength="406" x="110.5" y="107.3638">asks for dashboard with info and position of each agv in the list</text><polygon fill="#181818" points="672.5,137.5625,682.5,141.5625,672.5,145.5625,676.5,141.5625" style="stroke:#181818;stroke-width:1.0;"/><line style="stroke:#181818;stroke-width:1.0;" x1="538.5" x2="678.5" y1="141.5625" y2="141.5625"/><text fill="#000000" font-family="sans-serif" font-size="13" font-weight="bold" lengthAdjust="spacing" textLength="9" x="545.5" y="136.4966">2</text><text fill="#000000" font-family="sans-serif" font-size="13" lengthAdjust="spacing" textLength="114" x="558.5" y="136.4966">showDashboard()</text><polygon fill="#181818" points="1589,166.6953,1599,170.6953,1589,174.6953,1593,170.6953" style="stroke:#181818;stroke-width:1.0;"/><line style="stroke:#181818;stroke-width:1.0;" x1="694.5" x2="1595" y1="170.6953" y2="170.6953"/><text fill="#000000" font-family="sans-serif" font-size="13" font-weight="bold" lengthAdjust="spacing" textLength="8" x="701.5" y="165.6294">3</text><text fill="#000000" font-family="sans-serif" font-size="13" lengthAdjust="spacing" textLength="51" x="713.5" y="165.6294">create()</text><polygon fill="#181818" points="1584,195.8281,1594,199.8281,1584,203.8281,1588,199.8281" style="stroke:#181818;stroke-width:1.0;"/><line style="stroke:#181818;stroke-width:1.0;" x1="689.5" x2="1590" y1="199.8281" y2="199.8281"/><text fill="#000000" font-family="sans-serif" font-size="13" font-weight="bold" lengthAdjust="spacing" textLength="9" x="696.5" y="194.7622">4</text><text fill="#000000" font-family="sans-serif" font-size="13" lengthAdjust="spacing" textLength="40" x="709.5" y="194.7622">start()</text><polygon fill="#181818" points="2145.5,224.9609,2155.5,228.9609,2145.5,232.9609,2149.5,228.9609" style="stroke:#181818;stroke-width:1.0;"/><line style="stroke:#181818;stroke-width:1.0;" x1="1606" x2="2151.5" y1="228.9609" y2="228.9609"/><text fill="#000000" font-family="sans-serif" font-size="13" font-weight="bold" lengthAdjust="spacing" textLength="9" x="1613" y="223.895">5</text><text fill="#000000" font-family="sans-serif" font-size="13" lengthAdjust="spacing" textLength="41" x="1626" y="223.895">create</text><polygon fill="#181818" points="2304,254.0938,2314,258.0938,2304,262.0938,2308,258.0938" style="stroke:#181818;stroke-width:1.0;"/><line style="stroke:#181818;stroke-width:1.0;" x1="1606" x2="2310" y1="258.0938" y2="258.0938"/><text fill="#000000" font-family="sans-serif" font-size="13" font-weight="bold" lengthAdjust="spacing" textLength="9" x="1613" y="253.0278">6</text><text fill="#000000" font-family="sans-serif" font-size="13" lengthAdjust="spacing" textLength="51" x="1626" y="253.0278">create()</text><line style="stroke:#181818;stroke-width:1.0;" x1="1606" x2="1648" y1="287.2266" y2="287.2266"/><line style="stroke:#181818;stroke-width:1.0;" x1="1648" x2="1648" y1="287.2266" y2="300.2266"/><line style="stroke:#181818;stroke-width:1.0;" x1="1607" x2="1648" y1="300.2266" y2="300.2266"/><polygon fill="#181818" points="1617,296.2266,1607,300.2266,1617,304.2266,1613,300.2266" style="stroke:#181818;stroke-width:1.0;"/><text fill="#000000" font-family="sans-serif" font-size="13" font-weight="bold" lengthAdjust="spacing" textLength="9" x="1613" y="282.1606">7</text><text fill="#000000" font-family="sans-serif" font-size="13" lengthAdjust="spacing" textLength="75" x="1626" y="282.1606">importSSL()</text><path d="M595,315.2266 L673,315.2266 L673,322.3594 L663,332.3594 L595,332.3594 L595,315.2266 " fill="#EEEEEE" style="stroke:#000000;stroke-width:1.5;"/><rect fill="none" height="746.3203" style="stroke:#000000;stroke-width:1.5;" width="2187" x="595" y="315.2266"/><text fill="#000000" font-family="sans-serif" font-size="13" font-weight="bold" lengthAdjust="spacing" textLength="33" x="610" y="328.2935">loop</text><text fill="#000000" font-family="sans-serif" font-size="11" font-weight="bold" lengthAdjust="spacing" textLength="77" x="688" y="327.437">[while true]</text><polygon fill="#181818" points="2299,349.4922,2309,353.4922,2299,357.4922,2303,353.4922" style="stroke:#181818;stroke-width:1.0;"/><line style="stroke:#181818;stroke-width:1.0;" x1="1606" x2="2305" y1="353.4922" y2="353.4922"/><text fill="#000000" font-family="sans-serif" font-size="13" font-weight="bold" lengthAdjust="spacing" textLength="9" x="1613" y="348.4263">8</text><text fill="#000000" font-family="sans-serif" font-size="13" lengthAdjust="spacing" textLength="53" x="1626" y="348.4263">accept()</text><polygon fill="#181818" points="1617,378.625,1607,382.625,1617,386.625,1613,382.625" style="stroke:#181818;stroke-width:1.0;"/><line style="stroke:#181818;stroke-width:1.0;stroke-dasharray:2.0,2.0;" x1="1611" x2="2315" y1="382.625" y2="382.625"/><text fill="#000000" font-family="sans-serif" font-size="13" font-weight="bold" lengthAdjust="spacing" textLength="9" x="1623" y="377.5591">9</text><text fill="#000000" font-family="sans-serif" font-size="13" lengthAdjust="spacing" textLength="29" x="1636" y="377.5591">sock</text><polygon fill="#181818" points="705.5,407.7578,695.5,411.7578,705.5,415.7578,701.5,411.7578" style="stroke:#181818;stroke-width:1.0;"/><line style="stroke:#181818;stroke-width:1.0;" x1="699.5" x2="1595" y1="411.7578" y2="411.7578"/><text fill="#000000" font-family="sans-serif" font-size="13" font-weight="bold" lengthAdjust="spacing" textLength="19" x="711.5" y="406.6919">10</text><text fill="#000000" font-family="sans-serif" font-size="13" lengthAdjust="spacing" textLength="126" x="734.5" y="406.6919">listagvdto=getList()</text><polygon fill="#181818" points="878.5,436.8906,888.5,440.8906,878.5,444.8906,882.5,440.8906" style="stroke:#181818;stroke-width:1.0;"/><line style="stroke:#181818;stroke-width:1.0;" x1="694.5" x2="884.5" y1="440.8906" y2="440.8906"/><text fill="#000000" font-family="sans-serif" font-size="13" font-weight="bold" lengthAdjust="spacing" textLength="18" x="701.5" y="435.8247">11</text><text fill="#000000" font-family="sans-serif" font-size="13" lengthAdjust="spacing" textLength="51" x="723.5" y="435.8247">create()</text><polygon fill="#181818" points="873.5,466.0234,883.5,470.0234,873.5,474.0234,877.5,470.0234" style="stroke:#181818;stroke-width:1.0;"/><line style="stroke:#181818;stroke-width:1.0;" x1="694.5" x2="879.5" y1="470.0234" y2="470.0234"/><text fill="#000000" font-family="sans-serif" font-size="13" font-weight="bold" lengthAdjust="spacing" textLength="18" x="701.5" y="464.9575">12</text><text fill="#000000" font-family="sans-serif" font-size="13" lengthAdjust="spacing" textLength="150" x="723.5" y="464.9575">listAvailableAGVSDTO()</text><polygon fill="#181818" points="1029,495.1563,1039,499.1563,1029,503.1563,1033,499.1563" style="stroke:#181818;stroke-width:1.0;"/><line style="stroke:#181818;stroke-width:1.0;" x1="895.5" x2="1035" y1="499.1563" y2="499.1563"/><text fill="#000000" font-family="sans-serif" font-size="13" font-weight="bold" lengthAdjust="spacing" textLength="17" x="902.5" y="494.0903">13</text><text fill="#000000" font-family="sans-serif" font-size="13" lengthAdjust="spacing" textLength="85" x="923.5" y="494.0903">repositories()</text><polygon fill="#181818" points="1196,524.2891,1206,528.2891,1196,532.2891,1200,528.2891" style="stroke:#181818;stroke-width:1.0;"/><line style="stroke:#181818;stroke-width:1.0;" x1="1051" x2="1202" y1="528.2891" y2="528.2891"/><text fill="#000000" font-family="sans-serif" font-size="13" font-weight="bold" lengthAdjust="spacing" textLength="18" x="1058" y="523.2231">14</text><text fill="#000000" font-family="sans-serif" font-size="13" lengthAdjust="spacing" textLength="51" x="1080" y="523.2231">create()</text><polygon fill="#181818" points="1351.5,583.4219,1361.5,587.4219,1351.5,591.4219,1355.5,587.4219" style="stroke:#181818;stroke-width:1.0;"/><line style="stroke:#181818;stroke-width:1.0;" x1="1213" x2="1357.5" y1="587.4219" y2="587.4219"/><text fill="#000000" font-family="sans-serif" font-size="13" font-weight="bold" lengthAdjust="spacing" textLength="18" x="1220" y="582.356">15</text><text fill="#000000" font-family="sans-serif" font-size="13" lengthAdjust="spacing" textLength="51" x="1242" y="582.356">create()</text><polygon fill="#181818" points="1346.5,612.5547,1356.5,616.5547,1346.5,620.5547,1350.5,616.5547" style="stroke:#181818;stroke-width:1.0;"/><line style="stroke:#181818;stroke-width:1.0;" x1="895.5" x2="1352.5" y1="616.5547" y2="616.5547"/><text fill="#000000" font-family="sans-serif" font-size="13" font-weight="bold" lengthAdjust="spacing" textLength="18" x="902.5" y="611.4888">16</text><text fill="#000000" font-family="sans-serif" font-size="13" lengthAdjust="spacing" textLength="189" x="924.5" y="611.4888">getAGVSByStatus(ASSIGNED)</text><polygon fill="#181818" points="906.5,641.6875,896.5,645.6875,906.5,649.6875,902.5,645.6875" style="stroke:#181818;stroke-width:1.0;"/><line style="stroke:#181818;stroke-width:1.0;stroke-dasharray:2.0,2.0;" x1="900.5" x2="1362.5" y1="645.6875" y2="645.6875"/><text fill="#000000" font-family="sans-serif" font-size="13" font-weight="bold" lengthAdjust="spacing" textLength="18" x="912.5" y="640.6216">17</text><text fill="#000000" font-family="sans-serif" font-size="13" lengthAdjust="spacing" textLength="46" x="934.5" y="640.6216">listAGV</text><polygon fill="#181818" points="1473.5,670.8203,1483.5,674.8203,1473.5,678.8203,1477.5,674.8203" style="stroke:#181818;stroke-width:1.0;"/><line style="stroke:#181818;stroke-width:1.0;" x1="895.5" x2="1479.5" y1="674.8203" y2="674.8203"/><text fill="#000000" font-family="sans-serif" font-size="13" font-weight="bold" lengthAdjust="spacing" textLength="18" x="902.5" y="669.7544">18</text><text fill="#000000" font-family="sans-serif" font-size="13" lengthAdjust="spacing" textLength="89" x="924.5" y="669.7544">toDto(listAgv)</text><polygon fill="#181818" points="906.5,699.9531,896.5,703.9531,906.5,707.9531,902.5,703.9531" style="stroke:#181818;stroke-width:1.0;"/><line style="stroke:#181818;stroke-width:1.0;stroke-dasharray:2.0,2.0;" x1="900.5" x2="1489.5" y1="703.9531" y2="703.9531"/><text fill="#000000" font-family="sans-serif" font-size="13" font-weight="bold" lengthAdjust="spacing" textLength="18" x="912.5" y="698.8872">19</text><text fill="#000000" font-family="sans-serif" font-size="13" lengthAdjust="spacing" textLength="74" x="934.5" y="698.8872">listAGVDTO</text><polygon fill="#181818" points="705.5,729.0859,695.5,733.0859,705.5,737.0859,701.5,733.0859" style="stroke:#181818;stroke-width:1.0;"/><line style="stroke:#181818;stroke-width:1.0;stroke-dasharray:2.0,2.0;" x1="699.5" x2="889.5" y1="733.0859" y2="733.0859"/><text fill="#000000" font-family="sans-serif" font-size="13" font-weight="bold" lengthAdjust="spacing" textLength="19" x="711.5" y="728.02">20</text><text fill="#000000" font-family="sans-serif" font-size="13" lengthAdjust="spacing" textLength="74" x="734.5" y="728.02">listAGVDTO</text><polygon fill="#181818" points="1584,758.2188,1594,762.2188,1584,766.2188,1588,762.2188" style="stroke:#181818;stroke-width:1.0;"/><line style="stroke:#181818;stroke-width:1.0;stroke-dasharray:2.0,2.0;" x1="689.5" x2="1590" y1="762.2188" y2="762.2188"/><text fill="#000000" font-family="sans-serif" font-size="13" font-weight="bold" lengthAdjust="spacing" textLength="18" x="696.5" y="757.1528">21</text><text fill="#000000" font-family="sans-serif" font-size="13" lengthAdjust="spacing" textLength="74" x="718.5" y="757.1528">listAGVDTO</text><polygon fill="#181818" points="1952.5,787.3516,1962.5,791.3516,1952.5,795.3516,1956.5,791.3516" style="stroke:#181818;stroke-width:1.0;"/><line style="stroke:#181818;stroke-width:1.0;" x1="1606" x2="1958.5" y1="791.3516" y2="791.3516"/><text fill="#000000" font-family="sans-serif" font-size="13" font-weight="bold" lengthAdjust="spacing" textLength="18" x="1613" y="786.2856">22</text><text fill="#000000" font-family="sans-serif" font-size="13" lengthAdjust="spacing" textLength="111" x="1635" y="786.2856">create(sock,web)</text><polygon fill="#181818" points="1952.5,816.4844,1962.5,820.4844,1952.5,824.4844,1956.5,820.4844" style="stroke:#181818;stroke-width:1.0;"/><line style="stroke:#181818;stroke-width:1.0;" x1="1601" x2="1958.5" y1="820.4844" y2="820.4844"/><text fill="#000000" font-family="sans-serif" font-size="13" font-weight="bold" lengthAdjust="spacing" textLength="17" x="1608" y="815.4185">23</text><text fill="#000000" font-family="sans-serif" font-size="13" lengthAdjust="spacing" textLength="40" x="1629" y="815.4185">start()</text><polygon fill="#181818" points="1729.5,845.6172,1719.5,849.6172,1729.5,853.6172,1725.5,849.6172" style="stroke:#181818;stroke-width:1.0;"/><line style="stroke:#181818;stroke-width:1.0;" x1="1723.5" x2="1963.5" y1="849.6172" y2="849.6172"/><text fill="#000000" font-family="sans-serif" font-size="13" font-weight="bold" lengthAdjust="spacing" textLength="18" x="1735.5" y="844.5513">24</text><text fill="#000000" font-family="sans-serif" font-size="13" lengthAdjust="spacing" textLength="51" x="1757.5" y="844.5513">create()</text><polygon fill="#181818" points="2465,874.75,2475,878.75,2465,882.75,2469,878.75" style="stroke:#181818;stroke-width:1.0;"/><line style="stroke:#181818;stroke-width:1.0;" x1="1974.5" x2="2471" y1="878.75" y2="878.75"/><text fill="#000000" font-family="sans-serif" font-size="13" font-weight="bold" lengthAdjust="spacing" textLength="18" x="1981.5" y="873.6841">25</text><text fill="#000000" font-family="sans-serif" font-size="13" lengthAdjust="spacing" textLength="51" x="2003.5" y="873.6841">create()</text><polygon fill="#181818" points="2669,903.8828,2679,907.8828,2669,911.8828,2673,907.8828" style="stroke:#181818;stroke-width:1.0;"/><line style="stroke:#181818;stroke-width:1.0;" x1="1974.5" x2="2675" y1="907.8828" y2="907.8828"/><text fill="#000000" font-family="sans-serif" font-size="13" font-weight="bold" lengthAdjust="spacing" textLength="18" x="1981.5" y="902.8169">26</text><text fill="#000000" font-family="sans-serif" font-size="13" lengthAdjust="spacing" textLength="51" x="2003.5" y="902.8169">create()</text><polygon fill="#181818" points="1617,933.0156,1607,937.0156,1617,941.0156,1613,937.0156" style="stroke:#181818;stroke-width:1.0;"/><line style="stroke:#181818;stroke-width:1.0;" x1="1611" x2="1963.5" y1="937.0156" y2="937.0156"/><text fill="#000000" font-family="sans-serif" font-size="13" font-weight="bold" lengthAdjust="spacing" textLength="18" x="1623" y="931.9497">27</text><text fill="#000000" font-family="sans-serif" font-size="13" lengthAdjust="spacing" textLength="117" x="1645" y="931.9497">getStatusInHTML()</text><polygon fill="#181818" points="1952.5,962.1484,1962.5,966.1484,1952.5,970.1484,1956.5,966.1484" style="stroke:#181818;stroke-width:1.0;"/><line style="stroke:#181818;stroke-width:1.0;stroke-dasharray:2.0,2.0;" x1="1601" x2="1958.5" y1="966.1484" y2="966.1484"/><text fill="#000000" font-family="sans-serif" font-size="13" font-weight="bold" lengthAdjust="spacing" textLength="18" x="1608" y="961.0825">28</text><text fill="#000000" font-family="sans-serif" font-size="13" lengthAdjust="spacing" textLength="49" x="1630" y="961.0825">content</text><polygon fill="#181818" points="1734.5,991.2813,1724.5,995.2813,1734.5,999.2813,1730.5,995.2813" style="stroke:#181818;stroke-width:1.0;"/><line style="stroke:#181818;stroke-width:1.0;" x1="1728.5" x2="1963.5" y1="995.2813" y2="995.2813"/><text fill="#000000" font-family="sans-serif" font-size="13" font-weight="bold" lengthAdjust="spacing" textLength="18" x="1740.5" y="990.2153">29</text><text fill="#000000" font-family="sans-serif" font-size="13" lengthAdjust="spacing" textLength="200" x="1762.5" y="990.2153">setContentFromString(content)</text><polygon fill="#181818" points="1734.5,1020.4141,1724.5,1024.4141,1734.5,1028.4141,1730.5,1024.4141" style="stroke:#181818;stroke-width:1.0;"/><line style="stroke:#181818;stroke-width:1.0;" x1="1728.5" x2="1963.5" y1="1024.4141" y2="1024.4141"/><text fill="#000000" font-family="sans-serif" font-size="13" font-weight="bold" lengthAdjust="spacing" textLength="18" x="1740.5" y="1019.3481">30</text><text fill="#000000" font-family="sans-serif" font-size="13" lengthAdjust="spacing" textLength="190" x="1762.5" y="1019.3481">setResponseStatus("200 OK")</text><polygon fill="#181818" points="1734.5,1049.5469,1724.5,1053.5469,1734.5,1057.5469,1730.5,1053.5469" style="stroke:#181818;stroke-width:1.0;"/><line style="stroke:#181818;stroke-width:1.0;" x1="1728.5" x2="1963.5" y1="1053.5469" y2="1053.5469"/><text fill="#000000" font-family="sans-serif" font-size="13" font-weight="bold" lengthAdjust="spacing" textLength="17" x="1740.5" y="1048.481">31</text><text fill="#000000" font-family="sans-serif" font-size="13" lengthAdjust="spacing" textLength="83" x="1761.5" y="1048.481">send(output)</text><!--MD5=[0ba650d2936d549640d9f777189dd0e2]
@startuml
autonumber

actor "Warehouse Employee" as ADM
participant ":DashboardUI" as UI
participant ":DashboardController" as CTRL
participant ":AGVListService" as AS
participant ":PersistenceContext" as PC
participant ":RepositoryFactory" as RF
participant ":AGVRepository" as AGR
participant ":AGVMapper" as M
participant ":Dashboard" as DA
participant ":HTTPmessage" as ME
participant ":DashboardRequest" as DR
participant "listagvdto:List<AGVDTO>" as LL
participant ":SSLSocket" as SS
participant "output:DataOutputStream" as O
participant "input:DataInputStream" as I

activate ADM



 
ADM -> UI : asks for dashboard with info and position of each agv in the list

activate UI

UI -> CTRL : showDashboard()

activate CTRL 

CTRL -> DA : create()

CTRL -> DA : start()

deactivate CTRL

activate DA
DA -> LL: create

DA -> SS : create()

DA -> DA : importSSL()

loop while true

DA -> SS : accept()

activate SS

SS - -> DA : sock
deactivate SS


DA -> CTRL: listagvdto=getList()

activate CTRL


CTRL -> AS: create()


CTRL -> AS :listAvailableAGVSDTO()

activate AS

AS -> PC : repositories()

activate PC

PC -> RF: create()

activate RF

deactivate PC 

RF -> AGR : create()

deactivate RF

AS -> AGR : getAGVSByStatus(ASSIGNED)
activate AGR
AGR - -> AS : listAGV
deactivate AGR

AS -> M : toDto(listAgv)

activate M
 
M- -> AS : listAGVDTO

deactivate M

AS - -> CTRL :listAGVDTO

deactivate AS

CTRL - -> DA : listAGVDTO

deactivate CTRL


DA -> DR : create(sock,web)

activate DR 

DA -> DR : start()



deactivate DA




DR -> ME: create()

DR -> O : create()

DR -> I :create()

DR -> DA : getStatusInHTML()

activate DA

DA - -> DR : content

deactivate DA

DR -> ME : setContentFromString(content)
activate ME

DR -> ME : setResponseStatus("200 OK")

DR -> ME : send(output)

end loop

deactivate ME



deactivate DR

deactivate CTRL

deactivate UI

deactivate ADM
@enduml

PlantUML version 1.2022.6beta5(Unknown compile time)
(GPL source distribution)
Java Runtime: Java(TM) SE Runtime Environment
JVM: Java HotSpot(TM) 64-Bit Server VM
Default Encoding: UTF-8
Language: en
Country: US
--></g></svg>