<?xml version="1.0" encoding="UTF-8" standalone="no"?><svg xmlns="http://www.w3.org/2000/svg" xmlns:xlink="http://www.w3.org/1999/xlink" contentStyleType="text/css" height="1161px" preserveAspectRatio="none" style="width:828px;height:1161px;background:#FFFFFF;" version="1.1" viewBox="0 0 828 1161" width="828px" zoomAndPan="magnify"><defs/><g><!--MD5=[ddff7414943a2bcd8c3e70cf95058495]
class ConfigAGVUI--><g id="elem_ConfigAGVUI"><rect codeLine="1" fill="#F1F1F1" height="56.2656" id="ConfigAGVUI" rx="2.5" ry="2.5" style="stroke:#181818;stroke-width:0.5;" width="123" x="458.5" y="7"/><ellipse cx="473.5" cy="27.1328" fill="#ADD1B2" rx="11" ry="11" style="stroke:#181818;stroke-width:1.0;"/><path d="M475.8438,22.8047 C474.9063,22.3672 474.3125,22.2266 473.4375,22.2266 C470.8125,22.2266 468.8125,24.3047 468.8125,27.0234 L468.8125,28.1484 C468.8125,30.7266 470.9219,32.6172 473.8125,32.6172 C475.0313,32.6172 476.1875,32.3203 476.9375,31.7734 C477.5156,31.3672 477.8438,30.9141 477.8438,30.5234 C477.8438,30.0703 477.4531,29.6797 476.9844,29.6797 C476.7656,29.6797 476.5625,29.7578 476.375,29.9453 C475.9219,30.4297 475.9219,30.4297 475.7344,30.5234 C475.3125,30.7891 474.625,30.9141 473.8594,30.9141 C471.8125,30.9141 470.5156,29.8203 470.5156,28.1172 L470.5156,27.0234 C470.5156,25.2422 471.7656,23.9297 473.5,23.9297 C474.0781,23.9297 474.6875,24.0859 475.1563,24.3359 C475.6406,24.6172 475.8125,24.8359 475.9063,25.2422 C475.9688,25.6484 476,25.7734 476.1406,25.8984 C476.2813,26.0391 476.5156,26.1484 476.7344,26.1484 C477,26.1484 477.2656,26.0078 477.4375,25.7891 C477.5469,25.6328 477.5781,25.4453 477.5781,25.0234 L477.5781,23.6016 C477.5781,23.1641 477.5625,23.0391 477.4688,22.8828 C477.3125,22.6172 477.0313,22.4766 476.7344,22.4766 C476.4375,22.4766 476.2344,22.5703 476.0156,22.8828 L475.8438,22.8047 Z " fill="#000000"/><text fill="#000000" font-family="sans-serif" font-size="12" font-style="italic" lengthAdjust="spacing" textLength="89" x="488.5" y="23.1387">«Presentation»</text><text fill="#000000" font-family="sans-serif" font-size="14" lengthAdjust="spacing" textLength="91" x="487.5" y="38.9639">ConfigAGVUI</text><line style="stroke:#181818;stroke-width:0.5;" x1="459.5" x2="580.5" y1="47.2656" y2="47.2656"/><line style="stroke:#181818;stroke-width:0.5;" x1="459.5" x2="580.5" y1="55.2656" y2="55.2656"/></g><!--MD5=[d4ac025b4f1d776e5342dc81b24cbf8f]
class ConfigAGVController--><g id="elem_ConfigAGVController"><rect codeLine="6" fill="#F1F1F1" height="121.4531" id="ConfigAGVController" rx="2.5" ry="2.5" style="stroke:#181818;stroke-width:0.5;" width="602" x="219" y="123"/><ellipse cx="440.25" cy="143.1328" fill="#ADD1B2" rx="11" ry="11" style="stroke:#181818;stroke-width:1.0;"/><path d="M442.5938,138.8047 C441.6563,138.3672 441.0625,138.2266 440.1875,138.2266 C437.5625,138.2266 435.5625,140.3047 435.5625,143.0234 L435.5625,144.1484 C435.5625,146.7266 437.6719,148.6172 440.5625,148.6172 C441.7813,148.6172 442.9375,148.3203 443.6875,147.7734 C444.2656,147.3672 444.5938,146.9141 444.5938,146.5234 C444.5938,146.0703 444.2031,145.6797 443.7344,145.6797 C443.5156,145.6797 443.3125,145.7578 443.125,145.9453 C442.6719,146.4297 442.6719,146.4297 442.4844,146.5234 C442.0625,146.7891 441.375,146.9141 440.6094,146.9141 C438.5625,146.9141 437.2656,145.8203 437.2656,144.1172 L437.2656,143.0234 C437.2656,141.2422 438.5156,139.9297 440.25,139.9297 C440.8281,139.9297 441.4375,140.0859 441.9063,140.3359 C442.3906,140.6172 442.5625,140.8359 442.6563,141.2422 C442.7188,141.6484 442.75,141.7734 442.8906,141.8984 C443.0313,142.0391 443.2656,142.1484 443.4844,142.1484 C443.75,142.1484 444.0156,142.0078 444.1875,141.7891 C444.2969,141.6328 444.3281,141.4453 444.3281,141.0234 L444.3281,139.6016 C444.3281,139.1641 444.3125,139.0391 444.2188,138.8828 C444.0625,138.6172 443.7813,138.4766 443.4844,138.4766 C443.1875,138.4766 442.9844,138.5703 442.7656,138.8828 L442.5938,138.8047 Z " fill="#000000"/><text fill="#000000" font-family="sans-serif" font-size="12" font-style="italic" lengthAdjust="spacing" textLength="81" x="495.75" y="139.1387">«Application»</text><text fill="#000000" font-family="sans-serif" font-size="14" lengthAdjust="spacing" textLength="151" x="460.75" y="154.9639">ConfigAGVController</text><line style="stroke:#181818;stroke-width:0.5;" x1="220" x2="820" y1="163.2656" y2="163.2656"/><rect fill="none" height="6" style="stroke:#C82930;stroke-width:1.0;" width="6" x="227" y="171.2656"/><text fill="#000000" font-family="sans-serif" font-size="14" lengthAdjust="spacing" textLength="186" x="239" y="180.2607">ConfigAGVService service</text><line style="stroke:#181818;stroke-width:0.5;" x1="220" x2="820" y1="187.5625" y2="187.5625"/><ellipse cx="230" cy="198.5625" fill="#84BE84" rx="3" ry="3" style="stroke:#038048;stroke-width:1.0;"/><text fill="#000000" font-family="sans-serif" font-size="14" lengthAdjust="spacing" textLength="195" x="239" y="204.5576">retrieveAllAvailableDocks()</text><ellipse cx="230" cy="214.8594" fill="#84BE84" rx="3" ry="3" style="stroke:#038048;stroke-width:1.0;"/><text fill="#000000" font-family="sans-serif" font-size="14" lengthAdjust="spacing" textLength="576" x="239" y="220.8545">configureAGV(model, description, taskStatus, batteryAutonomy, dockIdentifier)</text><ellipse cx="230" cy="231.1563" fill="#84BE84" rx="3" ry="3" style="stroke:#038048;stroke-width:1.0;"/><text fill="#000000" font-family="sans-serif" font-size="14" lengthAdjust="spacing" textLength="143" x="239" y="237.1514">persistAGV(agvDto)</text></g><!--MD5=[972281c33f85b1f34981d47c16f2cdd9]
class ConfigAGVService--><g id="elem_ConfigAGVService"><rect codeLine="14" fill="#F1F1F1" height="154.0469" id="ConfigAGVService" rx="2.5" ry="2.5" style="stroke:#181818;stroke-width:0.5;" width="602" x="7" y="304"/><ellipse cx="238.25" cy="324.1328" fill="#ADD1B2" rx="11" ry="11" style="stroke:#181818;stroke-width:1.0;"/><path d="M240.5938,319.8047 C239.6563,319.3672 239.0625,319.2266 238.1875,319.2266 C235.5625,319.2266 233.5625,321.3047 233.5625,324.0234 L233.5625,325.1484 C233.5625,327.7266 235.6719,329.6172 238.5625,329.6172 C239.7813,329.6172 240.9375,329.3203 241.6875,328.7734 C242.2656,328.3672 242.5938,327.9141 242.5938,327.5234 C242.5938,327.0703 242.2031,326.6797 241.7344,326.6797 C241.5156,326.6797 241.3125,326.7578 241.125,326.9453 C240.6719,327.4297 240.6719,327.4297 240.4844,327.5234 C240.0625,327.7891 239.375,327.9141 238.6094,327.9141 C236.5625,327.9141 235.2656,326.8203 235.2656,325.1172 L235.2656,324.0234 C235.2656,322.2422 236.5156,320.9297 238.25,320.9297 C238.8281,320.9297 239.4375,321.0859 239.9063,321.3359 C240.3906,321.6172 240.5625,321.8359 240.6563,322.2422 C240.7188,322.6484 240.75,322.7734 240.8906,322.8984 C241.0313,323.0391 241.2656,323.1484 241.4844,323.1484 C241.75,323.1484 242.0156,323.0078 242.1875,322.7891 C242.2969,322.6328 242.3281,322.4453 242.3281,322.0234 L242.3281,320.6016 C242.3281,320.1641 242.3125,320.0391 242.2188,319.8828 C242.0625,319.6172 241.7813,319.4766 241.4844,319.4766 C241.1875,319.4766 240.9844,319.5703 240.7656,319.8828 L240.5938,319.8047 Z " fill="#000000"/><text fill="#000000" font-family="sans-serif" font-size="12" font-style="italic" lengthAdjust="spacing" textLength="58" x="295.25" y="320.1387">«Service»</text><text fill="#000000" font-family="sans-serif" font-size="14" lengthAdjust="spacing" textLength="131" x="258.75" y="335.9639">ConfigAGVService</text><line style="stroke:#181818;stroke-width:0.5;" x1="8" x2="608" y1="344.2656" y2="344.2656"/><rect fill="none" height="6" style="stroke:#C82930;stroke-width:1.0;" width="6" x="15" y="352.2656"/><text fill="#000000" font-family="sans-serif" font-size="14" lengthAdjust="spacing" textLength="232" x="27" y="361.2607">PersistenceContext persistence</text><rect fill="none" height="6" style="stroke:#C82930;stroke-width:1.0;" width="6" x="15" y="368.5625"/><text fill="#000000" font-family="sans-serif" font-size="14" lengthAdjust="spacing" textLength="135" x="27" y="377.5576">AGVBuilder builder</text><line style="stroke:#181818;stroke-width:0.5;" x1="8" x2="608" y1="384.8594" y2="384.8594"/><ellipse cx="18" cy="395.8594" fill="#84BE84" rx="3" ry="3" style="stroke:#038048;stroke-width:1.0;"/><text fill="#000000" font-family="sans-serif" font-size="14" lengthAdjust="spacing" textLength="576" x="27" y="401.8545">configureAGV(model, description, taskStatus, batteryAutonomy, dockIdentifier)</text><ellipse cx="18" cy="412.1563" fill="#84BE84" rx="3" ry="3" style="stroke:#038048;stroke-width:1.0;"/><text fill="#000000" font-family="sans-serif" font-size="14" lengthAdjust="spacing" textLength="57" x="27" y="418.1514">create()</text><ellipse cx="18" cy="428.4531" fill="#84BE84" rx="3" ry="3" style="stroke:#038048;stroke-width:1.0;"/><text fill="#000000" font-family="sans-serif" font-size="14" lengthAdjust="spacing" textLength="143" x="27" y="434.4482">persistAGV(agvDto)</text><ellipse cx="18" cy="444.75" fill="#84BE84" rx="3" ry="3" style="stroke:#038048;stroke-width:1.0;"/><text fill="#000000" font-family="sans-serif" font-size="14" lengthAdjust="spacing" textLength="195" x="27" y="450.7451">retrieveAllAvailableDocks()</text></g><!--MD5=[a2934c79e3adc781b0cd87c74812aba5]
class AGVRepository--><g id="elem_AGVRepository"><rect codeLine="23" fill="#F1F1F1" height="72.5625" id="AGVRepository" rx="2.5" ry="2.5" style="stroke:#181818;stroke-width:0.5;" width="142" x="381" y="816"/><ellipse cx="396" cy="836.1328" fill="#ADD1B2" rx="11" ry="11" style="stroke:#181818;stroke-width:1.0;"/><path d="M398.3438,831.8047 C397.4063,831.3672 396.8125,831.2266 395.9375,831.2266 C393.3125,831.2266 391.3125,833.3047 391.3125,836.0234 L391.3125,837.1484 C391.3125,839.7266 393.4219,841.6172 396.3125,841.6172 C397.5313,841.6172 398.6875,841.3203 399.4375,840.7734 C400.0156,840.3672 400.3438,839.9141 400.3438,839.5234 C400.3438,839.0703 399.9531,838.6797 399.4844,838.6797 C399.2656,838.6797 399.0625,838.7578 398.875,838.9453 C398.4219,839.4297 398.4219,839.4297 398.2344,839.5234 C397.8125,839.7891 397.125,839.9141 396.3594,839.9141 C394.3125,839.9141 393.0156,838.8203 393.0156,837.1172 L393.0156,836.0234 C393.0156,834.2422 394.2656,832.9297 396,832.9297 C396.5781,832.9297 397.1875,833.0859 397.6563,833.3359 C398.1406,833.6172 398.3125,833.8359 398.4063,834.2422 C398.4688,834.6484 398.5,834.7734 398.6406,834.8984 C398.7813,835.0391 399.0156,835.1484 399.2344,835.1484 C399.5,835.1484 399.7656,835.0078 399.9375,834.7891 C400.0469,834.6328 400.0781,834.4453 400.0781,834.0234 L400.0781,832.6016 C400.0781,832.1641 400.0625,832.0391 399.9688,831.8828 C399.8125,831.6172 399.5313,831.4766 399.2344,831.4766 C398.9375,831.4766 398.7344,831.5703 398.5156,831.8828 L398.3438,831.8047 Z " fill="#000000"/><text fill="#000000" font-family="sans-serif" font-size="12" font-style="italic" lengthAdjust="spacing" textLength="82" x="424" y="832.1387">«Persistence»</text><text fill="#000000" font-family="sans-serif" font-size="14" lengthAdjust="spacing" textLength="110" x="410" y="847.9639">AGVRepository</text><line style="stroke:#181818;stroke-width:0.5;" x1="382" x2="522" y1="856.2656" y2="856.2656"/><line style="stroke:#181818;stroke-width:0.5;" x1="382" x2="522" y1="864.2656" y2="864.2656"/><ellipse cx="392" cy="875.2656" fill="#84BE84" rx="3" ry="3" style="stroke:#038048;stroke-width:1.0;"/><text fill="#000000" font-family="sans-serif" font-size="14" lengthAdjust="spacing" textLength="67" x="401" y="881.2607">save(agv)</text></g><!--MD5=[050412dd439d0e0a7cca4a94c8dbd31e]
class AgvDockRepository--><g id="elem_AgvDockRepository"><rect codeLine="29" fill="#F1F1F1" height="72.5625" id="AgvDockRepository" rx="2.5" ry="2.5" style="stroke:#181818;stroke-width:0.5;" width="175" x="568.5" y="816"/><ellipse cx="583.5" cy="836.1328" fill="#ADD1B2" rx="11" ry="11" style="stroke:#181818;stroke-width:1.0;"/><path d="M585.8438,831.8047 C584.9063,831.3672 584.3125,831.2266 583.4375,831.2266 C580.8125,831.2266 578.8125,833.3047 578.8125,836.0234 L578.8125,837.1484 C578.8125,839.7266 580.9219,841.6172 583.8125,841.6172 C585.0313,841.6172 586.1875,841.3203 586.9375,840.7734 C587.5156,840.3672 587.8438,839.9141 587.8438,839.5234 C587.8438,839.0703 587.4531,838.6797 586.9844,838.6797 C586.7656,838.6797 586.5625,838.7578 586.375,838.9453 C585.9219,839.4297 585.9219,839.4297 585.7344,839.5234 C585.3125,839.7891 584.625,839.9141 583.8594,839.9141 C581.8125,839.9141 580.5156,838.8203 580.5156,837.1172 L580.5156,836.0234 C580.5156,834.2422 581.7656,832.9297 583.5,832.9297 C584.0781,832.9297 584.6875,833.0859 585.1563,833.3359 C585.6406,833.6172 585.8125,833.8359 585.9063,834.2422 C585.9688,834.6484 586,834.7734 586.1406,834.8984 C586.2813,835.0391 586.5156,835.1484 586.7344,835.1484 C587,835.1484 587.2656,835.0078 587.4375,834.7891 C587.5469,834.6328 587.5781,834.4453 587.5781,834.0234 L587.5781,832.6016 C587.5781,832.1641 587.5625,832.0391 587.4688,831.8828 C587.3125,831.6172 587.0313,831.4766 586.7344,831.4766 C586.4375,831.4766 586.2344,831.5703 586.0156,831.8828 L585.8438,831.8047 Z " fill="#000000"/><text fill="#000000" font-family="sans-serif" font-size="12" font-style="italic" lengthAdjust="spacing" textLength="82" x="628" y="832.1387">«Persistence»</text><text fill="#000000" font-family="sans-serif" font-size="14" lengthAdjust="spacing" textLength="143" x="597.5" y="847.9639">AgvDockRepository</text><line style="stroke:#181818;stroke-width:0.5;" x1="569.5" x2="742.5" y1="856.2656" y2="856.2656"/><line style="stroke:#181818;stroke-width:0.5;" x1="569.5" x2="742.5" y1="864.2656" y2="864.2656"/><ellipse cx="579.5" cy="875.2656" fill="#84BE84" rx="3" ry="3" style="stroke:#038048;stroke-width:1.0;"/><text fill="#000000" font-family="sans-serif" font-size="14" lengthAdjust="spacing" textLength="56" x="588.5" y="881.2607">findAll()</text></g><!--MD5=[53b2c06ade5903185ca3326dce80e141]
class AGV--><g id="elem_AGV"><rect codeLine="34" fill="#F1F1F1" height="72.5625" id="AGV" rx="2.5" ry="2.5" style="stroke:#181818;stroke-width:0.5;" width="550" x="33" y="949"/><ellipse cx="275.75" cy="969.1328" fill="#ADD1B2" rx="11" ry="11" style="stroke:#181818;stroke-width:1.0;"/><path d="M278.0938,964.8047 C277.1563,964.3672 276.5625,964.2266 275.6875,964.2266 C273.0625,964.2266 271.0625,966.3047 271.0625,969.0234 L271.0625,970.1484 C271.0625,972.7266 273.1719,974.6172 276.0625,974.6172 C277.2813,974.6172 278.4375,974.3203 279.1875,973.7734 C279.7656,973.3672 280.0938,972.9141 280.0938,972.5234 C280.0938,972.0703 279.7031,971.6797 279.2344,971.6797 C279.0156,971.6797 278.8125,971.7578 278.625,971.9453 C278.1719,972.4297 278.1719,972.4297 277.9844,972.5234 C277.5625,972.7891 276.875,972.9141 276.1094,972.9141 C274.0625,972.9141 272.7656,971.8203 272.7656,970.1172 L272.7656,969.0234 C272.7656,967.2422 274.0156,965.9297 275.75,965.9297 C276.3281,965.9297 276.9375,966.0859 277.4063,966.3359 C277.8906,966.6172 278.0625,966.8359 278.1563,967.2422 C278.2188,967.6484 278.25,967.7734 278.3906,967.8984 C278.5313,968.0391 278.7656,968.1484 278.9844,968.1484 C279.25,968.1484 279.5156,968.0078 279.6875,967.7891 C279.7969,967.6328 279.8281,967.4453 279.8281,967.0234 L279.8281,965.6016 C279.8281,965.1641 279.8125,965.0391 279.7188,964.8828 C279.5625,964.6172 279.2813,964.4766 278.9844,964.4766 C278.6875,964.4766 278.4844,964.5703 278.2656,964.8828 L278.0938,964.8047 Z " fill="#000000"/><text fill="#000000" font-family="sans-serif" font-size="12" font-style="italic" lengthAdjust="spacing" textLength="60" x="294.25" y="965.1387">«Domain»</text><text fill="#000000" font-family="sans-serif" font-size="14" lengthAdjust="spacing" textLength="31" x="308.75" y="980.9639">AGV</text><line style="stroke:#181818;stroke-width:0.5;" x1="34" x2="582" y1="989.2656" y2="989.2656"/><line style="stroke:#181818;stroke-width:0.5;" x1="34" x2="582" y1="997.2656" y2="997.2656"/><ellipse cx="44" cy="1008.2656" fill="#84BE84" rx="3" ry="3" style="stroke:#038048;stroke-width:1.0;"/><text fill="#000000" font-family="sans-serif" font-size="14" lengthAdjust="spacing" textLength="524" x="53" y="1014.2607">create(model, description, taskStatus, batteryAutonomy, dockIdentifier)</text></g><!--MD5=[07227ca36c2aec0d365e6614365f77a0]
class AgvDock--><g id="elem_AgvDock"><rect codeLine="40" fill="#F1F1F1" height="72.5625" id="AgvDock" rx="2.5" ry="2.5" style="stroke:#181818;stroke-width:0.5;" width="96" x="618" y="949"/><ellipse cx="633" cy="969.1328" fill="#ADD1B2" rx="11" ry="11" style="stroke:#181818;stroke-width:1.0;"/><path d="M635.3438,964.8047 C634.4063,964.3672 633.8125,964.2266 632.9375,964.2266 C630.3125,964.2266 628.3125,966.3047 628.3125,969.0234 L628.3125,970.1484 C628.3125,972.7266 630.4219,974.6172 633.3125,974.6172 C634.5313,974.6172 635.6875,974.3203 636.4375,973.7734 C637.0156,973.3672 637.3438,972.9141 637.3438,972.5234 C637.3438,972.0703 636.9531,971.6797 636.4844,971.6797 C636.2656,971.6797 636.0625,971.7578 635.875,971.9453 C635.4219,972.4297 635.4219,972.4297 635.2344,972.5234 C634.8125,972.7891 634.125,972.9141 633.3594,972.9141 C631.3125,972.9141 630.0156,971.8203 630.0156,970.1172 L630.0156,969.0234 C630.0156,967.2422 631.2656,965.9297 633,965.9297 C633.5781,965.9297 634.1875,966.0859 634.6563,966.3359 C635.1406,966.6172 635.3125,966.8359 635.4063,967.2422 C635.4688,967.6484 635.5,967.7734 635.6406,967.8984 C635.7813,968.0391 636.0156,968.1484 636.2344,968.1484 C636.5,968.1484 636.7656,968.0078 636.9375,967.7891 C637.0469,967.6328 637.0781,967.4453 637.0781,967.0234 L637.0781,965.6016 C637.0781,965.1641 637.0625,965.0391 636.9688,964.8828 C636.8125,964.6172 636.5313,964.4766 636.2344,964.4766 C635.9375,964.4766 635.7344,964.5703 635.5156,964.8828 L635.3438,964.8047 Z " fill="#000000"/><text fill="#000000" font-family="sans-serif" font-size="12" font-style="italic" lengthAdjust="spacing" textLength="60" x="649" y="965.1387">«Domain»</text><text fill="#000000" font-family="sans-serif" font-size="14" lengthAdjust="spacing" textLength="64" x="647" y="980.9639">AgvDock</text><line style="stroke:#181818;stroke-width:0.5;" x1="619" x2="713" y1="989.2656" y2="989.2656"/><line style="stroke:#181818;stroke-width:0.5;" x1="619" x2="713" y1="997.2656" y2="997.2656"/><ellipse cx="629" cy="1008.2656" fill="#84BE84" rx="3" ry="3" style="stroke:#038048;stroke-width:1.0;"/><text fill="#000000" font-family="sans-serif" font-size="14" lengthAdjust="spacing" textLength="57" x="638" y="1014.2607">create()</text></g><!--MD5=[e180f958ee364078c6fda1e6e99d9a8e]
class AGVDTO--><g id="elem_AGVDTO"><rect codeLine="44" fill="#F1F1F1" height="72.5625" id="AGVDTO" rx="2.5" ry="2.5" style="stroke:#181818;stroke-width:0.5;" width="94" x="261" y="1082"/><ellipse cx="276" cy="1102.1328" fill="#ADD1B2" rx="11" ry="11" style="stroke:#181818;stroke-width:1.0;"/><path d="M278.3438,1097.8047 C277.4063,1097.3672 276.8125,1097.2266 275.9375,1097.2266 C273.3125,1097.2266 271.3125,1099.3047 271.3125,1102.0234 L271.3125,1103.1484 C271.3125,1105.7266 273.4219,1107.6172 276.3125,1107.6172 C277.5313,1107.6172 278.6875,1107.3203 279.4375,1106.7734 C280.0156,1106.3672 280.3438,1105.9141 280.3438,1105.5234 C280.3438,1105.0703 279.9531,1104.6797 279.4844,1104.6797 C279.2656,1104.6797 279.0625,1104.7578 278.875,1104.9453 C278.4219,1105.4297 278.4219,1105.4297 278.2344,1105.5234 C277.8125,1105.7891 277.125,1105.9141 276.3594,1105.9141 C274.3125,1105.9141 273.0156,1104.8203 273.0156,1103.1172 L273.0156,1102.0234 C273.0156,1100.2422 274.2656,1098.9297 276,1098.9297 C276.5781,1098.9297 277.1875,1099.0859 277.6563,1099.3359 C278.1406,1099.6172 278.3125,1099.8359 278.4063,1100.2422 C278.4688,1100.6484 278.5,1100.7734 278.6406,1100.8984 C278.7813,1101.0391 279.0156,1101.1484 279.2344,1101.1484 C279.5,1101.1484 279.7656,1101.0078 279.9375,1100.7891 C280.0469,1100.6328 280.0781,1100.4453 280.0781,1100.0234 L280.0781,1098.6016 C280.0781,1098.1641 280.0625,1098.0391 279.9688,1097.8828 C279.8125,1097.6172 279.5313,1097.4766 279.2344,1097.4766 C278.9375,1097.4766 278.7344,1097.5703 278.5156,1097.8828 L278.3438,1097.8047 Z " fill="#000000"/><text fill="#000000" font-family="sans-serif" font-size="12" font-style="italic" lengthAdjust="spacing" textLength="39" x="301.5" y="1098.1387">«DTO»</text><text fill="#000000" font-family="sans-serif" font-size="14" lengthAdjust="spacing" textLength="62" x="290" y="1113.9639">AGVDTO</text><line style="stroke:#181818;stroke-width:0.5;" x1="262" x2="354" y1="1122.2656" y2="1122.2656"/><line style="stroke:#181818;stroke-width:0.5;" x1="262" x2="354" y1="1130.2656" y2="1130.2656"/><ellipse cx="272" cy="1141.2656" fill="#84BE84" rx="3" ry="3" style="stroke:#038048;stroke-width:1.0;"/><text fill="#000000" font-family="sans-serif" font-size="14" lengthAdjust="spacing" textLength="57" x="281" y="1147.2607">toDTO()</text></g><!--MD5=[853fd38d39b818cc4e65538ef1758bc9]
class DockDTO--><g id="elem_DockDTO"><rect codeLine="48" fill="#F1F1F1" height="72.5625" id="DockDTO" rx="2.5" ry="2.5" style="stroke:#181818;stroke-width:0.5;" width="100" x="616" y="1082"/><ellipse cx="631" cy="1102.1328" fill="#ADD1B2" rx="11" ry="11" style="stroke:#181818;stroke-width:1.0;"/><path d="M633.3438,1097.8047 C632.4063,1097.3672 631.8125,1097.2266 630.9375,1097.2266 C628.3125,1097.2266 626.3125,1099.3047 626.3125,1102.0234 L626.3125,1103.1484 C626.3125,1105.7266 628.4219,1107.6172 631.3125,1107.6172 C632.5313,1107.6172 633.6875,1107.3203 634.4375,1106.7734 C635.0156,1106.3672 635.3438,1105.9141 635.3438,1105.5234 C635.3438,1105.0703 634.9531,1104.6797 634.4844,1104.6797 C634.2656,1104.6797 634.0625,1104.7578 633.875,1104.9453 C633.4219,1105.4297 633.4219,1105.4297 633.2344,1105.5234 C632.8125,1105.7891 632.125,1105.9141 631.3594,1105.9141 C629.3125,1105.9141 628.0156,1104.8203 628.0156,1103.1172 L628.0156,1102.0234 C628.0156,1100.2422 629.2656,1098.9297 631,1098.9297 C631.5781,1098.9297 632.1875,1099.0859 632.6563,1099.3359 C633.1406,1099.6172 633.3125,1099.8359 633.4063,1100.2422 C633.4688,1100.6484 633.5,1100.7734 633.6406,1100.8984 C633.7813,1101.0391 634.0156,1101.1484 634.2344,1101.1484 C634.5,1101.1484 634.7656,1101.0078 634.9375,1100.7891 C635.0469,1100.6328 635.0781,1100.4453 635.0781,1100.0234 L635.0781,1098.6016 C635.0781,1098.1641 635.0625,1098.0391 634.9688,1097.8828 C634.8125,1097.6172 634.5313,1097.4766 634.2344,1097.4766 C633.9375,1097.4766 633.7344,1097.5703 633.5156,1097.8828 L633.3438,1097.8047 Z " fill="#000000"/><text fill="#000000" font-family="sans-serif" font-size="12" font-style="italic" lengthAdjust="spacing" textLength="39" x="659.5" y="1098.1387">«DTO»</text><text fill="#000000" font-family="sans-serif" font-size="14" lengthAdjust="spacing" textLength="68" x="645" y="1113.9639">DockDTO</text><line style="stroke:#181818;stroke-width:0.5;" x1="617" x2="715" y1="1122.2656" y2="1122.2656"/><line style="stroke:#181818;stroke-width:0.5;" x1="617" x2="715" y1="1130.2656" y2="1130.2656"/><text fill="#000000" font-family="sans-serif" font-size="14" lengthAdjust="spacing" textLength="57" x="622" y="1147.2607">toDTO()</text></g><!--MD5=[1492755b760eb6c3b1fc4ef1ae992bd5]
class AGVBuilder--><g id="elem_AGVBuilder"><rect codeLine="51" fill="#F1F1F1" height="96.8906" id="AGVBuilder" rx="2.5" ry="2.5" style="stroke:#181818;stroke-width:0.5;" width="113" x="251.5" y="659"/><ellipse cx="266.5" cy="675" fill="#ADD1B2" rx="11" ry="11" style="stroke:#181818;stroke-width:1.0;"/><path d="M268.8438,670.6719 C267.9063,670.2344 267.3125,670.0938 266.4375,670.0938 C263.8125,670.0938 261.8125,672.1719 261.8125,674.8906 L261.8125,676.0156 C261.8125,678.5938 263.9219,680.4844 266.8125,680.4844 C268.0313,680.4844 269.1875,680.1875 269.9375,679.6406 C270.5156,679.2344 270.8438,678.7813 270.8438,678.3906 C270.8438,677.9375 270.4531,677.5469 269.9844,677.5469 C269.7656,677.5469 269.5625,677.625 269.375,677.8125 C268.9219,678.2969 268.9219,678.2969 268.7344,678.3906 C268.3125,678.6563 267.625,678.7813 266.8594,678.7813 C264.8125,678.7813 263.5156,677.6875 263.5156,675.9844 L263.5156,674.8906 C263.5156,673.1094 264.7656,671.7969 266.5,671.7969 C267.0781,671.7969 267.6875,671.9531 268.1563,672.2031 C268.6406,672.4844 268.8125,672.7031 268.9063,673.1094 C268.9688,673.5156 269,673.6406 269.1406,673.7656 C269.2813,673.9063 269.5156,674.0156 269.7344,674.0156 C270,674.0156 270.2656,673.875 270.4375,673.6563 C270.5469,673.5 270.5781,673.3125 270.5781,672.8906 L270.5781,671.4688 C270.5781,671.0313 270.5625,670.9063 270.4688,670.75 C270.3125,670.4844 270.0313,670.3438 269.7344,670.3438 C269.4375,670.3438 269.2344,670.4375 269.0156,670.75 L268.8438,670.6719 Z " fill="#000000"/><text fill="#000000" font-family="sans-serif" font-size="14" lengthAdjust="spacing" textLength="81" x="280.5" y="679.8467">AGVBuilder</text><line style="stroke:#181818;stroke-width:0.5;" x1="252.5" x2="363.5" y1="691" y2="691"/><line style="stroke:#181818;stroke-width:0.5;" x1="252.5" x2="363.5" y1="699" y2="699"/><ellipse cx="262.5" cy="710" fill="#84BE84" rx="3" ry="3" style="stroke:#038048;stroke-width:1.0;"/><text fill="#000000" font-family="sans-serif" font-size="14" lengthAdjust="spacing" textLength="57" x="271.5" y="715.9951">create()</text><ellipse cx="262.5" cy="726.2969" fill="#84BE84" rx="3" ry="3" style="stroke:#038048;stroke-width:1.0;"/><text fill="#000000" font-family="sans-serif" font-size="14" lengthAdjust="spacing" textLength="45" x="271.5" y="732.292">build()</text><ellipse cx="262.5" cy="742.5938" fill="#84BE84" rx="3" ry="3" style="stroke:#038048;stroke-width:1.0;"/><text fill="#000000" font-family="sans-serif" font-size="14" lengthAdjust="spacing" textLength="56" x="271.5" y="748.5889">sets(all)</text></g><!--MD5=[48590afff58a68e2fcba47824d6f8a11]
class RepositoryFactory--><g id="elem_RepositoryFactory"><rect codeLine="58" fill="#F1F1F1" height="96.8906" id="RepositoryFactory" rx="2.5" ry="2.5" style="stroke:#181818;stroke-width:0.5;" width="228" x="456" y="659"/><ellipse cx="499.35" cy="675" fill="#ADD1B2" rx="11" ry="11" style="stroke:#181818;stroke-width:1.0;"/><path d="M501.6938,670.6719 C500.7563,670.2344 500.1625,670.0938 499.2875,670.0938 C496.6625,670.0938 494.6625,672.1719 494.6625,674.8906 L494.6625,676.0156 C494.6625,678.5938 496.7719,680.4844 499.6625,680.4844 C500.8813,680.4844 502.0375,680.1875 502.7875,679.6406 C503.3656,679.2344 503.6938,678.7813 503.6938,678.3906 C503.6938,677.9375 503.3031,677.5469 502.8344,677.5469 C502.6156,677.5469 502.4125,677.625 502.225,677.8125 C501.7719,678.2969 501.7719,678.2969 501.5844,678.3906 C501.1625,678.6563 500.475,678.7813 499.7094,678.7813 C497.6625,678.7813 496.3656,677.6875 496.3656,675.9844 L496.3656,674.8906 C496.3656,673.1094 497.6156,671.7969 499.35,671.7969 C499.9281,671.7969 500.5375,671.9531 501.0063,672.2031 C501.4906,672.4844 501.6625,672.7031 501.7563,673.1094 C501.8188,673.5156 501.85,673.6406 501.9906,673.7656 C502.1313,673.9063 502.3656,674.0156 502.5844,674.0156 C502.85,674.0156 503.1156,673.875 503.2875,673.6563 C503.3969,673.5 503.4281,673.3125 503.4281,672.8906 L503.4281,671.4688 C503.4281,671.0313 503.4125,670.9063 503.3188,670.75 C503.1625,670.4844 502.8813,670.3438 502.5844,670.3438 C502.2875,670.3438 502.0844,670.4375 501.8656,670.75 L501.6938,670.6719 Z " fill="#000000"/><text fill="#000000" font-family="sans-serif" font-size="14" lengthAdjust="spacing" textLength="133" x="519.65" y="679.8467">RepositoryFactory</text><line style="stroke:#181818;stroke-width:0.5;" x1="457" x2="683" y1="691" y2="691"/><rect fill="none" height="6" style="stroke:#C82930;stroke-width:1.0;" width="6" x="464" y="699"/><text fill="#000000" font-family="sans-serif" font-size="14" lengthAdjust="spacing" textLength="158" x="476" y="707.9951">AGVRepository repoA</text><rect fill="none" height="6" style="stroke:#C82930;stroke-width:1.0;" width="6" x="464" y="715.2969"/><text fill="#000000" font-family="sans-serif" font-size="14" lengthAdjust="spacing" textLength="202" x="476" y="724.292">AgvDockRepository repoAD</text><line style="stroke:#181818;stroke-width:0.5;" x1="457" x2="683" y1="731.5938" y2="731.5938"/><ellipse cx="467" cy="742.5938" fill="#84BE84" rx="3" ry="3" style="stroke:#038048;stroke-width:1.0;"/><text fill="#000000" font-family="sans-serif" font-size="14" lengthAdjust="spacing" textLength="57" x="476" y="748.5889">create()</text></g><!--MD5=[e8c189551b7885b999ad7cefb30fc2a3]
class PersistenceContext--><g id="elem_PersistenceContext"><rect codeLine="65" fill="#F1F1F1" height="80.5938" id="PersistenceContext" rx="2.5" ry="2.5" style="stroke:#181818;stroke-width:0.5;" width="175" x="482.5" y="518"/><ellipse cx="497.5" cy="534" fill="#ADD1B2" rx="11" ry="11" style="stroke:#181818;stroke-width:1.0;"/><path d="M499.8438,529.6719 C498.9063,529.2344 498.3125,529.0938 497.4375,529.0938 C494.8125,529.0938 492.8125,531.1719 492.8125,533.8906 L492.8125,535.0156 C492.8125,537.5938 494.9219,539.4844 497.8125,539.4844 C499.0313,539.4844 500.1875,539.1875 500.9375,538.6406 C501.5156,538.2344 501.8438,537.7813 501.8438,537.3906 C501.8438,536.9375 501.4531,536.5469 500.9844,536.5469 C500.7656,536.5469 500.5625,536.625 500.375,536.8125 C499.9219,537.2969 499.9219,537.2969 499.7344,537.3906 C499.3125,537.6563 498.625,537.7813 497.8594,537.7813 C495.8125,537.7813 494.5156,536.6875 494.5156,534.9844 L494.5156,533.8906 C494.5156,532.1094 495.7656,530.7969 497.5,530.7969 C498.0781,530.7969 498.6875,530.9531 499.1563,531.2031 C499.6406,531.4844 499.8125,531.7031 499.9063,532.1094 C499.9688,532.5156 500,532.6406 500.1406,532.7656 C500.2813,532.9063 500.5156,533.0156 500.7344,533.0156 C501,533.0156 501.2656,532.875 501.4375,532.6563 C501.5469,532.5 501.5781,532.3125 501.5781,531.8906 L501.5781,530.4688 C501.5781,530.0313 501.5625,529.9063 501.4688,529.75 C501.3125,529.4844 501.0313,529.3438 500.7344,529.3438 C500.4375,529.3438 500.2344,529.4375 500.0156,529.75 L499.8438,529.6719 Z " fill="#000000"/><text fill="#000000" font-family="sans-serif" font-size="14" lengthAdjust="spacing" textLength="143" x="511.5" y="538.8467">PersistenceContext</text><line style="stroke:#181818;stroke-width:0.5;" x1="483.5" x2="656.5" y1="550" y2="550"/><line style="stroke:#181818;stroke-width:0.5;" x1="483.5" x2="656.5" y1="558" y2="558"/><ellipse cx="493.5" cy="569" fill="#84BE84" rx="3" ry="3" style="stroke:#038048;stroke-width:1.0;"/><text fill="#000000" font-family="sans-serif" font-size="14" lengthAdjust="spacing" textLength="57" x="502.5" y="574.9951">create()</text><ellipse cx="493.5" cy="585.2969" fill="#84BE84" rx="3" ry="3" style="stroke:#038048;stroke-width:1.0;"/><text fill="#000000" font-family="sans-serif" font-size="14" lengthAdjust="spacing" textLength="97" x="502.5" y="591.292">repositories()</text></g><!--MD5=[dfa1317a47d4a711cd29057d2830d79a]
class ListAgvDockService--><g id="elem_ListAgvDockService"><rect fill="#F1F1F1" height="48" id="ListAgvDockService" rx="2.5" ry="2.5" style="stroke:#181818;stroke-width:0.5;" width="175" x="644.5" y="357"/><ellipse cx="659.5" cy="373" fill="#ADD1B2" rx="11" ry="11" style="stroke:#181818;stroke-width:1.0;"/><path d="M661.8438,368.6719 C660.9063,368.2344 660.3125,368.0938 659.4375,368.0938 C656.8125,368.0938 654.8125,370.1719 654.8125,372.8906 L654.8125,374.0156 C654.8125,376.5938 656.9219,378.4844 659.8125,378.4844 C661.0313,378.4844 662.1875,378.1875 662.9375,377.6406 C663.5156,377.2344 663.8438,376.7813 663.8438,376.3906 C663.8438,375.9375 663.4531,375.5469 662.9844,375.5469 C662.7656,375.5469 662.5625,375.625 662.375,375.8125 C661.9219,376.2969 661.9219,376.2969 661.7344,376.3906 C661.3125,376.6563 660.625,376.7813 659.8594,376.7813 C657.8125,376.7813 656.5156,375.6875 656.5156,373.9844 L656.5156,372.8906 C656.5156,371.1094 657.7656,369.7969 659.5,369.7969 C660.0781,369.7969 660.6875,369.9531 661.1563,370.2031 C661.6406,370.4844 661.8125,370.7031 661.9063,371.1094 C661.9688,371.5156 662,371.6406 662.1406,371.7656 C662.2813,371.9063 662.5156,372.0156 662.7344,372.0156 C663,372.0156 663.2656,371.875 663.4375,371.6563 C663.5469,371.5 663.5781,371.3125 663.5781,370.8906 L663.5781,369.4688 C663.5781,369.0313 663.5625,368.9063 663.4688,368.75 C663.3125,368.4844 663.0313,368.3438 662.7344,368.3438 C662.4375,368.3438 662.2344,368.4375 662.0156,368.75 L661.8438,368.6719 Z " fill="#000000"/><text fill="#000000" font-family="sans-serif" font-size="14" lengthAdjust="spacing" textLength="143" x="673.5" y="377.8467">ListAgvDockService</text><line style="stroke:#181818;stroke-width:0.5;" x1="645.5" x2="818.5" y1="389" y2="389"/><line style="stroke:#181818;stroke-width:0.5;" x1="645.5" x2="818.5" y1="397" y2="397"/></g><!--MD5=[2dcae6bd21d4b45891b39d6ec7e9b8d0]
link ConfigAGVUI to ConfigAGVController--><g id="link_ConfigAGVUI_ConfigAGVController"><path codeLine="71" d="M520,63.21 C520,78.57 520,98.46 520,117.58 " fill="none" id="ConfigAGVUI-to-ConfigAGVController" style="stroke:#181818;stroke-width:1.0;stroke-dasharray:7.0,7.0;"/><polygon fill="#181818" points="520,122.95,524,113.95,520,117.95,516,113.95,520,122.95" style="stroke:#181818;stroke-width:1.0;"/></g><!--MD5=[f3b59e3796a6152827f74bb7cef63891]
link ConfigAGVController to ConfigAGVService--><g id="link_ConfigAGVController_ConfigAGVService"><path codeLine="73" d="M455.241,244.219 C436.097,261.873 414.827,281.487 394.542,300.194 " fill="none" id="ConfigAGVController-to-ConfigAGVService" style="stroke:#181818;stroke-width:1.0;stroke-dasharray:7.0,7.0;"/><polygon fill="#181818" points="390.766,303.675,400.0944,300.5157,394.4422,300.286,394.672,294.6338,390.766,303.675" style="stroke:#181818;stroke-width:1.0;"/></g><!--MD5=[0bebc065f9cb9ee8629cff835d92bd9c]
link ConfigAGVController to ListAgvDockService--><g id="link_ConfigAGVController_ListAgvDockService"><path codeLine="75" d="M584.759,244.219 C624.148,280.542 672.538,325.166 702.834,353.104 " fill="none" id="ConfigAGVController-to-ListAgvDockService" style="stroke:#181818;stroke-width:1.0;stroke-dasharray:7.0,7.0;"/><polygon fill="#181818" points="706.802,356.764,702.8979,347.722,703.1265,353.3742,697.4743,353.6028,706.802,356.764" style="stroke:#181818;stroke-width:1.0;"/></g><!--MD5=[3f2fbce6dd82022221657a272acc5280]
link ListAgvDockService to PersistenceContext--><g id="link_ListAgvDockService_PersistenceContext"><path codeLine="77" d="M710.488,405.305 C684.91,433.014 641.696,479.829 609.935,514.237 " fill="none" id="ListAgvDockService-to-PersistenceContext" style="stroke:#181818;stroke-width:1.0;stroke-dasharray:7.0,7.0;"/><polygon fill="#181818" points="606.511,517.947,615.5546,514.0466,609.9023,514.2729,609.676,508.6205,606.511,517.947" style="stroke:#181818;stroke-width:1.0;"/></g><!--MD5=[9da49d0f511b04afc5f133268332d490]
link ConfigAGVService to PersistenceContext--><g id="link_ConfigAGVService_PersistenceContext"><path codeLine="79" d="M421.774,458.211 C450.755,477.624 480.881,497.804 506.344,514.86 " fill="none" id="ConfigAGVService-to-PersistenceContext" style="stroke:#181818;stroke-width:1.0;stroke-dasharray:7.0,7.0;"/><polygon fill="#181818" points="510.716,517.789,505.4628,509.4581,506.5613,515.0073,501.0121,516.1057,510.716,517.789" style="stroke:#181818;stroke-width:1.0;"/></g><!--MD5=[754b775031405e096442b27febffa290]
link PersistenceContext to RepositoryFactory--><g id="link_PersistenceContext_RepositoryFactory"><path codeLine="84" d="M570,599.28 C570,616.068 570,635.852 570,653.826 " fill="none" id="PersistenceContext-to-RepositoryFactory" style="stroke:#181818;stroke-width:1.0;stroke-dasharray:7.0,7.0;"/><polygon fill="#181818" points="570,658.843,574,649.843,570,653.843,566,649.843,570,658.843" style="stroke:#181818;stroke-width:1.0;"/></g><!--MD5=[d05eaea78b8765320ad56e3795dd7d42]
link RepositoryFactory to AGVRepository--><g id="link_RepositoryFactory_AGVRepository"><path codeLine="86" d="M530.708,756.117 C515.749,774.245 498.88,794.688 484.607,811.985 " fill="none" id="RepositoryFactory-to-AGVRepository" style="stroke:#181818;stroke-width:1.0;stroke-dasharray:7.0,7.0;"/><polygon fill="#181818" points="481.415,815.853,490.2283,811.4568,484.5972,811.9964,484.0576,806.3653,481.415,815.853" style="stroke:#181818;stroke-width:1.0;"/></g><!--MD5=[c1c40115ca5e3195fe4ad9816b3302b2]
link RepositoryFactory to AgvDockRepository--><g id="link_RepositoryFactory_AgvDockRepository"><path codeLine="87" d="M598.637,756.117 C609.448,774.093 621.627,794.344 631.973,811.548 " fill="none" id="RepositoryFactory-to-AgvDockRepository" style="stroke:#181818;stroke-width:1.0;stroke-dasharray:7.0,7.0;"/><polygon fill="#181818" points="634.562,815.853,633.3519,806.0788,631.9853,811.5681,626.496,810.2014,634.562,815.853" style="stroke:#181818;stroke-width:1.0;"/></g><!--MD5=[29af33a9fc71c83945d1f1679261045e]
link AgvDockRepository to AgvDock--><g id="link_AgvDockRepository_AgvDock"><path codeLine="89" d="M658.733,889.296 C660.011,906.048 661.541,926.088 662.866,943.451 " fill="none" id="AgvDockRepository-to-AgvDock" style="stroke:#181818;stroke-width:1.0;stroke-dasharray:7.0,7.0;"/><polygon fill="#181818" points="663.271,948.747,666.5728,939.4681,662.8896,943.7616,658.5961,940.0783,663.271,948.747" style="stroke:#181818;stroke-width:1.0;"/></g><!--MD5=[44c78d46300cbd445cde51c8cf6651a2]
link AGVRepository to AGV--><g id="link_AGVRepository_AGV"><path codeLine="91" d="M412.651,889.296 C393.603,906.625 370.686,927.474 351.159,945.237 " fill="none" id="AGVRepository-to-AGV" style="stroke:#181818;stroke-width:1.0;stroke-dasharray:7.0,7.0;"/><polygon fill="#181818" points="347.301,948.747,356.6503,945.65,350.9997,945.3826,351.2672,939.732,347.301,948.747" style="stroke:#181818;stroke-width:1.0;"/></g><!--MD5=[ee16cea6e46aee6308b3c17d2cfcff6a]
link ConfigAGVService to AGVBuilder--><g id="link_ConfigAGVService_AGVBuilder"><path codeLine="94" d="M308,458.081 C308,518.149 308,600.415 308,653.514 " fill="none" id="ConfigAGVService-to-AGVBuilder" style="stroke:#181818;stroke-width:1.0;stroke-dasharray:7.0,7.0;"/><polygon fill="#181818" points="308,658.56,312,649.56,308,653.56,304,649.56,308,658.56" style="stroke:#181818;stroke-width:1.0;"/></g><!--MD5=[80616cc598c73cb7cb2b520a31915523]
link AGVBuilder to AGV--><g id="link_AGVBuilder_AGV"><path codeLine="96" d="M308,756.26 C308,809.214 308,893.734 308,943.705 " fill="none" id="AGVBuilder-to-AGV" style="stroke:#181818;stroke-width:1.0;stroke-dasharray:7.0,7.0;"/><polygon fill="#181818" points="308,948.729,312,939.729,308,943.729,304,939.729,308,948.729" style="stroke:#181818;stroke-width:1.0;"/></g><!--MD5=[2fe9eb57686f6794d9df9b62f646c58a]
link AGV to AGVDTO--><g id="link_AGV_AGVDTO"><path codeLine="98" d="M308,1022.296 C308,1039.048 308,1059.0876 308,1076.4509 " fill="none" id="AGV-to-AGVDTO" style="stroke:#181818;stroke-width:1.0;stroke-dasharray:7.0,7.0;"/><polygon fill="#181818" points="308,1081.747,312,1072.747,308,1076.747,304,1072.747,308,1081.747" style="stroke:#181818;stroke-width:1.0;"/></g><!--MD5=[c65b0d5f67eb6feb956dd416ef016ec4]
link AgvDock to DockDTO--><g id="link_AgvDock_DockDTO"><path codeLine="100" d="M666,1022.296 C666,1039.048 666,1059.0876 666,1076.4509 " fill="none" id="AgvDock-to-DockDTO" style="stroke:#181818;stroke-width:1.0;stroke-dasharray:7.0,7.0;"/><polygon fill="#181818" points="666,1081.747,670,1072.747,666,1076.747,662,1072.747,666,1081.747" style="stroke:#181818;stroke-width:1.0;"/></g><!--MD5=[72f8db61f209d4accec67f1be063af53]
@startuml
class ConfigAGVUI<<Presentation>>{

}


class ConfigAGVController<<Application>>{
  -ConfigAGVService service 
  +retrieveAllAvailableDocks()
  +configureAGV(model, description, taskStatus, batteryAutonomy, dockIdentifier)
  +persistAGV(agvDto)
  
}

class ConfigAGVService<<Service>>{
  -PersistenceContext persistence
  -AGVBuilder builder
  +configureAGV(model, description, taskStatus, batteryAutonomy, dockIdentifier)
  +create()
  +persistAGV(agvDto)
  +retrieveAllAvailableDocks()
}

class AGVRepository<<Persistence>>{
   +save(agv)
   
}


class AgvDockRepository<<Persistence>>{
   +findAll()
   
}

class AGV<<Domain>>{
   +create(model, description, taskStatus, batteryAutonomy, dockIdentifier)

}


class AgvDock<<Domain>>{
   +create()
}

class AGVDTO<<DTO>>{
   +toDTO()
}

class DockDTO<<DTO>>{
   toDTO()
}
class AGVBuilder{
  +create()
  +build()
  +sets(all)
 
}

class RepositoryFactory{
  -AGVRepository repoA
  -AgvDockRepository repoAD
  +create()

}

class PersistenceContext{
   +create()
   +repositories()

}

ConfigAGVUI ..> ConfigAGVController

ConfigAGVController ..> ConfigAGVService

ConfigAGVController ..> ListAgvDockService

ListAgvDockService ..> PersistenceContext

ConfigAGVService ..> PersistenceContext




PersistenceContext ..> RepositoryFactory

RepositoryFactory ..> AGVRepository
RepositoryFactory ..> AgvDockRepository

AgvDockRepository ..> AgvDock

AGVRepository ..> AGV


ConfigAGVService ..> AGVBuilder

AGVBuilder ..> AGV

AGV ..> AGVDTO

AgvDock ..> DockDTO
@enduml

PlantUML version 1.2022.4beta2(Unknown compile time)
(GPL source distribution)
Java Runtime: Java(TM) SE Runtime Environment
JVM: Java HotSpot(TM) 64-Bit Server VM
Default Encoding: UTF-8
Language: en
Country: US
--></g></svg>