<?xml version="1.0" encoding="UTF-8" standalone="no"?><svg xmlns="http://www.w3.org/2000/svg" xmlns:xlink="http://www.w3.org/1999/xlink" contentStyleType="text/css" height="1775px" preserveAspectRatio="none" style="width:3113px;height:1775px;background:#FFFFFF;" version="1.1" viewBox="0 0 3113 1775" width="3113px" zoomAndPan="magnify"><defs/><g><rect fill="#FFFFFF" height="1584.9063" style="stroke:#181818;stroke-width:1.0;" width="10" x="83.5" y="91.2969"/><rect fill="#FFFFFF" height="498.125" style="stroke:#181818;stroke-width:1.0;" width="10" x="551.5" y="112.4297"/><rect fill="#FFFFFF" height="503.2578" style="stroke:#181818;stroke-width:1.0;" width="10" x="551.5" y="639.6875"/><rect fill="#FFFFFF" height="504.125" style="stroke:#181818;stroke-width:1.0;" width="10" x="551.5" y="1172.0781"/><rect fill="#FFFFFF" height="410.7266" style="stroke:#181818;stroke-width:1.0;" width="10" x="1110.5" y="170.6953"/><rect fill="#FFFFFF" height="444.9922" style="stroke:#181818;stroke-width:1.0;" width="10" x="1110.5" y="668.8203"/><rect fill="#FFFFFF" height="445.8594" style="stroke:#181818;stroke-width:1.0;" width="10" x="1110.5" y="1201.2109"/><rect fill="#FFFFFF" height="117.3984" style="stroke:#181818;stroke-width:1.0;" width="10" x="1669.5" y="199.8281"/><rect fill="#FFFFFF" height="205.9297" style="stroke:#181818;stroke-width:1.0;" width="10" x="1669.5" y="346.3594"/><rect fill="#FFFFFF" height="386.7266" style="stroke:#181818;stroke-width:1.0;" width="10" x="1669.5" y="697.9531"/><rect fill="#FFFFFF" height="416.7266" style="stroke:#181818;stroke-width:1.0;" width="10" x="1669.5" y="1230.3438"/><rect fill="#FFFFFF" height="59.1328" style="stroke:#181818;stroke-width:1.0;" width="10" x="1835.5" y="228.9609"/><rect fill="#FFFFFF" height="58.2656" style="stroke:#181818;stroke-width:1.0;" width="10" x="1835.5" y="1259.4766"/><rect fill="#FFFFFF" height="59.1328" style="stroke:#181818;stroke-width:1.0;" width="10" x="2002.5" y="258.0938"/><rect fill="#FFFFFF" height="29.1328" style="stroke:#181818;stroke-width:1.0;" width="10" x="2002.5" y="1288.6094"/><rect fill="#FFFFFF" height="30" style="stroke:#181818;stroke-width:1.0;" width="10" x="2153" y="1617.0703"/><rect fill="#FFFFFF" height="87.3984" style="stroke:#181818;stroke-width:1.0;" width="10" x="2277.5" y="880.75"/><rect fill="#FFFFFF" height="87.3984" style="stroke:#181818;stroke-width:1.0;" width="10" x="2277.5" y="1500.5391"/><rect fill="#FFFFFF" height="29.1328" style="stroke:#181818;stroke-width:1.0;" width="10" x="2420.5" y="375.4922"/><rect fill="#FFFFFF" height="30" style="stroke:#181818;stroke-width:1.0;" width="10" x="2420.5" y="727.0859"/><rect fill="#FFFFFF" height="30" style="stroke:#181818;stroke-width:1.0;" width="10" x="2420.5" y="1346.875"/><rect fill="#FFFFFF" height="29.1328" style="stroke:#181818;stroke-width:1.0;" width="10" x="2789.5" y="909.8828"/><rect fill="#FFFFFF" height="58.2656" style="stroke:#181818;stroke-width:1.0;" width="10" x="2789.5" y="997.2813"/><rect fill="#FFFFFF" height="29.1328" style="stroke:#181818;stroke-width:1.0;" width="10" x="2789.5" y="1529.6719"/><rect fill="#FFFFFF" height="58.2656" style="stroke:#181818;stroke-width:1.0;" width="10" x="2866" y="457.8906"/><rect height="104.5313" style="stroke:#000000;stroke-width:1.5;fill:none;" width="1437" x="1589.5" y="419.625"/><line style="stroke:#181818;stroke-width:0.5;fill:none;stroke-dasharray:5.0,5.0;" x1="88" x2="88" y1="81.2969" y2="1694.2031"/><line style="stroke:#181818;stroke-width:0.5;fill:none;stroke-dasharray:5.0,5.0;" x1="556.5" x2="556.5" y1="81.2969" y2="1694.2031"/><line style="stroke:#181818;stroke-width:0.5;fill:none;stroke-dasharray:5.0,5.0;" x1="1115.5" x2="1115.5" y1="81.2969" y2="1694.2031"/><line style="stroke:#181818;stroke-width:0.5;fill:none;stroke-dasharray:5.0,5.0;" x1="1674.5" x2="1674.5" y1="81.2969" y2="1694.2031"/><line style="stroke:#181818;stroke-width:0.5;fill:none;stroke-dasharray:5.0,5.0;" x1="1840.5" x2="1840.5" y1="81.2969" y2="1694.2031"/><line style="stroke:#181818;stroke-width:0.5;fill:none;stroke-dasharray:5.0,5.0;" x1="2007.5" x2="2007.5" y1="81.2969" y2="1694.2031"/><line style="stroke:#181818;stroke-width:0.5;fill:none;stroke-dasharray:5.0,5.0;" x1="2157.5" x2="2157.5" y1="81.2969" y2="1694.2031"/><line style="stroke:#181818;stroke-width:0.5;fill:none;stroke-dasharray:5.0,5.0;" x1="2282.5" x2="2282.5" y1="81.2969" y2="1694.2031"/><line style="stroke:#181818;stroke-width:0.5;fill:none;stroke-dasharray:5.0,5.0;" x1="2425.5" x2="2425.5" y1="81.2969" y2="1694.2031"/><line style="stroke:#181818;stroke-width:0.5;fill:none;stroke-dasharray:5.0,5.0;" x1="2794.5" x2="2794.5" y1="81.2969" y2="1694.2031"/><line style="stroke:#181818;stroke-width:0.5;fill:none;stroke-dasharray:5.0,5.0;" x1="2870.5" x2="2870.5" y1="81.2969" y2="1694.2031"/><line style="stroke:#181818;stroke-width:0.5;fill:none;stroke-dasharray:5.0,5.0;" x1="2972.5" x2="2972.5" y1="81.2969" y2="1694.2031"/><line style="stroke:#181818;stroke-width:0.5;fill:none;stroke-dasharray:5.0,5.0;" x1="3066.5" x2="3066.5" y1="81.2969" y2="1694.2031"/><text fill="#000000" font-family="sans-serif" font-size="14" lengthAdjust="spacing" textLength="161" x="5" y="77.9951">WhareHouse Empoyee</text><ellipse cx="88.5" cy="13.5" fill="#E2E2F0" rx="8" ry="8" style="stroke:#181818;stroke-width:0.5;"/><path d="M88.5,21.5 L88.5,48.5 M75.5,29.5 L101.5,29.5 M88.5,48.5 L75.5,63.5 M88.5,48.5 L101.5,63.5 " fill="none" style="stroke:#181818;stroke-width:0.5;"/><text fill="#000000" font-family="sans-serif" font-size="14" lengthAdjust="spacing" textLength="161" x="5" y="1706.1982">WhareHouse Empoyee</text><ellipse cx="88.5" cy="1718" fill="#E2E2F0" rx="8" ry="8" style="stroke:#181818;stroke-width:0.5;"/><path d="M88.5,1726 L88.5,1753 M75.5,1734 L101.5,1734 M88.5,1753 L75.5,1768 M88.5,1753 L101.5,1768 " fill="none" style="stroke:#181818;stroke-width:0.5;"/><rect fill="#E2E2F0" height="30.2969" rx="2.5" ry="2.5" style="stroke:#181818;stroke-width:0.5;" width="110" x="501.5" y="50"/><text fill="#000000" font-family="sans-serif" font-size="14" lengthAdjust="spacing" textLength="96" x="508.5" y="69.9951">:ConfigAGVUI</text><rect fill="#E2E2F0" height="30.2969" rx="2.5" ry="2.5" style="stroke:#181818;stroke-width:0.5;" width="110" x="501.5" y="1693.2031"/><text fill="#000000" font-family="sans-serif" font-size="14" lengthAdjust="spacing" textLength="96" x="508.5" y="1713.1982">:ConfigAGVUI</text><rect fill="#E2E2F0" height="30.2969" rx="2.5" ry="2.5" style="stroke:#181818;stroke-width:0.5;" width="170" x="1030.5" y="50"/><text fill="#000000" font-family="sans-serif" font-size="14" lengthAdjust="spacing" textLength="156" x="1037.5" y="69.9951">:ConfigAGVController</text><rect fill="#E2E2F0" height="30.2969" rx="2.5" ry="2.5" style="stroke:#181818;stroke-width:0.5;" width="170" x="1030.5" y="1693.2031"/><text fill="#000000" font-family="sans-serif" font-size="14" lengthAdjust="spacing" textLength="156" x="1037.5" y="1713.1982">:ConfigAGVController</text><rect fill="#E2E2F0" height="30.2969" rx="2.5" ry="2.5" style="stroke:#181818;stroke-width:0.5;" width="150" x="1599.5" y="50"/><text fill="#000000" font-family="sans-serif" font-size="14" lengthAdjust="spacing" textLength="136" x="1606.5" y="69.9951">:ConfigAVGService</text><rect fill="#E2E2F0" height="30.2969" rx="2.5" ry="2.5" style="stroke:#181818;stroke-width:0.5;" width="150" x="1599.5" y="1693.2031"/><text fill="#000000" font-family="sans-serif" font-size="14" lengthAdjust="spacing" textLength="136" x="1606.5" y="1713.1982">:ConfigAVGService</text><rect fill="#E2E2F0" height="30.2969" rx="2.5" ry="2.5" style="stroke:#181818;stroke-width:0.5;" width="162" x="1759.5" y="50"/><text fill="#000000" font-family="sans-serif" font-size="14" lengthAdjust="spacing" textLength="148" x="1766.5" y="69.9951">:PersistenceContext</text><rect fill="#E2E2F0" height="30.2969" rx="2.5" ry="2.5" style="stroke:#181818;stroke-width:0.5;" width="162" x="1759.5" y="1693.2031"/><text fill="#000000" font-family="sans-serif" font-size="14" lengthAdjust="spacing" textLength="148" x="1766.5" y="1713.1982">:PersistenceContext</text><rect fill="#E2E2F0" height="30.2969" rx="2.5" ry="2.5" style="stroke:#181818;stroke-width:0.5;" width="152" x="1931.5" y="50"/><text fill="#000000" font-family="sans-serif" font-size="14" lengthAdjust="spacing" textLength="138" x="1938.5" y="69.9951">:RepositoryFactory</text><rect fill="#E2E2F0" height="30.2969" rx="2.5" ry="2.5" style="stroke:#181818;stroke-width:0.5;" width="152" x="1931.5" y="1693.2031"/><text fill="#000000" font-family="sans-serif" font-size="14" lengthAdjust="spacing" textLength="138" x="1938.5" y="1713.1982">:RepositoryFactory</text><rect fill="#E2E2F0" height="30.2969" rx="2.5" ry="2.5" style="stroke:#181818;stroke-width:0.5;" width="129" x="2093.5" y="50"/><text fill="#000000" font-family="sans-serif" font-size="14" lengthAdjust="spacing" textLength="115" x="2100.5" y="69.9951">:AGVRepository</text><rect fill="#E2E2F0" height="30.2969" rx="2.5" ry="2.5" style="stroke:#181818;stroke-width:0.5;" width="129" x="2093.5" y="1693.2031"/><text fill="#000000" font-family="sans-serif" font-size="14" lengthAdjust="spacing" textLength="115" x="2100.5" y="1713.1982">:AGVRepository</text><rect fill="#E2E2F0" height="30.2969" rx="2.5" ry="2.5" style="stroke:#181818;stroke-width:0.5;" width="100" x="2232.5" y="50"/><text fill="#000000" font-family="sans-serif" font-size="14" lengthAdjust="spacing" textLength="86" x="2239.5" y="69.9951">:AGVBuilder</text><rect fill="#E2E2F0" height="30.2969" rx="2.5" ry="2.5" style="stroke:#181818;stroke-width:0.5;" width="100" x="2232.5" y="1693.2031"/><text fill="#000000" font-family="sans-serif" font-size="14" lengthAdjust="spacing" textLength="86" x="2239.5" y="1713.1982">:AGVBuilder</text><rect fill="#E2E2F0" height="30.2969" rx="2.5" ry="2.5" style="stroke:#181818;stroke-width:0.5;" width="166" x="2342.5" y="50"/><text fill="#000000" font-family="sans-serif" font-size="14" lengthAdjust="spacing" textLength="152" x="2349.5" y="69.9951">:AGVDockRepository</text><rect fill="#E2E2F0" height="30.2969" rx="2.5" ry="2.5" style="stroke:#181818;stroke-width:0.5;" width="166" x="2342.5" y="1693.2031"/><text fill="#000000" font-family="sans-serif" font-size="14" lengthAdjust="spacing" textLength="152" x="2349.5" y="1713.1982">:AGVDockRepository</text><rect fill="#E2E2F0" height="30.2969" rx="2.5" ry="2.5" style="stroke:#181818;stroke-width:0.5;" width="50" x="2769.5" y="50"/><text fill="#000000" font-family="sans-serif" font-size="14" lengthAdjust="spacing" textLength="36" x="2776.5" y="69.9951">:AGV</text><rect fill="#E2E2F0" height="30.2969" rx="2.5" ry="2.5" style="stroke:#181818;stroke-width:0.5;" width="50" x="2769.5" y="1693.2031"/><text fill="#000000" font-family="sans-serif" font-size="14" lengthAdjust="spacing" textLength="36" x="2776.5" y="1713.1982">:AGV</text><rect fill="#E2E2F0" height="30.2969" rx="2.5" ry="2.5" style="stroke:#181818;stroke-width:0.5;" width="83" x="2829.5" y="50"/><text fill="#000000" font-family="sans-serif" font-size="14" lengthAdjust="spacing" textLength="69" x="2836.5" y="69.9951">:AgvDock</text><rect fill="#E2E2F0" height="30.2969" rx="2.5" ry="2.5" style="stroke:#181818;stroke-width:0.5;" width="83" x="2829.5" y="1693.2031"/><text fill="#000000" font-family="sans-serif" font-size="14" lengthAdjust="spacing" textLength="69" x="2836.5" y="1713.1982">:AgvDock</text><rect fill="#E2E2F0" height="30.2969" rx="2.5" ry="2.5" style="stroke:#181818;stroke-width:0.5;" width="87" x="2929.5" y="50"/><text fill="#000000" font-family="sans-serif" font-size="14" lengthAdjust="spacing" textLength="73" x="2936.5" y="69.9951">:DockDTO</text><rect fill="#E2E2F0" height="30.2969" rx="2.5" ry="2.5" style="stroke:#181818;stroke-width:0.5;" width="87" x="2929.5" y="1693.2031"/><text fill="#000000" font-family="sans-serif" font-size="14" lengthAdjust="spacing" textLength="73" x="2936.5" y="1713.1982">:DockDTO</text><rect fill="#E2E2F0" height="30.2969" rx="2.5" ry="2.5" style="stroke:#181818;stroke-width:0.5;" width="81" x="3026.5" y="50"/><text fill="#000000" font-family="sans-serif" font-size="14" lengthAdjust="spacing" textLength="67" x="3033.5" y="69.9951">:AGVDTO</text><rect fill="#E2E2F0" height="30.2969" rx="2.5" ry="2.5" style="stroke:#181818;stroke-width:0.5;" width="81" x="3026.5" y="1693.2031"/><text fill="#000000" font-family="sans-serif" font-size="14" lengthAdjust="spacing" textLength="67" x="3033.5" y="1713.1982">:AGVDTO</text><rect fill="#FFFFFF" height="1584.9063" style="stroke:#181818;stroke-width:1.0;" width="10" x="83.5" y="91.2969"/><rect fill="#FFFFFF" height="498.125" style="stroke:#181818;stroke-width:1.0;" width="10" x="551.5" y="112.4297"/><rect fill="#FFFFFF" height="503.2578" style="stroke:#181818;stroke-width:1.0;" width="10" x="551.5" y="639.6875"/><rect fill="#FFFFFF" height="504.125" style="stroke:#181818;stroke-width:1.0;" width="10" x="551.5" y="1172.0781"/><rect fill="#FFFFFF" height="410.7266" style="stroke:#181818;stroke-width:1.0;" width="10" x="1110.5" y="170.6953"/><rect fill="#FFFFFF" height="444.9922" style="stroke:#181818;stroke-width:1.0;" width="10" x="1110.5" y="668.8203"/><rect fill="#FFFFFF" height="445.8594" style="stroke:#181818;stroke-width:1.0;" width="10" x="1110.5" y="1201.2109"/><rect fill="#FFFFFF" height="117.3984" style="stroke:#181818;stroke-width:1.0;" width="10" x="1669.5" y="199.8281"/><rect fill="#FFFFFF" height="205.9297" style="stroke:#181818;stroke-width:1.0;" width="10" x="1669.5" y="346.3594"/><rect fill="#FFFFFF" height="386.7266" style="stroke:#181818;stroke-width:1.0;" width="10" x="1669.5" y="697.9531"/><rect fill="#FFFFFF" height="416.7266" style="stroke:#181818;stroke-width:1.0;" width="10" x="1669.5" y="1230.3438"/><rect fill="#FFFFFF" height="59.1328" style="stroke:#181818;stroke-width:1.0;" width="10" x="1835.5" y="228.9609"/><rect fill="#FFFFFF" height="58.2656" style="stroke:#181818;stroke-width:1.0;" width="10" x="1835.5" y="1259.4766"/><rect fill="#FFFFFF" height="59.1328" style="stroke:#181818;stroke-width:1.0;" width="10" x="2002.5" y="258.0938"/><rect fill="#FFFFFF" height="29.1328" style="stroke:#181818;stroke-width:1.0;" width="10" x="2002.5" y="1288.6094"/><rect fill="#FFFFFF" height="30" style="stroke:#181818;stroke-width:1.0;" width="10" x="2153" y="1617.0703"/><rect fill="#FFFFFF" height="87.3984" style="stroke:#181818;stroke-width:1.0;" width="10" x="2277.5" y="880.75"/><rect fill="#FFFFFF" height="87.3984" style="stroke:#181818;stroke-width:1.0;" width="10" x="2277.5" y="1500.5391"/><rect fill="#FFFFFF" height="29.1328" style="stroke:#181818;stroke-width:1.0;" width="10" x="2420.5" y="375.4922"/><rect fill="#FFFFFF" height="30" style="stroke:#181818;stroke-width:1.0;" width="10" x="2420.5" y="727.0859"/><rect fill="#FFFFFF" height="30" style="stroke:#181818;stroke-width:1.0;" width="10" x="2420.5" y="1346.875"/><rect fill="#FFFFFF" height="29.1328" style="stroke:#181818;stroke-width:1.0;" width="10" x="2789.5" y="909.8828"/><rect fill="#FFFFFF" height="58.2656" style="stroke:#181818;stroke-width:1.0;" width="10" x="2789.5" y="997.2813"/><rect fill="#FFFFFF" height="29.1328" style="stroke:#181818;stroke-width:1.0;" width="10" x="2789.5" y="1529.6719"/><rect fill="#FFFFFF" height="58.2656" style="stroke:#181818;stroke-width:1.0;" width="10" x="2866" y="457.8906"/><polygon fill="#181818" points="539.5,108.4297,549.5,112.4297,539.5,116.4297,543.5,112.4297" style="stroke:#181818;stroke-width:1.0;"/><line style="stroke:#181818;stroke-width:1.0;" x1="93.5" x2="545.5" y1="112.4297" y2="112.4297"/><text fill="#000000" font-family="sans-serif" font-size="13" font-weight="bold" lengthAdjust="spacing" textLength="9" x="100.5" y="107.3638">1</text><text fill="#000000" font-family="sans-serif" font-size="13" lengthAdjust="spacing" textLength="121" x="113.5" y="107.3638">asks to config AGV</text><polygon fill="#181818" points="104.5,137.5625,94.5,141.5625,104.5,145.5625,100.5,141.5625" style="stroke:#181818;stroke-width:1.0;"/><line style="stroke:#181818;stroke-width:1.0;stroke-dasharray:2.0,2.0;" x1="98.5" x2="550.5" y1="141.5625" y2="141.5625"/><text fill="#000000" font-family="sans-serif" font-size="13" font-weight="bold" lengthAdjust="spacing" textLength="9" x="110.5" y="136.4966">2</text><text fill="#000000" font-family="sans-serif" font-size="13" lengthAdjust="spacing" textLength="421" x="123.5" y="136.4966">requests the data(model,taskStatus,autonomyStatus,description)</text><polygon fill="#181818" points="1098.5,166.6953,1108.5,170.6953,1098.5,174.6953,1102.5,170.6953" style="stroke:#181818;stroke-width:1.0;"/><line style="stroke:#181818;stroke-width:1.0;" x1="561.5" x2="1104.5" y1="170.6953" y2="170.6953"/><text fill="#000000" font-family="sans-serif" font-size="13" font-weight="bold" lengthAdjust="spacing" textLength="8" x="568.5" y="165.6294">3</text><text fill="#000000" font-family="sans-serif" font-size="13" lengthAdjust="spacing" textLength="172" x="580.5" y="165.6294">retrieveAllAvailableDocks()</text><polygon fill="#181818" points="1657.5,195.8281,1667.5,199.8281,1657.5,203.8281,1661.5,199.8281" style="stroke:#181818;stroke-width:1.0;"/><line style="stroke:#181818;stroke-width:1.0;" x1="1120.5" x2="1663.5" y1="199.8281" y2="199.8281"/><text fill="#000000" font-family="sans-serif" font-size="13" font-weight="bold" lengthAdjust="spacing" textLength="9" x="1127.5" y="194.7622">4</text><text fill="#000000" font-family="sans-serif" font-size="13" lengthAdjust="spacing" textLength="51" x="1140.5" y="194.7622">create()</text><polygon fill="#181818" points="1823.5,224.9609,1833.5,228.9609,1823.5,232.9609,1827.5,228.9609" style="stroke:#181818;stroke-width:1.0;"/><line style="stroke:#181818;stroke-width:1.0;" x1="1679.5" x2="1829.5" y1="228.9609" y2="228.9609"/><text fill="#000000" font-family="sans-serif" font-size="13" font-weight="bold" lengthAdjust="spacing" textLength="9" x="1686.5" y="223.895">5</text><text fill="#000000" font-family="sans-serif" font-size="13" lengthAdjust="spacing" textLength="85" x="1699.5" y="223.895">repositories()</text><polygon fill="#181818" points="1990.5,254.0938,2000.5,258.0938,1990.5,262.0938,1994.5,258.0938" style="stroke:#181818;stroke-width:1.0;"/><line style="stroke:#181818;stroke-width:1.0;" x1="1845.5" x2="1996.5" y1="258.0938" y2="258.0938"/><text fill="#000000" font-family="sans-serif" font-size="13" font-weight="bold" lengthAdjust="spacing" textLength="9" x="1852.5" y="253.0278">6</text><text fill="#000000" font-family="sans-serif" font-size="13" lengthAdjust="spacing" textLength="51" x="1865.5" y="253.0278">create()</text><polygon fill="#181818" points="2413.5,313.2266,2423.5,317.2266,2413.5,321.2266,2417.5,317.2266" style="stroke:#181818;stroke-width:1.0;"/><line style="stroke:#181818;stroke-width:1.0;" x1="2007.5" x2="2419.5" y1="317.2266" y2="317.2266"/><text fill="#000000" font-family="sans-serif" font-size="13" font-weight="bold" lengthAdjust="spacing" textLength="9" x="2014.5" y="312.1606">7</text><text fill="#000000" font-family="sans-serif" font-size="13" lengthAdjust="spacing" textLength="51" x="2027.5" y="312.1606">create()</text><polygon fill="#181818" points="1657.5,342.3594,1667.5,346.3594,1657.5,350.3594,1661.5,346.3594" style="stroke:#181818;stroke-width:1.0;"/><line style="stroke:#181818;stroke-width:1.0;" x1="1120.5" x2="1663.5" y1="346.3594" y2="346.3594"/><text fill="#000000" font-family="sans-serif" font-size="13" font-weight="bold" lengthAdjust="spacing" textLength="9" x="1127.5" y="341.2935">8</text><text fill="#000000" font-family="sans-serif" font-size="13" lengthAdjust="spacing" textLength="172" x="1140.5" y="341.2935">retrieveAllAvailableDocks()</text><polygon fill="#181818" points="2408.5,371.4922,2418.5,375.4922,2408.5,379.4922,2412.5,375.4922" style="stroke:#181818;stroke-width:1.0;"/><line style="stroke:#181818;stroke-width:1.0;" x1="1679.5" x2="2414.5" y1="375.4922" y2="375.4922"/><text fill="#000000" font-family="sans-serif" font-size="13" font-weight="bold" lengthAdjust="spacing" textLength="9" x="1686.5" y="370.4263">9</text><text fill="#000000" font-family="sans-serif" font-size="13" lengthAdjust="spacing" textLength="49" x="1699.5" y="370.4263">findAll()</text><polygon fill="#181818" points="1690.5,400.625,1680.5,404.625,1690.5,408.625,1686.5,404.625" style="stroke:#181818;stroke-width:1.0;"/><line style="stroke:#181818;stroke-width:1.0;stroke-dasharray:2.0,2.0;" x1="1684.5" x2="2424.5" y1="404.625" y2="404.625"/><text fill="#000000" font-family="sans-serif" font-size="13" font-weight="bold" lengthAdjust="spacing" textLength="19" x="1696.5" y="399.5591">10</text><text fill="#000000" font-family="sans-serif" font-size="13" lengthAdjust="spacing" textLength="57" x="1719.5" y="399.5591">listDocks</text><path d="M1589.5,419.625 L1667.5,419.625 L1667.5,426.7578 L1657.5,436.7578 L1589.5,436.7578 L1589.5,419.625 " fill="#EEEEEE" style="stroke:#000000;stroke-width:1.5;"/><rect fill="none" height="104.5313" style="stroke:#000000;stroke-width:1.5;" width="1437" x="1589.5" y="419.625"/><text fill="#000000" font-family="sans-serif" font-size="13" font-weight="bold" lengthAdjust="spacing" textLength="33" x="1604.5" y="432.6919">loop</text><polygon fill="#181818" points="2854,453.8906,2864,457.8906,2854,461.8906,2858,457.8906" style="stroke:#181818;stroke-width:1.0;"/><line style="stroke:#181818;stroke-width:1.0;" x1="1679.5" x2="2860" y1="457.8906" y2="457.8906"/><text fill="#000000" font-family="sans-serif" font-size="13" font-weight="bold" lengthAdjust="spacing" textLength="18" x="1686.5" y="452.8247">11</text><text fill="#000000" font-family="sans-serif" font-size="13" lengthAdjust="spacing" textLength="51" x="1708.5" y="452.8247">toDTO()</text><polygon fill="#181818" points="2961,483.0234,2971,487.0234,2961,491.0234,2965,487.0234" style="stroke:#181818;stroke-width:1.0;"/><line style="stroke:#181818;stroke-width:1.0;" x1="2876" x2="2967" y1="487.0234" y2="487.0234"/><text fill="#000000" font-family="sans-serif" font-size="13" font-weight="bold" lengthAdjust="spacing" textLength="18" x="2883" y="481.9575">12</text><text fill="#000000" font-family="sans-serif" font-size="13" lengthAdjust="spacing" textLength="51" x="2905" y="481.9575">create()</text><polygon fill="#181818" points="1690.5,512.1563,1680.5,516.1563,1690.5,520.1563,1686.5,516.1563" style="stroke:#181818;stroke-width:1.0;"/><line style="stroke:#181818;stroke-width:1.0;stroke-dasharray:2.0,2.0;" x1="1684.5" x2="2870" y1="516.1563" y2="516.1563"/><text fill="#000000" font-family="sans-serif" font-size="13" font-weight="bold" lengthAdjust="spacing" textLength="17" x="1696.5" y="511.0903">13</text><text fill="#000000" font-family="sans-serif" font-size="13" lengthAdjust="spacing" textLength="53" x="1717.5" y="511.0903">dockDto</text><polygon fill="#181818" points="1131.5,548.2891,1121.5,552.2891,1131.5,556.2891,1127.5,552.2891" style="stroke:#181818;stroke-width:1.0;"/><line style="stroke:#181818;stroke-width:1.0;stroke-dasharray:2.0,2.0;" x1="1125.5" x2="1673.5" y1="552.2891" y2="552.2891"/><text fill="#000000" font-family="sans-serif" font-size="13" font-weight="bold" lengthAdjust="spacing" textLength="18" x="1137.5" y="547.2231">14</text><text fill="#000000" font-family="sans-serif" font-size="13" lengthAdjust="spacing" textLength="80" x="1159.5" y="547.2231">dockDTOList</text><polygon fill="#181818" points="572.5,577.4219,562.5,581.4219,572.5,585.4219,568.5,581.4219" style="stroke:#181818;stroke-width:1.0;"/><line style="stroke:#181818;stroke-width:1.0;stroke-dasharray:2.0,2.0;" x1="566.5" x2="1114.5" y1="581.4219" y2="581.4219"/><text fill="#000000" font-family="sans-serif" font-size="13" font-weight="bold" lengthAdjust="spacing" textLength="18" x="578.5" y="576.356">15</text><text fill="#000000" font-family="sans-serif" font-size="13" lengthAdjust="spacing" textLength="80" x="600.5" y="576.356">dockDTOList</text><polygon fill="#181818" points="104.5,606.5547,94.5,610.5547,104.5,614.5547,100.5,610.5547" style="stroke:#181818;stroke-width:1.0;"/><line style="stroke:#181818;stroke-width:1.0;stroke-dasharray:2.0,2.0;" x1="98.5" x2="555.5" y1="610.5547" y2="610.5547"/><text fill="#000000" font-family="sans-serif" font-size="13" font-weight="bold" lengthAdjust="spacing" textLength="18" x="110.5" y="605.4888">16</text><text fill="#000000" font-family="sans-serif" font-size="13" lengthAdjust="spacing" textLength="234" x="132.5" y="605.4888">Present and Asks to select one Dock</text><polygon fill="#181818" points="539.5,635.6875,549.5,639.6875,539.5,643.6875,543.5,639.6875" style="stroke:#181818;stroke-width:1.0;"/><line style="stroke:#181818;stroke-width:1.0;" x1="93.5" x2="545.5" y1="639.6875" y2="639.6875"/><text fill="#000000" font-family="sans-serif" font-size="13" font-weight="bold" lengthAdjust="spacing" textLength="18" x="100.5" y="634.6216">17</text><text fill="#000000" font-family="sans-serif" font-size="13" lengthAdjust="spacing" textLength="109" x="122.5" y="634.6216">selects one Dock</text><polygon fill="#181818" points="1098.5,664.8203,1108.5,668.8203,1098.5,672.8203,1102.5,668.8203" style="stroke:#181818;stroke-width:1.0;"/><line style="stroke:#181818;stroke-width:1.0;" x1="561.5" x2="1104.5" y1="668.8203" y2="668.8203"/><text fill="#000000" font-family="sans-serif" font-size="13" font-weight="bold" lengthAdjust="spacing" textLength="18" x="568.5" y="663.7544">18</text><text fill="#000000" font-family="sans-serif" font-size="13" lengthAdjust="spacing" textLength="508" x="590.5" y="663.7544">configureAGV(model, description, taskStatus, batteryAutonomy, dockIdentifier)</text><polygon fill="#181818" points="1657.5,693.9531,1667.5,697.9531,1657.5,701.9531,1661.5,697.9531" style="stroke:#181818;stroke-width:1.0;"/><line style="stroke:#181818;stroke-width:1.0;" x1="1120.5" x2="1663.5" y1="697.9531" y2="697.9531"/><text fill="#000000" font-family="sans-serif" font-size="13" font-weight="bold" lengthAdjust="spacing" textLength="18" x="1127.5" y="692.8872">19</text><text fill="#000000" font-family="sans-serif" font-size="13" lengthAdjust="spacing" textLength="508" x="1149.5" y="692.8872">configureAGV(model, description, taskStatus, batteryAutonomy, dockIdentifier)</text><polygon fill="#181818" points="2408.5,723.0859,2418.5,727.0859,2408.5,731.0859,2412.5,727.0859" style="stroke:#181818;stroke-width:1.0;"/><line style="stroke:#181818;stroke-width:1.0;" x1="1679.5" x2="2414.5" y1="727.0859" y2="727.0859"/><text fill="#000000" font-family="sans-serif" font-size="13" font-weight="bold" lengthAdjust="spacing" textLength="19" x="1686.5" y="722.02">20</text><text fill="#000000" font-family="sans-serif" font-size="13" lengthAdjust="spacing" textLength="49" x="1709.5" y="722.02">findAll()</text><polygon fill="#181818" points="2270.5,782.2188,2280.5,786.2188,2270.5,790.2188,2274.5,786.2188" style="stroke:#181818;stroke-width:1.0;"/><line style="stroke:#181818;stroke-width:1.0;" x1="1679.5" x2="2276.5" y1="786.2188" y2="786.2188"/><text fill="#000000" font-family="sans-serif" font-size="13" font-weight="bold" lengthAdjust="spacing" textLength="18" x="1686.5" y="781.1528">21</text><text fill="#000000" font-family="sans-serif" font-size="13" lengthAdjust="spacing" textLength="51" x="1708.5" y="781.1528">create()</text><polygon fill="#181818" points="2270.5,829.4844,2280.5,833.4844,2270.5,837.4844,2274.5,833.4844" style="stroke:#181818;stroke-width:1.0;"/><line style="stroke:#181818;stroke-width:1.0;" x1="1679.5" x2="2276.5" y1="833.4844" y2="833.4844"/><text fill="#000000" font-family="sans-serif" font-size="13" font-weight="bold" lengthAdjust="spacing" textLength="18" x="1686.5" y="828.4185">22</text><text fill="#000000" font-family="sans-serif" font-size="13" lengthAdjust="spacing" textLength="51" x="1708.5" y="828.4185">sets(all)</text><path d="M2287,799.2188 L2287,854.2188 L2353,854.2188 L2353,809.2188 L2343,799.2188 L2287,799.2188 " fill="#FEFFDD" style="stroke:#181818;stroke-width:0.5;"/><path d="M2343,799.2188 L2343,809.2188 L2353,809.2188 L2343,799.2188 " fill="#FEFFDD" style="stroke:#181818;stroke-width:0.5;"/><text fill="#000000" font-family="sans-serif" font-size="13" lengthAdjust="spacing" textLength="4" x="2293" y="816.2856"> </text><text fill="#000000" font-family="sans-serif" font-size="13" lengthAdjust="spacing" textLength="45" x="2293" y="831.4185">all sets</text><text fill="#000000" font-family="sans-serif" font-size="13" lengthAdjust="spacing" textLength="4" x="2293" y="846.5513"> </text><polygon fill="#181818" points="2265.5,876.75,2275.5,880.75,2265.5,884.75,2269.5,880.75" style="stroke:#181818;stroke-width:1.0;"/><line style="stroke:#181818;stroke-width:1.0;" x1="1679.5" x2="2271.5" y1="880.75" y2="880.75"/><text fill="#000000" font-family="sans-serif" font-size="13" font-weight="bold" lengthAdjust="spacing" textLength="17" x="1686.5" y="875.6841">23</text><text fill="#000000" font-family="sans-serif" font-size="13" lengthAdjust="spacing" textLength="40" x="1707.5" y="875.6841">build()</text><polygon fill="#181818" points="2777.5,905.8828,2787.5,909.8828,2777.5,913.8828,2781.5,909.8828" style="stroke:#181818;stroke-width:1.0;"/><line style="stroke:#181818;stroke-width:1.0;" x1="2287.5" x2="2783.5" y1="909.8828" y2="909.8828"/><text fill="#000000" font-family="sans-serif" font-size="13" font-weight="bold" lengthAdjust="spacing" textLength="18" x="2294.5" y="904.8169">24</text><text fill="#000000" font-family="sans-serif" font-size="13" lengthAdjust="spacing" textLength="461" x="2316.5" y="904.8169">create(model, description, taskStatus, batteryAutonomy, dockIdentifier)</text><polygon fill="#181818" points="2298.5,935.0156,2288.5,939.0156,2298.5,943.0156,2294.5,939.0156" style="stroke:#181818;stroke-width:1.0;"/><line style="stroke:#181818;stroke-width:1.0;stroke-dasharray:2.0,2.0;" x1="2292.5" x2="2793.5" y1="939.0156" y2="939.0156"/><text fill="#000000" font-family="sans-serif" font-size="13" font-weight="bold" lengthAdjust="spacing" textLength="18" x="2304.5" y="933.9497">25</text><text fill="#000000" font-family="sans-serif" font-size="13" lengthAdjust="spacing" textLength="24" x="2326.5" y="933.9497">agv</text><polygon fill="#181818" points="1690.5,964.1484,1680.5,968.1484,1690.5,972.1484,1686.5,968.1484" style="stroke:#181818;stroke-width:1.0;"/><line style="stroke:#181818;stroke-width:1.0;stroke-dasharray:2.0,2.0;" x1="1684.5" x2="2281.5" y1="968.1484" y2="968.1484"/><text fill="#000000" font-family="sans-serif" font-size="13" font-weight="bold" lengthAdjust="spacing" textLength="18" x="1696.5" y="963.0825">26</text><text fill="#000000" font-family="sans-serif" font-size="13" lengthAdjust="spacing" textLength="24" x="1718.5" y="963.0825">agv</text><polygon fill="#181818" points="2777.5,993.2813,2787.5,997.2813,2777.5,1001.2813,2781.5,997.2813" style="stroke:#181818;stroke-width:1.0;"/><line style="stroke:#181818;stroke-width:1.0;" x1="1679.5" x2="2783.5" y1="997.2813" y2="997.2813"/><text fill="#000000" font-family="sans-serif" font-size="13" font-weight="bold" lengthAdjust="spacing" textLength="18" x="1686.5" y="992.2153">27</text><text fill="#000000" font-family="sans-serif" font-size="13" lengthAdjust="spacing" textLength="75" x="1708.5" y="992.2153">toDTO(agv)</text><polygon fill="#181818" points="3055,1022.4141,3065,1026.4141,3055,1030.4141,3059,1026.4141" style="stroke:#181818;stroke-width:1.0;"/><line style="stroke:#181818;stroke-width:1.0;" x1="2799.5" x2="3061" y1="1026.4141" y2="1026.4141"/><text fill="#000000" font-family="sans-serif" font-size="13" font-weight="bold" lengthAdjust="spacing" textLength="18" x="2806.5" y="1021.3481">28</text><text fill="#000000" font-family="sans-serif" font-size="13" lengthAdjust="spacing" textLength="51" x="2828.5" y="1021.3481">create()</text><polygon fill="#181818" points="1690.5,1051.5469,1680.5,1055.5469,1690.5,1059.5469,1686.5,1055.5469" style="stroke:#181818;stroke-width:1.0;"/><line style="stroke:#181818;stroke-width:1.0;stroke-dasharray:2.0,2.0;" x1="1684.5" x2="2793.5" y1="1055.5469" y2="1055.5469"/><text fill="#000000" font-family="sans-serif" font-size="13" font-weight="bold" lengthAdjust="spacing" textLength="18" x="1696.5" y="1050.481">29</text><text fill="#000000" font-family="sans-serif" font-size="13" lengthAdjust="spacing" textLength="47" x="1718.5" y="1050.481">agvDto</text><polygon fill="#181818" points="1131.5,1080.6797,1121.5,1084.6797,1131.5,1088.6797,1127.5,1084.6797" style="stroke:#181818;stroke-width:1.0;"/><line style="stroke:#181818;stroke-width:1.0;stroke-dasharray:2.0,2.0;" x1="1125.5" x2="1673.5" y1="1084.6797" y2="1084.6797"/><text fill="#000000" font-family="sans-serif" font-size="13" font-weight="bold" lengthAdjust="spacing" textLength="18" x="1137.5" y="1079.6138">30</text><text fill="#000000" font-family="sans-serif" font-size="13" lengthAdjust="spacing" textLength="47" x="1159.5" y="1079.6138">agvDto</text><polygon fill="#181818" points="572.5,1109.8125,562.5,1113.8125,572.5,1117.8125,568.5,1113.8125" style="stroke:#181818;stroke-width:1.0;"/><line style="stroke:#181818;stroke-width:1.0;stroke-dasharray:2.0,2.0;" x1="566.5" x2="1114.5" y1="1113.8125" y2="1113.8125"/><text fill="#000000" font-family="sans-serif" font-size="13" font-weight="bold" lengthAdjust="spacing" textLength="17" x="578.5" y="1108.7466">31</text><text fill="#000000" font-family="sans-serif" font-size="13" lengthAdjust="spacing" textLength="47" x="599.5" y="1108.7466">agvDto</text><polygon fill="#181818" points="104.5,1138.9453,94.5,1142.9453,104.5,1146.9453,100.5,1142.9453" style="stroke:#181818;stroke-width:1.0;"/><line style="stroke:#181818;stroke-width:1.0;stroke-dasharray:2.0,2.0;" x1="98.5" x2="555.5" y1="1142.9453" y2="1142.9453"/><text fill="#000000" font-family="sans-serif" font-size="13" font-weight="bold" lengthAdjust="spacing" textLength="17" x="110.5" y="1137.8794">32</text><text fill="#000000" font-family="sans-serif" font-size="13" lengthAdjust="spacing" textLength="245" x="131.5" y="1137.8794">shows the agvDto and asks to corfirm</text><polygon fill="#181818" points="539.5,1168.0781,549.5,1172.0781,539.5,1176.0781,543.5,1172.0781" style="stroke:#181818;stroke-width:1.0;"/><line style="stroke:#181818;stroke-width:1.0;" x1="93.5" x2="545.5" y1="1172.0781" y2="1172.0781"/><text fill="#000000" font-family="sans-serif" font-size="13" font-weight="bold" lengthAdjust="spacing" textLength="16" x="100.5" y="1167.0122">33</text><text fill="#000000" font-family="sans-serif" font-size="13" lengthAdjust="spacing" textLength="51" x="120.5" y="1167.0122">Confirm</text><polygon fill="#181818" points="1098.5,1197.2109,1108.5,1201.2109,1098.5,1205.2109,1102.5,1201.2109" style="stroke:#181818;stroke-width:1.0;"/><line style="stroke:#181818;stroke-width:1.0;" x1="561.5" x2="1104.5" y1="1201.2109" y2="1201.2109"/><text fill="#000000" font-family="sans-serif" font-size="13" font-weight="bold" lengthAdjust="spacing" textLength="17" x="568.5" y="1196.145">34</text><text fill="#000000" font-family="sans-serif" font-size="13" lengthAdjust="spacing" textLength="128" x="589.5" y="1196.145">persistAGV(agvDto)</text><polygon fill="#181818" points="1657.5,1226.3438,1667.5,1230.3438,1657.5,1234.3438,1661.5,1230.3438" style="stroke:#181818;stroke-width:1.0;"/><line style="stroke:#181818;stroke-width:1.0;" x1="1120.5" x2="1663.5" y1="1230.3438" y2="1230.3438"/><text fill="#000000" font-family="sans-serif" font-size="13" font-weight="bold" lengthAdjust="spacing" textLength="17" x="1127.5" y="1225.2778">35</text><text fill="#000000" font-family="sans-serif" font-size="13" lengthAdjust="spacing" textLength="128" x="1148.5" y="1225.2778">persistAGV(agvDto)</text><polygon fill="#181818" points="1823.5,1255.4766,1833.5,1259.4766,1823.5,1263.4766,1827.5,1259.4766" style="stroke:#181818;stroke-width:1.0;"/><line style="stroke:#181818;stroke-width:1.0;" x1="1679.5" x2="1829.5" y1="1259.4766" y2="1259.4766"/><text fill="#000000" font-family="sans-serif" font-size="13" font-weight="bold" lengthAdjust="spacing" textLength="17" x="1686.5" y="1254.4106">36</text><text fill="#000000" font-family="sans-serif" font-size="13" lengthAdjust="spacing" textLength="85" x="1707.5" y="1254.4106">repositories()</text><polygon fill="#181818" points="1990.5,1284.6094,2000.5,1288.6094,1990.5,1292.6094,1994.5,1288.6094" style="stroke:#181818;stroke-width:1.0;"/><line style="stroke:#181818;stroke-width:1.0;" x1="1845.5" x2="1996.5" y1="1288.6094" y2="1288.6094"/><text fill="#000000" font-family="sans-serif" font-size="13" font-weight="bold" lengthAdjust="spacing" textLength="17" x="1852.5" y="1283.5435">37</text><text fill="#000000" font-family="sans-serif" font-size="13" lengthAdjust="spacing" textLength="51" x="1873.5" y="1283.5435">create()</text><polygon fill="#181818" points="2146,1313.7422,2156,1317.7422,2146,1321.7422,2150,1317.7422" style="stroke:#181818;stroke-width:1.0;"/><line style="stroke:#181818;stroke-width:1.0;" x1="2007.5" x2="2152" y1="1317.7422" y2="1317.7422"/><text fill="#000000" font-family="sans-serif" font-size="13" font-weight="bold" lengthAdjust="spacing" textLength="17" x="2014.5" y="1312.6763">38</text><text fill="#000000" font-family="sans-serif" font-size="13" lengthAdjust="spacing" textLength="41" x="2035.5" y="1312.6763">create</text><polygon fill="#181818" points="2408.5,1342.875,2418.5,1346.875,2408.5,1350.875,2412.5,1346.875" style="stroke:#181818;stroke-width:1.0;"/><line style="stroke:#181818;stroke-width:1.0;" x1="1679.5" x2="2414.5" y1="1346.875" y2="1346.875"/><text fill="#000000" font-family="sans-serif" font-size="13" font-weight="bold" lengthAdjust="spacing" textLength="17" x="1686.5" y="1341.8091">39</text><text fill="#000000" font-family="sans-serif" font-size="13" lengthAdjust="spacing" textLength="57" x="1707.5" y="1341.8091">findALL()</text><polygon fill="#181818" points="2270.5,1402.0078,2280.5,1406.0078,2270.5,1410.0078,2274.5,1406.0078" style="stroke:#181818;stroke-width:1.0;"/><line style="stroke:#181818;stroke-width:1.0;" x1="1679.5" x2="2276.5" y1="1406.0078" y2="1406.0078"/><text fill="#000000" font-family="sans-serif" font-size="13" font-weight="bold" lengthAdjust="spacing" textLength="19" x="1686.5" y="1400.9419">40</text><text fill="#000000" font-family="sans-serif" font-size="13" lengthAdjust="spacing" textLength="51" x="1709.5" y="1400.9419">create()</text><polygon fill="#181818" points="2270.5,1449.2734,2280.5,1453.2734,2270.5,1457.2734,2274.5,1453.2734" style="stroke:#181818;stroke-width:1.0;"/><line style="stroke:#181818;stroke-width:1.0;" x1="1679.5" x2="2276.5" y1="1453.2734" y2="1453.2734"/><text fill="#000000" font-family="sans-serif" font-size="13" font-weight="bold" lengthAdjust="spacing" textLength="18" x="1686.5" y="1448.2075">41</text><text fill="#000000" font-family="sans-serif" font-size="13" lengthAdjust="spacing" textLength="51" x="1708.5" y="1448.2075">sets(all)</text><path d="M2287,1419.0078 L2287,1474.0078 L2353,1474.0078 L2353,1429.0078 L2343,1419.0078 L2287,1419.0078 " fill="#FEFFDD" style="stroke:#181818;stroke-width:0.5;"/><path d="M2343,1419.0078 L2343,1429.0078 L2353,1429.0078 L2343,1419.0078 " fill="#FEFFDD" style="stroke:#181818;stroke-width:0.5;"/><text fill="#000000" font-family="sans-serif" font-size="13" lengthAdjust="spacing" textLength="4" x="2293" y="1436.0747"> </text><text fill="#000000" font-family="sans-serif" font-size="13" lengthAdjust="spacing" textLength="45" x="2293" y="1451.2075">all sets</text><text fill="#000000" font-family="sans-serif" font-size="13" lengthAdjust="spacing" textLength="4" x="2293" y="1466.3403"> </text><polygon fill="#181818" points="2265.5,1496.5391,2275.5,1500.5391,2265.5,1504.5391,2269.5,1500.5391" style="stroke:#181818;stroke-width:1.0;"/><line style="stroke:#181818;stroke-width:1.0;" x1="1679.5" x2="2271.5" y1="1500.5391" y2="1500.5391"/><text fill="#000000" font-family="sans-serif" font-size="13" font-weight="bold" lengthAdjust="spacing" textLength="18" x="1686.5" y="1495.4731">42</text><text fill="#000000" font-family="sans-serif" font-size="13" lengthAdjust="spacing" textLength="40" x="1708.5" y="1495.4731">build()</text><polygon fill="#181818" points="2777.5,1525.6719,2787.5,1529.6719,2777.5,1533.6719,2781.5,1529.6719" style="stroke:#181818;stroke-width:1.0;"/><line style="stroke:#181818;stroke-width:1.0;" x1="2287.5" x2="2783.5" y1="1529.6719" y2="1529.6719"/><text fill="#000000" font-family="sans-serif" font-size="13" font-weight="bold" lengthAdjust="spacing" textLength="17" x="2294.5" y="1524.606">43</text><text fill="#000000" font-family="sans-serif" font-size="13" lengthAdjust="spacing" textLength="461" x="2315.5" y="1524.606">create(model, description, taskStatus, batteryAutonomy, dockIdentifier)</text><polygon fill="#181818" points="2298.5,1554.8047,2288.5,1558.8047,2298.5,1562.8047,2294.5,1558.8047" style="stroke:#181818;stroke-width:1.0;"/><line style="stroke:#181818;stroke-width:1.0;stroke-dasharray:2.0,2.0;" x1="2292.5" x2="2793.5" y1="1558.8047" y2="1558.8047"/><text fill="#000000" font-family="sans-serif" font-size="13" font-weight="bold" lengthAdjust="spacing" textLength="18" x="2304.5" y="1553.7388">44</text><text fill="#000000" font-family="sans-serif" font-size="13" lengthAdjust="spacing" textLength="24" x="2326.5" y="1553.7388">agv</text><polygon fill="#181818" points="1690.5,1583.9375,1680.5,1587.9375,1690.5,1591.9375,1686.5,1587.9375" style="stroke:#181818;stroke-width:1.0;"/><line style="stroke:#181818;stroke-width:1.0;stroke-dasharray:2.0,2.0;" x1="1684.5" x2="2281.5" y1="1587.9375" y2="1587.9375"/><text fill="#000000" font-family="sans-serif" font-size="13" font-weight="bold" lengthAdjust="spacing" textLength="18" x="1696.5" y="1582.8716">45</text><text fill="#000000" font-family="sans-serif" font-size="13" lengthAdjust="spacing" textLength="24" x="1718.5" y="1582.8716">agv</text><polygon fill="#181818" points="2141,1613.0703,2151,1617.0703,2141,1621.0703,2145,1617.0703" style="stroke:#181818;stroke-width:1.0;"/><line style="stroke:#181818;stroke-width:1.0;" x1="1679.5" x2="2147" y1="1617.0703" y2="1617.0703"/><text fill="#000000" font-family="sans-serif" font-size="13" font-weight="bold" lengthAdjust="spacing" textLength="18" x="1686.5" y="1612.0044">46</text><text fill="#000000" font-family="sans-serif" font-size="13" lengthAdjust="spacing" textLength="65" x="1708.5" y="1612.0044">save(agv)</text><polygon fill="#181818" points="99.5,1672.2031,89.5,1676.2031,99.5,1680.2031,95.5,1676.2031" style="stroke:#181818;stroke-width:1.0;"/><line style="stroke:#181818;stroke-width:1.0;stroke-dasharray:2.0,2.0;" x1="93.5" x2="555.5" y1="1676.2031" y2="1676.2031"/><text fill="#000000" font-family="sans-serif" font-size="13" font-weight="bold" lengthAdjust="spacing" textLength="18" x="105.5" y="1671.1372">47</text><text fill="#000000" font-family="sans-serif" font-size="13" lengthAdjust="spacing" textLength="129" x="127.5" y="1671.1372">informs the success</text><!--MD5=[a3fde8ebaee0637315a241663c75911f]
@startuml
autonumber
'hide footbox
actor "WhareHouse Empoyee" as SC

participant ":ConfigAGVUI" as UI
participant ":ConfigAGVController" as CTRL
participant ":ConfigAVGService" as AS
participant ":PersistenceContext" as PC
participant ":RepositoryFactory" as RF
participant ":AGVRepository" as PR
participant ":AGVBuilder" as PF
participant ":AGVDockRepository" as ADR
participant ":AGV" as P
participant ":AgvDock" as PA
participant ":DockDTO" as DT
participant ":AGVDTO" as AD

activate SC
SC -> UI : asks to config AGV
activate UI

UI - -> SC : requests the data(model,taskStatus,autonomyStatus,description)

UI -> CTRL : retrieveAllAvailableDocks()
activate CTRL
CTRL -> AS : create()
activate AS
AS -> PC : repositories()
activate PC

PC -> RF : create()
activate RF

deactivate PC

RF -> ADR : create()
deactivate RF

deactivate AS
CTRL -> AS : retrieveAllAvailableDocks()


activate AS

AS -> ADR : findAll()
activate ADR 

ADR - -> AS : listDocks
deactivate ADR

loop 

AS -> PA :toDTO()
activate PA
PA -> DT : create()

PA - -> AS : dockDto
deactivate PA
end

AS - -> CTRL : dockDTOList
deactivate AS
CTRL - -> UI : dockDTOList

deactivate CTRL 

UI - -> SC : Present and Asks to select one Dock 
deactivate UI

SC -> UI : selects one Dock
activate UI

UI -> CTRL : configureAGV(model, description, taskStatus, batteryAutonomy, dockIdentifier)

activate CTRL 

CTRL -> AS : configureAGV(model, description, taskStatus, batteryAutonomy, dockIdentifier)

activate AS

AS -> ADR : findAll()
activate ADR 
deactivate ADR

AS -> PF :create()

AS -> PF : sets(all)

note right

all sets

end note

AS -> PF : build()
activate PF

PF -> P : create(model, description, taskStatus, batteryAutonomy, dockIdentifier)
activate P

P - -> PF : agv
deactivate P


PF - -> AS : agv
deactivate PF

AS -> P : toDTO(agv)
activate P
P -> AD : create()


P - -> AS : agvDto

deactivate P

AS - -> CTRL : agvDto

deactivate AS



CTRL - -> UI : agvDto


deactivate CTRL

UI- -> SC: shows the agvDto and asks to corfirm 
deactivate UI

SC -> UI: Confirm
activate UI
UI -> CTRL : persistAGV(agvDto)

activate CTRL 



CTRL -> AS : persistAGV(agvDto)

activate AS

AS -> PC : repositories()

activate PC

PC -> RF : create()
activate RF

RF -> PR : create

deactivate RF

deactivate PC

AS -> ADR : findALL()
activate ADR 
deactivate ADR
AS -> PF :create()

AS -> PF : sets(all)

note right

all sets

end note

AS -> PF : build()
activate PF

PF -> P : create(model, description, taskStatus, batteryAutonomy, dockIdentifier)
activate P

P - -> PF : agv
deactivate P


PF - -> AS : agv
deactivate PF

AS -> PR : save(agv)
activate PR
deactivate PR
deactivate AS

deactivate CTRL

UI - -> SC : informs the success

deactivate UI





deactivate SC
@enduml

@startuml
autonumber
actor "WhareHouse Empoyee" as SC

participant ":ConfigAGVUI" as UI
participant ":ConfigAGVController" as CTRL
participant ":ConfigAVGService" as AS
participant ":PersistenceContext" as PC
participant ":RepositoryFactory" as RF
participant ":AGVRepository" as PR
participant ":AGVBuilder" as PF
participant ":AGVDockRepository" as ADR
participant ":AGV" as P
participant ":AgvDock" as PA
participant ":DockDTO" as DT
participant ":AGVDTO" as AD

activate SC
SC -> UI : asks to config AGV
activate UI

UI - -> SC : requests the data(model,taskStatus,autonomyStatus,description)

UI -> CTRL : retrieveAllAvailableDocks()
activate CTRL
CTRL -> AS : create()
activate AS
AS -> PC : repositories()
activate PC

PC -> RF : create()
activate RF

deactivate PC

RF -> ADR : create()
deactivate RF

deactivate AS
CTRL -> AS : retrieveAllAvailableDocks()


activate AS

AS -> ADR : findAll()
activate ADR 

ADR - -> AS : listDocks
deactivate ADR

loop 

AS -> PA :toDTO()
activate PA
PA -> DT : create()

PA - -> AS : dockDto
deactivate PA
end

AS - -> CTRL : dockDTOList
deactivate AS
CTRL - -> UI : dockDTOList

deactivate CTRL 

UI - -> SC : Present and Asks to select one Dock 
deactivate UI

SC -> UI : selects one Dock
activate UI

UI -> CTRL : configureAGV(model, description, taskStatus, batteryAutonomy, dockIdentifier)

activate CTRL 

CTRL -> AS : configureAGV(model, description, taskStatus, batteryAutonomy, dockIdentifier)

activate AS

AS -> ADR : findAll()
activate ADR 
deactivate ADR

AS -> PF :create()

AS -> PF : sets(all)

note right

all sets

end note

AS -> PF : build()
activate PF

PF -> P : create(model, description, taskStatus, batteryAutonomy, dockIdentifier)
activate P

P - -> PF : agv
deactivate P


PF - -> AS : agv
deactivate PF

AS -> P : toDTO(agv)
activate P
P -> AD : create()


P - -> AS : agvDto

deactivate P

AS - -> CTRL : agvDto

deactivate AS



CTRL - -> UI : agvDto


deactivate CTRL

UI- -> SC: shows the agvDto and asks to corfirm 
deactivate UI

SC -> UI: Confirm
activate UI
UI -> CTRL : persistAGV(agvDto)

activate CTRL 



CTRL -> AS : persistAGV(agvDto)

activate AS

AS -> PC : repositories()

activate PC

PC -> RF : create()
activate RF

RF -> PR : create

deactivate RF

deactivate PC

AS -> ADR : findALL()
activate ADR 
deactivate ADR
AS -> PF :create()

AS -> PF : sets(all)

note right

all sets

end note

AS -> PF : build()
activate PF

PF -> P : create(model, description, taskStatus, batteryAutonomy, dockIdentifier)
activate P

P - -> PF : agv
deactivate P


PF - -> AS : agv
deactivate PF

AS -> PR : save(agv)
activate PR
deactivate PR
deactivate AS

deactivate CTRL

UI - -> SC : informs the success

deactivate UI





deactivate SC
@enduml

PlantUML version 1.2022.4beta2(Unknown compile time)
(GPL source distribution)
Java Runtime: Java(TM) SE Runtime Environment
JVM: Java HotSpot(TM) 64-Bit Server VM
Default Encoding: UTF-8
Language: en
Country: US
--></g></svg>