<?xml version="1.0" encoding="UTF-8" standalone="no"?><svg xmlns="http://www.w3.org/2000/svg" xmlns:xlink="http://www.w3.org/1999/xlink" contentScriptType="application/ecmascript" contentStyleType="text/css" height="567px" preserveAspectRatio="none" style="width:793px;height:567px;background:#FFFFFF;" version="1.1" viewBox="0 0 793 567" width="793px" zoomAndPan="magnify"><defs><filter height="300%" id="flrhk1av0xccy" width="300%" x="-1" y="-1"><feGaussianBlur result="blurOut" stdDeviation="2.0"/><feColorMatrix in="blurOut" result="blurOut2" type="matrix" values="0 0 0 0 0 0 0 0 0 0 0 0 0 0 0 0 0 0 .4 0"/><feOffset dx="4.0" dy="4.0" in="blurOut2" result="blurOut3"/><feBlend in="SourceGraphic" in2="blurOut3" mode="normal"/></filter></defs><g><rect fill="#FFFFFF" filter="url(#flrhk1av0xccy)" height="104.0547" style="stroke:#A80036;stroke-width:1.0;" width="10" x="282.5" y="147.2734"/><rect fill="#FFFFFF" filter="url(#flrhk1av0xccy)" height="266.3281" style="stroke:#A80036;stroke-width:1.0;" width="10" x="409" y="220.9766"/><rect fill="#FFFFFF" filter="url(#flrhk1av0xccy)" height="73.7031" style="stroke:#A80036;stroke-width:1.0;" width="10" x="684" y="383.25"/><rect fill="#FFFFFF" filter="url(#flrhk1av0xccy)" height="152.7578" style="stroke:#000000;stroke-width:2.0;" width="474" x="10" y="106.5703"/><line style="stroke:#A80036;stroke-width:1.0;stroke-dasharray:5.0,5.0;" x1="53" x2="53" y1="59.2188" y2="505.3047"/><line style="stroke:#A80036;stroke-width:1.0;stroke-dasharray:5.0,5.0;" x1="159" x2="159" y1="59.2188" y2="505.3047"/><line style="stroke:#A80036;stroke-width:1.0;stroke-dasharray:5.0,5.0;" x1="287" x2="287" y1="59.2188" y2="505.3047"/><line style="stroke:#A80036;stroke-width:1.0;stroke-dasharray:5.0,5.0;" x1="414" x2="414" y1="59.2188" y2="505.3047"/><line style="stroke:#A80036;stroke-width:1.0;stroke-dasharray:5.0,5.0;" x1="542" x2="542" y1="59.2188" y2="505.3047"/><line style="stroke:#A80036;stroke-width:1.0;stroke-dasharray:5.0,5.0;" x1="689" x2="689" y1="338.7891" y2="505.3047"/><rect fill="#FEFECE" filter="url(#flrhk1av0xccy)" height="49.2188" style="stroke:#A80036;stroke-width:1.5;" width="63" x="20" y="5"/><text fill="#000000" font-family="sans-serif" font-size="14" font-style="italic" lengthAdjust="spacing" textLength="49" x="27" y="26.5332">«client»</text><text fill="#000000" font-family="sans-serif" font-size="14" lengthAdjust="spacing" textLength="34" x="34.5" y="44.1426">Kiosk</text><rect fill="#FEFECE" filter="url(#flrhk1av0xccy)" height="49.2188" style="stroke:#A80036;stroke-width:1.5;" width="63" x="20" y="504.3047"/><text fill="#000000" font-family="sans-serif" font-size="14" font-style="italic" lengthAdjust="spacing" textLength="49" x="27" y="525.8379">«client»</text><text fill="#000000" font-family="sans-serif" font-size="14" lengthAdjust="spacing" textLength="34" x="34.5" y="543.4473">Kiosk</text><rect fill="#FEFECE" filter="url(#flrhk1av0xccy)" height="31.6094" style="stroke:#A80036;stroke-width:1.5;" width="120" x="97" y="22.6094"/><text fill="#000000" font-family="sans-serif" font-size="14" lengthAdjust="spacing" textLength="106" x="104" y="44.1426">AgvTwinDaemon</text><rect fill="#FEFECE" filter="url(#flrhk1av0xccy)" height="31.6094" style="stroke:#A80036;stroke-width:1.5;" width="120" x="97" y="504.3047"/><text fill="#000000" font-family="sans-serif" font-size="14" lengthAdjust="spacing" textLength="106" x="104" y="525.8379">AgvTwinDaemon</text><rect fill="#FEFECE" filter="url(#flrhk1av0xccy)" height="31.6094" style="stroke:#A80036;stroke-width:1.5;" width="109" x="231" y="22.6094"/><text fill="#000000" font-family="sans-serif" font-size="14" lengthAdjust="spacing" textLength="95" x="238" y="44.1426">AgvTwinServer</text><rect fill="#FEFECE" filter="url(#flrhk1av0xccy)" height="31.6094" style="stroke:#A80036;stroke-width:1.5;" width="109" x="231" y="504.3047"/><text fill="#000000" font-family="sans-serif" font-size="14" lengthAdjust="spacing" textLength="95" x="238" y="525.8379">AgvTwinServer</text><rect fill="#FEFECE" filter="url(#flrhk1av0xccy)" height="49.2188" style="stroke:#A80036;stroke-width:1.5;" width="116" x="354" y="5"/><text fill="#000000" font-family="sans-serif" font-size="14" font-style="italic" lengthAdjust="spacing" textLength="57" x="383.5" y="26.5332">«thread»</text><text fill="#000000" font-family="sans-serif" font-size="14" lengthAdjust="spacing" textLength="102" x="361" y="44.1426">AgvTwinHandler</text><rect fill="#FEFECE" filter="url(#flrhk1av0xccy)" height="49.2188" style="stroke:#A80036;stroke-width:1.5;" width="116" x="354" y="504.3047"/><text fill="#000000" font-family="sans-serif" font-size="14" font-style="italic" lengthAdjust="spacing" textLength="57" x="383.5" y="525.8379">«thread»</text><text fill="#000000" font-family="sans-serif" font-size="14" lengthAdjust="spacing" textLength="102" x="361" y="543.4473">AgvTwinHandler</text><rect fill="#FEFECE" filter="url(#flrhk1av0xccy)" height="31.6094" style="stroke:#A80036;stroke-width:1.5;" width="113" x="484" y="22.6094"/><text fill="#000000" font-family="sans-serif" font-size="14" lengthAdjust="spacing" textLength="99" x="491" y="44.1426">MessageParser</text><rect fill="#FEFECE" filter="url(#flrhk1av0xccy)" height="31.6094" style="stroke:#A80036;stroke-width:1.5;" width="113" x="484" y="504.3047"/><text fill="#000000" font-family="sans-serif" font-size="14" lengthAdjust="spacing" textLength="99" x="491" y="525.8379">MessageParser</text><rect fill="#FEFECE" filter="url(#flrhk1av0xccy)" height="49.2188" style="stroke:#A80036;stroke-width:1.5;" width="152" x="611" y="504.3047"/><text fill="#000000" font-family="sans-serif" font-size="14" font-style="italic" lengthAdjust="spacing" textLength="67" x="653.5" y="525.8379">«abstract»</text><text fill="#000000" font-family="sans-serif" font-size="14" lengthAdjust="spacing" textLength="138" x="618" y="543.4473">UpdateStatusRequest</text><rect fill="#FFFFFF" filter="url(#flrhk1av0xccy)" height="104.0547" style="stroke:#A80036;stroke-width:1.0;" width="10" x="282.5" y="147.2734"/><rect fill="#FFFFFF" filter="url(#flrhk1av0xccy)" height="266.3281" style="stroke:#A80036;stroke-width:1.0;" width="10" x="409" y="220.9766"/><rect fill="#FFFFFF" filter="url(#flrhk1av0xccy)" height="73.7031" style="stroke:#A80036;stroke-width:1.0;" width="10" x="684" y="383.25"/><polygon fill="#A80036" points="275.5,87.5703,285.5,91.5703,275.5,95.5703,279.5,91.5703" style="stroke:#A80036;stroke-width:1.0;"/><line style="stroke:#A80036;stroke-width:1.0;" x1="159" x2="281.5" y1="91.5703" y2="91.5703"/><text fill="#000000" font-family="sans-serif" font-size="13" lengthAdjust="spacing" textLength="23" x="166" y="86.7139">new</text><path d="M10,106.5703 L83,106.5703 L83,114.5703 L73,124.5703 L10,124.5703 L10,106.5703 " fill="#EEEEEE" style="stroke:#000000;stroke-width:1.0;"/><rect fill="none" height="152.7578" style="stroke:#000000;stroke-width:2.0;" width="474" x="10" y="106.5703"/><text fill="#000000" font-family="sans-serif" font-size="13" font-weight="bold" lengthAdjust="spacing" textLength="28" x="25" y="121.0654">loop</text><text fill="#000000" font-family="sans-serif" font-size="11" font-weight="bold" lengthAdjust="spacing" textLength="31" x="98" y="119.9893">[true]</text><polygon fill="#A80036" points="270.5,143.2734,280.5,147.2734,270.5,151.2734,274.5,147.2734" style="stroke:#A80036;stroke-width:1.0;"/><line style="stroke:#A80036;stroke-width:1.0;" x1="159" x2="276.5" y1="147.2734" y2="147.2734"/><text fill="#000000" font-family="sans-serif" font-size="13" lengthAdjust="spacing" textLength="26" x="166" y="142.417">start</text><line style="stroke:#A80036;stroke-width:1.0;" x1="292.5" x2="334.5" y1="177.625" y2="177.625"/><line style="stroke:#A80036;stroke-width:1.0;" x1="334.5" x2="334.5" y1="177.625" y2="190.625"/><line style="stroke:#A80036;stroke-width:1.0;" x1="293.5" x2="334.5" y1="190.625" y2="190.625"/><polygon fill="#A80036" points="303.5,186.625,293.5,190.625,303.5,194.625,299.5,190.625" style="stroke:#A80036;stroke-width:1.0;"/><text fill="#000000" font-family="sans-serif" font-size="13" lengthAdjust="spacing" textLength="39" x="299.5" y="172.7686">accept</text><polygon fill="#A80036" points="270.5,216.9766,280.5,220.9766,270.5,224.9766,274.5,220.9766" style="stroke:#A80036;stroke-width:1.0;"/><line style="stroke:#A80036;stroke-width:1.0;stroke-dasharray:2.0,2.0;" x1="53.5" x2="276.5" y1="220.9766" y2="220.9766"/><text fill="#000000" font-family="sans-serif" font-size="13" lengthAdjust="spacing" textLength="43" x="60.5" y="216.1201">request</text><polygon fill="#A80036" points="397,247.3281,407,251.3281,397,255.3281,401,251.3281" style="stroke:#A80036;stroke-width:1.0;"/><line style="stroke:#A80036;stroke-width:1.0;" x1="287.5" x2="403" y1="251.3281" y2="251.3281"/><text fill="#000000" font-family="sans-serif" font-size="13" lengthAdjust="spacing" textLength="26" x="294.5" y="246.4717">start</text><polygon fill="#A80036" points="530.5,284.6797,540.5,288.6797,530.5,292.6797,534.5,288.6797" style="stroke:#A80036;stroke-width:1.0;"/><line style="stroke:#A80036;stroke-width:1.0;" x1="419" x2="536.5" y1="288.6797" y2="288.6797"/><text fill="#000000" font-family="sans-serif" font-size="13" lengthAdjust="spacing" textLength="83" x="426" y="283.8232">parse(request)</text><polygon fill="#A80036" points="599,315.0313,609,319.0313,599,323.0313,603,319.0313" style="stroke:#A80036;stroke-width:1.0;"/><line style="stroke:#A80036;stroke-width:1.0;" x1="542.5" x2="605" y1="319.0313" y2="319.0313"/><text fill="#000000" font-family="sans-serif" font-size="13" lengthAdjust="spacing" textLength="23" x="549.5" y="314.1748">new</text><rect fill="#FEFECE" filter="url(#flrhk1av0xccy)" height="49.2188" style="stroke:#A80036;stroke-width:1.5;" width="152" x="611" y="296.6797"/><text fill="#000000" font-family="sans-serif" font-size="14" font-style="italic" lengthAdjust="spacing" textLength="67" x="653.5" y="318.2129">«abstract»</text><text fill="#000000" font-family="sans-serif" font-size="14" lengthAdjust="spacing" textLength="138" x="618" y="335.8223">UpdateStatusRequest</text><polygon fill="#A80036" points="672,379.25,682,383.25,672,387.25,676,383.25" style="stroke:#A80036;stroke-width:1.0;"/><line style="stroke:#A80036;stroke-width:1.0;" x1="419" x2="678" y1="383.25" y2="383.25"/><text fill="#000000" font-family="sans-serif" font-size="13" lengthAdjust="spacing" textLength="46" x="426" y="378.3936">execute</text><line style="stroke:#A80036;stroke-width:1.0;" x1="694" x2="736" y1="413.6016" y2="413.6016"/><line style="stroke:#A80036;stroke-width:1.0;" x1="736" x2="736" y1="413.6016" y2="426.6016"/><line style="stroke:#A80036;stroke-width:1.0;" x1="695" x2="736" y1="426.6016" y2="426.6016"/><polygon fill="#A80036" points="705,422.6016,695,426.6016,705,430.6016,701,426.6016" style="stroke:#A80036;stroke-width:1.0;"/><text fill="#000000" font-family="sans-serif" font-size="13" lengthAdjust="spacing" textLength="85" x="701" y="408.7451">buildResponse</text><polygon fill="#A80036" points="430,452.9531,420,456.9531,430,460.9531,426,456.9531" style="stroke:#A80036;stroke-width:1.0;"/><line style="stroke:#A80036;stroke-width:1.0;stroke-dasharray:2.0,2.0;" x1="424" x2="688" y1="456.9531" y2="456.9531"/><text fill="#000000" font-family="sans-serif" font-size="13" lengthAdjust="spacing" textLength="53" x="436" y="452.0967">response</text><polygon fill="#A80036" points="64.5,483.3047,54.5,487.3047,64.5,491.3047,60.5,487.3047" style="stroke:#A80036;stroke-width:1.0;"/><line style="stroke:#A80036;stroke-width:1.0;stroke-dasharray:2.0,2.0;" x1="58.5" x2="413" y1="487.3047" y2="487.3047"/><text fill="#000000" font-family="sans-serif" font-size="13" lengthAdjust="spacing" textLength="53" x="70.5" y="482.4482">response</text><!--MD5=[9c13b2525ef6f01a86334d914c7c9432]
@startuml

participant "Kiosk" as KIOSK << client >>
participant "AgvTwinDaemon" as DAEMON
participant "AgvTwinServer" as SERVER
participant "AgvTwinHandler" as HANDLE << thread >>
participant "MessageParser" as MSG
participant "UpdateStatusRequest" as PROTOCOL << abstract >>

DAEMON -> SERVER: new

loop true

DAEMON -> SERVER: start
activate SERVER

SERVER -> SERVER: accept

KIOSK  - -> SERVER: request

activate HANDLE
SERVER  -> HANDLE: start
deactivate SERVER

end loop

HANDLE  -> MSG: parse(request)
MSG  -> PROTOCOL** : new

HANDLE  -> PROTOCOL: execute
activate PROTOCOL
PROTOCOL  -> PROTOCOL: buildResponse

PROTOCOL  - -> HANDLE: response
deactivate PROTOCOL
HANDLE  - -> KIOSK : response
deactivate HANDLE


@enduml

PlantUML version 1.2021.16(Wed Dec 08 17:25:22 GMT 2021)
(GPL source distribution)
Java Runtime: OpenJDK Runtime Environment
JVM: OpenJDK 64-Bit Server VM
Default Encoding: Cp1252
Language: en
Country: US
--></g></svg>