<?xml version="1.0" encoding="UTF-8" standalone="no"?><svg xmlns="http://www.w3.org/2000/svg" xmlns:xlink="http://www.w3.org/1999/xlink" contentStyleType="text/css" height="1125px" preserveAspectRatio="none" style="width:1794px;height:1125px;background:#FFFFFF;" version="1.1" viewBox="0 0 1794 1125" width="1794px" zoomAndPan="magnify"><defs/><g><!--MD5=[488832bc632c0d5d2b7b1ac46f681c5e]
class ListLocationFromWarehouseService--><g id="elem_ListLocationFromWarehouseService"><rect codeLine="1" fill="#F1F1F1" height="121.4531" id="ListLocationFromWarehouseService" rx="2.5" ry="2.5" style="stroke:#181818;stroke-width:0.5;" width="289" x="7" y="370"/><ellipse cx="22" cy="390.1328" fill="#ADD1B2" rx="11" ry="11" style="stroke:#181818;stroke-width:1.0;"/><path d="M24.3438,385.8047 C23.4063,385.3672 22.8125,385.2266 21.9375,385.2266 C19.3125,385.2266 17.3125,387.3047 17.3125,390.0234 L17.3125,391.1484 C17.3125,393.7266 19.4219,395.6172 22.3125,395.6172 C23.5313,395.6172 24.6875,395.3203 25.4375,394.7734 C26.0156,394.3672 26.3438,393.9141 26.3438,393.5234 C26.3438,393.0703 25.9531,392.6797 25.4844,392.6797 C25.2656,392.6797 25.0625,392.7578 24.875,392.9453 C24.4219,393.4297 24.4219,393.4297 24.2344,393.5234 C23.8125,393.7891 23.125,393.9141 22.3594,393.9141 C20.3125,393.9141 19.0156,392.8203 19.0156,391.1172 L19.0156,390.0234 C19.0156,388.2422 20.2656,386.9297 22,386.9297 C22.5781,386.9297 23.1875,387.0859 23.6563,387.3359 C24.1406,387.6172 24.3125,387.8359 24.4063,388.2422 C24.4688,388.6484 24.5,388.7734 24.6406,388.8984 C24.7813,389.0391 25.0156,389.1484 25.2344,389.1484 C25.5,389.1484 25.7656,389.0078 25.9375,388.7891 C26.0469,388.6328 26.0781,388.4453 26.0781,388.0234 L26.0781,386.6016 C26.0781,386.1641 26.0625,386.0391 25.9688,385.8828 C25.8125,385.6172 25.5313,385.4766 25.2344,385.4766 C24.9375,385.4766 24.7344,385.5703 24.5156,385.8828 L24.3438,385.8047 Z " fill="#000000"/><text fill="#000000" font-family="sans-serif" font-size="12" font-style="italic" lengthAdjust="spacing" textLength="58" x="135.5" y="386.1387">«Service»</text><text fill="#000000" font-family="sans-serif" font-size="14" lengthAdjust="spacing" textLength="257" x="36" y="401.9639">ListLocationFromWarehouseService</text><line style="stroke:#181818;stroke-width:0.5;" x1="8" x2="295" y1="410.2656" y2="410.2656"/><rect fill="none" height="6" style="stroke:#C82930;stroke-width:1.0;" width="6" x="15" y="418.2656"/><text fill="#000000" font-family="sans-serif" font-size="14" lengthAdjust="spacing" textLength="232" x="27" y="427.2607">PersistenceContext persistence</text><rect fill="none" height="6" style="stroke:#C82930;stroke-width:1.0;" width="6" x="15" y="434.5625"/><text fill="#000000" font-family="sans-serif" font-size="14" lengthAdjust="spacing" textLength="121" x="27" y="443.5576">RowMapper map</text><line style="stroke:#181818;stroke-width:0.5;" x1="8" x2="295" y1="450.8594" y2="450.8594"/><ellipse cx="18" cy="461.8594" fill="#84BE84" rx="3" ry="3" style="stroke:#038048;stroke-width:1.0;"/><text fill="#000000" font-family="sans-serif" font-size="14" lengthAdjust="spacing" textLength="62" x="27" y="467.8545">listRow()</text><ellipse cx="18" cy="478.1563" fill="#84BE84" rx="3" ry="3" style="stroke:#038048;stroke-width:1.0;"/><text fill="#000000" font-family="sans-serif" font-size="14" lengthAdjust="spacing" textLength="149" x="27" y="484.1514">getRealRow(rowDto)</text></g><!--MD5=[2a97c8ac02a997aeb5d82c92297a3153]
class RowRepository--><g id="elem_RowRepository"><rect codeLine="9" fill="#F1F1F1" height="64.2969" id="RowRepository" rx="2.5" ry="2.5" style="stroke:#181818;stroke-width:0.5;" width="141" x="252" y="885.5"/><ellipse cx="267" cy="901.5" fill="#ADD1B2" rx="11" ry="11" style="stroke:#181818;stroke-width:1.0;"/><path d="M269.3438,897.1719 C268.4063,896.7344 267.8125,896.5938 266.9375,896.5938 C264.3125,896.5938 262.3125,898.6719 262.3125,901.3906 L262.3125,902.5156 C262.3125,905.0938 264.4219,906.9844 267.3125,906.9844 C268.5313,906.9844 269.6875,906.6875 270.4375,906.1406 C271.0156,905.7344 271.3438,905.2813 271.3438,904.8906 C271.3438,904.4375 270.9531,904.0469 270.4844,904.0469 C270.2656,904.0469 270.0625,904.125 269.875,904.3125 C269.4219,904.7969 269.4219,904.7969 269.2344,904.8906 C268.8125,905.1563 268.125,905.2813 267.3594,905.2813 C265.3125,905.2813 264.0156,904.1875 264.0156,902.4844 L264.0156,901.3906 C264.0156,899.6094 265.2656,898.2969 267,898.2969 C267.5781,898.2969 268.1875,898.4531 268.6563,898.7031 C269.1406,898.9844 269.3125,899.2031 269.4063,899.6094 C269.4688,900.0156 269.5,900.1406 269.6406,900.2656 C269.7813,900.4063 270.0156,900.5156 270.2344,900.5156 C270.5,900.5156 270.7656,900.375 270.9375,900.1563 C271.0469,900 271.0781,899.8125 271.0781,899.3906 L271.0781,897.9688 C271.0781,897.5313 271.0625,897.4063 270.9688,897.25 C270.8125,896.9844 270.5313,896.8438 270.2344,896.8438 C269.9375,896.8438 269.7344,896.9375 269.5156,897.25 L269.3438,897.1719 Z " fill="#000000"/><text fill="#000000" font-family="sans-serif" font-size="14" lengthAdjust="spacing" textLength="109" x="281" y="906.3467">RowRepository</text><line style="stroke:#181818;stroke-width:0.5;" x1="253" x2="392" y1="917.5" y2="917.5"/><line style="stroke:#181818;stroke-width:0.5;" x1="253" x2="392" y1="925.5" y2="925.5"/><ellipse cx="263" cy="936.5" fill="#84BE84" rx="3" ry="3" style="stroke:#038048;stroke-width:1.0;"/><text fill="#000000" font-family="sans-serif" font-size="14" lengthAdjust="spacing" textLength="83" x="272" y="942.4951">getAllRow()</text></g><!--MD5=[c70e63285b4949167153f04013086d37]
class SpecifyProductUI--><g id="elem_SpecifyProductUI"><rect codeLine="13" fill="#F1F1F1" height="56.2656" id="SpecifyProductUI" rx="2.5" ry="2.5" style="stroke:#181818;stroke-width:0.5;" width="155" x="805" y="7"/><ellipse cx="820" cy="27.1328" fill="#ADD1B2" rx="11" ry="11" style="stroke:#181818;stroke-width:1.0;"/><path d="M822.3438,22.8047 C821.4063,22.3672 820.8125,22.2266 819.9375,22.2266 C817.3125,22.2266 815.3125,24.3047 815.3125,27.0234 L815.3125,28.1484 C815.3125,30.7266 817.4219,32.6172 820.3125,32.6172 C821.5313,32.6172 822.6875,32.3203 823.4375,31.7734 C824.0156,31.3672 824.3438,30.9141 824.3438,30.5234 C824.3438,30.0703 823.9531,29.6797 823.4844,29.6797 C823.2656,29.6797 823.0625,29.7578 822.875,29.9453 C822.4219,30.4297 822.4219,30.4297 822.2344,30.5234 C821.8125,30.7891 821.125,30.9141 820.3594,30.9141 C818.3125,30.9141 817.0156,29.8203 817.0156,28.1172 L817.0156,27.0234 C817.0156,25.2422 818.2656,23.9297 820,23.9297 C820.5781,23.9297 821.1875,24.0859 821.6563,24.3359 C822.1406,24.6172 822.3125,24.8359 822.4063,25.2422 C822.4688,25.6484 822.5,25.7734 822.6406,25.8984 C822.7813,26.0391 823.0156,26.1484 823.2344,26.1484 C823.5,26.1484 823.7656,26.0078 823.9375,25.7891 C824.0469,25.6328 824.0781,25.4453 824.0781,25.0234 L824.0781,23.6016 C824.0781,23.1641 824.0625,23.0391 823.9688,22.8828 C823.8125,22.6172 823.5313,22.4766 823.2344,22.4766 C822.9375,22.4766 822.7344,22.5703 822.5156,22.8828 L822.3438,22.8047 Z " fill="#000000"/><text fill="#000000" font-family="sans-serif" font-size="12" font-style="italic" lengthAdjust="spacing" textLength="89" x="851" y="23.1387">«Presentation»</text><text fill="#000000" font-family="sans-serif" font-size="14" lengthAdjust="spacing" textLength="123" x="834" y="38.9639">SpecifyProductUI</text><line style="stroke:#181818;stroke-width:0.5;" x1="806" x2="959" y1="47.2656" y2="47.2656"/><line style="stroke:#181818;stroke-width:0.5;" x1="806" x2="959" y1="55.2656" y2="55.2656"/></g><!--MD5=[b18ac2661f7e59cb6e5cd7b7c83cf5d2]
class CategoryDTO--><g id="elem_CategoryDTO"><rect codeLine="17" fill="#F1F1F1" height="56.2656" id="CategoryDTO" rx="2.5" ry="2.5" style="stroke:#181818;stroke-width:0.5;" width="129" x="1658" y="720.5"/><ellipse cx="1673" cy="740.6328" fill="#ADD1B2" rx="11" ry="11" style="stroke:#181818;stroke-width:1.0;"/><path d="M1675.3438,736.3047 C1674.4063,735.8672 1673.8125,735.7266 1672.9375,735.7266 C1670.3125,735.7266 1668.3125,737.8047 1668.3125,740.5234 L1668.3125,741.6484 C1668.3125,744.2266 1670.4219,746.1172 1673.3125,746.1172 C1674.5313,746.1172 1675.6875,745.8203 1676.4375,745.2734 C1677.0156,744.8672 1677.3438,744.4141 1677.3438,744.0234 C1677.3438,743.5703 1676.9531,743.1797 1676.4844,743.1797 C1676.2656,743.1797 1676.0625,743.2578 1675.875,743.4453 C1675.4219,743.9297 1675.4219,743.9297 1675.2344,744.0234 C1674.8125,744.2891 1674.125,744.4141 1673.3594,744.4141 C1671.3125,744.4141 1670.0156,743.3203 1670.0156,741.6172 L1670.0156,740.5234 C1670.0156,738.7422 1671.2656,737.4297 1673,737.4297 C1673.5781,737.4297 1674.1875,737.5859 1674.6563,737.8359 C1675.1406,738.1172 1675.3125,738.3359 1675.4063,738.7422 C1675.4688,739.1484 1675.5,739.2734 1675.6406,739.3984 C1675.7813,739.5391 1676.0156,739.6484 1676.2344,739.6484 C1676.5,739.6484 1676.7656,739.5078 1676.9375,739.2891 C1677.0469,739.1328 1677.0781,738.9453 1677.0781,738.5234 L1677.0781,737.1016 C1677.0781,736.6641 1677.0625,736.5391 1676.9688,736.3828 C1676.8125,736.1172 1676.5313,735.9766 1676.2344,735.9766 C1675.9375,735.9766 1675.7344,736.0703 1675.5156,736.3828 L1675.3438,736.3047 Z " fill="#000000"/><text fill="#000000" font-family="sans-serif" font-size="12" font-style="italic" lengthAdjust="spacing" textLength="39" x="1716" y="736.6387">«DTO»</text><text fill="#000000" font-family="sans-serif" font-size="14" lengthAdjust="spacing" textLength="97" x="1687" y="752.4639">CategoryDTO</text><line style="stroke:#181818;stroke-width:0.5;" x1="1659" x2="1786" y1="760.7656" y2="760.7656"/><line style="stroke:#181818;stroke-width:0.5;" x1="1659" x2="1786" y1="768.7656" y2="768.7656"/></g><!--MD5=[2529b9dbf411a03e0fc2ce7d5123c3b0]
class RowDTO--><g id="elem_RowDTO"><rect codeLine="21" fill="#F1F1F1" height="56.2656" id="RowDTO" rx="2.5" ry="2.5" style="stroke:#181818;stroke-width:0.5;" width="93" x="86" y="720.5"/><ellipse cx="101" cy="740.6328" fill="#ADD1B2" rx="11" ry="11" style="stroke:#181818;stroke-width:1.0;"/><path d="M103.3438,736.3047 C102.4063,735.8672 101.8125,735.7266 100.9375,735.7266 C98.3125,735.7266 96.3125,737.8047 96.3125,740.5234 L96.3125,741.6484 C96.3125,744.2266 98.4219,746.1172 101.3125,746.1172 C102.5313,746.1172 103.6875,745.8203 104.4375,745.2734 C105.0156,744.8672 105.3438,744.4141 105.3438,744.0234 C105.3438,743.5703 104.9531,743.1797 104.4844,743.1797 C104.2656,743.1797 104.0625,743.2578 103.875,743.4453 C103.4219,743.9297 103.4219,743.9297 103.2344,744.0234 C102.8125,744.2891 102.125,744.4141 101.3594,744.4141 C99.3125,744.4141 98.0156,743.3203 98.0156,741.6172 L98.0156,740.5234 C98.0156,738.7422 99.2656,737.4297 101,737.4297 C101.5781,737.4297 102.1875,737.5859 102.6563,737.8359 C103.1406,738.1172 103.3125,738.3359 103.4063,738.7422 C103.4688,739.1484 103.5,739.2734 103.6406,739.3984 C103.7813,739.5391 104.0156,739.6484 104.2344,739.6484 C104.5,739.6484 104.7656,739.5078 104.9375,739.2891 C105.0469,739.1328 105.0781,738.9453 105.0781,738.5234 L105.0781,737.1016 C105.0781,736.6641 105.0625,736.5391 104.9688,736.3828 C104.8125,736.1172 104.5313,735.9766 104.2344,735.9766 C103.9375,735.9766 103.7344,736.0703 103.5156,736.3828 L103.3438,736.3047 Z " fill="#000000"/><text fill="#000000" font-family="sans-serif" font-size="12" font-style="italic" lengthAdjust="spacing" textLength="39" x="126" y="736.6387">«DTO»</text><text fill="#000000" font-family="sans-serif" font-size="14" lengthAdjust="spacing" textLength="61" x="115" y="752.4639">RowDTO</text><line style="stroke:#181818;stroke-width:0.5;" x1="87" x2="178" y1="760.7656" y2="760.7656"/><line style="stroke:#181818;stroke-width:0.5;" x1="87" x2="178" y1="768.7656" y2="768.7656"/></g><!--MD5=[05aedcff764caeeb5d443618a4d90de7]
class Row--><g id="elem_Row"><rect codeLine="24" fill="#F1F1F1" height="56.2656" id="Row" rx="2.5" ry="2.5" style="stroke:#181818;stroke-width:0.5;" width="88" x="181.5" y="1046.5"/><ellipse cx="196.5" cy="1066.6328" fill="#ADD1B2" rx="11" ry="11" style="stroke:#181818;stroke-width:1.0;"/><path d="M198.8438,1062.3047 C197.9063,1061.8672 197.3125,1061.7266 196.4375,1061.7266 C193.8125,1061.7266 191.8125,1063.8047 191.8125,1066.5234 L191.8125,1067.6484 C191.8125,1070.2266 193.9219,1072.1172 196.8125,1072.1172 C198.0313,1072.1172 199.1875,1071.8203 199.9375,1071.2734 C200.5156,1070.8672 200.8438,1070.4141 200.8438,1070.0234 C200.8438,1069.5703 200.4531,1069.1797 199.9844,1069.1797 C199.7656,1069.1797 199.5625,1069.2578 199.375,1069.4453 C198.9219,1069.9297 198.9219,1069.9297 198.7344,1070.0234 C198.3125,1070.2891 197.625,1070.4141 196.8594,1070.4141 C194.8125,1070.4141 193.5156,1069.3203 193.5156,1067.6172 L193.5156,1066.5234 C193.5156,1064.7422 194.7656,1063.4297 196.5,1063.4297 C197.0781,1063.4297 197.6875,1063.5859 198.1563,1063.8359 C198.6406,1064.1172 198.8125,1064.3359 198.9063,1064.7422 C198.9688,1065.1484 199,1065.2734 199.1406,1065.3984 C199.2813,1065.5391 199.5156,1065.6484 199.7344,1065.6484 C200,1065.6484 200.2656,1065.5078 200.4375,1065.2891 C200.5469,1065.1328 200.5781,1064.9453 200.5781,1064.5234 L200.5781,1063.1016 C200.5781,1062.6641 200.5625,1062.5391 200.4688,1062.3828 C200.3125,1062.1172 200.0313,1061.9766 199.7344,1061.9766 C199.4375,1061.9766 199.2344,1062.0703 199.0156,1062.3828 L198.8438,1062.3047 Z " fill="#000000"/><text fill="#000000" font-family="sans-serif" font-size="12" font-style="italic" lengthAdjust="spacing" textLength="60" x="208.5" y="1062.6387">«Domain»</text><text fill="#000000" font-family="sans-serif" font-size="14" lengthAdjust="spacing" textLength="30" x="223.5" y="1078.4639">Row</text><line style="stroke:#181818;stroke-width:0.5;" x1="182.5" x2="268.5" y1="1086.7656" y2="1086.7656"/><line style="stroke:#181818;stroke-width:0.5;" x1="182.5" x2="268.5" y1="1094.7656" y2="1094.7656"/></g><!--MD5=[82fc0fe3105ea7e5a8153e9bad9bb401]
class RowMapper--><g id="elem_RowMapper"><rect codeLine="29" fill="#F1F1F1" height="72.5625" id="RowMapper" rx="2.5" ry="2.5" style="stroke:#181818;stroke-width:0.5;" width="135" x="84" y="555"/><ellipse cx="107.1" cy="575.1328" fill="#ADD1B2" rx="11" ry="11" style="stroke:#181818;stroke-width:1.0;"/><path d="M109.4438,570.8047 C108.5063,570.3672 107.9125,570.2266 107.0375,570.2266 C104.4125,570.2266 102.4125,572.3047 102.4125,575.0234 L102.4125,576.1484 C102.4125,578.7266 104.5219,580.6172 107.4125,580.6172 C108.6313,580.6172 109.7875,580.3203 110.5375,579.7734 C111.1156,579.3672 111.4438,578.9141 111.4438,578.5234 C111.4438,578.0703 111.0531,577.6797 110.5844,577.6797 C110.3656,577.6797 110.1625,577.7578 109.975,577.9453 C109.5219,578.4297 109.5219,578.4297 109.3344,578.5234 C108.9125,578.7891 108.225,578.9141 107.4594,578.9141 C105.4125,578.9141 104.1156,577.8203 104.1156,576.1172 L104.1156,575.0234 C104.1156,573.2422 105.3656,571.9297 107.1,571.9297 C107.6781,571.9297 108.2875,572.0859 108.7563,572.3359 C109.2406,572.6172 109.4125,572.8359 109.5063,573.2422 C109.5688,573.6484 109.6,573.7734 109.7406,573.8984 C109.8813,574.0391 110.1156,574.1484 110.3344,574.1484 C110.6,574.1484 110.8656,574.0078 111.0375,573.7891 C111.1469,573.6328 111.1781,573.4453 111.1781,573.0234 L111.1781,571.6016 C111.1781,571.1641 111.1625,571.0391 111.0688,570.8828 C110.9125,570.6172 110.6313,570.4766 110.3344,570.4766 C110.0375,570.4766 109.8344,570.5703 109.6156,570.8828 L109.4438,570.8047 Z " fill="#000000"/><text fill="#000000" font-family="sans-serif" font-size="12" font-style="italic" lengthAdjust="spacing" textLength="39" x="145.9" y="571.1387">«DTO»</text><text fill="#000000" font-family="sans-serif" font-size="14" lengthAdjust="spacing" textLength="85" x="122.9" y="586.9639">RowMapper</text><line style="stroke:#181818;stroke-width:0.5;" x1="85" x2="218" y1="595.2656" y2="595.2656"/><line style="stroke:#181818;stroke-width:0.5;" x1="85" x2="218" y1="603.2656" y2="603.2656"/><ellipse cx="95" cy="614.2656" fill="#84BE84" rx="3" ry="3" style="stroke:#038048;stroke-width:1.0;"/><text fill="#000000" font-family="sans-serif" font-size="14" lengthAdjust="spacing" textLength="109" x="104" y="620.2607">toDTO(rowList)</text></g><!--MD5=[867476cd2a5db62f3ac412e45787ce2b]
class CategoryMapper--><g id="elem_CategoryMapper"><rect codeLine="35" fill="#F1F1F1" height="72.5625" id="CategoryMapper" rx="2.5" ry="2.5" style="stroke:#181818;stroke-width:0.5;" width="173" x="1553" y="555"/><ellipse cx="1577" cy="575.1328" fill="#ADD1B2" rx="11" ry="11" style="stroke:#181818;stroke-width:1.0;"/><path d="M1579.3438,570.8047 C1578.4063,570.3672 1577.8125,570.2266 1576.9375,570.2266 C1574.3125,570.2266 1572.3125,572.3047 1572.3125,575.0234 L1572.3125,576.1484 C1572.3125,578.7266 1574.4219,580.6172 1577.3125,580.6172 C1578.5313,580.6172 1579.6875,580.3203 1580.4375,579.7734 C1581.0156,579.3672 1581.3438,578.9141 1581.3438,578.5234 C1581.3438,578.0703 1580.9531,577.6797 1580.4844,577.6797 C1580.2656,577.6797 1580.0625,577.7578 1579.875,577.9453 C1579.4219,578.4297 1579.4219,578.4297 1579.2344,578.5234 C1578.8125,578.7891 1578.125,578.9141 1577.3594,578.9141 C1575.3125,578.9141 1574.0156,577.8203 1574.0156,576.1172 L1574.0156,575.0234 C1574.0156,573.2422 1575.2656,571.9297 1577,571.9297 C1577.5781,571.9297 1578.1875,572.0859 1578.6563,572.3359 C1579.1406,572.6172 1579.3125,572.8359 1579.4063,573.2422 C1579.4688,573.6484 1579.5,573.7734 1579.6406,573.8984 C1579.7813,574.0391 1580.0156,574.1484 1580.2344,574.1484 C1580.5,574.1484 1580.7656,574.0078 1580.9375,573.7891 C1581.0469,573.6328 1581.0781,573.4453 1581.0781,573.0234 L1581.0781,571.6016 C1581.0781,571.1641 1581.0625,571.0391 1580.9688,570.8828 C1580.8125,570.6172 1580.5313,570.4766 1580.2344,570.4766 C1579.9375,570.4766 1579.7344,570.5703 1579.5156,570.8828 L1579.3438,570.8047 Z " fill="#000000"/><text fill="#000000" font-family="sans-serif" font-size="12" font-style="italic" lengthAdjust="spacing" textLength="39" x="1634" y="571.1387">«DTO»</text><text fill="#000000" font-family="sans-serif" font-size="14" lengthAdjust="spacing" textLength="121" x="1593" y="586.9639">CategoryMapper</text><line style="stroke:#181818;stroke-width:0.5;" x1="1554" x2="1725" y1="595.2656" y2="595.2656"/><line style="stroke:#181818;stroke-width:0.5;" x1="1554" x2="1725" y1="603.2656" y2="603.2656"/><ellipse cx="1564" cy="614.2656" fill="#84BE84" rx="3" ry="3" style="stroke:#038048;stroke-width:1.0;"/><text fill="#000000" font-family="sans-serif" font-size="14" lengthAdjust="spacing" textLength="147" x="1573" y="620.2607">toDTO(categoryList)</text></g><!--MD5=[2d72639f973b9c0572a0d5b710ab470f]
class SpecifyProductController--><g id="elem_SpecifyProductController"><rect codeLine="40" fill="#F1F1F1" height="186.6406" id="SpecifyProductController" rx="2.5" ry="2.5" style="stroke:#181818;stroke-width:0.5;" width="1120" x="322.5" y="123"/><ellipse cx="786.75" cy="143.1328" fill="#ADD1B2" rx="11" ry="11" style="stroke:#181818;stroke-width:1.0;"/><path d="M789.0938,138.8047 C788.1563,138.3672 787.5625,138.2266 786.6875,138.2266 C784.0625,138.2266 782.0625,140.3047 782.0625,143.0234 L782.0625,144.1484 C782.0625,146.7266 784.1719,148.6172 787.0625,148.6172 C788.2813,148.6172 789.4375,148.3203 790.1875,147.7734 C790.7656,147.3672 791.0938,146.9141 791.0938,146.5234 C791.0938,146.0703 790.7031,145.6797 790.2344,145.6797 C790.0156,145.6797 789.8125,145.7578 789.625,145.9453 C789.1719,146.4297 789.1719,146.4297 788.9844,146.5234 C788.5625,146.7891 787.875,146.9141 787.1094,146.9141 C785.0625,146.9141 783.7656,145.8203 783.7656,144.1172 L783.7656,143.0234 C783.7656,141.2422 785.0156,139.9297 786.75,139.9297 C787.3281,139.9297 787.9375,140.0859 788.4063,140.3359 C788.8906,140.6172 789.0625,140.8359 789.1563,141.2422 C789.2188,141.6484 789.25,141.7734 789.3906,141.8984 C789.5313,142.0391 789.7656,142.1484 789.9844,142.1484 C790.25,142.1484 790.5156,142.0078 790.6875,141.7891 C790.7969,141.6328 790.8281,141.4453 790.8281,141.0234 L790.8281,139.6016 C790.8281,139.1641 790.8125,139.0391 790.7188,138.8828 C790.5625,138.6172 790.2813,138.4766 789.9844,138.4766 C789.6875,138.4766 789.4844,138.5703 789.2656,138.8828 L789.0938,138.8047 Z " fill="#000000"/><text fill="#000000" font-family="sans-serif" font-size="12" font-style="italic" lengthAdjust="spacing" textLength="81" x="858.25" y="139.1387">«Application»</text><text fill="#000000" font-family="sans-serif" font-size="14" lengthAdjust="spacing" textLength="183" x="807.25" y="154.9639">SpecifyProductController</text><line style="stroke:#181818;stroke-width:0.5;" x1="323.5" x2="1441.5" y1="163.2656" y2="163.2656"/><rect fill="none" height="6" style="stroke:#C82930;stroke-width:1.0;" width="6" x="330.5" y="171.2656"/><text fill="#000000" font-family="sans-serif" font-size="14" lengthAdjust="spacing" textLength="266" x="342.5" y="180.2607">ListCategoryService categoryService</text><rect fill="none" height="6" style="stroke:#C82930;stroke-width:1.0;" width="6" x="330.5" y="187.5625"/><text fill="#000000" font-family="sans-serif" font-size="14" lengthAdjust="spacing" textLength="223" x="342.5" y="196.5576">ProductService productService</text><rect fill="none" height="6" style="stroke:#C82930;stroke-width:1.0;" width="6" x="330.5" y="203.8594"/><text fill="#000000" font-family="sans-serif" font-size="14" lengthAdjust="spacing" textLength="372" x="342.5" y="212.8545">ListLocationFromWarehouseService locationService</text><line style="stroke:#181818;stroke-width:0.5;" x1="323.5" x2="1441.5" y1="220.1563" y2="220.1563"/><ellipse cx="333.5" cy="231.1563" fill="#84BE84" rx="3" ry="3" style="stroke:#038048;stroke-width:1.0;"/><text fill="#000000" font-family="sans-serif" font-size="14" lengthAdjust="spacing" textLength="1094" x="342.5" y="237.1514">specifyProduct(photo, internalCode,shortDescription,extendedDescription,brand,reference,productionCode,technicalDescription,category,price,name)</text><ellipse cx="333.5" cy="247.4531" fill="#84BE84" rx="3" ry="3" style="stroke:#038048;stroke-width:1.0;"/><text fill="#000000" font-family="sans-serif" font-size="14" lengthAdjust="spacing" textLength="157" x="342.5" y="253.4482">getProductCategory()</text><ellipse cx="333.5" cy="263.75" fill="#84BE84" rx="3" ry="3" style="stroke:#038048;stroke-width:1.0;"/><text fill="#000000" font-family="sans-serif" font-size="14" lengthAdjust="spacing" textLength="108" x="342.5" y="269.7451">showLocation()</text><ellipse cx="333.5" cy="280.0469" fill="#84BE84" rx="3" ry="3" style="stroke:#038048;stroke-width:1.0;"/><text fill="#000000" font-family="sans-serif" font-size="14" lengthAdjust="spacing" textLength="241" x="342.5" y="286.042">getCategoryByDTO(categoryDto)</text><ellipse cx="333.5" cy="296.3438" fill="#84BE84" rx="3" ry="3" style="stroke:#038048;stroke-width:1.0;"/><text fill="#000000" font-family="sans-serif" font-size="14" lengthAdjust="spacing" textLength="154" x="342.5" y="302.3389">getLocation(rowDTO)</text></g><!--MD5=[a1cf8d13bca3a4fd08eeae33ec278098]
class ProductionProductService--><g id="elem_ProductionProductService"><rect codeLine="52" fill="#F1F1F1" height="121.4531" id="ProductionProductService" rx="2.5" ry="2.5" style="stroke:#181818;stroke-width:0.5;" width="1103" x="331" y="370"/><ellipse cx="784.75" cy="390.1328" fill="#ADD1B2" rx="11" ry="11" style="stroke:#181818;stroke-width:1.0;"/><path d="M787.0938,385.8047 C786.1563,385.3672 785.5625,385.2266 784.6875,385.2266 C782.0625,385.2266 780.0625,387.3047 780.0625,390.0234 L780.0625,391.1484 C780.0625,393.7266 782.1719,395.6172 785.0625,395.6172 C786.2813,395.6172 787.4375,395.3203 788.1875,394.7734 C788.7656,394.3672 789.0938,393.9141 789.0938,393.5234 C789.0938,393.0703 788.7031,392.6797 788.2344,392.6797 C788.0156,392.6797 787.8125,392.7578 787.625,392.9453 C787.1719,393.4297 787.1719,393.4297 786.9844,393.5234 C786.5625,393.7891 785.875,393.9141 785.1094,393.9141 C783.0625,393.9141 781.7656,392.8203 781.7656,391.1172 L781.7656,390.0234 C781.7656,388.2422 783.0156,386.9297 784.75,386.9297 C785.3281,386.9297 785.9375,387.0859 786.4063,387.3359 C786.8906,387.6172 787.0625,387.8359 787.1563,388.2422 C787.2188,388.6484 787.25,388.7734 787.3906,388.8984 C787.5313,389.0391 787.7656,389.1484 787.9844,389.1484 C788.25,389.1484 788.5156,389.0078 788.6875,388.7891 C788.7969,388.6328 788.8281,388.4453 788.8281,388.0234 L788.8281,386.6016 C788.8281,386.1641 788.8125,386.0391 788.7188,385.8828 C788.5625,385.6172 788.2813,385.4766 787.9844,385.4766 C787.6875,385.4766 787.4844,385.5703 787.2656,385.8828 L787.0938,385.8047 Z " fill="#000000"/><text fill="#000000" font-family="sans-serif" font-size="12" font-style="italic" lengthAdjust="spacing" textLength="58" x="869.75" y="386.1387">«Service»</text><text fill="#000000" font-family="sans-serif" font-size="14" lengthAdjust="spacing" textLength="187" x="805.25" y="401.9639">ProductionProductService</text><line style="stroke:#181818;stroke-width:0.5;" x1="332" x2="1433" y1="410.2656" y2="410.2656"/><rect fill="none" height="6" style="stroke:#C82930;stroke-width:1.0;" width="6" x="339" y="418.2656"/><text fill="#000000" font-family="sans-serif" font-size="14" lengthAdjust="spacing" textLength="232" x="351" y="427.2607">PersistenceContext persistence</text><rect fill="none" height="6" style="stroke:#C82930;stroke-width:1.0;" width="6" x="339" y="434.5625"/><text fill="#000000" font-family="sans-serif" font-size="14" lengthAdjust="spacing" textLength="166" x="351" y="443.5576">ProductFactory factory</text><line style="stroke:#181818;stroke-width:0.5;" x1="332" x2="1433" y1="450.8594" y2="450.8594"/><ellipse cx="342" cy="461.8594" fill="#84BE84" rx="3" ry="3" style="stroke:#038048;stroke-width:1.0;"/><text fill="#000000" font-family="sans-serif" font-size="14" lengthAdjust="spacing" textLength="1077" x="351" y="467.8545">buildProduct(photo, internalCode,shortDescription,extendedDescription,brand,reference,productionCode,technicalDescription,category,price,name)</text><ellipse cx="342" cy="478.1563" fill="#84BE84" rx="3" ry="3" style="stroke:#038048;stroke-width:1.0;"/><text fill="#000000" font-family="sans-serif" font-size="14" lengthAdjust="spacing" textLength="57" x="351" y="484.1514">create()</text></g><!--MD5=[b3c2230271250b561f28a9e8cd979a92]
class CategoryRepository--><g id="elem_CategoryRepository"><rect codeLine="59" fill="#F1F1F1" height="88.8594" id="CategoryRepository" rx="2.5" ry="2.5" style="stroke:#181818;stroke-width:0.5;" width="214" x="1473.5" y="873"/><ellipse cx="1505.15" cy="893.1328" fill="#ADD1B2" rx="11" ry="11" style="stroke:#181818;stroke-width:1.0;"/><path d="M1507.4938,888.8047 C1506.5563,888.3672 1505.9625,888.2266 1505.0875,888.2266 C1502.4625,888.2266 1500.4625,890.3047 1500.4625,893.0234 L1500.4625,894.1484 C1500.4625,896.7266 1502.5719,898.6172 1505.4625,898.6172 C1506.6813,898.6172 1507.8375,898.3203 1508.5875,897.7734 C1509.1656,897.3672 1509.4938,896.9141 1509.4938,896.5234 C1509.4938,896.0703 1509.1031,895.6797 1508.6344,895.6797 C1508.4156,895.6797 1508.2125,895.7578 1508.025,895.9453 C1507.5719,896.4297 1507.5719,896.4297 1507.3844,896.5234 C1506.9625,896.7891 1506.275,896.9141 1505.5094,896.9141 C1503.4625,896.9141 1502.1656,895.8203 1502.1656,894.1172 L1502.1656,893.0234 C1502.1656,891.2422 1503.4156,889.9297 1505.15,889.9297 C1505.7281,889.9297 1506.3375,890.0859 1506.8063,890.3359 C1507.2906,890.6172 1507.4625,890.8359 1507.5563,891.2422 C1507.6188,891.6484 1507.65,891.7734 1507.7906,891.8984 C1507.9313,892.0391 1508.1656,892.1484 1508.3844,892.1484 C1508.65,892.1484 1508.9156,892.0078 1509.0875,891.7891 C1509.1969,891.6328 1509.2281,891.4453 1509.2281,891.0234 L1509.2281,889.6016 C1509.2281,889.1641 1509.2125,889.0391 1509.1188,888.8828 C1508.9625,888.6172 1508.6813,888.4766 1508.3844,888.4766 C1508.0875,888.4766 1507.8844,888.5703 1507.6656,888.8828 L1507.4938,888.8047 Z " fill="#000000"/><text fill="#000000" font-family="sans-serif" font-size="12" font-style="italic" lengthAdjust="spacing" textLength="82" x="1554.35" y="889.1387">«Persistence»</text><text fill="#000000" font-family="sans-serif" font-size="14" lengthAdjust="spacing" textLength="145" x="1522.85" y="904.9639">CategoryRepository</text><line style="stroke:#181818;stroke-width:0.5;" x1="1474.5" x2="1686.5" y1="913.2656" y2="913.2656"/><line style="stroke:#181818;stroke-width:0.5;" x1="1474.5" x2="1686.5" y1="921.2656" y2="921.2656"/><ellipse cx="1484.5" cy="932.2656" fill="#84BE84" rx="3" ry="3" style="stroke:#038048;stroke-width:1.0;"/><text fill="#000000" font-family="sans-serif" font-size="14" lengthAdjust="spacing" textLength="188" x="1493.5" y="938.2607">activeProductCategories()</text><ellipse cx="1484.5" cy="948.5625" fill="#84BE84" rx="3" ry="3" style="stroke:#038048;stroke-width:1.0;"/><text fill="#000000" font-family="sans-serif" font-size="14" lengthAdjust="spacing" textLength="57" x="1493.5" y="954.5576">create()</text></g><!--MD5=[8f0e5cd93d599821f737a09daf3e6d8c]
class ListCategoryService--><g id="elem_ListCategoryService"><rect codeLine="64" fill="#F1F1F1" height="121.4531" id="ListCategoryService" rx="2.5" ry="2.5" style="stroke:#181818;stroke-width:0.5;" width="259" x="1469" y="370"/><ellipse cx="1521.75" cy="390.1328" fill="#ADD1B2" rx="11" ry="11" style="stroke:#181818;stroke-width:1.0;"/><path d="M1524.0938,385.8047 C1523.1563,385.3672 1522.5625,385.2266 1521.6875,385.2266 C1519.0625,385.2266 1517.0625,387.3047 1517.0625,390.0234 L1517.0625,391.1484 C1517.0625,393.7266 1519.1719,395.6172 1522.0625,395.6172 C1523.2813,395.6172 1524.4375,395.3203 1525.1875,394.7734 C1525.7656,394.3672 1526.0938,393.9141 1526.0938,393.5234 C1526.0938,393.0703 1525.7031,392.6797 1525.2344,392.6797 C1525.0156,392.6797 1524.8125,392.7578 1524.625,392.9453 C1524.1719,393.4297 1524.1719,393.4297 1523.9844,393.5234 C1523.5625,393.7891 1522.875,393.9141 1522.1094,393.9141 C1520.0625,393.9141 1518.7656,392.8203 1518.7656,391.1172 L1518.7656,390.0234 C1518.7656,388.2422 1520.0156,386.9297 1521.75,386.9297 C1522.3281,386.9297 1522.9375,387.0859 1523.4063,387.3359 C1523.8906,387.6172 1524.0625,387.8359 1524.1563,388.2422 C1524.2188,388.6484 1524.25,388.7734 1524.3906,388.8984 C1524.5313,389.0391 1524.7656,389.1484 1524.9844,389.1484 C1525.25,389.1484 1525.5156,389.0078 1525.6875,388.7891 C1525.7969,388.6328 1525.8281,388.4453 1525.8281,388.0234 L1525.8281,386.6016 C1525.8281,386.1641 1525.8125,386.0391 1525.7188,385.8828 C1525.5625,385.6172 1525.2813,385.4766 1524.9844,385.4766 C1524.6875,385.4766 1524.4844,385.5703 1524.2656,385.8828 L1524.0938,385.8047 Z " fill="#000000"/><text fill="#000000" font-family="sans-serif" font-size="12" font-style="italic" lengthAdjust="spacing" textLength="58" x="1585.75" y="386.1387">«Service»</text><text fill="#000000" font-family="sans-serif" font-size="14" lengthAdjust="spacing" textLength="145" x="1542.25" y="401.9639">ListCategoryService</text><line style="stroke:#181818;stroke-width:0.5;" x1="1470" x2="1727" y1="410.2656" y2="410.2656"/><rect fill="none" height="6" style="stroke:#C82930;stroke-width:1.0;" width="6" x="1477" y="418.2656"/><text fill="#000000" font-family="sans-serif" font-size="14" lengthAdjust="spacing" textLength="233" x="1489" y="427.2607">persistenceContext persistence</text><rect fill="none" height="6" style="stroke:#C82930;stroke-width:1.0;" width="6" x="1477" y="434.5625"/><text fill="#000000" font-family="sans-serif" font-size="14" lengthAdjust="spacing" textLength="121" x="1489" y="443.5576">CategoryMapper</text><line style="stroke:#181818;stroke-width:0.5;" x1="1470" x2="1727" y1="450.8594" y2="450.8594"/><ellipse cx="1480" cy="461.8594" fill="#84BE84" rx="3" ry="3" style="stroke:#038048;stroke-width:1.0;"/><text fill="#000000" font-family="sans-serif" font-size="14" lengthAdjust="spacing" textLength="145" x="1489" y="467.8545">productCategories()</text><ellipse cx="1480" cy="478.1563" fill="#84BE84" rx="3" ry="3" style="stroke:#038048;stroke-width:1.0;"/><text fill="#000000" font-family="sans-serif" font-size="14" lengthAdjust="spacing" textLength="57" x="1489" y="484.1514">create()</text></g><!--MD5=[f9761e4ec0e5a044b983a0fb01ce84a9]
class ProductRepository--><g id="elem_ProductRepository"><rect codeLine="73" fill="#F1F1F1" height="105.1563" id="ProductRepository" rx="2.5" ry="2.5" style="stroke:#181818;stroke-width:0.5;" width="1010" x="428.5" y="865"/><ellipse cx="861.75" cy="885.1328" fill="#ADD1B2" rx="11" ry="11" style="stroke:#181818;stroke-width:1.0;"/><path d="M864.0938,880.8047 C863.1563,880.3672 862.5625,880.2266 861.6875,880.2266 C859.0625,880.2266 857.0625,882.3047 857.0625,885.0234 L857.0625,886.1484 C857.0625,888.7266 859.1719,890.6172 862.0625,890.6172 C863.2813,890.6172 864.4375,890.3203 865.1875,889.7734 C865.7656,889.3672 866.0938,888.9141 866.0938,888.5234 C866.0938,888.0703 865.7031,887.6797 865.2344,887.6797 C865.0156,887.6797 864.8125,887.7578 864.625,887.9453 C864.1719,888.4297 864.1719,888.4297 863.9844,888.5234 C863.5625,888.7891 862.875,888.9141 862.1094,888.9141 C860.0625,888.9141 858.7656,887.8203 858.7656,886.1172 L858.7656,885.0234 C858.7656,883.2422 860.0156,881.9297 861.75,881.9297 C862.3281,881.9297 862.9375,882.0859 863.4063,882.3359 C863.8906,882.6172 864.0625,882.8359 864.1563,883.2422 C864.2188,883.6484 864.25,883.7734 864.3906,883.8984 C864.5313,884.0391 864.7656,884.1484 864.9844,884.1484 C865.25,884.1484 865.5156,884.0078 865.6875,883.7891 C865.7969,883.6328 865.8281,883.4453 865.8281,883.0234 L865.8281,881.6016 C865.8281,881.1641 865.8125,881.0391 865.7188,880.8828 C865.5625,880.6172 865.2813,880.4766 864.9844,880.4766 C864.6875,880.4766 864.4844,880.5703 864.2656,880.8828 L864.0938,880.8047 Z " fill="#000000"/><text fill="#000000" font-family="sans-serif" font-size="12" font-style="italic" lengthAdjust="spacing" textLength="82" x="908.75" y="881.1387">«Persistence»</text><text fill="#000000" font-family="sans-serif" font-size="14" lengthAdjust="spacing" textLength="135" x="882.25" y="896.9639">ProductRepository</text><line style="stroke:#181818;stroke-width:0.5;" x1="429.5" x2="1437.5" y1="905.2656" y2="905.2656"/><line style="stroke:#181818;stroke-width:0.5;" x1="429.5" x2="1437.5" y1="913.2656" y2="913.2656"/><ellipse cx="439.5" cy="924.2656" fill="#84BE84" rx="3" ry="3" style="stroke:#038048;stroke-width:1.0;"/><text fill="#000000" font-family="sans-serif" font-size="14" lengthAdjust="spacing" textLength="57" x="448.5" y="930.2607">create()</text><ellipse cx="439.5" cy="940.5625" fill="#84BE84" rx="3" ry="3" style="stroke:#038048;stroke-width:1.0;"/><text fill="#000000" font-family="sans-serif" font-size="14" lengthAdjust="spacing" textLength="984" x="448.5" y="946.5576">buildPorduct(photo, internalCode,shortDescription,extendedDescription,brand,reference,prodctionCode,technicalDescription,category)</text><ellipse cx="439.5" cy="956.8594" fill="#84BE84" rx="3" ry="3" style="stroke:#038048;stroke-width:1.0;"/><text fill="#000000" font-family="sans-serif" font-size="14" lengthAdjust="spacing" textLength="99" x="448.5" y="962.8545">save(product)</text></g><!--MD5=[72136138052d025cffdce3c22fbd185f]
class Product--><g id="elem_Product"><rect codeLine="79" fill="#F1F1F1" height="72.5625" id="Product" rx="2.5" ry="2.5" style="stroke:#181818;stroke-width:0.5;" width="1059" x="355" y="1038"/><ellipse cx="852.25" cy="1058.1328" fill="#ADD1B2" rx="11" ry="11" style="stroke:#181818;stroke-width:1.0;"/><path d="M854.5938,1053.8047 C853.6563,1053.3672 853.0625,1053.2266 852.1875,1053.2266 C849.5625,1053.2266 847.5625,1055.3047 847.5625,1058.0234 L847.5625,1059.1484 C847.5625,1061.7266 849.6719,1063.6172 852.5625,1063.6172 C853.7813,1063.6172 854.9375,1063.3203 855.6875,1062.7734 C856.2656,1062.3672 856.5938,1061.9141 856.5938,1061.5234 C856.5938,1061.0703 856.2031,1060.6797 855.7344,1060.6797 C855.5156,1060.6797 855.3125,1060.7578 855.125,1060.9453 C854.6719,1061.4297 854.6719,1061.4297 854.4844,1061.5234 C854.0625,1061.7891 853.375,1061.9141 852.6094,1061.9141 C850.5625,1061.9141 849.2656,1060.8203 849.2656,1059.1172 L849.2656,1058.0234 C849.2656,1056.2422 850.5156,1054.9297 852.25,1054.9297 C852.8281,1054.9297 853.4375,1055.0859 853.9063,1055.3359 C854.3906,1055.6172 854.5625,1055.8359 854.6563,1056.2422 C854.7188,1056.6484 854.75,1056.7734 854.8906,1056.8984 C855.0313,1057.0391 855.2656,1057.1484 855.4844,1057.1484 C855.75,1057.1484 856.0156,1057.0078 856.1875,1056.7891 C856.2969,1056.6328 856.3281,1056.4453 856.3281,1056.0234 L856.3281,1054.6016 C856.3281,1054.1641 856.3125,1054.0391 856.2188,1053.8828 C856.0625,1053.6172 855.7813,1053.4766 855.4844,1053.4766 C855.1875,1053.4766 854.9844,1053.5703 854.7656,1053.8828 L854.5938,1053.8047 Z " fill="#000000"/><text fill="#000000" font-family="sans-serif" font-size="12" font-style="italic" lengthAdjust="spacing" textLength="60" x="870.75" y="1054.1387">«Domain»</text><text fill="#000000" font-family="sans-serif" font-size="14" lengthAdjust="spacing" textLength="56" x="872.75" y="1069.9639">Product</text><line style="stroke:#181818;stroke-width:0.5;" x1="356" x2="1413" y1="1078.2656" y2="1078.2656"/><line style="stroke:#181818;stroke-width:0.5;" x1="356" x2="1413" y1="1086.2656" y2="1086.2656"/><ellipse cx="366" cy="1097.2656" fill="#84BE84" rx="3" ry="3" style="stroke:#038048;stroke-width:1.0;"/><text fill="#000000" font-family="sans-serif" font-size="14" lengthAdjust="spacing" textLength="1033" x="375" y="1103.2607">create(photo, internalCode,shortDescription,extendedDescription,brand,reference,productionCode,technicalDescription,category,price,name)</text></g><!--MD5=[a96594a83e2ecdc78cbf17c2ddf01934]
class Category--><g id="elem_Category"><rect codeLine="88" fill="#F1F1F1" height="88.8594" id="Category" rx="2.5" ry="2.5" style="stroke:#181818;stroke-width:0.5;" width="132" x="1594.5" y="1030"/><ellipse cx="1624.8" cy="1050.1328" fill="#ADD1B2" rx="11" ry="11" style="stroke:#181818;stroke-width:1.0;"/><path d="M1627.1438,1045.8047 C1626.2063,1045.3672 1625.6125,1045.2266 1624.7375,1045.2266 C1622.1125,1045.2266 1620.1125,1047.3047 1620.1125,1050.0234 L1620.1125,1051.1484 C1620.1125,1053.7266 1622.2219,1055.6172 1625.1125,1055.6172 C1626.3313,1055.6172 1627.4875,1055.3203 1628.2375,1054.7734 C1628.8156,1054.3672 1629.1438,1053.9141 1629.1438,1053.5234 C1629.1438,1053.0703 1628.7531,1052.6797 1628.2844,1052.6797 C1628.0656,1052.6797 1627.8625,1052.7578 1627.675,1052.9453 C1627.2219,1053.4297 1627.2219,1053.4297 1627.0344,1053.5234 C1626.6125,1053.7891 1625.925,1053.9141 1625.1594,1053.9141 C1623.1125,1053.9141 1621.8156,1052.8203 1621.8156,1051.1172 L1621.8156,1050.0234 C1621.8156,1048.2422 1623.0656,1046.9297 1624.8,1046.9297 C1625.3781,1046.9297 1625.9875,1047.0859 1626.4563,1047.3359 C1626.9406,1047.6172 1627.1125,1047.8359 1627.2063,1048.2422 C1627.2688,1048.6484 1627.3,1048.7734 1627.4406,1048.8984 C1627.5813,1049.0391 1627.8156,1049.1484 1628.0344,1049.1484 C1628.3,1049.1484 1628.5656,1049.0078 1628.7375,1048.7891 C1628.8469,1048.6328 1628.8781,1048.4453 1628.8781,1048.0234 L1628.8781,1046.6016 C1628.8781,1046.1641 1628.8625,1046.0391 1628.7688,1045.8828 C1628.6125,1045.6172 1628.3313,1045.4766 1628.0344,1045.4766 C1627.7375,1045.4766 1627.5344,1045.5703 1627.3156,1045.8828 L1627.1438,1045.8047 Z " fill="#000000"/><text fill="#000000" font-family="sans-serif" font-size="12" font-style="italic" lengthAdjust="spacing" textLength="60" x="1645.2" y="1046.1387">«Domain»</text><text fill="#000000" font-family="sans-serif" font-size="14" lengthAdjust="spacing" textLength="66" x="1642.2" y="1061.9639">Category</text><line style="stroke:#181818;stroke-width:0.5;" x1="1595.5" x2="1725.5" y1="1070.2656" y2="1070.2656"/><rect fill="none" height="6" style="stroke:#C82930;stroke-width:1.0;" width="6" x="1602.5" y="1078.2656"/><text fill="#000000" font-family="sans-serif" font-size="14" lengthAdjust="spacing" textLength="64" x="1614.5" y="1087.2607">category</text><rect fill="none" height="6" style="stroke:#C82930;stroke-width:1.0;" width="6" x="1602.5" y="1094.5625"/><text fill="#000000" font-family="sans-serif" font-size="14" lengthAdjust="spacing" textLength="106" x="1614.5" y="1103.5576">superCategory</text><line style="stroke:#181818;stroke-width:0.5;" x1="1595.5" x2="1725.5" y1="1110.8594" y2="1110.8594"/></g><!--MD5=[18fe620d353c7278b252292b5533264b]
class ProductFactory--><g id="elem_ProductFactory"><rect codeLine="93" fill="#F1F1F1" height="105.1563" id="ProductFactory" rx="2.5" ry="2.5" style="stroke:#181818;stroke-width:0.5;" width="142" x="619.5" y="696"/><ellipse cx="634.5" cy="716.1328" fill="#ADD1B2" rx="11" ry="11" style="stroke:#181818;stroke-width:1.0;"/><path d="M636.8438,711.8047 C635.9063,711.3672 635.3125,711.2266 634.4375,711.2266 C631.8125,711.2266 629.8125,713.3047 629.8125,716.0234 L629.8125,717.1484 C629.8125,719.7266 631.9219,721.6172 634.8125,721.6172 C636.0313,721.6172 637.1875,721.3203 637.9375,720.7734 C638.5156,720.3672 638.8438,719.9141 638.8438,719.5234 C638.8438,719.0703 638.4531,718.6797 637.9844,718.6797 C637.7656,718.6797 637.5625,718.7578 637.375,718.9453 C636.9219,719.4297 636.9219,719.4297 636.7344,719.5234 C636.3125,719.7891 635.625,719.9141 634.8594,719.9141 C632.8125,719.9141 631.5156,718.8203 631.5156,717.1172 L631.5156,716.0234 C631.5156,714.2422 632.7656,712.9297 634.5,712.9297 C635.0781,712.9297 635.6875,713.0859 636.1563,713.3359 C636.6406,713.6172 636.8125,713.8359 636.9063,714.2422 C636.9688,714.6484 637,714.7734 637.1406,714.8984 C637.2813,715.0391 637.5156,715.1484 637.7344,715.1484 C638,715.1484 638.2656,715.0078 638.4375,714.7891 C638.5469,714.6328 638.5781,714.4453 638.5781,714.0234 L638.5781,712.6016 C638.5781,712.1641 638.5625,712.0391 638.4688,711.8828 C638.3125,711.6172 638.0313,711.4766 637.7344,711.4766 C637.4375,711.4766 637.2344,711.5703 637.0156,711.8828 L636.8438,711.8047 Z " fill="#000000"/><text fill="#000000" font-family="sans-serif" font-size="12" font-style="italic" lengthAdjust="spacing" textLength="60" x="673.5" y="712.1387">«Domain»</text><text fill="#000000" font-family="sans-serif" font-size="14" lengthAdjust="spacing" textLength="110" x="648.5" y="727.9639">ProductFactory</text><line style="stroke:#181818;stroke-width:0.5;" x1="620.5" x2="760.5" y1="736.2656" y2="736.2656"/><line style="stroke:#181818;stroke-width:0.5;" x1="620.5" x2="760.5" y1="744.2656" y2="744.2656"/><ellipse cx="630.5" cy="755.2656" fill="#84BE84" rx="3" ry="3" style="stroke:#038048;stroke-width:1.0;"/><text fill="#000000" font-family="sans-serif" font-size="14" lengthAdjust="spacing" textLength="57" x="639.5" y="761.2607">create()</text><ellipse cx="630.5" cy="771.5625" fill="#84BE84" rx="3" ry="3" style="stroke:#038048;stroke-width:1.0;"/><text fill="#000000" font-family="sans-serif" font-size="14" lengthAdjust="spacing" textLength="101" x="639.5" y="777.5576">buildProduct()</text><ellipse cx="630.5" cy="787.8594" fill="#84BE84" rx="3" ry="3" style="stroke:#038048;stroke-width:1.0;"/><text fill="#000000" font-family="sans-serif" font-size="14" lengthAdjust="spacing" textLength="33" x="639.5" y="793.8545">set()</text></g><!--MD5=[48590afff58a68e2fcba47824d6f8a11]
class RepositoryFactory--><g id="elem_RepositoryFactory"><rect codeLine="100" fill="#F1F1F1" height="113.1875" id="RepositoryFactory" rx="2.5" ry="2.5" style="stroke:#181818;stroke-width:0.5;" width="219" x="806" y="692"/><ellipse cx="845.3" cy="708" fill="#ADD1B2" rx="11" ry="11" style="stroke:#181818;stroke-width:1.0;"/><path d="M847.6438,703.6719 C846.7063,703.2344 846.1125,703.0938 845.2375,703.0938 C842.6125,703.0938 840.6125,705.1719 840.6125,707.8906 L840.6125,709.0156 C840.6125,711.5938 842.7219,713.4844 845.6125,713.4844 C846.8313,713.4844 847.9875,713.1875 848.7375,712.6406 C849.3156,712.2344 849.6438,711.7813 849.6438,711.3906 C849.6438,710.9375 849.2531,710.5469 848.7844,710.5469 C848.5656,710.5469 848.3625,710.625 848.175,710.8125 C847.7219,711.2969 847.7219,711.2969 847.5344,711.3906 C847.1125,711.6563 846.425,711.7813 845.6594,711.7813 C843.6125,711.7813 842.3156,710.6875 842.3156,708.9844 L842.3156,707.8906 C842.3156,706.1094 843.5656,704.7969 845.3,704.7969 C845.8781,704.7969 846.4875,704.9531 846.9563,705.2031 C847.4406,705.4844 847.6125,705.7031 847.7063,706.1094 C847.7688,706.5156 847.8,706.6406 847.9406,706.7656 C848.0813,706.9063 848.3156,707.0156 848.5344,707.0156 C848.8,707.0156 849.0656,706.875 849.2375,706.6563 C849.3469,706.5 849.3781,706.3125 849.3781,705.8906 L849.3781,704.4688 C849.3781,704.0313 849.3625,703.9063 849.2688,703.75 C849.1125,703.4844 848.8313,703.3438 848.5344,703.3438 C848.2375,703.3438 848.0344,703.4375 847.8156,703.75 L847.6438,703.6719 Z " fill="#000000"/><text fill="#000000" font-family="sans-serif" font-size="14" lengthAdjust="spacing" textLength="133" x="864.7" y="712.8467">RepositoryFactory</text><line style="stroke:#181818;stroke-width:0.5;" x1="807" x2="1024" y1="724" y2="724"/><rect fill="none" height="6" style="stroke:#C82930;stroke-width:1.0;" width="6" x="814" y="732"/><text fill="#000000" font-family="sans-serif" font-size="14" lengthAdjust="spacing" textLength="182" x="826" y="740.9951">ProductRepository repoP</text><rect fill="none" height="6" style="stroke:#C82930;stroke-width:1.0;" width="6" x="814" y="748.2969"/><text fill="#000000" font-family="sans-serif" font-size="14" lengthAdjust="spacing" textLength="193" x="826" y="757.292">CategoryRepository repoC</text><rect fill="none" height="6" style="stroke:#C82930;stroke-width:1.0;" width="6" x="814" y="764.5938"/><text fill="#000000" font-family="sans-serif" font-size="14" lengthAdjust="spacing" textLength="155" x="826" y="773.5889">RowRepository repoL</text><line style="stroke:#181818;stroke-width:0.5;" x1="807" x2="1024" y1="780.8906" y2="780.8906"/><ellipse cx="817" cy="791.8906" fill="#84BE84" rx="3" ry="3" style="stroke:#038048;stroke-width:1.0;"/><text fill="#000000" font-family="sans-serif" font-size="14" lengthAdjust="spacing" textLength="57" x="826" y="797.8857">create()</text></g><!--MD5=[e8c189551b7885b999ad7cefb30fc2a3]
class PersistenceContext--><g id="elem_PersistenceContext"><rect codeLine="108" fill="#F1F1F1" height="80.5938" id="PersistenceContext" rx="2.5" ry="2.5" style="stroke:#181818;stroke-width:0.5;" width="175" x="800" y="551"/><ellipse cx="815" cy="567" fill="#ADD1B2" rx="11" ry="11" style="stroke:#181818;stroke-width:1.0;"/><path d="M817.3438,562.6719 C816.4063,562.2344 815.8125,562.0938 814.9375,562.0938 C812.3125,562.0938 810.3125,564.1719 810.3125,566.8906 L810.3125,568.0156 C810.3125,570.5938 812.4219,572.4844 815.3125,572.4844 C816.5313,572.4844 817.6875,572.1875 818.4375,571.6406 C819.0156,571.2344 819.3438,570.7813 819.3438,570.3906 C819.3438,569.9375 818.9531,569.5469 818.4844,569.5469 C818.2656,569.5469 818.0625,569.625 817.875,569.8125 C817.4219,570.2969 817.4219,570.2969 817.2344,570.3906 C816.8125,570.6563 816.125,570.7813 815.3594,570.7813 C813.3125,570.7813 812.0156,569.6875 812.0156,567.9844 L812.0156,566.8906 C812.0156,565.1094 813.2656,563.7969 815,563.7969 C815.5781,563.7969 816.1875,563.9531 816.6563,564.2031 C817.1406,564.4844 817.3125,564.7031 817.4063,565.1094 C817.4688,565.5156 817.5,565.6406 817.6406,565.7656 C817.7813,565.9063 818.0156,566.0156 818.2344,566.0156 C818.5,566.0156 818.7656,565.875 818.9375,565.6563 C819.0469,565.5 819.0781,565.3125 819.0781,564.8906 L819.0781,563.4688 C819.0781,563.0313 819.0625,562.9063 818.9688,562.75 C818.8125,562.4844 818.5313,562.3438 818.2344,562.3438 C817.9375,562.3438 817.7344,562.4375 817.5156,562.75 L817.3438,562.6719 Z " fill="#000000"/><text fill="#000000" font-family="sans-serif" font-size="14" lengthAdjust="spacing" textLength="143" x="829" y="571.8467">PersistenceContext</text><line style="stroke:#181818;stroke-width:0.5;" x1="801" x2="974" y1="583" y2="583"/><line style="stroke:#181818;stroke-width:0.5;" x1="801" x2="974" y1="591" y2="591"/><ellipse cx="811" cy="602" fill="#84BE84" rx="3" ry="3" style="stroke:#038048;stroke-width:1.0;"/><text fill="#000000" font-family="sans-serif" font-size="14" lengthAdjust="spacing" textLength="57" x="820" y="607.9951">create()</text><ellipse cx="811" cy="618.2969" fill="#84BE84" rx="3" ry="3" style="stroke:#038048;stroke-width:1.0;"/><text fill="#000000" font-family="sans-serif" font-size="14" lengthAdjust="spacing" textLength="97" x="820" y="624.292">repositories()</text></g><!--MD5=[bcdbf31ed7a2f0c7bf1e35265265f093]
link SpecifyProductUI to SpecifyProductController--><g id="link_SpecifyProductUI_SpecifyProductController"><path codeLine="114" d="M882.5,63.26 C882.5,78.18 882.5,97.67 882.5,117.7 " fill="none" id="SpecifyProductUI-to-SpecifyProductController" style="stroke:#181818;stroke-width:1.0;stroke-dasharray:7.0,7.0;"/><polygon fill="#181818" points="882.5,122.803,886.5,113.803,882.5,117.803,878.5,113.803,882.5,122.803" style="stroke:#181818;stroke-width:1.0;"/></g><!--MD5=[75796c690a1fa72c53c0a912acd622e2]
link SpecifyProductController to ProductionProductService--><g id="link_SpecifyProductController_ProductionProductService"><path codeLine="116" d="M882.5,310.178 C882.5,328.555 882.5,347.475 882.5,364.68 " fill="none" id="SpecifyProductController-to-ProductionProductService" style="stroke:#181818;stroke-width:1.0;stroke-dasharray:7.0,7.0;"/><polygon fill="#181818" points="882.5,369.963,886.5,360.963,882.5,364.963,878.5,360.963,882.5,369.963" style="stroke:#181818;stroke-width:1.0;"/></g><!--MD5=[d11d677868aa906dcf3b2b0083c53bbd]
link SpecifyProductController to ListCategoryService--><g id="link_SpecifyProductController_ListCategoryService"><path codeLine="118" d="M1254.06,310.024 C1320.24,328.505 1388.22,348.804 1451.5,370 C1455.63,371.383 1459.81,372.822 1464.01,374.305 " fill="none" id="SpecifyProductController-to-ListCategoryService" style="stroke:#181818;stroke-width:1.0;stroke-dasharray:7.0,7.0;"/><polygon fill="#181818" points="1468.97,376.065,1461.8253,369.2861,1464.2577,374.3933,1459.1506,376.8257,1468.97,376.065" style="stroke:#181818;stroke-width:1.0;"/></g><!--MD5=[b5d82b0c70c0f8b6063c72dd0d73ec0f]
link SpecifyProductController to ListLocationFromWarehouseService--><g id="link_SpecifyProductController_ListLocationFromWarehouseService"><path codeLine="120" d="M517.592,310.069 C449.446,328.834 379.063,349.22 313.5,370 C309.394,371.301 305.239,372.644 301.052,374.019 " fill="none" id="SpecifyProductController-to-ListLocationFromWarehouseService" style="stroke:#181818;stroke-width:1.0;stroke-dasharray:7.0,7.0;"/><polygon fill="#181818" points="296.124,375.649,305.9248,376.6207,300.8711,374.079,303.4128,369.0253,296.124,375.649" style="stroke:#181818;stroke-width:1.0;"/></g><!--MD5=[dd3e450385f39c35e7034bb618615aac]
link ListCategoryService to PersistenceContext--><g id="link_ListCategoryService_PersistenceContext"><path codeLine="122" d="M1468.76,485.699 C1462.96,487.587 1457.19,489.366 1451.5,491 C1288.83,537.709 1093.13,566.294 980.243,580.205 " fill="none" id="ListCategoryService-to-PersistenceContext" style="stroke:#181818;stroke-width:1.0;stroke-dasharray:7.0,7.0;"/><polygon fill="#181818" points="975.264,580.816,984.6839,583.6908,980.2268,580.2074,983.7102,575.7503,975.264,580.816" style="stroke:#181818;stroke-width:1.0;"/></g><!--MD5=[304859a844551eb8eaec886d633d21b6]
link ProductionProductService to PersistenceContext--><g id="link_ProductionProductService_PersistenceContext"><path codeLine="124" d="M884.376,491.158 C884.944,509.206 885.557,528.711 886.089,545.62 " fill="none" id="ProductionProductService-to-PersistenceContext" style="stroke:#181818;stroke-width:1.0;stroke-dasharray:7.0,7.0;"/><polygon fill="#181818" points="886.251,550.78,889.9661,541.6587,886.0938,545.7825,881.9701,541.9102,886.251,550.78" style="stroke:#181818;stroke-width:1.0;"/></g><!--MD5=[6e6cc1db7fe9b9eb2c3eecbd9de645db]
link ListCategoryService to CategoryMapper--><g id="link_ListCategoryService_CategoryMapper"><path codeLine="126" d="M1613.88,491.158 C1618.91,510.65 1624.37,531.843 1628.96,549.628 " fill="none" id="ListCategoryService-to-CategoryMapper" style="stroke:#181818;stroke-width:1.0;stroke-dasharray:7.0,7.0;"/><polygon fill="#181818" points="1630.23,554.549,1631.8565,544.8354,1628.9817,549.7073,1624.1098,546.8326,1630.23,554.549" style="stroke:#181818;stroke-width:1.0;"/></g><!--MD5=[26a6bae09e13953bff80493eb0bbfb54]
link CategoryMapper to CategoryDTO--><g id="link_CategoryMapper_CategoryDTO"><path codeLine="128" d="M1658.54,628.06 C1672.69,654.48 1691.82,690.206 1705.46,715.686 " fill="none" id="CategoryMapper-to-CategoryDTO" style="stroke:#181818;stroke-width:1.0;stroke-dasharray:7.0,7.0;"/><polygon fill="#181818" points="1707.95,720.32,1707.2342,710.4972,1705.5926,715.9106,1700.1792,714.269,1707.95,720.32" style="stroke:#181818;stroke-width:1.0;"/></g><!--MD5=[68bef1e6913e63ac99809b4edf675560]
link CategoryDTO to Category--><g id="link_CategoryDTO_Category"><path codeLine="130" d="M1723.05,776.761 C1723.28,818.859 1721.28,901.942 1704.5,970 C1699.91,988.628 1692.36,1008.204 1684.8,1025.2567 " fill="none" id="CategoryDTO-to-Category" style="stroke:#181818;stroke-width:1.0;stroke-dasharray:7.0,7.0;"/><polygon fill="#181818" points="1682.67,1029.9965,1690.0096,1023.4291,1684.7209,1025.4365,1682.7135,1020.1477,1682.67,1029.9965" style="stroke:#181818;stroke-width:1.0;"/></g><!--MD5=[66ab82250e5dc35647f58043389a81c8]
link RowMapper to RowDTO--><g id="link_RowMapper_RowDTO"><path codeLine="132" d="M147.141,628.06 C143.929,654.261 139.596,689.614 136.478,715.049 " fill="none" id="RowMapper-to-RowDTO" style="stroke:#181818;stroke-width:1.0;stroke-dasharray:7.0,7.0;"/><polygon fill="#181818" points="135.832,720.32,140.8977,711.8738,136.4406,715.3572,132.9572,710.9001,135.832,720.32" style="stroke:#181818;stroke-width:1.0;"/></g><!--MD5=[16798288859e40ba017521fd409b932c]
link RowDTO to Row--><g id="link_RowDTO_Row"><path codeLine="134" d="M134.835,776.612 C139.042,818.862 149.674,902.56 172.5,970 C181.044,995.244 194.871,1021.9761 206.259,1041.9482 " fill="none" id="RowDTO-to-Row" style="stroke:#181818;stroke-width:1.0;stroke-dasharray:7.0,7.0;"/><polygon fill="#181818" points="208.798,1046.3602,207.7766,1036.5644,206.3044,1042.0264,200.8425,1040.5542,208.798,1046.3602" style="stroke:#181818;stroke-width:1.0;"/></g><!--MD5=[66d343ce4e9d2d7d9e120f18517b654a]
link ListLocationFromWarehouseService to PersistenceContext--><g id="link_ListLocationFromWarehouseService_PersistenceContext"><path codeLine="136" d="M296.374,486.145 C302.133,487.861 307.857,489.488 313.5,491 C480.513,535.754 680.446,565.107 794.848,579.671 " fill="none" id="ListLocationFromWarehouseService-to-PersistenceContext" style="stroke:#181818;stroke-width:1.0;stroke-dasharray:7.0,7.0;"/><polygon fill="#181818" points="799.893,580.311,791.4686,575.2092,794.9328,579.6812,790.4608,583.1454,799.893,580.311" style="stroke:#181818;stroke-width:1.0;"/></g><!--MD5=[83a0e051eea52238bb14366132142e50]
link ListLocationFromWarehouseService to RowMapper--><g id="link_ListLocationFromWarehouseService_RowMapper"><path codeLine="138" d="M151.5,491.158 C151.5,510.484 151.5,531.48 151.5,549.171 " fill="none" id="ListLocationFromWarehouseService-to-RowMapper" style="stroke:#181818;stroke-width:1.0;stroke-dasharray:7.0,7.0;"/><polygon fill="#181818" points="151.5,554.549,155.5,545.549,151.5,549.549,147.5,545.549,151.5,554.549" style="stroke:#181818;stroke-width:1.0;"/></g><!--MD5=[754b775031405e096442b27febffa290]
link PersistenceContext to RepositoryFactory--><g id="link_PersistenceContext_RepositoryFactory"><path codeLine="143" d="M894.638,632.014 C897.644,648.657 901.212,668.405 904.539,686.821 " fill="none" id="PersistenceContext-to-RepositoryFactory" style="stroke:#181818;stroke-width:1.0;stroke-dasharray:7.0,7.0;"/><polygon fill="#181818" points="905.47,691.977,907.8068,682.4094,904.5814,687.0566,899.9341,683.8312,905.47,691.977" style="stroke:#181818;stroke-width:1.0;"/></g><!--MD5=[982d16d4d7400e6c46bfc612526ecb29]
link RepositoryFactory to CategoryRepository--><g id="link_RepositoryFactory_CategoryRepository"><path codeLine="145" d="M1025.07,766.963 C1135.23,785.907 1309.22,819.629 1455.5,865 C1461.66,866.912 1467.94,869.007 1474.25,871.223 " fill="none" id="RepositoryFactory-to-CategoryRepository" style="stroke:#181818;stroke-width:1.0;stroke-dasharray:7.0,7.0;"/><polygon fill="#181818" points="1479.07,872.941,1471.9442,866.1422,1474.3624,871.2562,1469.2485,873.6743,1479.07,872.941" style="stroke:#181818;stroke-width:1.0;"/></g><!--MD5=[a107a52b6e2b3fb29ad79d2f6a7df605]
link RepositoryFactory to ProductRepository--><g id="link_RepositoryFactory_ProductRepository"><path codeLine="146" d="M921.494,805.109 C923.375,822.564 925.455,841.857 927.347,859.413 " fill="none" id="RepositoryFactory-to-ProductRepository" style="stroke:#181818;stroke-width:1.0;stroke-dasharray:7.0,7.0;"/><polygon fill="#181818" points="927.928,864.802,930.9407,855.4252,927.3923,859.8308,922.9868,856.2824,927.928,864.802" style="stroke:#181818;stroke-width:1.0;"/></g><!--MD5=[294c4a84fe7e4270a83d2d8bb0a3e67b]
link RepositoryFactory to RowRepository--><g id="link_RepositoryFactory_RowRepository"><path codeLine="147" d="M805.953,796.362 C796.752,799.537 787.519,802.472 778.5,805 C618.934,849.722 566.419,808.869 410.5,865 C397.743,869.592 384.742,876.047 372.785,882.838 " fill="none" id="RepositoryFactory-to-RowRepository" style="stroke:#181818;stroke-width:1.0;stroke-dasharray:7.0,7.0;"/><polygon fill="#181818" points="368.43,885.353,378.2242,884.317,372.7601,882.8529,374.2241,877.3888,368.43,885.353" style="stroke:#181818;stroke-width:1.0;"/></g><!--MD5=[a0bcec347ff6096a7e3e9bddc58e9eb3]
link RowRepository to Row--><g id="link_RowRepository_Row"><path codeLine="149" d="M302.871,949.867 C286.125,976.626 262.159,1014.922 245.35,1041.7814 " fill="none" id="RowRepository-to-Row" style="stroke:#181818;stroke-width:1.0;stroke-dasharray:7.0,7.0;"/><polygon fill="#181818" points="242.507,1046.3237,250.6722,1040.8165,245.1595,1042.0853,243.8907,1036.5725,242.507,1046.3237" style="stroke:#181818;stroke-width:1.0;"/></g><!--MD5=[fb0b92275b6fb9ced4ecc1678c39a4eb]
link CategoryRepository to Category--><g id="link_CategoryRepository_Category"><path codeLine="151" d="M1603,962.089 C1613.18,981.818 1625.25,1005.199 1635.69,1025.4357 " fill="none" id="CategoryRepository-to-Category" style="stroke:#181818;stroke-width:1.0;stroke-dasharray:7.0,7.0;"/><polygon fill="#181818" points="1638.03,1029.9703,1637.4564,1020.1382,1635.7366,1025.5273,1630.3475,1023.8076,1638.03,1029.9703" style="stroke:#181818;stroke-width:1.0;"/></g><!--MD5=[68e4965bc339513f2ae30d33caf3e4dc]
link ProductRepository to Product--><g id="link_ProductRepository_Product"><path codeLine="153" d="M917.184,970.113 C910.716,990.571 903.389,1013.749 897.314,1032.9671 " fill="none" id="ProductRepository-to-Product" style="stroke:#181818;stroke-width:1.0;stroke-dasharray:7.0,7.0;"/><polygon fill="#181818" points="895.797,1037.7635,902.3241,1030.3881,897.3044,1032.9961,894.6963,1027.9763,895.797,1037.7635" style="stroke:#181818;stroke-width:1.0;"/></g><!--MD5=[88a402f7d53770c305782e0560e24285]
link ProductionProductService to ProductFactory--><g id="link_ProductionProductService_ProductFactory"><path codeLine="156" d="M827.393,491.175 C811.828,509.602 795.584,530.467 782.5,551 C754.003,595.721 729.027,650.679 712.316,691.091 " fill="none" id="ProductionProductService-to-ProductFactory" style="stroke:#181818;stroke-width:1.0;stroke-dasharray:7.0,7.0;"/><polygon fill="#181818" points="710.32,695.946,717.4421,689.1434,712.2214,691.3217,710.0431,686.101,710.32,695.946" style="stroke:#181818;stroke-width:1.0;"/></g><!--MD5=[639e504b2d0eeacd5c63f081c4e36d12]
link ProductFactory to Product--><g id="link_ProductFactory_Product"><path codeLine="158" d="M619.198,757.016 C503.096,770.888 281.399,804.741 234.5,865 C205.838,901.827 204.207,934.502 234.5,970 C260.306,1000.24 320.102,1021.6876 393.504,1036.8884 " fill="none" id="ProductFactory-to-Product" style="stroke:#181818;stroke-width:1.0;stroke-dasharray:7.0,7.0;"/><polygon fill="#181818" points="398.813,1037.9721,390.7948,1032.2529,393.914,1036.9721,389.1948,1040.0913,398.813,1037.9721" style="stroke:#181818;stroke-width:1.0;"/></g><!--MD5=[3b658b9a4e1042f6b80d99a6f859a821]
@startuml
class ListLocationFromWarehouseService<<Service>>{
   -PersistenceContext persistence
   -RowMapper map
   +listRow()
   +getRealRow(rowDto)

}

class RowRepository{
    +getAllRow()
}

class SpecifyProductUI<<Presentation>>{

}

class CategoryDTO<<DTO>>{
  
}

class RowDTO<<DTO>>{
  
}
class Row<<Domain>>{

}


class RowMapper<<DTO>>{
  +toDTO(rowList)

}


class CategoryMapper<<DTO>>{
  +toDTO(categoryList)

}

class SpecifyProductController<<Application>>{
  -ListCategoryService categoryService
  -ProductService productService 
  -ListLocationFromWarehouseService locationService
  +specifyProduct(photo, internalCode,shortDescription,extendedDescription,brand,reference,productionCode,technicalDescription,category,price,name)
  +getProductCategory()
  +showLocation()
  +getCategoryByDTO(categoryDto)
  +getLocation(rowDTO)
  
}

class ProductionProductService<<Service>>{
  -PersistenceContext persistence
  -ProductFactory factory
  +buildProduct(photo, internalCode,shortDescription,extendedDescription,brand,reference,productionCode,technicalDescription,category,price,name)
  +create()
}

class CategoryRepository<<Persistence>>{
   +activeProductCategories()
   +create()
}

class ListCategoryService<<Service>>{
   -persistenceContext persistence
   -CategoryMapper
   +productCategories()
   +create()
   
  
}

class ProductRepository<<Persistence>>{
   +create()
   +buildPorduct(photo, internalCode,shortDescription,extendedDescription,brand,reference,prodctionCode,technicalDescription,category)
   +save(product)
}

class Product<<Domain>>{
   +create(photo, internalCode,shortDescription,extendedDescription,brand,reference,productionCode,technicalDescription,category,price,name)

}





class Category<<Domain>>{
  -category
  -superCategory
}

class ProductFactory<<Domain>>{
  +create()
  +buildProduct()
  +set()
 
}

class RepositoryFactory{
  -ProductRepository repoP
  -CategoryRepository repoC
  -RowRepository repoL
  +create()

}

class PersistenceContext{
   +create()
   +repositories()

}

SpecifyProductUI ..> SpecifyProductController

SpecifyProductController ..> ProductionProductService

SpecifyProductController ..> ListCategoryService

SpecifyProductController ..> ListLocationFromWarehouseService

ListCategoryService ..> PersistenceContext

ProductionProductService ..> PersistenceContext

ListCategoryService ..> CategoryMapper

CategoryMapper ..> CategoryDTO

CategoryDTO ..> Category

RowMapper ..> RowDTO

RowDTO ..> Row

ListLocationFromWarehouseService ..> PersistenceContext

ListLocationFromWarehouseService ..> RowMapper




PersistenceContext ..> RepositoryFactory

RepositoryFactory ..> CategoryRepository
RepositoryFactory ..> ProductRepository
RepositoryFactory ..> RowRepository

RowRepository ..> Row

CategoryRepository ..> Category

ProductRepository ..> Product


ProductionProductService ..> ProductFactory

ProductFactory ..> Product
@enduml

PlantUML version 1.2022.4beta2(Unknown compile time)
(GPL source distribution)
Java Runtime: Java(TM) SE Runtime Environment
JVM: Java HotSpot(TM) 64-Bit Server VM
Default Encoding: UTF-8
Language: en
Country: US
--></g></svg>